M48
;Layer_Color=9474304
;FILE_FORMAT=2:5
INCH,LZ
;TYPE=PLATED
T1F00S00C0.00787
T2F00S00C0.01200
T5F00S00C0.03543
T6F00S00C0.03937
T7F00S00C0.04016
T8F00S00C0.04055
T9F00S00C0.04200
;TYPE=NON_PLATED
T10F00S00C0.04200
T11F00S00C0.04201
T12F00S00C0.13780
%
T01
X0074Y0300619
X0078331
Y030495
X0074
X0374861
X0379191
Y0300619
X0374861
T02
X0051Y0064
X00565Y00642
X00905Y00636
X009494
X009938
X010382
X010826
X01127
X01515Y00537
X01573Y00538
X0163Y00534
X01682
X01662Y00497
X01603Y00498
X01544Y00496
X01648Y00368
X0189Y004
X0192
X0195
X0188Y0048
Y0062
X0247Y0058
Y0054
Y005
Y0046
X0251
Y005
Y0054
Y0058
X02757Y00106
X0317Y001
X036Y0025
Y0028
Y0031
X03582Y00449
X03796Y00431
X03847
X04014Y0039
X03938Y00293
X0394Y00255
X03902Y00272
X04014Y0059625
X03768Y00612
X03336Y00618
X03247Y00628
X03017Y00595
X02989Y00647
X03166Y00732
X03339Y00742
X0337951Y0099149
X03393Y0113
X0346259Y0136641
X03066Y0127887
X0359Y00947
X03583Y00803
X04014Y008025
Y0100875
Y01215
X03792Y01068
X027Y01205
X02674Y01351
X02609Y01409
X02558Y01329
X0257157Y0112797
X02614Y00988
X0233Y0099
X02321Y01074
X02319Y01151
X02306Y01294
X02342Y01349
X02514Y01585
X02558Y01593
X02639Y01789
X02755Y01755
X02829Y01779
X0278Y0183
X02511Y0192
X02407Y01808
X02262Y01754
X02194Y02047
X02163Y02125
X02152Y02162
X02067Y02187
X0204Y0209
X01917Y02096
X01883Y02176
X01771Y02115
X01711Y0208
X01667Y02055
X01468Y02086
X01365Y01909
X01535Y01872
X01579Y01873
X01624Y01867
X01602Y01838
X01556Y01839
X0151
X01534Y01806
X01579Y01804
X01628Y01807
X01381Y01644
X01377Y01402
X019Y0071
X0193
X01958
X0234Y0081
Y0086
X0232Y009
X0243Y0076
X0246Y0066
X02412Y02177
X0233443Y02136
X02303Y02097
X0112548Y0137048
X00897Y01354
X00634Y01338
X0072Y00814
X0082Y0078
X008585Y0071648
X009052Y00677
X009496
X00994
X010384
X010828
X011272
X009215Y0081448
X0096239Y026995
X0083Y027635
X0071139Y02768
Y027305
Y026945
X00759Y02639
X00598Y02679
X0056939Y026965
X0056839Y027675
X00592Y02755
X0065169Y028715
X0064Y02912
X0067Y0293
X0068839Y028425
X0076Y0288
X0078Y0315
X00802Y03542
X0085Y03507
X00856Y03703
X00802Y03753
X00632Y037
X00649Y03523
X0116Y02885
X01207Y02895
X01181Y02664
X01404Y02741
X01504Y028325
X0161Y03013
X01518Y0315
X01367Y03201
X01341Y03017
X01816Y03072
X0185Y0294
X01913Y0296
X01979Y0293
X0198Y0308
X0206Y031
X02125Y03138
X0210708Y0324292
X02125Y03283
X0218Y0307
X02276Y03038
X02248Y03005
X0221Y0296
X0216Y0294
X02106Y02989
X02123Y02766
X02137Y02652
X02114Y0261
X02129Y02579
X02106Y02555
X02112Y02457
X0223Y02468
X02351Y02464
X0259Y0246355
X0256231Y0240969
X02627Y02413
X02676Y023
X02562Y02264
X02493Y02249
X02448Y02284
X02405Y02217
X0226203Y02269
X02112Y02315
X0199025Y0235637
X019Y02341
X01842Y024165
X01799Y02525
X01745Y02561
X01734Y02491
X0161673Y0257519
X01452Y02571
X014225Y02541
X01479Y02475
X0152434Y024165
X01415Y0241
X01328Y02386
X01296Y02477
X01291Y02295
X01371Y02213
X014848Y0230042
X01943Y02513
X0197121Y0254331
X01951Y02623
X02229Y02599
X02272Y02669
X02319Y027
X02324Y02746
X02369Y02736
X02387Y02913
X024335Y02907
X02531Y02864
X0263Y02861
X02632Y02801
Y02766
X02626Y02729
X02661Y02697
X0252385Y03035
X0237Y03082
X02319Y03112
X02416Y03323
X025Y03273
X02506Y0358
X0279064Y0359436
X02787Y03743
X02817Y03422
X0211Y03575
X01925Y03534
X01689Y03374
X01521Y03614
X01827Y02824
X02871Y02709
X02921Y0262
X0291021Y0257921
X02905Y02529
X0288Y02502
X0291Y02385
X02943Y02376
X02929Y02286
X02958Y02249
X03015Y02603
X03136Y02594
X03198Y02541
X03226Y0269267
X03209Y02711
X03115Y02716
X03114Y02841
X0311Y02887
X03012Y03043
X02937Y030309
X03048Y03299
X03225Y03436
X03211Y03639
X0328Y03654
X03343Y03658
X02996Y03755
X03912Y03716
X03873Y03545
X03907Y03487
X03931Y03178
X0379Y0316
X03582Y03234
X0358Y0296
X0366
X03673Y0292
X03685Y02874
X03792Y0284629
X0385Y02903
X03937Y02757
X03667Y02749
X03668Y02714
X03709Y02676
X03524Y02669
X0354271Y02711
X0353671Y02787
X03479Y02777
X034035Y0278
X03385Y02742
X03443Y0272
X03336Y03039
X03339Y03109
X03379Y02225
X0335Y03794
X03282
X03267Y03849
X0321Y03803
X03173Y03801
X03161Y03912
X03127Y04
X03035Y04021
X03003Y03996
X02887Y03978
X02862Y03908
X02863Y038577
X02985Y0412
X03087Y04127
X03298Y04294
X03674Y04301
X03675Y04073
X03678Y0393
X03911Y0389
X03909Y03804
X03911Y04004
X03912Y04113
X03913Y04181
Y04234
X03106Y04545
X02909Y04746
X02928Y05037
X03251Y04969
X0261Y05065
X02589Y04775
X02726Y04587
X02763Y04318
X02753Y0397037
X02798Y03975
X02648Y04
X0251Y04081
X02036Y04074
X02104Y03833
X01762Y03786
X01658Y03805
Y03887
X01571
Y03805
X01487Y03803
X01486Y03888
X01487Y03989
X0157Y03993
X01657Y03991
X01579Y04073
X01484Y04586
X01893
X01711Y04784
Y0503
X01456Y04994
X01982Y05059
X02284Y05073
X02129Y04772
X02316Y04588
X02756Y03837
X00855Y03869
X00799Y03903
X00619Y03904
Y04115
X00799Y04114
X00856Y04064
Y04263
X01132Y04283
X01138Y04496
T05
X0328Y0183
Y0193
Y0203
Y0213
X01245Y0216
Y0206
Y0196
Y0186
T06
X00673Y00138
X00773
X00873
X00973
X01073
X01173
X01273
Y00238
X01173
X01073
X00973
X00873
X00773
X00673
X01373
X01473
X01573
X01673
X01773
X01873
X01973
X02073
X02173
X02273
X02373
X02473
X02573
Y00138
X02473
X02373
X02273
X02173
X02073
X01973
X01873
X01773
X01673
X01573
X01473
X01373
X013395Y010861
Y011861
X015395
Y010861
X016395
Y011861
X017395
Y010861
X018395
Y011861
X019395
Y010861
Y01879
X020395
X021395
X022395
X023395
X024395
X012395Y011861
X011395
X010395
X009395
X008395
X007395
X006395
Y010861
X007395
X008395
X009395
X010395
X011395
X012395
T07
X02198Y04197
X02298
X02398
T08
X02098Y04197
T09
X03263Y00805
Y00905
Y01005
Y01132
Y01232
Y01332
X03586Y01322
X03686
X03786
X03886
Y01222
X03786
X03686
X03586
X02839Y01217
Y01317
Y01417
Y01517
X0282Y0079811
Y0068
X0169Y0069189
Y0081
X01245Y0139
Y0149
Y0159
Y0169
X00525Y00894
Y00794
X0125Y0327
Y0337
X0122Y0376
X0108
X03028Y02514
Y02414
Y02314
X03281Y02282
Y02382
Y02482
Y02582
X0327148Y0473266
X0336545Y0476686
X0345942Y0480107
X0355339Y0483527
X0379189Y0455611
X0391
Y04438
X0379189
X02396Y04389
X02296
X02196
X02096
X0120578Y0471966
X0111181Y0475386
X0101784Y0478807
X0092387Y0482227
X0073511Y0454511
Y04427
X00617
Y0454511
X0108Y0396
Y0386
X0122
Y0396
T10
X0293811Y0083511
X0270189
X0180811Y00847
X0157189
T11
X0367378Y0459548
X0402811
X0085322Y0458448
X0049889
T12
X02947Y00215
X01593Y01416
X03075Y04302
X01392
M30
