G04*
G04 #@! TF.GenerationSoftware,Altium Limited,Altium Designer,20.1.12 (249)*
G04*
G04 Layer_Color=8421504*
%FSLAX25Y25*%
%MOIN*%
G70*
G04*
G04 #@! TF.SameCoordinates,8DF9F49D-D30B-48C0-AB84-75DE52E997E5*
G04*
G04*
G04 #@! TF.FilePolarity,Positive*
G04*
G01*
G75*
%ADD22R,0.01772X0.02165*%
%ADD23R,0.02165X0.01772*%
%ADD24R,0.02559X0.02165*%
%ADD25R,0.03937X0.04331*%
%ADD26R,0.03543X0.02756*%
%ADD27R,0.03937X0.03543*%
%ADD28R,0.03543X0.03937*%
%ADD29R,0.02756X0.03543*%
%ADD30R,0.04331X0.02953*%
%ADD31R,0.06299X0.06299*%
%ADD32R,0.02992X0.04331*%
%ADD33R,0.03347X0.01575*%
%ADD34R,0.09449X0.02992*%
%ADD35R,0.02500X0.10000*%
%ADD36R,0.06299X0.05118*%
%ADD37R,0.05118X0.06299*%
%ADD38O,0.03150X0.00787*%
%ADD39O,0.00787X0.03150*%
%ADD40R,0.10630X0.10630*%
%ADD41R,0.02165X0.02559*%
%ADD42R,0.02047X0.02047*%
%ADD43O,0.01181X0.07087*%
%ADD44O,0.07087X0.01181*%
%ADD45R,0.02047X0.02047*%
%ADD46R,0.04331X0.03937*%
%ADD47R,0.05315X0.07480*%
%ADD48R,0.05512X0.04134*%
%ADD49R,0.04331X0.08465*%
%ADD50R,0.04331X0.08465*%
%ADD51R,0.13780X0.08465*%
%ADD52R,0.01575X0.03347*%
%ADD53R,0.07480X0.05315*%
%ADD54R,0.04000X0.02700*%
%ADD55R,0.00984X0.03937*%
%ADD56R,0.03445X0.00984*%
%ADD57R,0.08268X0.11221*%
D22*
X166172Y260100D02*
D03*
X162628D02*
D03*
X59972Y299800D02*
D03*
X56428D02*
D03*
X59972Y308500D02*
D03*
X56428D02*
D03*
X93872Y290650D02*
D03*
X90328D02*
D03*
Y299310D02*
D03*
X93872D02*
D03*
X90328Y294980D02*
D03*
X93872D02*
D03*
X90328Y312300D02*
D03*
X93872D02*
D03*
X90328Y303640D02*
D03*
X93872D02*
D03*
X59900Y304200D02*
D03*
X56357D02*
D03*
X356357Y308600D02*
D03*
X359900D02*
D03*
X356357Y303200D02*
D03*
X359900D02*
D03*
X356357Y299300D02*
D03*
X359900D02*
D03*
X356357Y312600D02*
D03*
X359900D02*
D03*
X392228Y289800D02*
D03*
X395772D02*
D03*
X392228Y299100D02*
D03*
X395772D02*
D03*
X392228Y294500D02*
D03*
X395772D02*
D03*
Y303540D02*
D03*
X392228D02*
D03*
Y311700D02*
D03*
X395772D02*
D03*
X392228Y307600D02*
D03*
X395772D02*
D03*
X90328Y307970D02*
D03*
X93872D02*
D03*
X59972Y312700D02*
D03*
X56428D02*
D03*
X107528Y127000D02*
D03*
X111072D02*
D03*
D23*
X165700Y382928D02*
D03*
Y386472D02*
D03*
X157200Y382928D02*
D03*
Y386472D02*
D03*
X148700Y382928D02*
D03*
Y386472D02*
D03*
X218000Y300228D02*
D03*
Y303772D02*
D03*
X236000Y303772D02*
D03*
Y300228D02*
D03*
X231000Y303772D02*
D03*
Y300228D02*
D03*
X51000Y70772D02*
D03*
Y67228D02*
D03*
X65436Y317306D02*
D03*
Y320850D02*
D03*
X96339Y273607D02*
D03*
Y277150D02*
D03*
X370625Y321072D02*
D03*
Y317528D02*
D03*
X383200Y321072D02*
D03*
Y317528D02*
D03*
X374900Y321072D02*
D03*
Y317528D02*
D03*
X389500Y275628D02*
D03*
Y279172D02*
D03*
X366400Y321072D02*
D03*
Y317528D02*
D03*
X388200Y321072D02*
D03*
Y317528D02*
D03*
X69900Y317306D02*
D03*
Y320850D02*
D03*
X81700Y317306D02*
D03*
Y320850D02*
D03*
X74036Y317306D02*
D03*
Y320850D02*
D03*
X85739Y317306D02*
D03*
Y320850D02*
D03*
X160000Y250772D02*
D03*
Y247228D02*
D03*
X56300Y67228D02*
D03*
Y70772D02*
D03*
D24*
X165800Y395300D02*
D03*
Y391363D02*
D03*
X157000Y395300D02*
D03*
Y391363D02*
D03*
X148600Y395300D02*
D03*
Y391363D02*
D03*
X91839Y273017D02*
D03*
Y276954D02*
D03*
X101139Y273017D02*
D03*
Y276954D02*
D03*
X86739Y273017D02*
D03*
Y276954D02*
D03*
X379200Y275038D02*
D03*
Y278975D02*
D03*
X384600Y275038D02*
D03*
Y278975D02*
D03*
X298700Y404969D02*
D03*
Y408906D02*
D03*
X322700Y388968D02*
D03*
Y385032D02*
D03*
X279700Y389000D02*
D03*
Y392937D02*
D03*
X275400Y393168D02*
D03*
Y389231D02*
D03*
D25*
X255407Y184700D02*
D03*
X262100D02*
D03*
X246000Y99000D02*
D03*
X239307D02*
D03*
X150507Y36900D02*
D03*
X157200D02*
D03*
D26*
X270100Y275356D02*
D03*
Y269844D02*
D03*
X198000Y298244D02*
D03*
Y303756D02*
D03*
X328100Y370044D02*
D03*
Y375556D02*
D03*
X256300Y235856D02*
D03*
Y230344D02*
D03*
X263600Y235956D02*
D03*
Y230444D02*
D03*
X209400Y227656D02*
D03*
Y222144D02*
D03*
X250000Y346244D02*
D03*
Y351756D02*
D03*
X250000Y337512D02*
D03*
Y332000D02*
D03*
X160000Y236756D02*
D03*
Y231244D02*
D03*
X308700Y403244D02*
D03*
Y408756D02*
D03*
X335000Y375556D02*
D03*
Y370044D02*
D03*
X358500Y84744D02*
D03*
Y90256D02*
D03*
X61450Y85104D02*
D03*
Y79593D02*
D03*
X67550D02*
D03*
Y85104D02*
D03*
X316300Y282456D02*
D03*
Y276944D02*
D03*
X268000Y285756D02*
D03*
Y280244D02*
D03*
D27*
X206000Y305150D02*
D03*
Y298850D02*
D03*
X216000Y227150D02*
D03*
Y220850D02*
D03*
X76339Y275550D02*
D03*
Y269251D02*
D03*
X371100Y271987D02*
D03*
Y278286D02*
D03*
X249300Y229100D02*
D03*
Y235399D02*
D03*
X202200Y227150D02*
D03*
Y220850D02*
D03*
X321000Y368863D02*
D03*
Y375162D02*
D03*
X341000Y127850D02*
D03*
Y134150D02*
D03*
Y83299D02*
D03*
Y77000D02*
D03*
X334000Y49000D02*
D03*
Y55299D02*
D03*
X258000Y279701D02*
D03*
Y286000D02*
D03*
X195200Y220850D02*
D03*
Y227150D02*
D03*
D28*
X184850Y289000D02*
D03*
X191150D02*
D03*
X49850Y36000D02*
D03*
X56150D02*
D03*
X183350Y252200D02*
D03*
X189650D02*
D03*
X261550Y192000D02*
D03*
X255250D02*
D03*
X347850Y27000D02*
D03*
X354150D02*
D03*
X248701Y74000D02*
D03*
X255000D02*
D03*
X228774Y82146D02*
D03*
X222474D02*
D03*
X142550Y36900D02*
D03*
X136250D02*
D03*
D29*
X191656Y282500D02*
D03*
X186144D02*
D03*
X55756Y29000D02*
D03*
X50244D02*
D03*
X76594Y71648D02*
D03*
X82106D02*
D03*
X266756Y112000D02*
D03*
X261244D02*
D03*
X61084Y269750D02*
D03*
X66595D02*
D03*
X61084Y276150D02*
D03*
X66595D02*
D03*
X357444Y271100D02*
D03*
X362956D02*
D03*
X357444Y278700D02*
D03*
X362956D02*
D03*
X189256Y245700D02*
D03*
X183744D02*
D03*
X105944Y131600D02*
D03*
X111456D02*
D03*
X372756Y38000D02*
D03*
X367244D02*
D03*
X354756Y35000D02*
D03*
X349244D02*
D03*
X255756Y66000D02*
D03*
X250244D02*
D03*
X221719Y89146D02*
D03*
X227230D02*
D03*
X208244Y407000D02*
D03*
X213756D02*
D03*
X245756Y407879D02*
D03*
X240244D02*
D03*
X222244D02*
D03*
X227756D02*
D03*
D30*
X79158Y343835D02*
D03*
Y348165D02*
D03*
X68843Y343835D02*
D03*
Y348165D02*
D03*
Y423165D02*
D03*
Y418835D02*
D03*
X79158Y423165D02*
D03*
Y418835D02*
D03*
Y400085D02*
D03*
Y404415D02*
D03*
X68843Y400085D02*
D03*
Y404415D02*
D03*
X373843Y423165D02*
D03*
Y418835D02*
D03*
X384157Y423165D02*
D03*
Y418835D02*
D03*
X373843Y404415D02*
D03*
Y400085D02*
D03*
X384157Y404415D02*
D03*
Y400085D02*
D03*
X373843Y385665D02*
D03*
Y381335D02*
D03*
X384157Y385665D02*
D03*
Y381335D02*
D03*
X373843Y348165D02*
D03*
Y343835D02*
D03*
X384157Y348165D02*
D03*
Y343835D02*
D03*
X373843Y366915D02*
D03*
Y362585D02*
D03*
X384157Y366915D02*
D03*
Y362585D02*
D03*
X68843Y385665D02*
D03*
Y381335D02*
D03*
X79158Y385665D02*
D03*
Y381335D02*
D03*
X68843Y366915D02*
D03*
Y362585D02*
D03*
X79158Y366915D02*
D03*
Y362585D02*
D03*
D31*
X288200Y354351D02*
D03*
X311948D02*
D03*
X288200Y366300D02*
D03*
X311948D02*
D03*
X164348Y277000D02*
D03*
X148600D02*
D03*
X164348Y267551D02*
D03*
X148600D02*
D03*
X125400Y295300D02*
D03*
X149148D02*
D03*
X125400Y307249D02*
D03*
X149148D02*
D03*
D32*
X358500Y49795D02*
D03*
X363500D02*
D03*
X368500D02*
D03*
X373500D02*
D03*
X378500D02*
D03*
X383500D02*
D03*
X388500D02*
D03*
X393500D02*
D03*
X358500Y74205D02*
D03*
X363500D02*
D03*
X368500D02*
D03*
X373500D02*
D03*
X378500D02*
D03*
X383500D02*
D03*
X388500D02*
D03*
X393500D02*
D03*
D33*
X193571Y50559D02*
D03*
Y48000D02*
D03*
Y45441D02*
D03*
X202429D02*
D03*
Y48000D02*
D03*
Y50559D02*
D03*
X193571Y64559D02*
D03*
Y62000D02*
D03*
Y59441D02*
D03*
X202429D02*
D03*
Y62000D02*
D03*
Y64559D02*
D03*
D34*
X301877Y293800D02*
D03*
Y298800D02*
D03*
Y288800D02*
D03*
Y283800D02*
D03*
Y278800D02*
D03*
X286523Y298800D02*
D03*
Y293800D02*
D03*
Y288800D02*
D03*
Y283800D02*
D03*
Y278800D02*
D03*
D35*
X251100Y122400D02*
D03*
X256100D02*
D03*
X261100D02*
D03*
X266100D02*
D03*
Y151400D02*
D03*
X261100D02*
D03*
X256100D02*
D03*
X251100D02*
D03*
D36*
X123052Y230042D02*
D03*
Y247758D02*
D03*
X154548Y230042D02*
D03*
Y247758D02*
D03*
D37*
X235958Y326552D02*
D03*
X218242D02*
D03*
X235958Y358048D02*
D03*
X218242D02*
D03*
D38*
X84039Y297863D02*
D03*
Y299832D02*
D03*
Y301800D02*
D03*
Y303768D02*
D03*
Y305737D02*
D03*
Y307705D02*
D03*
X68291D02*
D03*
Y305737D02*
D03*
Y303768D02*
D03*
Y301800D02*
D03*
Y299832D02*
D03*
Y297863D02*
D03*
X369152D02*
D03*
Y299832D02*
D03*
Y301800D02*
D03*
Y303768D02*
D03*
Y305737D02*
D03*
Y307705D02*
D03*
X384900D02*
D03*
Y305737D02*
D03*
Y303768D02*
D03*
Y301800D02*
D03*
Y299832D02*
D03*
Y297863D02*
D03*
D39*
X81087Y310658D02*
D03*
X79118D02*
D03*
X77150D02*
D03*
X75181D02*
D03*
X73213D02*
D03*
X71244D02*
D03*
Y294910D02*
D03*
X73213D02*
D03*
X75181D02*
D03*
X77150D02*
D03*
X79118D02*
D03*
X81087D02*
D03*
X381947D02*
D03*
X379979D02*
D03*
X378010D02*
D03*
X376042D02*
D03*
X374073D02*
D03*
X372105D02*
D03*
Y310658D02*
D03*
X374073D02*
D03*
X376042D02*
D03*
X378010D02*
D03*
X379979D02*
D03*
X381947D02*
D03*
D40*
X76165Y302784D02*
D03*
X377026D02*
D03*
D41*
X55839Y282450D02*
D03*
X59776D02*
D03*
X55839Y287150D02*
D03*
X59776D02*
D03*
X358832Y286100D02*
D03*
X362769D02*
D03*
X358738Y291900D02*
D03*
X362675D02*
D03*
X287469Y374100D02*
D03*
X283531D02*
D03*
X282937Y384400D02*
D03*
X279000D02*
D03*
X254031Y99000D02*
D03*
X257968D02*
D03*
D42*
X241875Y228400D02*
D03*
X238725D02*
D03*
X258775Y272800D02*
D03*
X255625D02*
D03*
X150175Y260400D02*
D03*
X147025D02*
D03*
X157575Y283400D02*
D03*
X154425D02*
D03*
D43*
X210336Y282850D02*
D03*
X212305D02*
D03*
X214273D02*
D03*
X216242D02*
D03*
X218210D02*
D03*
X220179D02*
D03*
X222147D02*
D03*
X224116D02*
D03*
X226084D02*
D03*
X228053D02*
D03*
X230021D02*
D03*
X231990D02*
D03*
X233958D02*
D03*
X235927D02*
D03*
X237895D02*
D03*
X239864D02*
D03*
Y239150D02*
D03*
X237895D02*
D03*
X235927D02*
D03*
X233958D02*
D03*
X231990D02*
D03*
X230021D02*
D03*
X228053D02*
D03*
X226084D02*
D03*
X224116D02*
D03*
X222147D02*
D03*
X220179D02*
D03*
X218210D02*
D03*
X216242D02*
D03*
X214273D02*
D03*
X212305D02*
D03*
X210336D02*
D03*
D44*
X246950Y275764D02*
D03*
Y273795D02*
D03*
Y271827D02*
D03*
Y269858D02*
D03*
Y267890D02*
D03*
Y265921D02*
D03*
Y263953D02*
D03*
Y261984D02*
D03*
Y260016D02*
D03*
Y258047D02*
D03*
Y256079D02*
D03*
Y254110D02*
D03*
Y252142D02*
D03*
Y250173D02*
D03*
Y248205D02*
D03*
Y246236D02*
D03*
X203250D02*
D03*
Y248205D02*
D03*
Y250173D02*
D03*
Y252142D02*
D03*
Y254110D02*
D03*
Y256079D02*
D03*
Y258047D02*
D03*
Y260016D02*
D03*
Y261984D02*
D03*
Y263953D02*
D03*
Y265921D02*
D03*
Y267890D02*
D03*
Y269858D02*
D03*
Y271827D02*
D03*
Y273795D02*
D03*
Y275764D02*
D03*
D45*
X278200Y363725D02*
D03*
Y366875D02*
D03*
Y355875D02*
D03*
Y352725D02*
D03*
X161000Y297575D02*
D03*
Y294425D02*
D03*
Y306000D02*
D03*
Y309150D02*
D03*
D46*
X325000Y49150D02*
D03*
Y55843D02*
D03*
X341000Y119693D02*
D03*
Y113000D02*
D03*
Y93307D02*
D03*
Y100000D02*
D03*
D47*
X253299Y85000D02*
D03*
X240701D02*
D03*
D48*
X212000Y60260D02*
D03*
Y67740D02*
D03*
D49*
X239918Y69314D02*
D03*
X221808D02*
D03*
D50*
X230863D02*
D03*
D51*
X230863Y44905D02*
D03*
D52*
X60559Y43571D02*
D03*
X58000D02*
D03*
X55441D02*
D03*
Y52429D02*
D03*
X58000D02*
D03*
X60559D02*
D03*
D53*
X103250Y87748D02*
D03*
Y75150D02*
D03*
X116350Y87748D02*
D03*
Y75150D02*
D03*
X71900Y43401D02*
D03*
Y55999D02*
D03*
X85400Y43301D02*
D03*
Y55899D02*
D03*
X98600Y43301D02*
D03*
Y55899D02*
D03*
X111500Y43201D02*
D03*
Y55799D02*
D03*
D54*
X76550Y85248D02*
D03*
Y81448D02*
D03*
X86750Y85248D02*
D03*
Y81448D02*
D03*
Y77748D02*
D03*
X76550D02*
D03*
D55*
X292758Y379898D02*
D03*
X294726Y379900D02*
D03*
X296694D02*
D03*
X298663D02*
D03*
X300631D02*
D03*
X302600D02*
D03*
X304569D02*
D03*
X306537D02*
D03*
X308506D02*
D03*
X310474D02*
D03*
X292758Y394174D02*
D03*
X294726D02*
D03*
X296694D02*
D03*
X298663D02*
D03*
X300631D02*
D03*
X302600D02*
D03*
X304569D02*
D03*
X306537D02*
D03*
X308506D02*
D03*
X310474D02*
D03*
D56*
X291478Y384083D02*
D03*
Y386136D02*
D03*
Y388020D02*
D03*
Y389989D02*
D03*
X311754Y386052D02*
D03*
Y388020D02*
D03*
Y389989D02*
D03*
Y384083D02*
D03*
D57*
X136000Y83169D02*
D03*
Y66831D02*
D03*
M02*
