G04*
G04 #@! TF.GenerationSoftware,Altium Limited,Altium Designer,20.1.12 (249)*
G04*
G04 Layer_Color=255*
%FSLAX25Y25*%
%MOIN*%
G70*
G04*
G04 #@! TF.SameCoordinates,8DF9F49D-D30B-48C0-AB84-75DE52E997E5*
G04*
G04*
G04 #@! TF.FilePolarity,Positive*
G04*
G01*
G75*
%ADD100C,0.07000*%
%ADD105R,0.07000X0.07000*%
%ADD106C,0.01968*%
%ADD124R,0.05906X0.05906*%
%ADD125C,0.05906*%
%ADD126R,0.06200X0.06200*%
%ADD127C,0.06200*%
%ADD128O,0.03543X0.06102*%
%ADD129O,0.04921X0.03740*%
%ADD130R,0.06200X0.06200*%
%ADD131C,0.23622*%
%ADD132C,0.06299*%
%ADD133R,0.06299X0.06299*%
%ADD134P,0.08768X4X245.0*%
%ADD135P,0.08768X4X205.0*%
G04:AMPARAMS|DCode=136|XSize=66.93mil|YSize=66.93mil|CornerRadius=33.47mil|HoleSize=0mil|Usage=FLASHONLY|Rotation=90.000|XOffset=0mil|YOffset=0mil|HoleType=Round|Shape=RoundedRectangle|*
%AMROUNDEDRECTD136*
21,1,0.06693,0.00000,0,0,90.0*
21,1,0.00000,0.06693,0,0,90.0*
1,1,0.06693,0.00000,0.00000*
1,1,0.06693,0.00000,0.00000*
1,1,0.06693,0.00000,0.00000*
1,1,0.06693,0.00000,0.00000*
%
%ADD136ROUNDEDRECTD136*%
%ADD137R,0.06693X0.06693*%
%ADD141R,0.06693X0.05906*%
%ADD142R,0.01575X0.05315*%
D100*
X169000Y69189D02*
D03*
Y81000D02*
D03*
X282000Y68000D02*
D03*
Y79811D02*
D03*
X391000Y455611D02*
D03*
X379189Y443800D02*
D03*
Y455611D02*
D03*
X73511Y454511D02*
D03*
X61700Y442700D02*
D03*
Y454511D02*
D03*
D105*
X391000Y443800D02*
D03*
X73511Y442700D02*
D03*
D106*
X367378Y459548D02*
D03*
X402811D02*
D03*
X49889Y458448D02*
D03*
X85322D02*
D03*
D124*
X124500Y186000D02*
D03*
X328000Y183000D02*
D03*
D125*
X124500Y196000D02*
D03*
Y206000D02*
D03*
Y216000D02*
D03*
X328000Y213000D02*
D03*
Y203000D02*
D03*
Y193000D02*
D03*
D126*
X302800Y231400D02*
D03*
X283900Y121700D02*
D03*
X108000Y396000D02*
D03*
X122000D02*
D03*
X125000Y327000D02*
D03*
X52500Y79400D02*
D03*
X326300Y133200D02*
D03*
Y80500D02*
D03*
X328100Y258200D02*
D03*
X124500Y139000D02*
D03*
D127*
X302800Y241400D02*
D03*
Y251400D02*
D03*
X219600Y438900D02*
D03*
X229600D02*
D03*
X239600D02*
D03*
X283900Y131700D02*
D03*
Y141700D02*
D03*
Y151700D02*
D03*
X108000Y376000D02*
D03*
Y386000D02*
D03*
X122000Y376000D02*
D03*
Y386000D02*
D03*
X388600Y132200D02*
D03*
Y122200D02*
D03*
X378600Y132200D02*
D03*
Y122200D02*
D03*
X368600Y132200D02*
D03*
Y122200D02*
D03*
X358600Y132200D02*
D03*
X125000Y337000D02*
D03*
X52500Y89400D02*
D03*
X326300Y123200D02*
D03*
Y113200D02*
D03*
Y90500D02*
D03*
Y100500D02*
D03*
X328100Y248200D02*
D03*
Y238200D02*
D03*
Y228200D02*
D03*
X345942Y480107D02*
D03*
X336545Y476686D02*
D03*
X327148Y473266D02*
D03*
X111181Y475386D02*
D03*
X101784Y478807D02*
D03*
X92387Y482227D02*
D03*
X124500Y169000D02*
D03*
Y159000D02*
D03*
Y149000D02*
D03*
D128*
X368220Y9000D02*
D03*
X395779D02*
D03*
D129*
X372158Y19630D02*
D03*
X391843D02*
D03*
D130*
X209600Y438900D02*
D03*
X358600Y122200D02*
D03*
D131*
X294700Y21500D02*
D03*
X159300Y141600D02*
D03*
X307500Y430200D02*
D03*
X139200D02*
D03*
D132*
X239800Y419700D02*
D03*
X229800D02*
D03*
X219800D02*
D03*
D133*
X209800D02*
D03*
D134*
X355339Y483527D02*
D03*
D135*
X120578Y471966D02*
D03*
D136*
X153950Y118610D02*
D03*
Y108610D02*
D03*
X163950Y118610D02*
D03*
Y108610D02*
D03*
X173950Y118610D02*
D03*
Y108610D02*
D03*
X183950Y118610D02*
D03*
Y108610D02*
D03*
X193950Y118610D02*
D03*
X257300Y13800D02*
D03*
Y23800D02*
D03*
X247300Y13800D02*
D03*
Y23800D02*
D03*
X237300Y13800D02*
D03*
Y23800D02*
D03*
X227300Y13800D02*
D03*
Y23800D02*
D03*
X217300Y13800D02*
D03*
Y23800D02*
D03*
X207300Y13800D02*
D03*
Y23800D02*
D03*
X197300Y13800D02*
D03*
Y23800D02*
D03*
X187300Y13800D02*
D03*
Y23800D02*
D03*
X177300Y13800D02*
D03*
Y23800D02*
D03*
X167300Y13800D02*
D03*
Y23800D02*
D03*
X157300Y13800D02*
D03*
Y23800D02*
D03*
X147300Y13800D02*
D03*
Y23800D02*
D03*
X137300Y13800D02*
D03*
Y23800D02*
D03*
X127300Y13800D02*
D03*
Y23800D02*
D03*
X117300Y13800D02*
D03*
Y23800D02*
D03*
X107300Y13800D02*
D03*
Y23800D02*
D03*
X97300Y13800D02*
D03*
Y23800D02*
D03*
X87300Y13800D02*
D03*
Y23800D02*
D03*
X77300Y13800D02*
D03*
Y23800D02*
D03*
X67300Y13800D02*
D03*
X243950Y187900D02*
D03*
X233950D02*
D03*
X223950D02*
D03*
X213950D02*
D03*
X203950D02*
D03*
X63950Y118610D02*
D03*
Y108610D02*
D03*
X73950Y118610D02*
D03*
Y108610D02*
D03*
X83950Y118610D02*
D03*
Y108610D02*
D03*
X93950Y118610D02*
D03*
Y108610D02*
D03*
X103950Y118610D02*
D03*
Y108610D02*
D03*
X113950Y118610D02*
D03*
Y108610D02*
D03*
X123950Y118610D02*
D03*
Y108610D02*
D03*
X133950Y118610D02*
D03*
D137*
X193950Y108610D02*
D03*
X67300Y23800D02*
D03*
X193950Y187900D02*
D03*
X133950Y108610D02*
D03*
D141*
X387906Y9000D02*
D03*
X376095D02*
D03*
D142*
X387118Y19630D02*
D03*
X384559D02*
D03*
X382000D02*
D03*
X379441D02*
D03*
X376882D02*
D03*
M02*
