G04*
G04 #@! TF.GenerationSoftware,Altium Limited,Altium Designer,20.1.12 (249)*
G04*
G04 Layer_Color=16711935*
%FSLAX25Y25*%
%MOIN*%
G70*
G04*
G04 #@! TF.SameCoordinates,8DF9F49D-D30B-48C0-AB84-75DE52E997E5*
G04*
G04*
G04 #@! TF.FilePolarity,Negative*
G04*
G01*
G75*
%ADD97R,0.06706X0.06706*%
%ADD98C,0.06706*%
%ADD99R,0.07000X0.07000*%
%ADD100C,0.07000*%
%ADD101O,0.04343X0.06902*%
%ADD102O,0.05721X0.04540*%
%ADD103C,0.00800*%
%ADD104C,0.07800*%
%ADD105R,0.07000X0.07000*%
%ADD106C,0.01968*%
%ADD107R,0.07800X0.07800*%
%ADD108C,0.24422*%
%ADD109C,0.07099*%
%ADD110R,0.07099X0.07099*%
%ADD111P,0.09900X4X245.0*%
%ADD112P,0.09900X4X205.0*%
G04:AMPARAMS|DCode=113|XSize=70.94mil|YSize=70.94mil|CornerRadius=35.47mil|HoleSize=0mil|Usage=FLASHONLY|Rotation=90.000|XOffset=0mil|YOffset=0mil|HoleType=Round|Shape=RoundedRectangle|*
%AMROUNDEDRECTD113*
21,1,0.07094,0.00000,0,0,90.0*
21,1,0.00000,0.07094,0,0,90.0*
1,1,0.07094,0.00000,0.00000*
1,1,0.07094,0.00000,0.00000*
1,1,0.07094,0.00000,0.00000*
1,1,0.07094,0.00000,0.00000*
%
%ADD113ROUNDEDRECTD113*%
%ADD114R,0.07094X0.07094*%
%ADD115C,0.02800*%
%ADD116C,0.02769*%
%ADD143R,0.07493X0.06706*%
%ADD144R,0.02375X0.06115*%
D97*
X124500Y186000D02*
D03*
X328000Y183000D02*
D03*
D98*
X124500Y196000D02*
D03*
Y206000D02*
D03*
Y216000D02*
D03*
X328000Y213000D02*
D03*
Y203000D02*
D03*
Y193000D02*
D03*
D99*
X302800Y231400D02*
D03*
X283900Y121700D02*
D03*
X108000Y396000D02*
D03*
X122000D02*
D03*
X125000Y327000D02*
D03*
X52500Y79400D02*
D03*
X326300Y133200D02*
D03*
Y80500D02*
D03*
X328100Y258200D02*
D03*
X124500Y139000D02*
D03*
D100*
X302800Y241400D02*
D03*
Y251400D02*
D03*
X219600Y438900D02*
D03*
X229600D02*
D03*
X239600D02*
D03*
X283900Y131700D02*
D03*
Y141700D02*
D03*
Y151700D02*
D03*
X108000Y376000D02*
D03*
Y386000D02*
D03*
X122000Y376000D02*
D03*
Y386000D02*
D03*
X388600Y132200D02*
D03*
Y122200D02*
D03*
X378600Y132200D02*
D03*
Y122200D02*
D03*
X368600Y132200D02*
D03*
Y122200D02*
D03*
X358600Y132200D02*
D03*
X125000Y337000D02*
D03*
X52500Y89400D02*
D03*
X326300Y123200D02*
D03*
Y113200D02*
D03*
Y90500D02*
D03*
Y100500D02*
D03*
X328100Y248200D02*
D03*
Y238200D02*
D03*
Y228200D02*
D03*
X345942Y480107D02*
D03*
X336545Y476686D02*
D03*
X327148Y473266D02*
D03*
X111181Y475386D02*
D03*
X101784Y478807D02*
D03*
X92387Y482227D02*
D03*
X124500Y169000D02*
D03*
Y159000D02*
D03*
Y149000D02*
D03*
D101*
X368220Y9000D02*
D03*
X395779D02*
D03*
D102*
X372158Y19630D02*
D03*
X391843D02*
D03*
D103*
X180811Y84700D02*
D03*
X157189D02*
D03*
X293811Y83511D02*
D03*
X270189D02*
D03*
D104*
X169000Y69189D02*
D03*
Y81000D02*
D03*
X282000Y68000D02*
D03*
Y79811D02*
D03*
X391000Y455611D02*
D03*
X379189Y443800D02*
D03*
Y455611D02*
D03*
X73511Y454511D02*
D03*
X61700Y442700D02*
D03*
Y454511D02*
D03*
D105*
X209600Y438900D02*
D03*
X358600Y122200D02*
D03*
D106*
X367378Y459548D02*
D03*
X402811D02*
D03*
X49889Y458448D02*
D03*
X85322D02*
D03*
D107*
X391000Y443800D02*
D03*
X73511Y442700D02*
D03*
D108*
X294700Y21500D02*
D03*
X159300Y141600D02*
D03*
X307500Y430200D02*
D03*
X139200D02*
D03*
D109*
X239800Y419700D02*
D03*
X229800D02*
D03*
X219800D02*
D03*
D110*
X209800D02*
D03*
D111*
X355339Y483527D02*
D03*
D112*
X120578Y471966D02*
D03*
D113*
X153950Y118610D02*
D03*
Y108610D02*
D03*
X163950Y118610D02*
D03*
Y108610D02*
D03*
X173950Y118610D02*
D03*
Y108610D02*
D03*
X183950Y118610D02*
D03*
Y108610D02*
D03*
X193950Y118610D02*
D03*
X257300Y13800D02*
D03*
Y23800D02*
D03*
X247300Y13800D02*
D03*
Y23800D02*
D03*
X237300Y13800D02*
D03*
Y23800D02*
D03*
X227300Y13800D02*
D03*
Y23800D02*
D03*
X217300Y13800D02*
D03*
Y23800D02*
D03*
X207300Y13800D02*
D03*
Y23800D02*
D03*
X197300Y13800D02*
D03*
Y23800D02*
D03*
X187300Y13800D02*
D03*
Y23800D02*
D03*
X177300Y13800D02*
D03*
Y23800D02*
D03*
X167300Y13800D02*
D03*
Y23800D02*
D03*
X157300Y13800D02*
D03*
Y23800D02*
D03*
X147300Y13800D02*
D03*
Y23800D02*
D03*
X137300Y13800D02*
D03*
Y23800D02*
D03*
X127300Y13800D02*
D03*
Y23800D02*
D03*
X117300Y13800D02*
D03*
Y23800D02*
D03*
X107300Y13800D02*
D03*
Y23800D02*
D03*
X97300Y13800D02*
D03*
Y23800D02*
D03*
X87300Y13800D02*
D03*
Y23800D02*
D03*
X77300Y13800D02*
D03*
Y23800D02*
D03*
X67300Y13800D02*
D03*
X243950Y187900D02*
D03*
X233950D02*
D03*
X223950D02*
D03*
X213950D02*
D03*
X203950D02*
D03*
X63950Y118610D02*
D03*
Y108610D02*
D03*
X73950Y118610D02*
D03*
Y108610D02*
D03*
X83950Y118610D02*
D03*
Y108610D02*
D03*
X93950Y118610D02*
D03*
Y108610D02*
D03*
X103950Y118610D02*
D03*
Y108610D02*
D03*
X113950Y118610D02*
D03*
Y108610D02*
D03*
X123950Y118610D02*
D03*
Y108610D02*
D03*
X133950Y118610D02*
D03*
D114*
X193950Y108610D02*
D03*
X67300Y23800D02*
D03*
X193950Y187900D02*
D03*
X133950Y108610D02*
D03*
D115*
X134100Y301700D02*
D03*
X393100Y317800D02*
D03*
X358200Y323400D02*
D03*
X344300Y272000D02*
D03*
X287100Y270900D02*
D03*
X313600Y259400D02*
D03*
X301500Y260300D02*
D03*
X188300Y217600D02*
D03*
X199025Y235637D02*
D03*
X257157Y112797D02*
D03*
X145200Y257100D02*
D03*
X215200Y216200D02*
D03*
X206700Y218700D02*
D03*
X312700Y400000D02*
D03*
X288700Y397800D02*
D03*
X303500Y402100D02*
D03*
X298500Y412000D02*
D03*
X300300Y399600D02*
D03*
X176200Y378600D02*
D03*
X197900Y293000D02*
D03*
X198000Y308000D02*
D03*
X191300Y296000D02*
D03*
X192500Y353400D02*
D03*
X165700Y399100D02*
D03*
X148700Y398900D02*
D03*
X206000Y310000D02*
D03*
X210708Y324292D02*
D03*
X165800Y380500D02*
D03*
X168900Y337400D02*
D03*
X165800Y388700D02*
D03*
X157100D02*
D03*
X148600Y388800D02*
D03*
X148700Y380300D02*
D03*
X157100Y380500D02*
D03*
X157000Y399300D02*
D03*
X263900Y178900D02*
D03*
X401400Y121500D02*
D03*
Y80250D02*
D03*
Y39000D02*
D03*
Y59625D02*
D03*
X376800Y61200D02*
D03*
X401400Y100875D02*
D03*
X379200Y106800D02*
D03*
X317000Y10000D02*
D03*
X275700Y10600D02*
D03*
X63400Y133800D02*
D03*
X89700Y135400D02*
D03*
X137700Y140200D02*
D03*
X138100Y164400D02*
D03*
X136500Y190900D02*
D03*
X137100Y221300D02*
D03*
X276300Y431800D02*
D03*
X329800Y429400D02*
D03*
X310600Y454500D02*
D03*
X272600Y458700D02*
D03*
X231600Y458800D02*
D03*
X290900Y474600D02*
D03*
X258900Y477500D02*
D03*
X212900Y477200D02*
D03*
X325100Y496900D02*
D03*
X292800Y503700D02*
D03*
X261000Y506500D02*
D03*
X228400Y507300D02*
D03*
X198200Y505900D02*
D03*
X171100Y503000D02*
D03*
X145600Y499400D02*
D03*
X171100Y478400D02*
D03*
X189300Y458600D02*
D03*
X148400D02*
D03*
X113800Y449600D02*
D03*
X113200Y428300D02*
D03*
X157900Y407300D02*
D03*
X210400Y383300D02*
D03*
X152100Y361400D02*
D03*
X151800Y315000D02*
D03*
X181600Y307200D02*
D03*
X322500Y343600D02*
D03*
X304800Y329900D02*
D03*
X281700Y342200D02*
D03*
X391300Y418100D02*
D03*
X391100Y400400D02*
D03*
X390900Y380400D02*
D03*
X387300Y354500D02*
D03*
X367800Y393000D02*
D03*
X367500Y407300D02*
D03*
X367400Y430100D02*
D03*
X64900Y352300D02*
D03*
X63200Y370000D02*
D03*
X80200Y375300D02*
D03*
Y354200D02*
D03*
X79900Y390300D02*
D03*
X61900Y390400D02*
D03*
X79900Y411400D02*
D03*
X61900Y411500D02*
D03*
X308700Y412700D02*
D03*
X299600Y375500D02*
D03*
X316100Y391200D02*
D03*
X286200Y390800D02*
D03*
X286300Y385770D02*
D03*
X270000Y120500D02*
D03*
X352400Y266900D02*
D03*
X354271Y271100D02*
D03*
X366800Y271400D02*
D03*
X319800Y254100D02*
D03*
X320900Y271100D02*
D03*
X316600Y73200D02*
D03*
X195000Y40000D02*
D03*
X164800Y36800D02*
D03*
X261400Y98800D02*
D03*
X370900Y267600D02*
D03*
X337900Y222500D02*
D03*
X244800Y228400D02*
D03*
X295800Y224900D02*
D03*
X292900Y228600D02*
D03*
X226203Y226900D02*
D03*
X368500Y287400D02*
D03*
X366700Y274900D02*
D03*
X155600Y183900D02*
D03*
X153400Y180600D02*
D03*
X151000Y183900D02*
D03*
X162800Y180700D02*
D03*
X157900Y180400D02*
D03*
Y187300D02*
D03*
X216300Y212500D02*
D03*
X146800Y208600D02*
D03*
X379200Y284629D02*
D03*
X353671Y278700D02*
D03*
X235100Y246400D02*
D03*
X236900Y273600D02*
D03*
X347900Y277700D02*
D03*
X212500Y313800D02*
D03*
X136700Y320100D02*
D03*
X140400Y274100D02*
D03*
X141500Y241000D02*
D03*
X184200Y241650D02*
D03*
X152434D02*
D03*
X147900Y247500D02*
D03*
X195100Y262300D02*
D03*
X197121Y254331D02*
D03*
X213700Y265200D02*
D03*
X211400Y261000D02*
D03*
X231900Y270000D02*
D03*
X232400Y274600D02*
D03*
X227200Y266900D02*
D03*
X291000Y238500D02*
D03*
X262600Y272900D02*
D03*
X266100Y269700D02*
D03*
X306600Y127887D02*
D03*
X293700Y303090D02*
D03*
X252385Y303500D02*
D03*
X311000Y288700D02*
D03*
X301200Y304300D02*
D03*
X294300Y237600D02*
D03*
X243350Y290700D02*
D03*
X238700Y291300D02*
D03*
X210600Y298900D02*
D03*
X120700Y289500D02*
D03*
X116000Y288500D02*
D03*
X150400Y283250D02*
D03*
X216000Y294000D02*
D03*
X224800Y300500D02*
D03*
X227600Y303800D02*
D03*
X132800Y238600D02*
D03*
X256231Y240969D02*
D03*
X259000Y246355D02*
D03*
X112548Y137048D02*
D03*
X241200Y217700D02*
D03*
X171100Y208000D02*
D03*
X194300Y251300D02*
D03*
X179900Y252500D02*
D03*
X190000Y234100D02*
D03*
X177100Y211500D02*
D03*
X191700Y209600D02*
D03*
X204000Y209000D02*
D03*
X333600Y303900D02*
D03*
X322600Y269267D02*
D03*
X333900Y310900D02*
D03*
X339300Y113000D02*
D03*
X301700Y59500D02*
D03*
X298900Y64700D02*
D03*
X333900Y74200D02*
D03*
X324700Y62800D02*
D03*
X337951Y99149D02*
D03*
X340350Y278000D02*
D03*
X338500Y274200D02*
D03*
X237000Y308200D02*
D03*
X231900Y311200D02*
D03*
X267400Y135100D02*
D03*
X251400Y158500D02*
D03*
X255800Y159300D02*
D03*
X260900Y140900D02*
D03*
X241600Y332300D02*
D03*
X212500Y328300D02*
D03*
X182700Y282400D02*
D03*
X161673Y257519D02*
D03*
X174500Y256100D02*
D03*
X218000Y307000D02*
D03*
X264800Y400000D02*
D03*
X279800Y397500D02*
D03*
X142250Y254100D02*
D03*
X211200Y245700D02*
D03*
X223000Y246800D02*
D03*
X129600Y247700D02*
D03*
X129100Y229500D02*
D03*
X148480Y230042D02*
D03*
X118100Y266400D02*
D03*
X75900Y263900D02*
D03*
X226200Y175400D02*
D03*
X234200Y134900D02*
D03*
X255800Y132900D02*
D03*
X230600Y129400D02*
D03*
X233443Y213600D02*
D03*
X240500Y221700D02*
D03*
X275500Y175500D02*
D03*
X278000Y183000D02*
D03*
X240700Y180800D02*
D03*
X394000Y25500D02*
D03*
X393800Y29300D02*
D03*
X390200Y27200D02*
D03*
X358200Y44900D02*
D03*
X219400Y204700D02*
D03*
X251100Y192000D02*
D03*
X166700Y205500D02*
D03*
X222900Y259900D02*
D03*
X173400Y249100D02*
D03*
X232100Y107400D02*
D03*
X233000Y99000D02*
D03*
X231900Y115100D02*
D03*
X249300Y224900D02*
D03*
X262700Y241300D02*
D03*
X256200Y226400D02*
D03*
X282900Y177900D02*
D03*
X230300Y209700D02*
D03*
X311500Y271600D02*
D03*
X311400Y284100D02*
D03*
X292100Y262000D02*
D03*
X291021Y257921D02*
D03*
X290500Y252900D02*
D03*
X288000Y250200D02*
D03*
X335000Y379400D02*
D03*
X279064Y359436D02*
D03*
X278700Y374300D02*
D03*
X275600Y383700D02*
D03*
X161000Y301300D02*
D03*
X211200Y231500D02*
D03*
X263200Y276600D02*
D03*
X212300D02*
D03*
X210600Y255500D02*
D03*
X212900Y257900D02*
D03*
X267600Y230000D02*
D03*
X263200Y280100D02*
D03*
X253100Y286400D02*
D03*
X263000Y286100D02*
D03*
X83000Y276350D02*
D03*
X71139Y276800D02*
D03*
X359000Y94700D02*
D03*
X358300Y80300D02*
D03*
X379600Y43100D02*
D03*
X384700D02*
D03*
X333600Y61800D02*
D03*
X346259Y136641D02*
D03*
X195800Y71000D02*
D03*
X193000D02*
D03*
X162400Y186700D02*
D03*
X153500Y187200D02*
D03*
X160200Y183800D02*
D03*
X250600Y358000D02*
D03*
X250000Y327300D02*
D03*
X211000Y357500D02*
D03*
X251000Y408100D02*
D03*
X203600Y407400D02*
D03*
X334300Y365800D02*
D03*
X328000Y365400D02*
D03*
X321100Y363900D02*
D03*
X321000Y380300D02*
D03*
X328200Y379400D02*
D03*
X317300Y380100D02*
D03*
X326700Y384900D02*
D03*
X275300Y397037D02*
D03*
X391200Y411300D02*
D03*
X391100Y389000D02*
D03*
X391200Y371600D02*
D03*
X390700Y348700D02*
D03*
X391300Y423400D02*
D03*
X185000Y294000D02*
D03*
X168200Y53400D02*
D03*
X166200Y49700D02*
D03*
X160300Y49800D02*
D03*
X154400Y49600D02*
D03*
X163000Y53400D02*
D03*
X157300Y53800D02*
D03*
X151500Y53700D02*
D03*
X76000Y288000D02*
D03*
X358000Y296000D02*
D03*
X85600Y370300D02*
D03*
X85500Y386900D02*
D03*
X85600Y406400D02*
D03*
Y426300D02*
D03*
X85000Y350700D02*
D03*
X67000Y293000D02*
D03*
X78000Y315000D02*
D03*
X64000Y291200D02*
D03*
X367300Y292000D02*
D03*
X221000Y296000D02*
D03*
X366000D02*
D03*
X68839Y284250D02*
D03*
X65169Y287150D02*
D03*
X59200Y275500D02*
D03*
X59800Y267900D02*
D03*
X56939Y269650D02*
D03*
X56839Y276750D02*
D03*
X96239Y269950D02*
D03*
X71139Y273050D02*
D03*
Y269450D02*
D03*
X379000Y316000D02*
D03*
X385000Y290300D02*
D03*
X393700Y275700D02*
D03*
X243000Y76000D02*
D03*
X246000Y66000D02*
D03*
X234000Y81000D02*
D03*
Y86000D02*
D03*
X232000Y90000D02*
D03*
X190000Y71000D02*
D03*
X192000Y40000D02*
D03*
X189000D02*
D03*
X188000Y48000D02*
D03*
Y62000D02*
D03*
X360000Y25000D02*
D03*
Y31000D02*
D03*
Y28000D02*
D03*
X251000Y46000D02*
D03*
X247000D02*
D03*
X251000Y50000D02*
D03*
X247000D02*
D03*
X251000Y54000D02*
D03*
X247000D02*
D03*
X251000Y58000D02*
D03*
X247000D02*
D03*
X51000Y64000D02*
D03*
X82000Y78000D02*
D03*
X56500Y64200D02*
D03*
X72000Y81400D02*
D03*
X90500Y63600D02*
D03*
X94940D02*
D03*
X99380D02*
D03*
X103820D02*
D03*
X108260D02*
D03*
X112700D02*
D03*
X112720Y67700D02*
D03*
X108280D02*
D03*
X103840D02*
D03*
X99400D02*
D03*
X94960D02*
D03*
X90520D02*
D03*
X92150Y81448D02*
D03*
X85850Y71648D02*
D03*
D116*
X78331Y300619D02*
D03*
X74000D02*
D03*
X78331Y304950D02*
D03*
X74000D02*
D03*
X374861D02*
D03*
X379191D02*
D03*
X374861Y300619D02*
D03*
X379191D02*
D03*
D143*
X387906Y9000D02*
D03*
X376095D02*
D03*
D144*
X387118Y19630D02*
D03*
X384559D02*
D03*
X382000D02*
D03*
X379441D02*
D03*
X376882D02*
D03*
M02*
