G04*
G04 #@! TF.GenerationSoftware,Altium Limited,Altium Designer,20.1.12 (249)*
G04*
G04 Layer_Color=2752767*
%FSLAX25Y25*%
%MOIN*%
G70*
G04*
G04 #@! TF.SameCoordinates,8DF9F49D-D30B-48C0-AB84-75DE52E997E5*
G04*
G04*
G04 #@! TF.FilePolarity,Positive*
G04*
G01*
G75*
%ADD13C,0.00200*%
%ADD149C,0.00267*%
%ADD150C,0.00133*%
D13*
X123700Y185200D02*
Y186800D01*
X125300D01*
Y185200D01*
X123700D01*
Y195200D02*
Y196800D01*
X125300D01*
Y195200D01*
X123700D01*
Y205200D02*
Y206800D01*
X125300D01*
Y205200D01*
X123700D01*
Y215200D02*
Y216800D01*
X125300D01*
Y215200D01*
X123700D01*
X368220Y8200D02*
X367420Y9800D01*
X369020D01*
X368220Y8200D01*
X372158Y18830D02*
X372557Y19230D01*
X372957D01*
X372557Y19630D01*
X372957Y20030D01*
X372557D01*
X372158Y20430D01*
X371758Y20030D01*
X371357D01*
X371758Y19630D01*
X371357Y19230D01*
X371758D01*
X372158Y18830D01*
X395779Y8200D02*
X394980Y9800D01*
X396580D01*
X395779Y8200D01*
X391843Y18830D02*
X392243Y19230D01*
X392642D01*
X392243Y19630D01*
X392642Y20030D01*
X392243D01*
X391843Y20430D01*
X391442Y20030D01*
X391042D01*
X391442Y19630D01*
X391042Y19230D01*
X391442D01*
X391843Y18830D01*
X180011Y83900D02*
X180411Y84700D01*
X180011Y85500D01*
X180811Y85100D01*
X181611Y85500D01*
X181211Y84700D01*
X181611Y83900D01*
X180811Y84300D01*
X180011Y83900D01*
X156389D02*
X156789Y84700D01*
X156389Y85500D01*
X157189Y85100D01*
X157989Y85500D01*
X157589Y84700D01*
X157989Y83900D01*
X157189Y84300D01*
X156389Y83900D01*
X293011Y82711D02*
X293411Y83511D01*
X293011Y84311D01*
X293811Y83911D01*
X294611Y84311D01*
X294211Y83511D01*
X294611Y82711D01*
X293811Y83111D01*
X293011Y82711D01*
X269389D02*
X269789Y83511D01*
X269389Y84311D01*
X270189Y83911D01*
X270989Y84311D01*
X270589Y83511D01*
X270989Y82711D01*
X270189Y83111D01*
X269389Y82711D01*
X327200Y212200D02*
Y213800D01*
X328800D01*
Y212200D01*
X327200D01*
Y202200D02*
Y203800D01*
X328800D01*
Y202200D01*
X327200D01*
Y192200D02*
Y193800D01*
X328800D01*
Y192200D01*
X327200D01*
Y182200D02*
Y183800D01*
X328800D01*
Y182200D01*
X327200D01*
X366978Y459148D02*
Y458748D01*
X367778D01*
Y459148D01*
X368178D01*
Y459948D01*
X367778D01*
Y460348D01*
X366978D01*
Y459948D01*
X366578D01*
Y459148D01*
X366978D01*
X402411D02*
Y458748D01*
X403211D01*
Y459148D01*
X403611D01*
Y459948D01*
X403211D01*
Y460348D01*
X402411D01*
Y459948D01*
X402011D01*
Y459148D01*
X402411D01*
X49489Y458048D02*
Y457648D01*
X50289D01*
Y458048D01*
X50689D01*
Y458848D01*
X50289D01*
Y459248D01*
X49489D01*
Y458848D01*
X49089D01*
Y458048D01*
X49489D01*
X84922D02*
Y457648D01*
X85722D01*
Y458048D01*
X86122D01*
Y458848D01*
X85722D01*
Y459248D01*
X84922D01*
Y458848D01*
X84522D01*
Y458048D01*
X84922D01*
X293900Y20700D02*
X294300D01*
X294700Y21100D01*
X295100Y20700D01*
X295500D01*
Y21100D01*
X295100Y21500D01*
X295500Y21900D01*
Y22300D01*
X295100D01*
X294700Y21900D01*
X294300Y22300D01*
X293900D01*
Y21900D01*
X294300Y21500D01*
X293900Y21100D01*
Y20700D01*
X158500Y140800D02*
X158900D01*
X159300Y141200D01*
X159700Y140800D01*
X160100D01*
Y141200D01*
X159700Y141600D01*
X160100Y142000D01*
Y142400D01*
X159700D01*
X159300Y142000D01*
X158900Y142400D01*
X158500D01*
Y142000D01*
X158900Y141600D01*
X158500Y141200D01*
Y140800D01*
X306700Y429400D02*
X307100D01*
X307500Y429800D01*
X307900Y429400D01*
X308300D01*
Y429800D01*
X307900Y430200D01*
X308300Y430600D01*
Y431000D01*
X307900D01*
X307500Y430600D01*
X307100Y431000D01*
X306700D01*
Y430600D01*
X307100Y430200D01*
X306700Y429800D01*
Y429400D01*
X138400D02*
X138800D01*
X139200Y429800D01*
X139600Y429400D01*
X140000D01*
Y429800D01*
X139600Y430200D01*
X140000Y430600D01*
Y431000D01*
X139600D01*
X139200Y430600D01*
X138800Y431000D01*
X138400D01*
Y430600D01*
X138800Y430200D01*
X138400Y429800D01*
Y429400D01*
X239000Y419700D02*
X239800Y420500D01*
X240600Y419700D01*
X239800Y418900D01*
X239000Y419700D01*
X229000D02*
X229800Y420500D01*
X230600Y419700D01*
X229800Y418900D01*
X229000Y419700D01*
X219000D02*
X219800Y420500D01*
X220600Y419700D01*
X219800Y418900D01*
X219000Y419700D01*
X209000Y418900D02*
Y420500D01*
X210600D01*
Y418900D01*
X209000D01*
X209400Y419300D02*
Y420100D01*
X210200D01*
Y419300D01*
X209400D01*
X134100Y300900D02*
X133300Y302500D01*
X134900D01*
X134100Y300900D01*
Y301300D02*
X133700Y302100D01*
X134500D01*
X134100Y301300D01*
X393100Y317000D02*
X392300Y318600D01*
X393900D01*
X393100Y317000D01*
Y317400D02*
X392700Y318200D01*
X393500D01*
X393100Y317400D01*
X358200Y322600D02*
X357400Y324200D01*
X359000D01*
X358200Y322600D01*
Y323000D02*
X357800Y323800D01*
X358600D01*
X358200Y323000D01*
X344300Y271200D02*
X343500Y272800D01*
X345100D01*
X344300Y271200D01*
Y271600D02*
X343900Y272400D01*
X344700D01*
X344300Y271600D01*
X287100Y270100D02*
X286300Y271700D01*
X287900D01*
X287100Y270100D01*
Y270500D02*
X286700Y271300D01*
X287500D01*
X287100Y270500D01*
X313600Y258600D02*
X312800Y260200D01*
X314400D01*
X313600Y258600D01*
Y259000D02*
X313200Y259800D01*
X314000D01*
X313600Y259000D01*
X301500Y259500D02*
X300700Y261100D01*
X302300D01*
X301500Y259500D01*
Y259900D02*
X301100Y260700D01*
X301900D01*
X301500Y259900D01*
X188300Y216800D02*
X187500Y218400D01*
X189100D01*
X188300Y216800D01*
Y217200D02*
X187900Y218000D01*
X188700D01*
X188300Y217200D01*
X199025Y234837D02*
X198225Y236437D01*
X199825D01*
X199025Y234837D01*
Y235237D02*
X198625Y236037D01*
X199425D01*
X199025Y235237D01*
X257157Y111997D02*
X256358Y113597D01*
X257958D01*
X257157Y111997D01*
Y112397D02*
X256757Y113197D01*
X257558D01*
X257157Y112397D01*
X145200Y256300D02*
X144400Y257900D01*
X146000D01*
X145200Y256300D01*
Y256700D02*
X144800Y257500D01*
X145600D01*
X145200Y256700D01*
X215200Y215400D02*
X214400Y217000D01*
X216000D01*
X215200Y215400D01*
Y215800D02*
X214800Y216600D01*
X215600D01*
X215200Y215800D01*
X206700Y217900D02*
X205900Y219500D01*
X207500D01*
X206700Y217900D01*
Y218300D02*
X206300Y219100D01*
X207100D01*
X206700Y218300D01*
X312700Y399200D02*
X311900Y400800D01*
X313500D01*
X312700Y399200D01*
Y399600D02*
X312300Y400400D01*
X313100D01*
X312700Y399600D01*
X288700Y397000D02*
X287900Y398600D01*
X289500D01*
X288700Y397000D01*
Y397400D02*
X288300Y398200D01*
X289100D01*
X288700Y397400D01*
X303500Y401300D02*
X302700Y402900D01*
X304300D01*
X303500Y401300D01*
Y401700D02*
X303100Y402500D01*
X303900D01*
X303500Y401700D01*
X298500Y411200D02*
X297700Y412800D01*
X299300D01*
X298500Y411200D01*
Y411600D02*
X298100Y412400D01*
X298900D01*
X298500Y411600D01*
X300300Y398800D02*
X299500Y400400D01*
X301100D01*
X300300Y398800D01*
Y399200D02*
X299900Y400000D01*
X300700D01*
X300300Y399200D01*
X176200Y377800D02*
X175400Y379400D01*
X177000D01*
X176200Y377800D01*
Y378200D02*
X175800Y379000D01*
X176600D01*
X176200Y378200D01*
X197900Y292200D02*
X197100Y293800D01*
X198700D01*
X197900Y292200D01*
Y292600D02*
X197500Y293400D01*
X198300D01*
X197900Y292600D01*
X198000Y307200D02*
X197200Y308800D01*
X198800D01*
X198000Y307200D01*
Y307600D02*
X197600Y308400D01*
X198400D01*
X198000Y307600D01*
X191300Y295200D02*
X190500Y296800D01*
X192100D01*
X191300Y295200D01*
Y295600D02*
X190900Y296400D01*
X191700D01*
X191300Y295600D01*
X192500Y352600D02*
X191700Y354200D01*
X193300D01*
X192500Y352600D01*
Y353000D02*
X192100Y353800D01*
X192900D01*
X192500Y353000D01*
X165700Y398300D02*
X164900Y399900D01*
X166500D01*
X165700Y398300D01*
Y398700D02*
X165300Y399500D01*
X166100D01*
X165700Y398700D01*
X148700Y398100D02*
X147900Y399700D01*
X149500D01*
X148700Y398100D01*
Y398500D02*
X148300Y399300D01*
X149100D01*
X148700Y398500D01*
X206000Y309200D02*
X205200Y310800D01*
X206800D01*
X206000Y309200D01*
Y309600D02*
X205600Y310400D01*
X206400D01*
X206000Y309600D01*
X210708Y323492D02*
X209908Y325092D01*
X211508D01*
X210708Y323492D01*
Y323892D02*
X210308Y324692D01*
X211108D01*
X210708Y323892D01*
X165800Y379700D02*
X165000Y381300D01*
X166600D01*
X165800Y379700D01*
Y380100D02*
X165400Y380900D01*
X166200D01*
X165800Y380100D01*
X168900Y336600D02*
X168100Y338200D01*
X169700D01*
X168900Y336600D01*
Y337000D02*
X168500Y337800D01*
X169300D01*
X168900Y337000D01*
X165800Y387900D02*
X165000Y389500D01*
X166600D01*
X165800Y387900D01*
Y388300D02*
X165400Y389100D01*
X166200D01*
X165800Y388300D01*
X157100Y387900D02*
X156300Y389500D01*
X157900D01*
X157100Y387900D01*
Y388300D02*
X156700Y389100D01*
X157500D01*
X157100Y388300D01*
X148600Y388000D02*
X147800Y389600D01*
X149400D01*
X148600Y388000D01*
Y388400D02*
X148200Y389200D01*
X149000D01*
X148600Y388400D01*
X148700Y379500D02*
X147900Y381100D01*
X149500D01*
X148700Y379500D01*
Y379900D02*
X148300Y380700D01*
X149100D01*
X148700Y379900D01*
X157100Y379700D02*
X156300Y381300D01*
X157900D01*
X157100Y379700D01*
Y380100D02*
X156700Y380900D01*
X157500D01*
X157100Y380100D01*
X157000Y398500D02*
X156200Y400100D01*
X157800D01*
X157000Y398500D01*
Y398900D02*
X156600Y399700D01*
X157400D01*
X157000Y398900D01*
X263900Y178100D02*
X263100Y179700D01*
X264700D01*
X263900Y178100D01*
Y178500D02*
X263500Y179300D01*
X264300D01*
X263900Y178500D01*
X401400Y120700D02*
X400600Y122300D01*
X402200D01*
X401400Y120700D01*
Y121100D02*
X401000Y121900D01*
X401800D01*
X401400Y121100D01*
Y79450D02*
X400600Y81050D01*
X402200D01*
X401400Y79450D01*
Y79850D02*
X401000Y80650D01*
X401800D01*
X401400Y79850D01*
Y38200D02*
X400600Y39800D01*
X402200D01*
X401400Y38200D01*
Y38600D02*
X401000Y39400D01*
X401800D01*
X401400Y38600D01*
Y58825D02*
X400600Y60425D01*
X402200D01*
X401400Y58825D01*
Y59225D02*
X401000Y60025D01*
X401800D01*
X401400Y59225D01*
X376800Y60400D02*
X376000Y62000D01*
X377600D01*
X376800Y60400D01*
Y60800D02*
X376400Y61600D01*
X377200D01*
X376800Y60800D01*
X401400Y100075D02*
X400600Y101675D01*
X402200D01*
X401400Y100075D01*
Y100475D02*
X401000Y101275D01*
X401800D01*
X401400Y100475D01*
X379200Y106000D02*
X378400Y107600D01*
X380000D01*
X379200Y106000D01*
Y106400D02*
X378800Y107200D01*
X379600D01*
X379200Y106400D01*
X317000Y9200D02*
X316200Y10800D01*
X317800D01*
X317000Y9200D01*
Y9600D02*
X316600Y10400D01*
X317400D01*
X317000Y9600D01*
X275700Y9800D02*
X274900Y11400D01*
X276500D01*
X275700Y9800D01*
Y10200D02*
X275300Y11000D01*
X276100D01*
X275700Y10200D01*
X63400Y133000D02*
X62600Y134600D01*
X64200D01*
X63400Y133000D01*
Y133400D02*
X63000Y134200D01*
X63800D01*
X63400Y133400D01*
X89700Y134600D02*
X88900Y136200D01*
X90500D01*
X89700Y134600D01*
Y135000D02*
X89300Y135800D01*
X90100D01*
X89700Y135000D01*
X137700Y139400D02*
X136900Y141000D01*
X138500D01*
X137700Y139400D01*
Y139800D02*
X137300Y140600D01*
X138100D01*
X137700Y139800D01*
X138100Y163600D02*
X137300Y165200D01*
X138900D01*
X138100Y163600D01*
Y164000D02*
X137700Y164800D01*
X138500D01*
X138100Y164000D01*
X136500Y190100D02*
X135700Y191700D01*
X137300D01*
X136500Y190100D01*
Y190500D02*
X136100Y191300D01*
X136900D01*
X136500Y190500D01*
X137100Y220500D02*
X136300Y222100D01*
X137900D01*
X137100Y220500D01*
Y220900D02*
X136700Y221700D01*
X137500D01*
X137100Y220900D01*
X276300Y431000D02*
X275500Y432600D01*
X277100D01*
X276300Y431000D01*
Y431400D02*
X275900Y432200D01*
X276700D01*
X276300Y431400D01*
X329800Y428600D02*
X329000Y430200D01*
X330600D01*
X329800Y428600D01*
Y429000D02*
X329400Y429800D01*
X330200D01*
X329800Y429000D01*
X310600Y453700D02*
X309800Y455300D01*
X311400D01*
X310600Y453700D01*
Y454100D02*
X310200Y454900D01*
X311000D01*
X310600Y454100D01*
X272600Y457900D02*
X271800Y459500D01*
X273400D01*
X272600Y457900D01*
Y458300D02*
X272200Y459100D01*
X273000D01*
X272600Y458300D01*
X231600Y458000D02*
X230800Y459600D01*
X232400D01*
X231600Y458000D01*
Y458400D02*
X231200Y459200D01*
X232000D01*
X231600Y458400D01*
X290900Y473800D02*
X290100Y475400D01*
X291700D01*
X290900Y473800D01*
Y474200D02*
X290500Y475000D01*
X291300D01*
X290900Y474200D01*
X258900Y476700D02*
X258100Y478300D01*
X259700D01*
X258900Y476700D01*
Y477100D02*
X258500Y477900D01*
X259300D01*
X258900Y477100D01*
X212900Y476400D02*
X212100Y478000D01*
X213700D01*
X212900Y476400D01*
Y476800D02*
X212500Y477600D01*
X213300D01*
X212900Y476800D01*
X325100Y496100D02*
X324300Y497700D01*
X325900D01*
X325100Y496100D01*
Y496500D02*
X324700Y497300D01*
X325500D01*
X325100Y496500D01*
X292800Y502900D02*
X292000Y504500D01*
X293600D01*
X292800Y502900D01*
Y503300D02*
X292400Y504100D01*
X293200D01*
X292800Y503300D01*
X261000Y505700D02*
X260200Y507300D01*
X261800D01*
X261000Y505700D01*
Y506100D02*
X260600Y506900D01*
X261400D01*
X261000Y506100D01*
X228400Y506500D02*
X227600Y508100D01*
X229200D01*
X228400Y506500D01*
Y506900D02*
X228000Y507700D01*
X228800D01*
X228400Y506900D01*
X198200Y505100D02*
X197400Y506700D01*
X199000D01*
X198200Y505100D01*
Y505500D02*
X197800Y506300D01*
X198600D01*
X198200Y505500D01*
X171100Y502200D02*
X170300Y503800D01*
X171900D01*
X171100Y502200D01*
Y502600D02*
X170700Y503400D01*
X171500D01*
X171100Y502600D01*
X145600Y498600D02*
X144800Y500200D01*
X146400D01*
X145600Y498600D01*
Y499000D02*
X145200Y499800D01*
X146000D01*
X145600Y499000D01*
X171100Y477600D02*
X170300Y479200D01*
X171900D01*
X171100Y477600D01*
Y478000D02*
X170700Y478800D01*
X171500D01*
X171100Y478000D01*
X189300Y457800D02*
X188500Y459400D01*
X190100D01*
X189300Y457800D01*
Y458200D02*
X188900Y459000D01*
X189700D01*
X189300Y458200D01*
X148400Y457800D02*
X147600Y459400D01*
X149200D01*
X148400Y457800D01*
Y458200D02*
X148000Y459000D01*
X148800D01*
X148400Y458200D01*
X113800Y448800D02*
X113000Y450400D01*
X114600D01*
X113800Y448800D01*
Y449200D02*
X113400Y450000D01*
X114200D01*
X113800Y449200D01*
X113200Y427500D02*
X112400Y429100D01*
X114000D01*
X113200Y427500D01*
Y427900D02*
X112800Y428700D01*
X113600D01*
X113200Y427900D01*
X157900Y406500D02*
X157100Y408100D01*
X158700D01*
X157900Y406500D01*
Y406900D02*
X157500Y407700D01*
X158300D01*
X157900Y406900D01*
X210400Y382500D02*
X209600Y384100D01*
X211200D01*
X210400Y382500D01*
Y382900D02*
X210000Y383700D01*
X210800D01*
X210400Y382900D01*
X152100Y360600D02*
X151300Y362200D01*
X152900D01*
X152100Y360600D01*
Y361000D02*
X151700Y361800D01*
X152500D01*
X152100Y361000D01*
X151800Y314200D02*
X151000Y315800D01*
X152600D01*
X151800Y314200D01*
Y314600D02*
X151400Y315400D01*
X152200D01*
X151800Y314600D01*
X181600Y306400D02*
X180800Y308000D01*
X182400D01*
X181600Y306400D01*
Y306800D02*
X181200Y307600D01*
X182000D01*
X181600Y306800D01*
X322500Y342800D02*
X321700Y344400D01*
X323300D01*
X322500Y342800D01*
Y343200D02*
X322100Y344000D01*
X322900D01*
X322500Y343200D01*
X304800Y329100D02*
X304000Y330700D01*
X305600D01*
X304800Y329100D01*
Y329500D02*
X304400Y330300D01*
X305200D01*
X304800Y329500D01*
X281700Y341400D02*
X280900Y343000D01*
X282500D01*
X281700Y341400D01*
Y341800D02*
X281300Y342600D01*
X282100D01*
X281700Y341800D01*
X391300Y417300D02*
X390500Y418900D01*
X392100D01*
X391300Y417300D01*
Y417700D02*
X390900Y418500D01*
X391700D01*
X391300Y417700D01*
X391100Y399600D02*
X390300Y401200D01*
X391900D01*
X391100Y399600D01*
Y400000D02*
X390700Y400800D01*
X391500D01*
X391100Y400000D01*
X390900Y379600D02*
X390100Y381200D01*
X391700D01*
X390900Y379600D01*
Y380000D02*
X390500Y380800D01*
X391300D01*
X390900Y380000D01*
X387300Y353700D02*
X386500Y355300D01*
X388100D01*
X387300Y353700D01*
Y354100D02*
X386900Y354900D01*
X387700D01*
X387300Y354100D01*
X367800Y392200D02*
X367000Y393800D01*
X368600D01*
X367800Y392200D01*
Y392600D02*
X367400Y393400D01*
X368200D01*
X367800Y392600D01*
X367500Y406500D02*
X366700Y408100D01*
X368300D01*
X367500Y406500D01*
Y406900D02*
X367100Y407700D01*
X367900D01*
X367500Y406900D01*
X367400Y429300D02*
X366600Y430900D01*
X368200D01*
X367400Y429300D01*
Y429700D02*
X367000Y430500D01*
X367800D01*
X367400Y429700D01*
X64900Y351500D02*
X64100Y353100D01*
X65700D01*
X64900Y351500D01*
Y351900D02*
X64500Y352700D01*
X65300D01*
X64900Y351900D01*
X63200Y369200D02*
X62400Y370800D01*
X64000D01*
X63200Y369200D01*
Y369600D02*
X62800Y370400D01*
X63600D01*
X63200Y369600D01*
X80200Y374500D02*
X79400Y376100D01*
X81000D01*
X80200Y374500D01*
Y374900D02*
X79800Y375700D01*
X80600D01*
X80200Y374900D01*
Y353400D02*
X79400Y355000D01*
X81000D01*
X80200Y353400D01*
Y353800D02*
X79800Y354600D01*
X80600D01*
X80200Y353800D01*
X79900Y389500D02*
X79100Y391100D01*
X80700D01*
X79900Y389500D01*
Y389900D02*
X79500Y390700D01*
X80300D01*
X79900Y389900D01*
X61900Y389600D02*
X61100Y391200D01*
X62700D01*
X61900Y389600D01*
Y390000D02*
X61500Y390800D01*
X62300D01*
X61900Y390000D01*
X79900Y410600D02*
X79100Y412200D01*
X80700D01*
X79900Y410600D01*
Y411000D02*
X79500Y411800D01*
X80300D01*
X79900Y411000D01*
X61900Y410700D02*
X61100Y412300D01*
X62700D01*
X61900Y410700D01*
Y411100D02*
X61500Y411900D01*
X62300D01*
X61900Y411100D01*
X308700Y411900D02*
X307900Y413500D01*
X309500D01*
X308700Y411900D01*
Y412300D02*
X308300Y413100D01*
X309100D01*
X308700Y412300D01*
X299600Y374700D02*
X298800Y376300D01*
X300400D01*
X299600Y374700D01*
Y375100D02*
X299200Y375900D01*
X300000D01*
X299600Y375100D01*
X316100Y390400D02*
X315300Y392000D01*
X316900D01*
X316100Y390400D01*
Y390800D02*
X315700Y391600D01*
X316500D01*
X316100Y390800D01*
X286200Y390000D02*
X285400Y391600D01*
X287000D01*
X286200Y390000D01*
Y390400D02*
X285800Y391200D01*
X286600D01*
X286200Y390400D01*
X286300Y384970D02*
X285500Y386570D01*
X287100D01*
X286300Y384970D01*
Y385370D02*
X285900Y386170D01*
X286700D01*
X286300Y385370D01*
X270000Y119700D02*
X269200Y121300D01*
X270800D01*
X270000Y119700D01*
Y120100D02*
X269600Y120900D01*
X270400D01*
X270000Y120100D01*
X352400Y266100D02*
X351600Y267700D01*
X353200D01*
X352400Y266100D01*
Y266500D02*
X352000Y267300D01*
X352800D01*
X352400Y266500D01*
X354271Y270300D02*
X353471Y271900D01*
X355071D01*
X354271Y270300D01*
Y270700D02*
X353871Y271500D01*
X354671D01*
X354271Y270700D01*
X366800Y270600D02*
X366000Y272200D01*
X367600D01*
X366800Y270600D01*
Y271000D02*
X366400Y271800D01*
X367200D01*
X366800Y271000D01*
X319800Y253300D02*
X319000Y254900D01*
X320600D01*
X319800Y253300D01*
Y253700D02*
X319400Y254500D01*
X320200D01*
X319800Y253700D01*
X320900Y270300D02*
X320100Y271900D01*
X321700D01*
X320900Y270300D01*
Y270700D02*
X320500Y271500D01*
X321300D01*
X320900Y270700D01*
X316600Y72400D02*
X315800Y74000D01*
X317400D01*
X316600Y72400D01*
Y72800D02*
X316200Y73600D01*
X317000D01*
X316600Y72800D01*
X195000Y39200D02*
X194200Y40800D01*
X195800D01*
X195000Y39200D01*
Y39600D02*
X194600Y40400D01*
X195400D01*
X195000Y39600D01*
X164800Y36000D02*
X164000Y37600D01*
X165600D01*
X164800Y36000D01*
Y36400D02*
X164400Y37200D01*
X165200D01*
X164800Y36400D01*
X261400Y98000D02*
X260600Y99600D01*
X262200D01*
X261400Y98000D01*
Y98400D02*
X261000Y99200D01*
X261800D01*
X261400Y98400D01*
X370900Y266800D02*
X370100Y268400D01*
X371700D01*
X370900Y266800D01*
Y267200D02*
X370500Y268000D01*
X371300D01*
X370900Y267200D01*
X337900Y221700D02*
X337100Y223300D01*
X338700D01*
X337900Y221700D01*
Y222100D02*
X337500Y222900D01*
X338300D01*
X337900Y222100D01*
X244800Y227600D02*
X244000Y229200D01*
X245600D01*
X244800Y227600D01*
Y228000D02*
X244400Y228800D01*
X245200D01*
X244800Y228000D01*
X295800Y224100D02*
X295000Y225700D01*
X296600D01*
X295800Y224100D01*
Y224500D02*
X295400Y225300D01*
X296200D01*
X295800Y224500D01*
X292900Y227800D02*
X292100Y229400D01*
X293700D01*
X292900Y227800D01*
Y228200D02*
X292500Y229000D01*
X293300D01*
X292900Y228200D01*
X226203Y226100D02*
X225403Y227700D01*
X227003D01*
X226203Y226100D01*
Y226500D02*
X225803Y227300D01*
X226603D01*
X226203Y226500D01*
X368500Y286600D02*
X367700Y288200D01*
X369300D01*
X368500Y286600D01*
Y287000D02*
X368100Y287800D01*
X368900D01*
X368500Y287000D01*
X366700Y274100D02*
X365900Y275700D01*
X367500D01*
X366700Y274100D01*
Y274500D02*
X366300Y275300D01*
X367100D01*
X366700Y274500D01*
X155600Y183100D02*
X154800Y184700D01*
X156400D01*
X155600Y183100D01*
Y183500D02*
X155200Y184300D01*
X156000D01*
X155600Y183500D01*
X153400Y179800D02*
X152600Y181400D01*
X154200D01*
X153400Y179800D01*
Y180200D02*
X153000Y181000D01*
X153800D01*
X153400Y180200D01*
X151000Y183100D02*
X150200Y184700D01*
X151800D01*
X151000Y183100D01*
Y183500D02*
X150600Y184300D01*
X151400D01*
X151000Y183500D01*
X162800Y179900D02*
X162000Y181500D01*
X163600D01*
X162800Y179900D01*
Y180300D02*
X162400Y181100D01*
X163200D01*
X162800Y180300D01*
X157900Y179600D02*
X157100Y181200D01*
X158700D01*
X157900Y179600D01*
Y180000D02*
X157500Y180800D01*
X158300D01*
X157900Y180000D01*
Y186500D02*
X157100Y188100D01*
X158700D01*
X157900Y186500D01*
Y186900D02*
X157500Y187700D01*
X158300D01*
X157900Y186900D01*
X216300Y211700D02*
X215500Y213300D01*
X217100D01*
X216300Y211700D01*
Y212100D02*
X215900Y212900D01*
X216700D01*
X216300Y212100D01*
X146800Y207800D02*
X146000Y209400D01*
X147600D01*
X146800Y207800D01*
Y208200D02*
X146400Y209000D01*
X147200D01*
X146800Y208200D01*
X379200Y283829D02*
X378400Y285429D01*
X380000D01*
X379200Y283829D01*
Y284229D02*
X378800Y285029D01*
X379600D01*
X379200Y284229D01*
X353671Y277900D02*
X352871Y279500D01*
X354471D01*
X353671Y277900D01*
Y278300D02*
X353271Y279100D01*
X354071D01*
X353671Y278300D01*
X235100Y245600D02*
X234300Y247200D01*
X235900D01*
X235100Y245600D01*
Y246000D02*
X234700Y246800D01*
X235500D01*
X235100Y246000D01*
X236900Y272800D02*
X236100Y274400D01*
X237700D01*
X236900Y272800D01*
Y273200D02*
X236500Y274000D01*
X237300D01*
X236900Y273200D01*
X347900Y276900D02*
X347100Y278500D01*
X348700D01*
X347900Y276900D01*
Y277300D02*
X347500Y278100D01*
X348300D01*
X347900Y277300D01*
X212500Y313000D02*
X211700Y314600D01*
X213300D01*
X212500Y313000D01*
Y313400D02*
X212100Y314200D01*
X212900D01*
X212500Y313400D01*
X136700Y319300D02*
X135900Y320900D01*
X137500D01*
X136700Y319300D01*
Y319700D02*
X136300Y320500D01*
X137100D01*
X136700Y319700D01*
X140400Y273300D02*
X139600Y274900D01*
X141200D01*
X140400Y273300D01*
Y273700D02*
X140000Y274500D01*
X140800D01*
X140400Y273700D01*
X141500Y240200D02*
X140700Y241800D01*
X142300D01*
X141500Y240200D01*
Y240600D02*
X141100Y241400D01*
X141900D01*
X141500Y240600D01*
X184200Y240850D02*
X183400Y242450D01*
X185000D01*
X184200Y240850D01*
Y241250D02*
X183800Y242050D01*
X184600D01*
X184200Y241250D01*
X152434Y240850D02*
X151634Y242450D01*
X153234D01*
X152434Y240850D01*
Y241250D02*
X152034Y242050D01*
X152834D01*
X152434Y241250D01*
X147900Y246700D02*
X147100Y248300D01*
X148700D01*
X147900Y246700D01*
Y247100D02*
X147500Y247900D01*
X148300D01*
X147900Y247100D01*
X195100Y261500D02*
X194300Y263100D01*
X195900D01*
X195100Y261500D01*
Y261900D02*
X194700Y262700D01*
X195500D01*
X195100Y261900D01*
X197121Y253531D02*
X196321Y255131D01*
X197921D01*
X197121Y253531D01*
Y253931D02*
X196721Y254731D01*
X197521D01*
X197121Y253931D01*
X213700Y264400D02*
X212900Y266000D01*
X214500D01*
X213700Y264400D01*
Y264800D02*
X213300Y265600D01*
X214100D01*
X213700Y264800D01*
X211400Y260200D02*
X210600Y261800D01*
X212200D01*
X211400Y260200D01*
Y260600D02*
X211000Y261400D01*
X211800D01*
X211400Y260600D01*
X231900Y269200D02*
X231100Y270800D01*
X232700D01*
X231900Y269200D01*
Y269600D02*
X231500Y270400D01*
X232300D01*
X231900Y269600D01*
X232400Y273800D02*
X231600Y275400D01*
X233200D01*
X232400Y273800D01*
Y274200D02*
X232000Y275000D01*
X232800D01*
X232400Y274200D01*
X227200Y266100D02*
X226400Y267700D01*
X228000D01*
X227200Y266100D01*
Y266500D02*
X226800Y267300D01*
X227600D01*
X227200Y266500D01*
X291000Y237700D02*
X290200Y239300D01*
X291800D01*
X291000Y237700D01*
Y238100D02*
X290600Y238900D01*
X291400D01*
X291000Y238100D01*
X262600Y272100D02*
X261800Y273700D01*
X263400D01*
X262600Y272100D01*
Y272500D02*
X262200Y273300D01*
X263000D01*
X262600Y272500D01*
X266100Y268900D02*
X265300Y270500D01*
X266900D01*
X266100Y268900D01*
Y269300D02*
X265700Y270100D01*
X266500D01*
X266100Y269300D01*
X306600Y127087D02*
X305800Y128688D01*
X307400D01*
X306600Y127087D01*
Y127488D02*
X306200Y128287D01*
X307000D01*
X306600Y127488D01*
X293700Y302290D02*
X292900Y303890D01*
X294500D01*
X293700Y302290D01*
Y302690D02*
X293300Y303490D01*
X294100D01*
X293700Y302690D01*
X252385Y302700D02*
X251585Y304300D01*
X253185D01*
X252385Y302700D01*
Y303100D02*
X251985Y303900D01*
X252785D01*
X252385Y303100D01*
X311000Y287900D02*
X310200Y289500D01*
X311800D01*
X311000Y287900D01*
Y288300D02*
X310600Y289100D01*
X311400D01*
X311000Y288300D01*
X301200Y303500D02*
X300400Y305100D01*
X302000D01*
X301200Y303500D01*
Y303900D02*
X300800Y304700D01*
X301600D01*
X301200Y303900D01*
X294300Y236800D02*
X293500Y238400D01*
X295100D01*
X294300Y236800D01*
Y237200D02*
X293900Y238000D01*
X294700D01*
X294300Y237200D01*
X243350Y289900D02*
X242550Y291500D01*
X244150D01*
X243350Y289900D01*
Y290300D02*
X242950Y291100D01*
X243750D01*
X243350Y290300D01*
X238700Y290500D02*
X237900Y292100D01*
X239500D01*
X238700Y290500D01*
Y290900D02*
X238300Y291700D01*
X239100D01*
X238700Y290900D01*
X210600Y298100D02*
X209800Y299700D01*
X211400D01*
X210600Y298100D01*
Y298500D02*
X210200Y299300D01*
X211000D01*
X210600Y298500D01*
X120700Y288700D02*
X119900Y290300D01*
X121500D01*
X120700Y288700D01*
Y289100D02*
X120300Y289900D01*
X121100D01*
X120700Y289100D01*
X116000Y287700D02*
X115200Y289300D01*
X116800D01*
X116000Y287700D01*
Y288100D02*
X115600Y288900D01*
X116400D01*
X116000Y288100D01*
X150400Y282450D02*
X149600Y284050D01*
X151200D01*
X150400Y282450D01*
Y282850D02*
X150000Y283650D01*
X150800D01*
X150400Y282850D01*
X216000Y293200D02*
X215200Y294800D01*
X216800D01*
X216000Y293200D01*
Y293600D02*
X215600Y294400D01*
X216400D01*
X216000Y293600D01*
X224800Y299700D02*
X224000Y301300D01*
X225600D01*
X224800Y299700D01*
Y300100D02*
X224400Y300900D01*
X225200D01*
X224800Y300100D01*
X227600Y303000D02*
X226800Y304600D01*
X228400D01*
X227600Y303000D01*
Y303400D02*
X227200Y304200D01*
X228000D01*
X227600Y303400D01*
X132800Y237800D02*
X132000Y239400D01*
X133600D01*
X132800Y237800D01*
Y238200D02*
X132400Y239000D01*
X133200D01*
X132800Y238200D01*
X256231Y240169D02*
X255431Y241769D01*
X257031D01*
X256231Y240169D01*
Y240569D02*
X255831Y241369D01*
X256631D01*
X256231Y240569D01*
X259000Y245555D02*
X258200Y247155D01*
X259800D01*
X259000Y245555D01*
Y245955D02*
X258600Y246755D01*
X259400D01*
X259000Y245955D01*
X112548Y136248D02*
X111748Y137848D01*
X113348D01*
X112548Y136248D01*
Y136648D02*
X112148Y137448D01*
X112948D01*
X112548Y136648D01*
X241200Y216900D02*
X240400Y218500D01*
X242000D01*
X241200Y216900D01*
Y217300D02*
X240800Y218100D01*
X241600D01*
X241200Y217300D01*
X171100Y207200D02*
X170300Y208800D01*
X171900D01*
X171100Y207200D01*
Y207600D02*
X170700Y208400D01*
X171500D01*
X171100Y207600D01*
X194300Y250500D02*
X193500Y252100D01*
X195100D01*
X194300Y250500D01*
Y250900D02*
X193900Y251700D01*
X194700D01*
X194300Y250900D01*
X179900Y251700D02*
X179100Y253300D01*
X180700D01*
X179900Y251700D01*
Y252100D02*
X179500Y252900D01*
X180300D01*
X179900Y252100D01*
X190000Y233300D02*
X189200Y234900D01*
X190800D01*
X190000Y233300D01*
Y233700D02*
X189600Y234500D01*
X190400D01*
X190000Y233700D01*
X177100Y210700D02*
X176300Y212300D01*
X177900D01*
X177100Y210700D01*
Y211100D02*
X176700Y211900D01*
X177500D01*
X177100Y211100D01*
X191700Y208800D02*
X190900Y210400D01*
X192500D01*
X191700Y208800D01*
Y209200D02*
X191300Y210000D01*
X192100D01*
X191700Y209200D01*
X204000Y208200D02*
X203200Y209800D01*
X204800D01*
X204000Y208200D01*
Y208600D02*
X203600Y209400D01*
X204400D01*
X204000Y208600D01*
X333600Y303100D02*
X332800Y304700D01*
X334400D01*
X333600Y303100D01*
Y303500D02*
X333200Y304300D01*
X334000D01*
X333600Y303500D01*
X322600Y268467D02*
X321800Y270067D01*
X323400D01*
X322600Y268467D01*
Y268867D02*
X322200Y269667D01*
X323000D01*
X322600Y268867D01*
X333900Y310100D02*
X333100Y311700D01*
X334700D01*
X333900Y310100D01*
Y310500D02*
X333500Y311300D01*
X334300D01*
X333900Y310500D01*
X339300Y112200D02*
X338500Y113800D01*
X340100D01*
X339300Y112200D01*
Y112600D02*
X338900Y113400D01*
X339700D01*
X339300Y112600D01*
X301700Y58700D02*
X300900Y60300D01*
X302500D01*
X301700Y58700D01*
Y59100D02*
X301300Y59900D01*
X302100D01*
X301700Y59100D01*
X298900Y63900D02*
X298100Y65500D01*
X299700D01*
X298900Y63900D01*
Y64300D02*
X298500Y65100D01*
X299300D01*
X298900Y64300D01*
X333900Y73400D02*
X333100Y75000D01*
X334700D01*
X333900Y73400D01*
Y73800D02*
X333500Y74600D01*
X334300D01*
X333900Y73800D01*
X324700Y62000D02*
X323900Y63600D01*
X325500D01*
X324700Y62000D01*
Y62400D02*
X324300Y63200D01*
X325100D01*
X324700Y62400D01*
X337951Y98349D02*
X337151Y99949D01*
X338751D01*
X337951Y98349D01*
Y98749D02*
X337551Y99549D01*
X338351D01*
X337951Y98749D01*
X340350Y277200D02*
X339550Y278800D01*
X341150D01*
X340350Y277200D01*
Y277600D02*
X339950Y278400D01*
X340750D01*
X340350Y277600D01*
X338500Y273400D02*
X337700Y275000D01*
X339300D01*
X338500Y273400D01*
Y273800D02*
X338100Y274600D01*
X338900D01*
X338500Y273800D01*
X237000Y307400D02*
X236200Y309000D01*
X237800D01*
X237000Y307400D01*
Y307800D02*
X236600Y308600D01*
X237400D01*
X237000Y307800D01*
X231900Y310400D02*
X231100Y312000D01*
X232700D01*
X231900Y310400D01*
Y310800D02*
X231500Y311600D01*
X232300D01*
X231900Y310800D01*
X267400Y134300D02*
X266600Y135900D01*
X268200D01*
X267400Y134300D01*
Y134700D02*
X267000Y135500D01*
X267800D01*
X267400Y134700D01*
X251400Y157700D02*
X250600Y159300D01*
X252200D01*
X251400Y157700D01*
Y158100D02*
X251000Y158900D01*
X251800D01*
X251400Y158100D01*
X255800Y158500D02*
X255000Y160100D01*
X256600D01*
X255800Y158500D01*
Y158900D02*
X255400Y159700D01*
X256200D01*
X255800Y158900D01*
X260900Y140100D02*
X260100Y141700D01*
X261700D01*
X260900Y140100D01*
Y140500D02*
X260500Y141300D01*
X261300D01*
X260900Y140500D01*
X241600Y331500D02*
X240800Y333100D01*
X242400D01*
X241600Y331500D01*
Y331900D02*
X241200Y332700D01*
X242000D01*
X241600Y331900D01*
X212500Y327500D02*
X211700Y329100D01*
X213300D01*
X212500Y327500D01*
Y327900D02*
X212100Y328700D01*
X212900D01*
X212500Y327900D01*
X182700Y281600D02*
X181900Y283200D01*
X183500D01*
X182700Y281600D01*
Y282000D02*
X182300Y282800D01*
X183100D01*
X182700Y282000D01*
X161673Y256719D02*
X160873Y258319D01*
X162473D01*
X161673Y256719D01*
Y257119D02*
X161273Y257919D01*
X162073D01*
X161673Y257119D01*
X174500Y255300D02*
X173700Y256900D01*
X175300D01*
X174500Y255300D01*
Y255700D02*
X174100Y256500D01*
X174900D01*
X174500Y255700D01*
X218000Y306200D02*
X217200Y307800D01*
X218800D01*
X218000Y306200D01*
Y306600D02*
X217600Y307400D01*
X218400D01*
X218000Y306600D01*
X264800Y399200D02*
X264000Y400800D01*
X265600D01*
X264800Y399200D01*
Y399600D02*
X264400Y400400D01*
X265200D01*
X264800Y399600D01*
X279800Y396700D02*
X279000Y398300D01*
X280600D01*
X279800Y396700D01*
Y397100D02*
X279400Y397900D01*
X280200D01*
X279800Y397100D01*
X142250Y253300D02*
X141450Y254900D01*
X143050D01*
X142250Y253300D01*
Y253700D02*
X141850Y254500D01*
X142650D01*
X142250Y253700D01*
X211200Y244900D02*
X210400Y246500D01*
X212000D01*
X211200Y244900D01*
Y245300D02*
X210800Y246100D01*
X211600D01*
X211200Y245300D01*
X223000Y246000D02*
X222200Y247600D01*
X223800D01*
X223000Y246000D01*
Y246400D02*
X222600Y247200D01*
X223400D01*
X223000Y246400D01*
X129600Y246900D02*
X128800Y248500D01*
X130400D01*
X129600Y246900D01*
Y247300D02*
X129200Y248100D01*
X130000D01*
X129600Y247300D01*
X129100Y228700D02*
X128300Y230300D01*
X129900D01*
X129100Y228700D01*
Y229100D02*
X128700Y229900D01*
X129500D01*
X129100Y229100D01*
X148480Y229242D02*
X147680Y230842D01*
X149280D01*
X148480Y229242D01*
Y229642D02*
X148080Y230442D01*
X148880D01*
X148480Y229642D01*
X118100Y265600D02*
X117300Y267200D01*
X118900D01*
X118100Y265600D01*
Y266000D02*
X117700Y266800D01*
X118500D01*
X118100Y266000D01*
X75900Y263100D02*
X75100Y264700D01*
X76700D01*
X75900Y263100D01*
Y263500D02*
X75500Y264300D01*
X76300D01*
X75900Y263500D01*
X226200Y174600D02*
X225400Y176200D01*
X227000D01*
X226200Y174600D01*
Y175000D02*
X225800Y175800D01*
X226600D01*
X226200Y175000D01*
X234200Y134100D02*
X233400Y135700D01*
X235000D01*
X234200Y134100D01*
Y134500D02*
X233800Y135300D01*
X234600D01*
X234200Y134500D01*
X255800Y132100D02*
X255000Y133700D01*
X256600D01*
X255800Y132100D01*
Y132500D02*
X255400Y133300D01*
X256200D01*
X255800Y132500D01*
X230600Y128600D02*
X229800Y130200D01*
X231400D01*
X230600Y128600D01*
Y129000D02*
X230200Y129800D01*
X231000D01*
X230600Y129000D01*
X233443Y212800D02*
X232643Y214400D01*
X234243D01*
X233443Y212800D01*
Y213200D02*
X233043Y214000D01*
X233843D01*
X233443Y213200D01*
X240500Y220900D02*
X239700Y222500D01*
X241300D01*
X240500Y220900D01*
Y221300D02*
X240100Y222100D01*
X240900D01*
X240500Y221300D01*
X275500Y174700D02*
X274700Y176300D01*
X276300D01*
X275500Y174700D01*
Y175100D02*
X275100Y175900D01*
X275900D01*
X275500Y175100D01*
X278000Y182200D02*
X277200Y183800D01*
X278800D01*
X278000Y182200D01*
Y182600D02*
X277600Y183400D01*
X278400D01*
X278000Y182600D01*
X240700Y180000D02*
X239900Y181600D01*
X241500D01*
X240700Y180000D01*
Y180400D02*
X240300Y181200D01*
X241100D01*
X240700Y180400D01*
X394000Y24700D02*
X393200Y26300D01*
X394800D01*
X394000Y24700D01*
Y25100D02*
X393600Y25900D01*
X394400D01*
X394000Y25100D01*
X393800Y28500D02*
X393000Y30100D01*
X394600D01*
X393800Y28500D01*
Y28900D02*
X393400Y29700D01*
X394200D01*
X393800Y28900D01*
X390200Y26400D02*
X389400Y28000D01*
X391000D01*
X390200Y26400D01*
Y26800D02*
X389800Y27600D01*
X390600D01*
X390200Y26800D01*
X358200Y44100D02*
X357400Y45700D01*
X359000D01*
X358200Y44100D01*
Y44500D02*
X357800Y45300D01*
X358600D01*
X358200Y44500D01*
X219400Y203900D02*
X218600Y205500D01*
X220200D01*
X219400Y203900D01*
Y204300D02*
X219000Y205100D01*
X219800D01*
X219400Y204300D01*
X251100Y191200D02*
X250300Y192800D01*
X251900D01*
X251100Y191200D01*
Y191600D02*
X250700Y192400D01*
X251500D01*
X251100Y191600D01*
X166700Y204700D02*
X165900Y206300D01*
X167500D01*
X166700Y204700D01*
Y205100D02*
X166300Y205900D01*
X167100D01*
X166700Y205100D01*
X222900Y259100D02*
X222100Y260700D01*
X223700D01*
X222900Y259100D01*
Y259500D02*
X222500Y260300D01*
X223300D01*
X222900Y259500D01*
X173400Y248300D02*
X172600Y249900D01*
X174200D01*
X173400Y248300D01*
Y248700D02*
X173000Y249500D01*
X173800D01*
X173400Y248700D01*
X232100Y106600D02*
X231300Y108200D01*
X232900D01*
X232100Y106600D01*
Y107000D02*
X231700Y107800D01*
X232500D01*
X232100Y107000D01*
X233000Y98200D02*
X232200Y99800D01*
X233800D01*
X233000Y98200D01*
Y98600D02*
X232600Y99400D01*
X233400D01*
X233000Y98600D01*
X231900Y114300D02*
X231100Y115900D01*
X232700D01*
X231900Y114300D01*
Y114700D02*
X231500Y115500D01*
X232300D01*
X231900Y114700D01*
X249300Y224100D02*
X248500Y225700D01*
X250100D01*
X249300Y224100D01*
Y224500D02*
X248900Y225300D01*
X249700D01*
X249300Y224500D01*
X262700Y240500D02*
X261900Y242100D01*
X263500D01*
X262700Y240500D01*
Y240900D02*
X262300Y241700D01*
X263100D01*
X262700Y240900D01*
X256200Y225600D02*
X255400Y227200D01*
X257000D01*
X256200Y225600D01*
Y226000D02*
X255800Y226800D01*
X256600D01*
X256200Y226000D01*
X282900Y177100D02*
X282100Y178700D01*
X283700D01*
X282900Y177100D01*
Y177500D02*
X282500Y178300D01*
X283300D01*
X282900Y177500D01*
X230300Y208900D02*
X229500Y210500D01*
X231100D01*
X230300Y208900D01*
Y209300D02*
X229900Y210100D01*
X230700D01*
X230300Y209300D01*
X311500Y270800D02*
X310700Y272400D01*
X312300D01*
X311500Y270800D01*
Y271200D02*
X311100Y272000D01*
X311900D01*
X311500Y271200D01*
X311400Y283300D02*
X310600Y284900D01*
X312200D01*
X311400Y283300D01*
Y283700D02*
X311000Y284500D01*
X311800D01*
X311400Y283700D01*
X292100Y261200D02*
X291300Y262800D01*
X292900D01*
X292100Y261200D01*
Y261600D02*
X291700Y262400D01*
X292500D01*
X292100Y261600D01*
X291021Y257121D02*
X290221Y258721D01*
X291821D01*
X291021Y257121D01*
Y257521D02*
X290621Y258321D01*
X291421D01*
X291021Y257521D01*
X290500Y252100D02*
X289700Y253700D01*
X291300D01*
X290500Y252100D01*
Y252500D02*
X290100Y253300D01*
X290900D01*
X290500Y252500D01*
X288000Y249400D02*
X287200Y251000D01*
X288800D01*
X288000Y249400D01*
Y249800D02*
X287600Y250600D01*
X288400D01*
X288000Y249800D01*
X335000Y378600D02*
X334200Y380200D01*
X335800D01*
X335000Y378600D01*
Y379000D02*
X334600Y379800D01*
X335400D01*
X335000Y379000D01*
X279064Y358636D02*
X278264Y360236D01*
X279864D01*
X279064Y358636D01*
Y359036D02*
X278664Y359836D01*
X279464D01*
X279064Y359036D01*
X278700Y373500D02*
X277900Y375100D01*
X279500D01*
X278700Y373500D01*
Y373900D02*
X278300Y374700D01*
X279100D01*
X278700Y373900D01*
X275600Y382900D02*
X274800Y384500D01*
X276400D01*
X275600Y382900D01*
Y383300D02*
X275200Y384100D01*
X276000D01*
X275600Y383300D01*
X161000Y300500D02*
X160200Y302100D01*
X161800D01*
X161000Y300500D01*
Y300900D02*
X160600Y301700D01*
X161400D01*
X161000Y300900D01*
X211200Y230700D02*
X210400Y232300D01*
X212000D01*
X211200Y230700D01*
Y231100D02*
X210800Y231900D01*
X211600D01*
X211200Y231100D01*
X263200Y275800D02*
X262400Y277400D01*
X264000D01*
X263200Y275800D01*
Y276200D02*
X262800Y277000D01*
X263600D01*
X263200Y276200D01*
X212300Y275800D02*
X211500Y277400D01*
X213100D01*
X212300Y275800D01*
Y276200D02*
X211900Y277000D01*
X212700D01*
X212300Y276200D01*
X210600Y254700D02*
X209800Y256300D01*
X211400D01*
X210600Y254700D01*
Y255100D02*
X210200Y255900D01*
X211000D01*
X210600Y255100D01*
X212900Y257100D02*
X212100Y258700D01*
X213700D01*
X212900Y257100D01*
Y257500D02*
X212500Y258300D01*
X213300D01*
X212900Y257500D01*
X267600Y229200D02*
X266800Y230800D01*
X268400D01*
X267600Y229200D01*
Y229600D02*
X267200Y230400D01*
X268000D01*
X267600Y229600D01*
X263200Y279300D02*
X262400Y280900D01*
X264000D01*
X263200Y279300D01*
Y279700D02*
X262800Y280500D01*
X263600D01*
X263200Y279700D01*
X253100Y285600D02*
X252300Y287200D01*
X253900D01*
X253100Y285600D01*
Y286000D02*
X252700Y286800D01*
X253500D01*
X253100Y286000D01*
X263000Y285300D02*
X262200Y286900D01*
X263800D01*
X263000Y285300D01*
Y285700D02*
X262600Y286500D01*
X263400D01*
X263000Y285700D01*
X83000Y275550D02*
X82200Y277150D01*
X83800D01*
X83000Y275550D01*
Y275950D02*
X82600Y276750D01*
X83400D01*
X83000Y275950D01*
X71139Y276000D02*
X70339Y277600D01*
X71939D01*
X71139Y276000D01*
Y276400D02*
X70739Y277200D01*
X71539D01*
X71139Y276400D01*
X359000Y93900D02*
X358200Y95500D01*
X359800D01*
X359000Y93900D01*
Y94300D02*
X358600Y95100D01*
X359400D01*
X359000Y94300D01*
X358300Y79500D02*
X357500Y81100D01*
X359100D01*
X358300Y79500D01*
Y79900D02*
X357900Y80700D01*
X358700D01*
X358300Y79900D01*
X379600Y42300D02*
X378800Y43900D01*
X380400D01*
X379600Y42300D01*
Y42700D02*
X379200Y43500D01*
X380000D01*
X379600Y42700D01*
X384700Y42300D02*
X383900Y43900D01*
X385500D01*
X384700Y42300D01*
Y42700D02*
X384300Y43500D01*
X385100D01*
X384700Y42700D01*
X333600Y61000D02*
X332800Y62600D01*
X334400D01*
X333600Y61000D01*
Y61400D02*
X333200Y62200D01*
X334000D01*
X333600Y61400D01*
X346259Y135841D02*
X345459Y137441D01*
X347059D01*
X346259Y135841D01*
Y136241D02*
X345859Y137041D01*
X346659D01*
X346259Y136241D01*
X195800Y70200D02*
X195000Y71800D01*
X196600D01*
X195800Y70200D01*
Y70600D02*
X195400Y71400D01*
X196200D01*
X195800Y70600D01*
X193000Y70200D02*
X192200Y71800D01*
X193800D01*
X193000Y70200D01*
Y70600D02*
X192600Y71400D01*
X193400D01*
X193000Y70600D01*
X162400Y185900D02*
X161600Y187500D01*
X163200D01*
X162400Y185900D01*
Y186300D02*
X162000Y187100D01*
X162800D01*
X162400Y186300D01*
X153500Y186400D02*
X152700Y188000D01*
X154300D01*
X153500Y186400D01*
Y186800D02*
X153100Y187600D01*
X153900D01*
X153500Y186800D01*
X160200Y183000D02*
X159400Y184600D01*
X161000D01*
X160200Y183000D01*
Y183400D02*
X159800Y184200D01*
X160600D01*
X160200Y183400D01*
X250600Y357200D02*
X249800Y358800D01*
X251400D01*
X250600Y357200D01*
Y357600D02*
X250200Y358400D01*
X251000D01*
X250600Y357600D01*
X250000Y326500D02*
X249200Y328100D01*
X250800D01*
X250000Y326500D01*
Y326900D02*
X249600Y327700D01*
X250400D01*
X250000Y326900D01*
X211000Y356700D02*
X210200Y358300D01*
X211800D01*
X211000Y356700D01*
Y357100D02*
X210600Y357900D01*
X211400D01*
X211000Y357100D01*
X251000Y407300D02*
X250200Y408900D01*
X251800D01*
X251000Y407300D01*
Y407700D02*
X250600Y408500D01*
X251400D01*
X251000Y407700D01*
X203600Y406600D02*
X202800Y408200D01*
X204400D01*
X203600Y406600D01*
Y407000D02*
X203200Y407800D01*
X204000D01*
X203600Y407000D01*
X334300Y365000D02*
X333500Y366600D01*
X335100D01*
X334300Y365000D01*
Y365400D02*
X333900Y366200D01*
X334700D01*
X334300Y365400D01*
X328000Y364600D02*
X327200Y366200D01*
X328800D01*
X328000Y364600D01*
Y365000D02*
X327600Y365800D01*
X328400D01*
X328000Y365000D01*
X321100Y363100D02*
X320300Y364700D01*
X321900D01*
X321100Y363100D01*
Y363500D02*
X320700Y364300D01*
X321500D01*
X321100Y363500D01*
X321000Y379500D02*
X320200Y381100D01*
X321800D01*
X321000Y379500D01*
Y379900D02*
X320600Y380700D01*
X321400D01*
X321000Y379900D01*
X328200Y378600D02*
X327400Y380200D01*
X329000D01*
X328200Y378600D01*
Y379000D02*
X327800Y379800D01*
X328600D01*
X328200Y379000D01*
X317300Y379300D02*
X316500Y380900D01*
X318100D01*
X317300Y379300D01*
Y379700D02*
X316900Y380500D01*
X317700D01*
X317300Y379700D01*
X326700Y384100D02*
X325900Y385700D01*
X327500D01*
X326700Y384100D01*
Y384500D02*
X326300Y385300D01*
X327100D01*
X326700Y384500D01*
X275300Y396237D02*
X274500Y397837D01*
X276100D01*
X275300Y396237D01*
Y396637D02*
X274900Y397437D01*
X275700D01*
X275300Y396637D01*
X391200Y410500D02*
X390400Y412100D01*
X392000D01*
X391200Y410500D01*
Y410900D02*
X390800Y411700D01*
X391600D01*
X391200Y410900D01*
X391100Y388200D02*
X390300Y389800D01*
X391900D01*
X391100Y388200D01*
Y388600D02*
X390700Y389400D01*
X391500D01*
X391100Y388600D01*
X391200Y370800D02*
X390400Y372400D01*
X392000D01*
X391200Y370800D01*
Y371200D02*
X390800Y372000D01*
X391600D01*
X391200Y371200D01*
X390700Y347900D02*
X389900Y349500D01*
X391500D01*
X390700Y347900D01*
Y348300D02*
X390300Y349100D01*
X391100D01*
X390700Y348300D01*
X391300Y422600D02*
X390500Y424200D01*
X392100D01*
X391300Y422600D01*
Y423000D02*
X390900Y423800D01*
X391700D01*
X391300Y423000D01*
X185000Y293200D02*
X184200Y294800D01*
X185800D01*
X185000Y293200D01*
Y293600D02*
X184600Y294400D01*
X185400D01*
X185000Y293600D01*
X168200Y52600D02*
X167400Y54200D01*
X169000D01*
X168200Y52600D01*
Y53000D02*
X167800Y53800D01*
X168600D01*
X168200Y53000D01*
X166200Y48900D02*
X165400Y50500D01*
X167000D01*
X166200Y48900D01*
Y49300D02*
X165800Y50100D01*
X166600D01*
X166200Y49300D01*
X160300Y49000D02*
X159500Y50600D01*
X161100D01*
X160300Y49000D01*
Y49400D02*
X159900Y50200D01*
X160700D01*
X160300Y49400D01*
X154400Y48800D02*
X153600Y50400D01*
X155200D01*
X154400Y48800D01*
Y49200D02*
X154000Y50000D01*
X154800D01*
X154400Y49200D01*
X163000Y52600D02*
X162200Y54200D01*
X163800D01*
X163000Y52600D01*
Y53000D02*
X162600Y53800D01*
X163400D01*
X163000Y53000D01*
X157300D02*
X156500Y54600D01*
X158100D01*
X157300Y53000D01*
Y53400D02*
X156900Y54200D01*
X157700D01*
X157300Y53400D01*
X151500Y52900D02*
X150700Y54500D01*
X152300D01*
X151500Y52900D01*
Y53300D02*
X151100Y54100D01*
X151900D01*
X151500Y53300D01*
X76000Y287200D02*
X75200Y288800D01*
X76800D01*
X76000Y287200D01*
Y287600D02*
X75600Y288400D01*
X76400D01*
X76000Y287600D01*
X358000Y295200D02*
X357200Y296800D01*
X358800D01*
X358000Y295200D01*
Y295600D02*
X357600Y296400D01*
X358400D01*
X358000Y295600D01*
X85600Y369500D02*
X84800Y371100D01*
X86400D01*
X85600Y369500D01*
Y369900D02*
X85200Y370700D01*
X86000D01*
X85600Y369900D01*
X85500Y386100D02*
X84700Y387700D01*
X86300D01*
X85500Y386100D01*
Y386500D02*
X85100Y387300D01*
X85900D01*
X85500Y386500D01*
X85600Y405600D02*
X84800Y407200D01*
X86400D01*
X85600Y405600D01*
Y406000D02*
X85200Y406800D01*
X86000D01*
X85600Y406000D01*
Y425500D02*
X84800Y427100D01*
X86400D01*
X85600Y425500D01*
Y425900D02*
X85200Y426700D01*
X86000D01*
X85600Y425900D01*
X85000Y349900D02*
X84200Y351500D01*
X85800D01*
X85000Y349900D01*
Y350300D02*
X84600Y351100D01*
X85400D01*
X85000Y350300D01*
X78331Y299819D02*
X78731Y300219D01*
X79131D01*
X78731Y300619D01*
X79131Y301019D01*
X78731D01*
X78331Y301419D01*
X77931Y301019D01*
X77531D01*
X77931Y300619D01*
X77531Y300219D01*
X77931D01*
X78331Y299819D01*
Y300219D02*
X78531Y300419D01*
X78731D01*
X78531Y300619D01*
X78731Y300819D01*
X78531D01*
X78331Y301019D01*
X78131Y300819D01*
X77931D01*
X78131Y300619D01*
X77931Y300419D01*
X78131D01*
X78331Y300219D01*
X74000Y299819D02*
X74400Y300219D01*
X74800D01*
X74400Y300619D01*
X74800Y301019D01*
X74400D01*
X74000Y301419D01*
X73600Y301019D01*
X73200D01*
X73600Y300619D01*
X73200Y300219D01*
X73600D01*
X74000Y299819D01*
Y300219D02*
X74200Y300419D01*
X74400D01*
X74200Y300619D01*
X74400Y300819D01*
X74200D01*
X74000Y301019D01*
X73800Y300819D01*
X73600D01*
X73800Y300619D01*
X73600Y300419D01*
X73800D01*
X74000Y300219D01*
X78331Y304150D02*
X78731Y304550D01*
X79131D01*
X78731Y304950D01*
X79131Y305350D01*
X78731D01*
X78331Y305750D01*
X77931Y305350D01*
X77531D01*
X77931Y304950D01*
X77531Y304550D01*
X77931D01*
X78331Y304150D01*
Y304550D02*
X78531Y304750D01*
X78731D01*
X78531Y304950D01*
X78731Y305150D01*
X78531D01*
X78331Y305350D01*
X78131Y305150D01*
X77931D01*
X78131Y304950D01*
X77931Y304750D01*
X78131D01*
X78331Y304550D01*
X74000Y304150D02*
X74400Y304550D01*
X74800D01*
X74400Y304950D01*
X74800Y305350D01*
X74400D01*
X74000Y305750D01*
X73600Y305350D01*
X73200D01*
X73600Y304950D01*
X73200Y304550D01*
X73600D01*
X74000Y304150D01*
Y304550D02*
X74200Y304750D01*
X74400D01*
X74200Y304950D01*
X74400Y305150D01*
X74200D01*
X74000Y305350D01*
X73800Y305150D01*
X73600D01*
X73800Y304950D01*
X73600Y304750D01*
X73800D01*
X74000Y304550D01*
X67000Y292200D02*
X66200Y293800D01*
X67800D01*
X67000Y292200D01*
Y292600D02*
X66600Y293400D01*
X67400D01*
X67000Y292600D01*
X78000Y314200D02*
X77200Y315800D01*
X78800D01*
X78000Y314200D01*
Y314600D02*
X77600Y315400D01*
X78400D01*
X78000Y314600D01*
X64000Y290400D02*
X63200Y292000D01*
X64800D01*
X64000Y290400D01*
Y290800D02*
X63600Y291600D01*
X64400D01*
X64000Y290800D01*
X367300Y291200D02*
X366500Y292800D01*
X368100D01*
X367300Y291200D01*
Y291600D02*
X366900Y292400D01*
X367700D01*
X367300Y291600D01*
X221000Y295200D02*
X220200Y296800D01*
X221800D01*
X221000Y295200D01*
Y295600D02*
X220600Y296400D01*
X221400D01*
X221000Y295600D01*
X366000Y295200D02*
X365200Y296800D01*
X366800D01*
X366000Y295200D01*
Y295600D02*
X365600Y296400D01*
X366400D01*
X366000Y295600D01*
X68839Y283450D02*
X68039Y285050D01*
X69639D01*
X68839Y283450D01*
Y283850D02*
X68439Y284650D01*
X69239D01*
X68839Y283850D01*
X65169Y286350D02*
X64369Y287950D01*
X65969D01*
X65169Y286350D01*
Y286750D02*
X64769Y287550D01*
X65569D01*
X65169Y286750D01*
X374861Y304150D02*
X375261Y304550D01*
X375661D01*
X375261Y304950D01*
X375661Y305350D01*
X375261D01*
X374861Y305750D01*
X374461Y305350D01*
X374061D01*
X374461Y304950D01*
X374061Y304550D01*
X374461D01*
X374861Y304150D01*
Y304550D02*
X375061Y304750D01*
X375261D01*
X375061Y304950D01*
X375261Y305150D01*
X375061D01*
X374861Y305350D01*
X374661Y305150D01*
X374461D01*
X374661Y304950D01*
X374461Y304750D01*
X374661D01*
X374861Y304550D01*
X379191Y304150D02*
X379591Y304550D01*
X379991D01*
X379591Y304950D01*
X379991Y305350D01*
X379591D01*
X379191Y305750D01*
X378791Y305350D01*
X378391D01*
X378791Y304950D01*
X378391Y304550D01*
X378791D01*
X379191Y304150D01*
Y304550D02*
X379391Y304750D01*
X379591D01*
X379391Y304950D01*
X379591Y305150D01*
X379391D01*
X379191Y305350D01*
X378991Y305150D01*
X378791D01*
X378991Y304950D01*
X378791Y304750D01*
X378991D01*
X379191Y304550D01*
X374861Y299819D02*
X375261Y300219D01*
X375661D01*
X375261Y300619D01*
X375661Y301019D01*
X375261D01*
X374861Y301419D01*
X374461Y301019D01*
X374061D01*
X374461Y300619D01*
X374061Y300219D01*
X374461D01*
X374861Y299819D01*
Y300219D02*
X375061Y300419D01*
X375261D01*
X375061Y300619D01*
X375261Y300819D01*
X375061D01*
X374861Y301019D01*
X374661Y300819D01*
X374461D01*
X374661Y300619D01*
X374461Y300419D01*
X374661D01*
X374861Y300219D01*
X379191Y299819D02*
X379591Y300219D01*
X379991D01*
X379591Y300619D01*
X379991Y301019D01*
X379591D01*
X379191Y301419D01*
X378791Y301019D01*
X378391D01*
X378791Y300619D01*
X378391Y300219D01*
X378791D01*
X379191Y299819D01*
Y300219D02*
X379391Y300419D01*
X379591D01*
X379391Y300619D01*
X379591Y300819D01*
X379391D01*
X379191Y301019D01*
X378991Y300819D01*
X378791D01*
X378991Y300619D01*
X378791Y300419D01*
X378991D01*
X379191Y300219D01*
X59200Y274700D02*
X58400Y276300D01*
X60000D01*
X59200Y274700D01*
Y275100D02*
X58800Y275900D01*
X59600D01*
X59200Y275100D01*
X59800Y267100D02*
X59000Y268700D01*
X60600D01*
X59800Y267100D01*
Y267500D02*
X59400Y268300D01*
X60200D01*
X59800Y267500D01*
X56939Y268850D02*
X56139Y270450D01*
X57739D01*
X56939Y268850D01*
Y269250D02*
X56539Y270050D01*
X57339D01*
X56939Y269250D01*
X56839Y275950D02*
X56039Y277550D01*
X57639D01*
X56839Y275950D01*
Y276350D02*
X56439Y277150D01*
X57239D01*
X56839Y276350D01*
X96239Y269150D02*
X95439Y270750D01*
X97039D01*
X96239Y269150D01*
Y269550D02*
X95839Y270350D01*
X96639D01*
X96239Y269550D01*
X71139Y272250D02*
X70339Y273850D01*
X71939D01*
X71139Y272250D01*
Y272650D02*
X70739Y273450D01*
X71539D01*
X71139Y272650D01*
Y268650D02*
X70339Y270250D01*
X71939D01*
X71139Y268650D01*
Y269050D02*
X70739Y269850D01*
X71539D01*
X71139Y269050D01*
X379000Y315200D02*
X378200Y316800D01*
X379800D01*
X379000Y315200D01*
Y315600D02*
X378600Y316400D01*
X379400D01*
X379000Y315600D01*
X385000Y289500D02*
X384200Y291100D01*
X385800D01*
X385000Y289500D01*
Y289900D02*
X384600Y290700D01*
X385400D01*
X385000Y289900D01*
X393700Y274900D02*
X392900Y276500D01*
X394500D01*
X393700Y274900D01*
Y275300D02*
X393300Y276100D01*
X394100D01*
X393700Y275300D01*
X243000Y75200D02*
X242200Y76800D01*
X243800D01*
X243000Y75200D01*
Y75600D02*
X242600Y76400D01*
X243400D01*
X243000Y75600D01*
X246000Y65200D02*
X245200Y66800D01*
X246800D01*
X246000Y65200D01*
Y65600D02*
X245600Y66400D01*
X246400D01*
X246000Y65600D01*
X234000Y80200D02*
X233200Y81800D01*
X234800D01*
X234000Y80200D01*
Y80600D02*
X233600Y81400D01*
X234400D01*
X234000Y80600D01*
Y85200D02*
X233200Y86800D01*
X234800D01*
X234000Y85200D01*
Y85600D02*
X233600Y86400D01*
X234400D01*
X234000Y85600D01*
X232000Y89200D02*
X231200Y90800D01*
X232800D01*
X232000Y89200D01*
Y89600D02*
X231600Y90400D01*
X232400D01*
X232000Y89600D01*
X190000Y70200D02*
X189200Y71800D01*
X190800D01*
X190000Y70200D01*
Y70600D02*
X189600Y71400D01*
X190400D01*
X190000Y70600D01*
X192000Y39200D02*
X191200Y40800D01*
X192800D01*
X192000Y39200D01*
Y39600D02*
X191600Y40400D01*
X192400D01*
X192000Y39600D01*
X189000Y39200D02*
X188200Y40800D01*
X189800D01*
X189000Y39200D01*
Y39600D02*
X188600Y40400D01*
X189400D01*
X189000Y39600D01*
X188000Y47200D02*
X187200Y48800D01*
X188800D01*
X188000Y47200D01*
Y47600D02*
X187600Y48400D01*
X188400D01*
X188000Y47600D01*
Y61200D02*
X187200Y62800D01*
X188800D01*
X188000Y61200D01*
Y61600D02*
X187600Y62400D01*
X188400D01*
X188000Y61600D01*
X360000Y24200D02*
X359200Y25800D01*
X360800D01*
X360000Y24200D01*
Y24600D02*
X359600Y25400D01*
X360400D01*
X360000Y24600D01*
Y30200D02*
X359200Y31800D01*
X360800D01*
X360000Y30200D01*
Y30600D02*
X359600Y31400D01*
X360400D01*
X360000Y30600D01*
Y27200D02*
X359200Y28800D01*
X360800D01*
X360000Y27200D01*
Y27600D02*
X359600Y28400D01*
X360400D01*
X360000Y27600D01*
X251000Y45200D02*
X250200Y46800D01*
X251800D01*
X251000Y45200D01*
Y45600D02*
X250600Y46400D01*
X251400D01*
X251000Y45600D01*
X247000Y45200D02*
X246200Y46800D01*
X247800D01*
X247000Y45200D01*
Y45600D02*
X246600Y46400D01*
X247400D01*
X247000Y45600D01*
X251000Y49200D02*
X250200Y50800D01*
X251800D01*
X251000Y49200D01*
Y49600D02*
X250600Y50400D01*
X251400D01*
X251000Y49600D01*
X247000Y49200D02*
X246200Y50800D01*
X247800D01*
X247000Y49200D01*
Y49600D02*
X246600Y50400D01*
X247400D01*
X247000Y49600D01*
X251000Y53200D02*
X250200Y54800D01*
X251800D01*
X251000Y53200D01*
Y53600D02*
X250600Y54400D01*
X251400D01*
X251000Y53600D01*
X247000Y53200D02*
X246200Y54800D01*
X247800D01*
X247000Y53200D01*
Y53600D02*
X246600Y54400D01*
X247400D01*
X247000Y53600D01*
X251000Y57200D02*
X250200Y58800D01*
X251800D01*
X251000Y57200D01*
Y57600D02*
X250600Y58400D01*
X251400D01*
X251000Y57600D01*
X247000Y57200D02*
X246200Y58800D01*
X247800D01*
X247000Y57200D01*
Y57600D02*
X246600Y58400D01*
X247400D01*
X247000Y57600D01*
X51000Y63200D02*
X50200Y64800D01*
X51800D01*
X51000Y63200D01*
Y63600D02*
X50600Y64400D01*
X51400D01*
X51000Y63600D01*
X82000Y77200D02*
X81200Y78800D01*
X82800D01*
X82000Y77200D01*
Y77600D02*
X81600Y78400D01*
X82400D01*
X82000Y77600D01*
X56500Y63400D02*
X55700Y65000D01*
X57300D01*
X56500Y63400D01*
Y63800D02*
X56100Y64600D01*
X56900D01*
X56500Y63800D01*
X72000Y80600D02*
X71200Y82200D01*
X72800D01*
X72000Y80600D01*
Y81000D02*
X71600Y81800D01*
X72400D01*
X72000Y81000D01*
X90500Y62800D02*
X89700Y64400D01*
X91300D01*
X90500Y62800D01*
Y63200D02*
X90100Y64000D01*
X90900D01*
X90500Y63200D01*
X94940Y62800D02*
X94140Y64400D01*
X95740D01*
X94940Y62800D01*
Y63200D02*
X94540Y64000D01*
X95340D01*
X94940Y63200D01*
X99380Y62800D02*
X98580Y64400D01*
X100180D01*
X99380Y62800D01*
Y63200D02*
X98980Y64000D01*
X99780D01*
X99380Y63200D01*
X103820Y62800D02*
X103020Y64400D01*
X104620D01*
X103820Y62800D01*
Y63200D02*
X103420Y64000D01*
X104220D01*
X103820Y63200D01*
X108260Y62800D02*
X107460Y64400D01*
X109060D01*
X108260Y62800D01*
Y63200D02*
X107860Y64000D01*
X108660D01*
X108260Y63200D01*
X112700Y62800D02*
X111900Y64400D01*
X113500D01*
X112700Y62800D01*
Y63200D02*
X112300Y64000D01*
X113100D01*
X112700Y63200D01*
X112720Y66900D02*
X111920Y68500D01*
X113520D01*
X112720Y66900D01*
Y67300D02*
X112320Y68100D01*
X113120D01*
X112720Y67300D01*
X108280Y66900D02*
X107480Y68500D01*
X109080D01*
X108280Y66900D01*
Y67300D02*
X107880Y68100D01*
X108680D01*
X108280Y67300D01*
X103840Y66900D02*
X103040Y68500D01*
X104640D01*
X103840Y66900D01*
Y67300D02*
X103440Y68100D01*
X104240D01*
X103840Y67300D01*
X99400Y66900D02*
X98600Y68500D01*
X100200D01*
X99400Y66900D01*
Y67300D02*
X99000Y68100D01*
X99800D01*
X99400Y67300D01*
X94960Y66900D02*
X94160Y68500D01*
X95760D01*
X94960Y66900D01*
Y67300D02*
X94560Y68100D01*
X95360D01*
X94960Y67300D01*
X90520Y66900D02*
X89720Y68500D01*
X91320D01*
X90520Y66900D01*
Y67300D02*
X90120Y68100D01*
X90920D01*
X90520Y67300D01*
X92150Y80648D02*
X91350Y82248D01*
X92950D01*
X92150Y80648D01*
Y81048D02*
X91750Y81848D01*
X92550D01*
X92150Y81048D01*
X85850Y70848D02*
X85050Y72448D01*
X86650D01*
X85850Y70848D01*
Y71248D02*
X85450Y72048D01*
X86250D01*
X85850Y71248D01*
D149*
X303600Y231400D02*
G03*
X303600Y231400I-800J0D01*
G01*
Y241400D02*
G03*
X303600Y241400I-800J0D01*
G01*
Y251400D02*
G03*
X303600Y251400I-800J0D01*
G01*
X169800Y69189D02*
G03*
X169800Y69189I-800J0D01*
G01*
Y81000D02*
G03*
X169800Y81000I-800J0D01*
G01*
X282800Y68000D02*
G03*
X282800Y68000I-800J0D01*
G01*
Y79811D02*
G03*
X282800Y79811I-800J0D01*
G01*
X210400Y438900D02*
G03*
X210400Y438900I-800J0D01*
G01*
X220400D02*
G03*
X220400Y438900I-800J0D01*
G01*
X230400D02*
G03*
X230400Y438900I-800J0D01*
G01*
X240400D02*
G03*
X240400Y438900I-800J0D01*
G01*
X284700Y121700D02*
G03*
X284700Y121700I-800J0D01*
G01*
Y131700D02*
G03*
X284700Y131700I-800J0D01*
G01*
Y141700D02*
G03*
X284700Y141700I-800J0D01*
G01*
Y151700D02*
G03*
X284700Y151700I-800J0D01*
G01*
X108800Y376000D02*
G03*
X108800Y376000I-800J0D01*
G01*
Y386000D02*
G03*
X108800Y386000I-800J0D01*
G01*
Y396000D02*
G03*
X108800Y396000I-800J0D01*
G01*
X122800Y376000D02*
G03*
X122800Y376000I-800J0D01*
G01*
Y386000D02*
G03*
X122800Y386000I-800J0D01*
G01*
Y396000D02*
G03*
X122800Y396000I-800J0D01*
G01*
X389400Y132200D02*
G03*
X389400Y132200I-800J0D01*
G01*
Y122200D02*
G03*
X389400Y122200I-800J0D01*
G01*
X379400Y132200D02*
G03*
X379400Y132200I-800J0D01*
G01*
Y122200D02*
G03*
X379400Y122200I-800J0D01*
G01*
X369400Y132200D02*
G03*
X369400Y132200I-800J0D01*
G01*
Y122200D02*
G03*
X369400Y122200I-800J0D01*
G01*
X359400Y132200D02*
G03*
X359400Y132200I-800J0D01*
G01*
Y122200D02*
G03*
X359400Y122200I-800J0D01*
G01*
X125800Y337000D02*
G03*
X125800Y337000I-800J0D01*
G01*
Y327000D02*
G03*
X125800Y327000I-800J0D01*
G01*
X53300Y79400D02*
G03*
X53300Y79400I-800J0D01*
G01*
Y89400D02*
G03*
X53300Y89400I-800J0D01*
G01*
X391800Y455611D02*
G03*
X391800Y455611I-800J0D01*
G01*
Y443800D02*
G03*
X391800Y443800I-800J0D01*
G01*
X379989D02*
G03*
X379989Y443800I-800J0D01*
G01*
Y455611D02*
G03*
X379989Y455611I-800J0D01*
G01*
X74311Y454511D02*
G03*
X74311Y454511I-800J0D01*
G01*
Y442700D02*
G03*
X74311Y442700I-800J0D01*
G01*
X62500D02*
G03*
X62500Y442700I-800J0D01*
G01*
Y454511D02*
G03*
X62500Y454511I-800J0D01*
G01*
X327100Y133200D02*
G03*
X327100Y133200I-800J0D01*
G01*
Y123200D02*
G03*
X327100Y123200I-800J0D01*
G01*
Y113200D02*
G03*
X327100Y113200I-800J0D01*
G01*
Y80500D02*
G03*
X327100Y80500I-800J0D01*
G01*
Y90500D02*
G03*
X327100Y90500I-800J0D01*
G01*
Y100500D02*
G03*
X327100Y100500I-800J0D01*
G01*
X328900Y258200D02*
G03*
X328900Y258200I-800J0D01*
G01*
Y248200D02*
G03*
X328900Y248200I-800J0D01*
G01*
Y238200D02*
G03*
X328900Y238200I-800J0D01*
G01*
Y228200D02*
G03*
X328900Y228200I-800J0D01*
G01*
X356139Y483527D02*
G03*
X356139Y483527I-800J0D01*
G01*
X346742Y480107D02*
G03*
X346742Y480107I-800J0D01*
G01*
X337345Y476686D02*
G03*
X337345Y476686I-800J0D01*
G01*
X327948Y473266D02*
G03*
X327948Y473266I-800J0D01*
G01*
X121378Y471966D02*
G03*
X121378Y471966I-800J0D01*
G01*
X111981Y475386D02*
G03*
X111981Y475386I-800J0D01*
G01*
X102584Y478807D02*
G03*
X102584Y478807I-800J0D01*
G01*
X93187Y482227D02*
G03*
X93187Y482227I-800J0D01*
G01*
X154750Y118610D02*
G03*
X154750Y118610I-800J0D01*
G01*
Y108610D02*
G03*
X154750Y108610I-800J0D01*
G01*
X164750Y118610D02*
G03*
X164750Y118610I-800J0D01*
G01*
Y108610D02*
G03*
X164750Y108610I-800J0D01*
G01*
X174750Y118610D02*
G03*
X174750Y118610I-800J0D01*
G01*
Y108610D02*
G03*
X174750Y108610I-800J0D01*
G01*
X184750Y118610D02*
G03*
X184750Y118610I-800J0D01*
G01*
Y108610D02*
G03*
X184750Y108610I-800J0D01*
G01*
X194750Y118610D02*
G03*
X194750Y118610I-800J0D01*
G01*
Y108610D02*
G03*
X194750Y108610I-800J0D01*
G01*
X258100Y13800D02*
G03*
X258100Y13800I-800J0D01*
G01*
Y23800D02*
G03*
X258100Y23800I-800J0D01*
G01*
X248100Y13800D02*
G03*
X248100Y13800I-800J0D01*
G01*
Y23800D02*
G03*
X248100Y23800I-800J0D01*
G01*
X238100Y13800D02*
G03*
X238100Y13800I-800J0D01*
G01*
Y23800D02*
G03*
X238100Y23800I-800J0D01*
G01*
X228100Y13800D02*
G03*
X228100Y13800I-800J0D01*
G01*
Y23800D02*
G03*
X228100Y23800I-800J0D01*
G01*
X218100Y13800D02*
G03*
X218100Y13800I-800J0D01*
G01*
Y23800D02*
G03*
X218100Y23800I-800J0D01*
G01*
X208100Y13800D02*
G03*
X208100Y13800I-800J0D01*
G01*
Y23800D02*
G03*
X208100Y23800I-800J0D01*
G01*
X198100Y13800D02*
G03*
X198100Y13800I-800J0D01*
G01*
Y23800D02*
G03*
X198100Y23800I-800J0D01*
G01*
X188100Y13800D02*
G03*
X188100Y13800I-800J0D01*
G01*
Y23800D02*
G03*
X188100Y23800I-800J0D01*
G01*
X178100Y13800D02*
G03*
X178100Y13800I-800J0D01*
G01*
Y23800D02*
G03*
X178100Y23800I-800J0D01*
G01*
X168100Y13800D02*
G03*
X168100Y13800I-800J0D01*
G01*
Y23800D02*
G03*
X168100Y23800I-800J0D01*
G01*
X158100Y13800D02*
G03*
X158100Y13800I-800J0D01*
G01*
Y23800D02*
G03*
X158100Y23800I-800J0D01*
G01*
X148100Y13800D02*
G03*
X148100Y13800I-800J0D01*
G01*
Y23800D02*
G03*
X148100Y23800I-800J0D01*
G01*
X138100Y13800D02*
G03*
X138100Y13800I-800J0D01*
G01*
Y23800D02*
G03*
X138100Y23800I-800J0D01*
G01*
X128100Y13800D02*
G03*
X128100Y13800I-800J0D01*
G01*
Y23800D02*
G03*
X128100Y23800I-800J0D01*
G01*
X118100Y13800D02*
G03*
X118100Y13800I-800J0D01*
G01*
Y23800D02*
G03*
X118100Y23800I-800J0D01*
G01*
X108100Y13800D02*
G03*
X108100Y13800I-800J0D01*
G01*
Y23800D02*
G03*
X108100Y23800I-800J0D01*
G01*
X98100Y13800D02*
G03*
X98100Y13800I-800J0D01*
G01*
Y23800D02*
G03*
X98100Y23800I-800J0D01*
G01*
X88100Y13800D02*
G03*
X88100Y13800I-800J0D01*
G01*
Y23800D02*
G03*
X88100Y23800I-800J0D01*
G01*
X78100Y13800D02*
G03*
X78100Y13800I-800J0D01*
G01*
Y23800D02*
G03*
X78100Y23800I-800J0D01*
G01*
X68100Y13800D02*
G03*
X68100Y13800I-800J0D01*
G01*
Y23800D02*
G03*
X68100Y23800I-800J0D01*
G01*
X244750Y187900D02*
G03*
X244750Y187900I-800J0D01*
G01*
X234750D02*
G03*
X234750Y187900I-800J0D01*
G01*
X224750D02*
G03*
X224750Y187900I-800J0D01*
G01*
X214750D02*
G03*
X214750Y187900I-800J0D01*
G01*
X204750D02*
G03*
X204750Y187900I-800J0D01*
G01*
X194750D02*
G03*
X194750Y187900I-800J0D01*
G01*
X64750Y118610D02*
G03*
X64750Y118610I-800J0D01*
G01*
Y108610D02*
G03*
X64750Y108610I-800J0D01*
G01*
X74750Y118610D02*
G03*
X74750Y118610I-800J0D01*
G01*
Y108610D02*
G03*
X74750Y108610I-800J0D01*
G01*
X84750Y118610D02*
G03*
X84750Y118610I-800J0D01*
G01*
Y108610D02*
G03*
X84750Y108610I-800J0D01*
G01*
X94750Y118610D02*
G03*
X94750Y118610I-800J0D01*
G01*
Y108610D02*
G03*
X94750Y108610I-800J0D01*
G01*
X104750Y118610D02*
G03*
X104750Y118610I-800J0D01*
G01*
Y108610D02*
G03*
X104750Y108610I-800J0D01*
G01*
X114750Y118610D02*
G03*
X114750Y118610I-800J0D01*
G01*
Y108610D02*
G03*
X114750Y108610I-800J0D01*
G01*
X124750Y118610D02*
G03*
X124750Y118610I-800J0D01*
G01*
Y108610D02*
G03*
X124750Y108610I-800J0D01*
G01*
X134750Y118610D02*
G03*
X134750Y118610I-800J0D01*
G01*
Y108610D02*
G03*
X134750Y108610I-800J0D01*
G01*
X125300Y169000D02*
G03*
X125300Y169000I-800J0D01*
G01*
Y159000D02*
G03*
X125300Y159000I-800J0D01*
G01*
Y149000D02*
G03*
X125300Y149000I-800J0D01*
G01*
Y139000D02*
G03*
X125300Y139000I-800J0D01*
G01*
D150*
X154350Y118610D02*
G03*
X154350Y118610I-400J0D01*
G01*
Y108610D02*
G03*
X154350Y108610I-400J0D01*
G01*
X164350Y118610D02*
G03*
X164350Y118610I-400J0D01*
G01*
Y108610D02*
G03*
X164350Y108610I-400J0D01*
G01*
X174350Y118610D02*
G03*
X174350Y118610I-400J0D01*
G01*
Y108610D02*
G03*
X174350Y108610I-400J0D01*
G01*
X184350Y118610D02*
G03*
X184350Y118610I-400J0D01*
G01*
Y108610D02*
G03*
X184350Y108610I-400J0D01*
G01*
X194350Y118610D02*
G03*
X194350Y118610I-400J0D01*
G01*
Y108610D02*
G03*
X194350Y108610I-400J0D01*
G01*
X257700Y13800D02*
G03*
X257700Y13800I-400J0D01*
G01*
Y23800D02*
G03*
X257700Y23800I-400J0D01*
G01*
X247700Y13800D02*
G03*
X247700Y13800I-400J0D01*
G01*
Y23800D02*
G03*
X247700Y23800I-400J0D01*
G01*
X237700Y13800D02*
G03*
X237700Y13800I-400J0D01*
G01*
Y23800D02*
G03*
X237700Y23800I-400J0D01*
G01*
X227700Y13800D02*
G03*
X227700Y13800I-400J0D01*
G01*
Y23800D02*
G03*
X227700Y23800I-400J0D01*
G01*
X217700Y13800D02*
G03*
X217700Y13800I-400J0D01*
G01*
Y23800D02*
G03*
X217700Y23800I-400J0D01*
G01*
X207700Y13800D02*
G03*
X207700Y13800I-400J0D01*
G01*
Y23800D02*
G03*
X207700Y23800I-400J0D01*
G01*
X197700Y13800D02*
G03*
X197700Y13800I-400J0D01*
G01*
Y23800D02*
G03*
X197700Y23800I-400J0D01*
G01*
X187700Y13800D02*
G03*
X187700Y13800I-400J0D01*
G01*
Y23800D02*
G03*
X187700Y23800I-400J0D01*
G01*
X177700Y13800D02*
G03*
X177700Y13800I-400J0D01*
G01*
Y23800D02*
G03*
X177700Y23800I-400J0D01*
G01*
X167700Y13800D02*
G03*
X167700Y13800I-400J0D01*
G01*
Y23800D02*
G03*
X167700Y23800I-400J0D01*
G01*
X157700Y13800D02*
G03*
X157700Y13800I-400J0D01*
G01*
Y23800D02*
G03*
X157700Y23800I-400J0D01*
G01*
X147700Y13800D02*
G03*
X147700Y13800I-400J0D01*
G01*
Y23800D02*
G03*
X147700Y23800I-400J0D01*
G01*
X137700Y13800D02*
G03*
X137700Y13800I-400J0D01*
G01*
Y23800D02*
G03*
X137700Y23800I-400J0D01*
G01*
X127700Y13800D02*
G03*
X127700Y13800I-400J0D01*
G01*
Y23800D02*
G03*
X127700Y23800I-400J0D01*
G01*
X117700Y13800D02*
G03*
X117700Y13800I-400J0D01*
G01*
Y23800D02*
G03*
X117700Y23800I-400J0D01*
G01*
X107700Y13800D02*
G03*
X107700Y13800I-400J0D01*
G01*
Y23800D02*
G03*
X107700Y23800I-400J0D01*
G01*
X97700Y13800D02*
G03*
X97700Y13800I-400J0D01*
G01*
Y23800D02*
G03*
X97700Y23800I-400J0D01*
G01*
X87700Y13800D02*
G03*
X87700Y13800I-400J0D01*
G01*
Y23800D02*
G03*
X87700Y23800I-400J0D01*
G01*
X77700Y13800D02*
G03*
X77700Y13800I-400J0D01*
G01*
Y23800D02*
G03*
X77700Y23800I-400J0D01*
G01*
X67700Y13800D02*
G03*
X67700Y13800I-400J0D01*
G01*
Y23800D02*
G03*
X67700Y23800I-400J0D01*
G01*
X244350Y187900D02*
G03*
X244350Y187900I-400J0D01*
G01*
X234350D02*
G03*
X234350Y187900I-400J0D01*
G01*
X224350D02*
G03*
X224350Y187900I-400J0D01*
G01*
X214350D02*
G03*
X214350Y187900I-400J0D01*
G01*
X204350D02*
G03*
X204350Y187900I-400J0D01*
G01*
X194350D02*
G03*
X194350Y187900I-400J0D01*
G01*
X64350Y118610D02*
G03*
X64350Y118610I-400J0D01*
G01*
Y108610D02*
G03*
X64350Y108610I-400J0D01*
G01*
X74350Y118610D02*
G03*
X74350Y118610I-400J0D01*
G01*
Y108610D02*
G03*
X74350Y108610I-400J0D01*
G01*
X84350Y118610D02*
G03*
X84350Y118610I-400J0D01*
G01*
Y108610D02*
G03*
X84350Y108610I-400J0D01*
G01*
X94350Y118610D02*
G03*
X94350Y118610I-400J0D01*
G01*
Y108610D02*
G03*
X94350Y108610I-400J0D01*
G01*
X104350Y118610D02*
G03*
X104350Y118610I-400J0D01*
G01*
Y108610D02*
G03*
X104350Y108610I-400J0D01*
G01*
X114350Y118610D02*
G03*
X114350Y118610I-400J0D01*
G01*
Y108610D02*
G03*
X114350Y108610I-400J0D01*
G01*
X124350Y118610D02*
G03*
X124350Y118610I-400J0D01*
G01*
Y108610D02*
G03*
X124350Y108610I-400J0D01*
G01*
X134350Y118610D02*
G03*
X134350Y118610I-400J0D01*
G01*
Y108610D02*
G03*
X134350Y108610I-400J0D01*
G01*
M02*
