G04*
G04 #@! TF.GenerationSoftware,Altium Limited,Altium Designer,20.1.12 (249)*
G04*
G04 Layer_Color=32896*
%FSLAX25Y25*%
%MOIN*%
G70*
G04*
G04 #@! TF.SameCoordinates,8DF9F49D-D30B-48C0-AB84-75DE52E997E5*
G04*
G04*
G04 #@! TF.FilePolarity,Positive*
G04*
G01*
G75*
%ADD16C,0.00700*%
%ADD19C,0.00472*%
%ADD21C,0.00500*%
D16*
X365071Y3488D02*
X398929D01*
Y23567D01*
X365071D02*
X398929D01*
X365071Y3488D02*
Y23567D01*
D19*
X199186Y103374D02*
Y108610D01*
X193950Y103374D02*
X199186D01*
Y113610D02*
Y123846D01*
X188950Y113610D02*
X199186D01*
X188950Y103374D02*
Y113610D01*
X148714Y123846D02*
X199186D01*
X148714Y103374D02*
X188950D01*
X148714D02*
Y123846D01*
X188714Y187900D02*
Y193136D01*
X193950D01*
X198950Y182664D02*
Y193136D01*
Y182664D02*
X249186D01*
X198950Y193136D02*
X249186D01*
Y182664D02*
Y193136D01*
X139186Y103374D02*
Y108610D01*
X133950Y103374D02*
X139186D01*
Y113610D02*
Y123846D01*
X128950Y113610D02*
X139186D01*
X128950Y103374D02*
Y113610D01*
X58714Y123846D02*
X139186D01*
X58714Y103374D02*
X128950D01*
X58714D02*
Y123846D01*
D21*
X378501Y436999D02*
X379000Y437499D01*
X380000D01*
X380500Y436999D01*
Y435000D01*
X380000Y434500D01*
X379000D01*
X378501Y435000D01*
Y435999D01*
X379500D01*
X377501Y434500D02*
Y437499D01*
X375502Y434500D01*
Y437499D01*
X374502D02*
Y434500D01*
X373002D01*
X372503Y435000D01*
Y436999D01*
X373002Y437499D01*
X374502D01*
X398500Y436999D02*
X398000Y437499D01*
X397001D01*
X396501Y436999D01*
Y436499D01*
X397001Y435999D01*
X397500D01*
X397001D01*
X396501Y435500D01*
Y435000D01*
X397001Y434500D01*
X398000D01*
X398500Y435000D01*
X395501Y434500D02*
Y435000D01*
X395001D01*
Y434500D01*
X395501D01*
X393002Y436999D02*
X392502Y437499D01*
X391502D01*
X391002Y436999D01*
Y436499D01*
X391502Y435999D01*
X392002D01*
X391502D01*
X391002Y435500D01*
Y435000D01*
X391502Y434500D01*
X392502D01*
X393002Y435000D01*
X390003Y437499D02*
Y435500D01*
X389003Y434500D01*
X388003Y435500D01*
Y437499D01*
X397500Y464999D02*
X397000Y465499D01*
X396001D01*
X395501Y464999D01*
Y464499D01*
X396001Y464000D01*
X396500D01*
X396001D01*
X395501Y463500D01*
Y463000D01*
X396001Y462500D01*
X397000D01*
X397500Y463000D01*
X394501Y462500D02*
Y463000D01*
X394001D01*
Y462500D01*
X394501D01*
X392002Y464999D02*
X391502Y465499D01*
X390502D01*
X390002Y464999D01*
Y464499D01*
X390502Y464000D01*
X391002D01*
X390502D01*
X390002Y463500D01*
Y463000D01*
X390502Y462500D01*
X391502D01*
X392002Y463000D01*
X389003Y465499D02*
Y463500D01*
X388003Y462500D01*
X387003Y463500D01*
Y465499D01*
X380501Y464999D02*
X381000Y465499D01*
X382000D01*
X382500Y464999D01*
Y463000D01*
X382000Y462500D01*
X381000D01*
X380501Y463000D01*
X379501Y465499D02*
X377502D01*
X378501D01*
Y462500D01*
X376502D02*
Y465499D01*
X375002D01*
X374503Y464999D01*
Y464000D01*
X375002Y463500D01*
X376502D01*
X375502D02*
X374503Y462500D01*
X373503Y462000D02*
X371504D01*
X369004Y465499D02*
X370004D01*
X370504Y464999D01*
Y463000D01*
X370004Y462500D01*
X369004D01*
X368505Y463000D01*
Y464999D01*
X369004Y465499D01*
X367505D02*
Y463000D01*
X367005Y462500D01*
X366005D01*
X365506Y463000D01*
Y465499D01*
X364506D02*
X362507D01*
X363506D01*
Y462500D01*
X64501Y463999D02*
X65000Y464499D01*
X66000D01*
X66500Y463999D01*
Y462000D01*
X66000Y461500D01*
X65000D01*
X64501Y462000D01*
X63501Y464499D02*
X61502D01*
X62501D01*
Y461500D01*
X60502D02*
Y464499D01*
X59002D01*
X58503Y463999D01*
Y462999D01*
X59002Y462500D01*
X60502D01*
X59502D02*
X58503Y461500D01*
X57503Y461000D02*
X55504D01*
X53004Y464499D02*
X54004D01*
X54504Y463999D01*
Y462000D01*
X54004Y461500D01*
X53004D01*
X52504Y462000D01*
Y463999D01*
X53004Y464499D01*
X51505D02*
Y462000D01*
X51005Y461500D01*
X50005D01*
X49505Y462000D01*
Y464499D01*
X48506D02*
X46507D01*
X47506D01*
Y461500D01*
X81500Y463999D02*
X81000Y464499D01*
X80001D01*
X79501Y463999D01*
Y463499D01*
X80001Y462999D01*
X80500D01*
X80001D01*
X79501Y462500D01*
Y462000D01*
X80001Y461500D01*
X81000D01*
X81500Y462000D01*
X78501Y461500D02*
Y462000D01*
X78001D01*
Y461500D01*
X78501D01*
X76002Y463999D02*
X75502Y464499D01*
X74502D01*
X74002Y463999D01*
Y463499D01*
X74502Y462999D01*
X75002D01*
X74502D01*
X74002Y462500D01*
Y462000D01*
X74502Y461500D01*
X75502D01*
X76002Y462000D01*
X73003Y464499D02*
Y462500D01*
X72003Y461500D01*
X71003Y462500D01*
Y464499D01*
X78500Y435999D02*
X78000Y436499D01*
X77000D01*
X76501Y435999D01*
Y435499D01*
X77000Y435000D01*
X77500D01*
X77000D01*
X76501Y434500D01*
Y434000D01*
X77000Y433500D01*
X78000D01*
X78500Y434000D01*
X75501Y433500D02*
Y434000D01*
X75001D01*
Y433500D01*
X75501D01*
X73002Y435999D02*
X72502Y436499D01*
X71502D01*
X71002Y435999D01*
Y435499D01*
X71502Y435000D01*
X72002D01*
X71502D01*
X71002Y434500D01*
Y434000D01*
X71502Y433500D01*
X72502D01*
X73002Y434000D01*
X70003Y436499D02*
Y434500D01*
X69003Y433500D01*
X68003Y434500D01*
Y436499D01*
X62501Y435999D02*
X63001Y436499D01*
X64000D01*
X64500Y435999D01*
Y434000D01*
X64000Y433500D01*
X63001D01*
X62501Y434000D01*
Y435000D01*
X63500D01*
X61501Y433500D02*
Y436499D01*
X59502Y433500D01*
Y436499D01*
X58502D02*
Y433500D01*
X57002D01*
X56503Y434000D01*
Y435999D01*
X57002Y436499D01*
X58502D01*
X399707Y111833D02*
X400124Y112250D01*
X400957D01*
X401374Y111833D01*
Y110167D01*
X400957Y109750D01*
X400124D01*
X399707Y110167D01*
X398874Y109750D02*
Y112250D01*
X397208Y109750D01*
Y112250D01*
X396375Y109750D02*
X395542D01*
X395959D01*
Y112250D01*
X396375Y111833D01*
X392626Y112250D02*
X393460Y111833D01*
X394292Y111000D01*
Y110167D01*
X393876Y109750D01*
X393043D01*
X392626Y110167D01*
Y110583D01*
X393043Y111000D01*
X394292D01*
X191334Y179083D02*
X191750Y179499D01*
X192584D01*
X193000Y179083D01*
Y177417D01*
X192584Y177000D01*
X191750D01*
X191334Y177417D01*
X190501Y177000D02*
Y179499D01*
X188835Y177000D01*
Y179499D01*
X188002Y177000D02*
X187169D01*
X187585D01*
Y179499D01*
X188002Y179083D01*
X143786Y104362D02*
X144203Y103946D01*
Y103113D01*
X143786Y102696D01*
X142120D01*
X141704Y103113D01*
Y103946D01*
X142120Y104362D01*
X141704Y105196D02*
X144203D01*
X141704Y106862D01*
X144203D01*
X143786Y107695D02*
X144203Y108111D01*
Y108944D01*
X143786Y109361D01*
X143370D01*
X142953Y108944D01*
Y108528D01*
Y108944D01*
X142537Y109361D01*
X142120D01*
X141704Y108944D01*
Y108111D01*
X142120Y107695D01*
M02*
