G04*
G04 #@! TF.GenerationSoftware,Altium Limited,Altium Designer,20.1.12 (249)*
G04*
G04 Layer_Color=128*
%FSLAX25Y25*%
%MOIN*%
G70*
G04*
G04 #@! TF.SameCoordinates,8DF9F49D-D30B-48C0-AB84-75DE52E997E5*
G04*
G04*
G04 #@! TF.FilePolarity,Positive*
G04*
G01*
G75*
%ADD13C,0.00200*%
D13*
X122728Y186000D02*
X126272D01*
X124500Y184228D02*
Y187772D01*
X122728Y196000D02*
X126272D01*
X124500Y194228D02*
Y197772D01*
X122728Y206000D02*
X126272D01*
X124500Y204228D02*
Y207772D01*
X122728Y216000D02*
X126272D01*
X124500Y214228D02*
Y217772D01*
X300700Y231400D02*
X304900D01*
X302800Y229300D02*
Y233500D01*
X300700Y241400D02*
X304900D01*
X302800Y239300D02*
Y243500D01*
X300700Y251400D02*
X304900D01*
X302800Y249300D02*
Y253500D01*
X367236Y9000D02*
X369205D01*
X368220Y8016D02*
Y9984D01*
X371075Y19630D02*
X373240D01*
X372158Y18547D02*
Y20713D01*
X394795Y9000D02*
X396764D01*
X395779Y8016D02*
Y9984D01*
X390760Y19630D02*
X392925D01*
X391843Y18547D02*
Y20713D01*
X178711Y84700D02*
X182911D01*
X180811Y82600D02*
Y86800D01*
X155089Y84700D02*
X159289D01*
X157189Y82600D02*
Y86800D01*
X166900Y69189D02*
X171100D01*
X169000Y67089D02*
Y71289D01*
X166900Y81000D02*
X171100D01*
X169000Y78900D02*
Y83100D01*
X291711Y83511D02*
X295911D01*
X293811Y81411D02*
Y85611D01*
X268089Y83511D02*
X272289D01*
X270189Y81411D02*
Y85611D01*
X279900Y68000D02*
X284100D01*
X282000Y65900D02*
Y70100D01*
X279900Y79811D02*
X284100D01*
X282000Y77711D02*
Y81911D01*
X326228Y213000D02*
X329772D01*
X328000Y211228D02*
Y214772D01*
X326228Y203000D02*
X329772D01*
X328000Y201228D02*
Y204772D01*
X326228Y193000D02*
X329772D01*
X328000Y191228D02*
Y194772D01*
X326228Y183000D02*
X329772D01*
X328000Y181228D02*
Y184772D01*
X207500Y438900D02*
X211700D01*
X209600Y436800D02*
Y441000D01*
X217500Y438900D02*
X221700D01*
X219600Y436800D02*
Y441000D01*
X227500Y438900D02*
X231700D01*
X229600Y436800D02*
Y441000D01*
X237500Y438900D02*
X241700D01*
X239600Y436800D02*
Y441000D01*
X281800Y121700D02*
X286000D01*
X283900Y119600D02*
Y123800D01*
X281800Y131700D02*
X286000D01*
X283900Y129600D02*
Y133800D01*
X281800Y141700D02*
X286000D01*
X283900Y139600D02*
Y143800D01*
X281800Y151700D02*
X286000D01*
X283900Y149600D02*
Y153800D01*
X105900Y376000D02*
X110100D01*
X108000Y373900D02*
Y378100D01*
X105900Y386000D02*
X110100D01*
X108000Y383900D02*
Y388100D01*
X105900Y396000D02*
X110100D01*
X108000Y393900D02*
Y398100D01*
X119900Y376000D02*
X124100D01*
X122000Y373900D02*
Y378100D01*
X119900Y386000D02*
X124100D01*
X122000Y383900D02*
Y388100D01*
X119900Y396000D02*
X124100D01*
X122000Y393900D02*
Y398100D01*
X386500Y132200D02*
X390700D01*
X388600Y130100D02*
Y134300D01*
X386500Y122200D02*
X390700D01*
X388600Y120100D02*
Y124300D01*
X376500Y132200D02*
X380700D01*
X378600Y130100D02*
Y134300D01*
X376500Y122200D02*
X380700D01*
X378600Y120100D02*
Y124300D01*
X366500Y132200D02*
X370700D01*
X368600Y130100D02*
Y134300D01*
X366500Y122200D02*
X370700D01*
X368600Y120100D02*
Y124300D01*
X356500Y132200D02*
X360700D01*
X358600Y130100D02*
Y134300D01*
X356500Y122200D02*
X360700D01*
X358600Y120100D02*
Y124300D01*
X122900Y337000D02*
X127100D01*
X125000Y334900D02*
Y339100D01*
X122900Y327000D02*
X127100D01*
X125000Y324900D02*
Y329100D01*
X50400Y79400D02*
X54600D01*
X52500Y77300D02*
Y81500D01*
X50400Y89400D02*
X54600D01*
X52500Y87300D02*
Y91500D01*
X365278Y459548D02*
X369478D01*
X367378Y457448D02*
Y461648D01*
X400711Y459548D02*
X404911D01*
X402811Y457448D02*
Y461648D01*
X388900Y455611D02*
X393100D01*
X391000Y453511D02*
Y457711D01*
X388900Y443800D02*
X393100D01*
X391000Y441700D02*
Y445900D01*
X377089Y443800D02*
X381289D01*
X379189Y441700D02*
Y445900D01*
X377089Y455611D02*
X381289D01*
X379189Y453511D02*
Y457711D01*
X47789Y458448D02*
X51989D01*
X49889Y456348D02*
Y460548D01*
X83222Y458448D02*
X87422D01*
X85322Y456348D02*
Y460548D01*
X71411Y454511D02*
X75611D01*
X73511Y452411D02*
Y456611D01*
X71411Y442700D02*
X75611D01*
X73511Y440600D02*
Y444800D01*
X59600Y442700D02*
X63800D01*
X61700Y440600D02*
Y444800D01*
X59600Y454511D02*
X63800D01*
X61700Y452411D02*
Y456611D01*
X287810Y21500D02*
X301590D01*
X294700Y14610D02*
Y28390D01*
X152410Y141600D02*
X166190D01*
X159300Y134710D02*
Y148490D01*
X300610Y430200D02*
X314390D01*
X307500Y423310D02*
Y437090D01*
X132310Y430200D02*
X146090D01*
X139200Y423310D02*
Y437090D01*
X324200Y133200D02*
X328400D01*
X326300Y131100D02*
Y135300D01*
X324200Y123200D02*
X328400D01*
X326300Y121100D02*
Y125300D01*
X324200Y113200D02*
X328400D01*
X326300Y111100D02*
Y115300D01*
X324200Y80500D02*
X328400D01*
X326300Y78400D02*
Y82600D01*
X324200Y90500D02*
X328400D01*
X326300Y88400D02*
Y92600D01*
X324200Y100500D02*
X328400D01*
X326300Y98400D02*
Y102600D01*
X237792Y419700D02*
X241808D01*
X239800Y417692D02*
Y421708D01*
X227792Y419700D02*
X231808D01*
X229800Y417692D02*
Y421708D01*
X217792Y419700D02*
X221808D01*
X219800Y417692D02*
Y421708D01*
X207772Y419700D02*
X211828D01*
X209800Y417672D02*
Y421728D01*
X326000Y258200D02*
X330200D01*
X328100Y256100D02*
Y260300D01*
X326000Y248200D02*
X330200D01*
X328100Y246100D02*
Y250300D01*
X326000Y238200D02*
X330200D01*
X328100Y236100D02*
Y240300D01*
X326000Y228200D02*
X330200D01*
X328100Y226100D02*
Y230300D01*
X353239Y483527D02*
X357439D01*
X355339Y481427D02*
Y485627D01*
X343842Y480107D02*
X348042D01*
X345942Y478007D02*
Y482207D01*
X334445Y476686D02*
X338645D01*
X336545Y474586D02*
Y478786D01*
X325048Y473266D02*
X329248D01*
X327148Y471166D02*
Y475366D01*
X118478Y471966D02*
X122678D01*
X120578Y469866D02*
Y474066D01*
X109081Y475386D02*
X113281D01*
X111181Y473286D02*
Y477486D01*
X99684Y478807D02*
X103884D01*
X101784Y476707D02*
Y480907D01*
X90287Y482227D02*
X94487D01*
X92387Y480127D02*
Y484327D01*
X151981Y118610D02*
X155919D01*
X153950Y116641D02*
Y120579D01*
X151981Y108610D02*
X155919D01*
X153950Y106641D02*
Y110579D01*
X161981Y118610D02*
X165919D01*
X163950Y116641D02*
Y120579D01*
X161981Y108610D02*
X165919D01*
X163950Y106641D02*
Y110579D01*
X171982Y118610D02*
X175918D01*
X173950Y116641D02*
Y120579D01*
X171982Y108610D02*
X175918D01*
X173950Y106641D02*
Y110579D01*
X181982Y118610D02*
X185918D01*
X183950Y116641D02*
Y120579D01*
X181982Y108610D02*
X185918D01*
X183950Y106641D02*
Y110579D01*
X191981Y118610D02*
X195919D01*
X193950Y116641D02*
Y120579D01*
X191981Y108610D02*
X195919D01*
X193950Y106641D02*
Y110579D01*
X255331Y13800D02*
X259268D01*
X257300Y11831D02*
Y15768D01*
X255331Y23800D02*
X259268D01*
X257300Y21832D02*
Y25769D01*
X245332Y13800D02*
X249269D01*
X247300Y11831D02*
Y15768D01*
X245332Y23800D02*
X249269D01*
X247300Y21832D02*
Y25769D01*
X235332Y13800D02*
X239268D01*
X237300Y11831D02*
Y15768D01*
X235332Y23800D02*
X239268D01*
X237300Y21832D02*
Y25769D01*
X225331Y13800D02*
X229269D01*
X227300Y11831D02*
Y15768D01*
X225331Y23800D02*
X229269D01*
X227300Y21832D02*
Y25769D01*
X215332Y13800D02*
X219268D01*
X217300Y11831D02*
Y15768D01*
X215332Y23800D02*
X219268D01*
X217300Y21832D02*
Y25769D01*
X205331Y13800D02*
X209268D01*
X207300Y11831D02*
Y15768D01*
X205331Y23800D02*
X209268D01*
X207300Y21832D02*
Y25769D01*
X195332Y13800D02*
X199268D01*
X197300Y11831D02*
Y15768D01*
X195332Y23800D02*
X199268D01*
X197300Y21832D02*
Y25769D01*
X185331Y13800D02*
X189269D01*
X187300Y11831D02*
Y15768D01*
X185331Y23800D02*
X189269D01*
X187300Y21832D02*
Y25769D01*
X175331Y13800D02*
X179269D01*
X177300Y11831D02*
Y15768D01*
X175331Y23800D02*
X179269D01*
X177300Y21832D02*
Y25769D01*
X165331Y13800D02*
X169269D01*
X167300Y11831D02*
Y15768D01*
X165331Y23800D02*
X169269D01*
X167300Y21832D02*
Y25769D01*
X155332Y13800D02*
X159268D01*
X157300Y11831D02*
Y15768D01*
X155332Y23800D02*
X159268D01*
X157300Y21832D02*
Y25769D01*
X145332Y13800D02*
X149268D01*
X147300Y11831D02*
Y15768D01*
X145332Y23800D02*
X149268D01*
X147300Y21832D02*
Y25769D01*
X135331Y13800D02*
X139269D01*
X137300Y11831D02*
Y15768D01*
X135331Y23800D02*
X139269D01*
X137300Y21832D02*
Y25769D01*
X125331Y13800D02*
X129269D01*
X127300Y11831D02*
Y15768D01*
X125331Y23800D02*
X129269D01*
X127300Y21832D02*
Y25769D01*
X115331Y13800D02*
X119269D01*
X117300Y11831D02*
Y15768D01*
X115331Y23800D02*
X119269D01*
X117300Y21832D02*
Y25769D01*
X105332Y13800D02*
X109268D01*
X107300Y11831D02*
Y15768D01*
X105332Y23800D02*
X109268D01*
X107300Y21832D02*
Y25769D01*
X95332Y13800D02*
X99269D01*
X97300Y11831D02*
Y15768D01*
X95332Y23800D02*
X99269D01*
X97300Y21832D02*
Y25769D01*
X85331Y13800D02*
X89268D01*
X87300Y11831D02*
Y15768D01*
X85331Y23800D02*
X89268D01*
X87300Y21832D02*
Y25769D01*
X75331Y13800D02*
X79268D01*
X77300Y11831D02*
Y15768D01*
X75331Y23800D02*
X79268D01*
X77300Y21832D02*
Y25769D01*
X65332Y13800D02*
X69269D01*
X67300Y11831D02*
Y15768D01*
X65332Y23800D02*
X69269D01*
X67300Y21832D02*
Y25769D01*
X241982Y187900D02*
X245918D01*
X243950Y185932D02*
Y189868D01*
X231981Y187900D02*
X235918D01*
X233950Y185932D02*
Y189868D01*
X221982Y187900D02*
X225919D01*
X223950Y185932D02*
Y189868D01*
X211982Y187900D02*
X215918D01*
X213950Y185932D02*
Y189868D01*
X201981Y187900D02*
X205919D01*
X203950Y185932D02*
Y189868D01*
X191981Y187900D02*
X195919D01*
X193950Y185932D02*
Y189868D01*
X61981Y118610D02*
X65918D01*
X63950Y116641D02*
Y120579D01*
X61981Y108610D02*
X65918D01*
X63950Y106641D02*
Y110579D01*
X71982Y118610D02*
X75919D01*
X73950Y116641D02*
Y120579D01*
X71982Y108610D02*
X75919D01*
X73950Y106641D02*
Y110579D01*
X81981Y118610D02*
X85918D01*
X83950Y116641D02*
Y120579D01*
X81981Y108610D02*
X85918D01*
X83950Y106641D02*
Y110579D01*
X91982Y118610D02*
X95919D01*
X93950Y116641D02*
Y120579D01*
X91982Y108610D02*
X95919D01*
X93950Y106641D02*
Y110579D01*
X101981Y118610D02*
X105919D01*
X103950Y116641D02*
Y120579D01*
X101981Y108610D02*
X105919D01*
X103950Y106641D02*
Y110579D01*
X111981Y118610D02*
X115919D01*
X113950Y116641D02*
Y120579D01*
X111981Y108610D02*
X115919D01*
X113950Y106641D02*
Y110579D01*
X121982Y118610D02*
X125918D01*
X123950Y116641D02*
Y120579D01*
X121982Y108610D02*
X125918D01*
X123950Y106641D02*
Y110579D01*
X131982Y118610D02*
X135918D01*
X133950Y116641D02*
Y120579D01*
X131982Y108610D02*
X135918D01*
X133950Y106641D02*
Y110579D01*
X122400Y169000D02*
X126600D01*
X124500Y166900D02*
Y171100D01*
X122400Y159000D02*
X126600D01*
X124500Y156900D02*
Y161100D01*
X122400Y149000D02*
X126600D01*
X124500Y146900D02*
Y151100D01*
X122400Y139000D02*
X126600D01*
X124500Y136900D02*
Y141100D01*
X133500Y301700D02*
X134700D01*
X134100Y301100D02*
Y302300D01*
X392500Y317800D02*
X393700D01*
X393100Y317200D02*
Y318400D01*
X357600Y323400D02*
X358800D01*
X358200Y322800D02*
Y324000D01*
X343700Y272000D02*
X344900D01*
X344300Y271400D02*
Y272600D01*
X286500Y270900D02*
X287700D01*
X287100Y270300D02*
Y271500D01*
X313000Y259400D02*
X314200D01*
X313600Y258800D02*
Y260000D01*
X300900Y260300D02*
X302100D01*
X301500Y259700D02*
Y260900D01*
X187700Y217600D02*
X188900D01*
X188300Y217000D02*
Y218200D01*
X198425Y235637D02*
X199625D01*
X199025Y235037D02*
Y236237D01*
X256557Y112797D02*
X257757D01*
X257157Y112197D02*
Y113397D01*
X144600Y257100D02*
X145800D01*
X145200Y256500D02*
Y257700D01*
X214600Y216200D02*
X215800D01*
X215200Y215600D02*
Y216800D01*
X206100Y218700D02*
X207300D01*
X206700Y218100D02*
Y219300D01*
X312100Y400000D02*
X313300D01*
X312700Y399400D02*
Y400600D01*
X288100Y397800D02*
X289300D01*
X288700Y397200D02*
Y398400D01*
X302900Y402100D02*
X304100D01*
X303500Y401500D02*
Y402700D01*
X297900Y412000D02*
X299100D01*
X298500Y411400D02*
Y412600D01*
X299700Y399600D02*
X300900D01*
X300300Y399000D02*
Y400200D01*
X175600Y378600D02*
X176800D01*
X176200Y378000D02*
Y379200D01*
X197300Y293000D02*
X198500D01*
X197900Y292400D02*
Y293600D01*
X197400Y308000D02*
X198600D01*
X198000Y307400D02*
Y308600D01*
X190700Y296000D02*
X191900D01*
X191300Y295400D02*
Y296600D01*
X191900Y353400D02*
X193100D01*
X192500Y352800D02*
Y354000D01*
X165100Y399100D02*
X166300D01*
X165700Y398500D02*
Y399700D01*
X148100Y398900D02*
X149300D01*
X148700Y398300D02*
Y399500D01*
X205400Y310000D02*
X206600D01*
X206000Y309400D02*
Y310600D01*
X210108Y324292D02*
X211308D01*
X210708Y323692D02*
Y324892D01*
X165200Y380500D02*
X166400D01*
X165800Y379900D02*
Y381100D01*
X168300Y337400D02*
X169500D01*
X168900Y336800D02*
Y338000D01*
X165200Y388700D02*
X166400D01*
X165800Y388100D02*
Y389300D01*
X156500Y388700D02*
X157700D01*
X157100Y388100D02*
Y389300D01*
X148000Y388800D02*
X149200D01*
X148600Y388200D02*
Y389400D01*
X148100Y380300D02*
X149300D01*
X148700Y379700D02*
Y380900D01*
X156500Y380500D02*
X157700D01*
X157100Y379900D02*
Y381100D01*
X156400Y399300D02*
X157600D01*
X157000Y398700D02*
Y399900D01*
X263300Y178900D02*
X264500D01*
X263900Y178300D02*
Y179500D01*
X400800Y121500D02*
X402000D01*
X401400Y120900D02*
Y122100D01*
X400800Y80250D02*
X402000D01*
X401400Y79650D02*
Y80850D01*
X400800Y39000D02*
X402000D01*
X401400Y38400D02*
Y39600D01*
X400800Y59625D02*
X402000D01*
X401400Y59025D02*
Y60225D01*
X376200Y61200D02*
X377400D01*
X376800Y60600D02*
Y61800D01*
X400800Y100875D02*
X402000D01*
X401400Y100275D02*
Y101475D01*
X378600Y106800D02*
X379800D01*
X379200Y106200D02*
Y107400D01*
X316400Y10000D02*
X317600D01*
X317000Y9400D02*
Y10600D01*
X275100D02*
X276300D01*
X275700Y10000D02*
Y11200D01*
X62800Y133800D02*
X64000D01*
X63400Y133200D02*
Y134400D01*
X89100Y135400D02*
X90300D01*
X89700Y134800D02*
Y136000D01*
X137100Y140200D02*
X138300D01*
X137700Y139600D02*
Y140800D01*
X137500Y164400D02*
X138700D01*
X138100Y163800D02*
Y165000D01*
X135900Y190900D02*
X137100D01*
X136500Y190300D02*
Y191500D01*
Y221300D02*
X137700D01*
X137100Y220700D02*
Y221900D01*
X275700Y431800D02*
X276900D01*
X276300Y431200D02*
Y432400D01*
X329200Y429400D02*
X330400D01*
X329800Y428800D02*
Y430000D01*
X310000Y454500D02*
X311200D01*
X310600Y453900D02*
Y455100D01*
X272000Y458700D02*
X273200D01*
X272600Y458100D02*
Y459300D01*
X231000Y458800D02*
X232200D01*
X231600Y458200D02*
Y459400D01*
X290300Y474600D02*
X291500D01*
X290900Y474000D02*
Y475200D01*
X258300Y477500D02*
X259500D01*
X258900Y476900D02*
Y478100D01*
X212300Y477200D02*
X213500D01*
X212900Y476600D02*
Y477800D01*
X324500Y496900D02*
X325700D01*
X325100Y496300D02*
Y497500D01*
X292200Y503700D02*
X293400D01*
X292800Y503100D02*
Y504300D01*
X260400Y506500D02*
X261600D01*
X261000Y505900D02*
Y507100D01*
X227800Y507300D02*
X229000D01*
X228400Y506700D02*
Y507900D01*
X197600Y505900D02*
X198800D01*
X198200Y505300D02*
Y506500D01*
X170500Y503000D02*
X171700D01*
X171100Y502400D02*
Y503600D01*
X145000Y499400D02*
X146200D01*
X145600Y498800D02*
Y500000D01*
X170500Y478400D02*
X171700D01*
X171100Y477800D02*
Y479000D01*
X188700Y458600D02*
X189900D01*
X189300Y458000D02*
Y459200D01*
X147800Y458600D02*
X149000D01*
X148400Y458000D02*
Y459200D01*
X113200Y449600D02*
X114400D01*
X113800Y449000D02*
Y450200D01*
X112600Y428300D02*
X113800D01*
X113200Y427700D02*
Y428900D01*
X157300Y407300D02*
X158500D01*
X157900Y406700D02*
Y407900D01*
X209800Y383300D02*
X211000D01*
X210400Y382700D02*
Y383900D01*
X151500Y361400D02*
X152700D01*
X152100Y360800D02*
Y362000D01*
X151200Y315000D02*
X152400D01*
X151800Y314400D02*
Y315600D01*
X181000Y307200D02*
X182200D01*
X181600Y306600D02*
Y307800D01*
X321900Y343600D02*
X323100D01*
X322500Y343000D02*
Y344200D01*
X304200Y329900D02*
X305400D01*
X304800Y329300D02*
Y330500D01*
X281100Y342200D02*
X282300D01*
X281700Y341600D02*
Y342800D01*
X390700Y418100D02*
X391900D01*
X391300Y417500D02*
Y418700D01*
X390500Y400400D02*
X391700D01*
X391100Y399800D02*
Y401000D01*
X390300Y380400D02*
X391500D01*
X390900Y379800D02*
Y381000D01*
X386700Y354500D02*
X387900D01*
X387300Y353900D02*
Y355100D01*
X367200Y393000D02*
X368400D01*
X367800Y392400D02*
Y393600D01*
X366900Y407300D02*
X368100D01*
X367500Y406700D02*
Y407900D01*
X366800Y430100D02*
X368000D01*
X367400Y429500D02*
Y430700D01*
X64300Y352300D02*
X65500D01*
X64900Y351700D02*
Y352900D01*
X62600Y370000D02*
X63800D01*
X63200Y369400D02*
Y370600D01*
X79600Y375300D02*
X80800D01*
X80200Y374700D02*
Y375900D01*
X79600Y354200D02*
X80800D01*
X80200Y353600D02*
Y354800D01*
X79300Y390300D02*
X80500D01*
X79900Y389700D02*
Y390900D01*
X61300Y390400D02*
X62500D01*
X61900Y389800D02*
Y391000D01*
X79300Y411400D02*
X80500D01*
X79900Y410800D02*
Y412000D01*
X61300Y411500D02*
X62500D01*
X61900Y410900D02*
Y412100D01*
X308100Y412700D02*
X309300D01*
X308700Y412100D02*
Y413300D01*
X299000Y375500D02*
X300200D01*
X299600Y374900D02*
Y376100D01*
X315500Y391200D02*
X316700D01*
X316100Y390600D02*
Y391800D01*
X285600Y390800D02*
X286800D01*
X286200Y390200D02*
Y391400D01*
X285700Y385770D02*
X286900D01*
X286300Y385170D02*
Y386370D01*
X269400Y120500D02*
X270600D01*
X270000Y119900D02*
Y121100D01*
X351800Y266900D02*
X353000D01*
X352400Y266300D02*
Y267500D01*
X353671Y271100D02*
X354871D01*
X354271Y270500D02*
Y271700D01*
X366200Y271400D02*
X367400D01*
X366800Y270800D02*
Y272000D01*
X319200Y254100D02*
X320400D01*
X319800Y253500D02*
Y254700D01*
X320300Y271100D02*
X321500D01*
X320900Y270500D02*
Y271700D01*
X316000Y73200D02*
X317200D01*
X316600Y72600D02*
Y73800D01*
X194400Y40000D02*
X195600D01*
X195000Y39400D02*
Y40600D01*
X164200Y36800D02*
X165400D01*
X164800Y36200D02*
Y37400D01*
X260800Y98800D02*
X262000D01*
X261400Y98200D02*
Y99400D01*
X370300Y267600D02*
X371500D01*
X370900Y267000D02*
Y268200D01*
X337300Y222500D02*
X338500D01*
X337900Y221900D02*
Y223100D01*
X244200Y228400D02*
X245400D01*
X244800Y227800D02*
Y229000D01*
X295200Y224900D02*
X296400D01*
X295800Y224300D02*
Y225500D01*
X292300Y228600D02*
X293500D01*
X292900Y228000D02*
Y229200D01*
X225603Y226900D02*
X226803D01*
X226203Y226300D02*
Y227500D01*
X367900Y287400D02*
X369100D01*
X368500Y286800D02*
Y288000D01*
X366100Y274900D02*
X367300D01*
X366700Y274300D02*
Y275500D01*
X155000Y183900D02*
X156200D01*
X155600Y183300D02*
Y184500D01*
X152800Y180600D02*
X154000D01*
X153400Y180000D02*
Y181200D01*
X150400Y183900D02*
X151600D01*
X151000Y183300D02*
Y184500D01*
X162200Y180700D02*
X163400D01*
X162800Y180100D02*
Y181300D01*
X157300Y180400D02*
X158500D01*
X157900Y179800D02*
Y181000D01*
X157300Y187300D02*
X158500D01*
X157900Y186700D02*
Y187900D01*
X215700Y212500D02*
X216900D01*
X216300Y211900D02*
Y213100D01*
X146200Y208600D02*
X147400D01*
X146800Y208000D02*
Y209200D01*
X378600Y284629D02*
X379800D01*
X379200Y284029D02*
Y285229D01*
X353071Y278700D02*
X354271D01*
X353671Y278100D02*
Y279300D01*
X234500Y246400D02*
X235700D01*
X235100Y245800D02*
Y247000D01*
X236300Y273600D02*
X237500D01*
X236900Y273000D02*
Y274200D01*
X347300Y277700D02*
X348500D01*
X347900Y277100D02*
Y278300D01*
X211900Y313800D02*
X213100D01*
X212500Y313200D02*
Y314400D01*
X136100Y320100D02*
X137300D01*
X136700Y319500D02*
Y320700D01*
X139800Y274100D02*
X141000D01*
X140400Y273500D02*
Y274700D01*
X140900Y241000D02*
X142100D01*
X141500Y240400D02*
Y241600D01*
X183600Y241650D02*
X184800D01*
X184200Y241050D02*
Y242250D01*
X151834Y241650D02*
X153034D01*
X152434Y241050D02*
Y242250D01*
X147300Y247500D02*
X148500D01*
X147900Y246900D02*
Y248100D01*
X194500Y262300D02*
X195700D01*
X195100Y261700D02*
Y262900D01*
X196521Y254331D02*
X197721D01*
X197121Y253731D02*
Y254931D01*
X213100Y265200D02*
X214300D01*
X213700Y264600D02*
Y265800D01*
X210800Y261000D02*
X212000D01*
X211400Y260400D02*
Y261600D01*
X231300Y270000D02*
X232500D01*
X231900Y269400D02*
Y270600D01*
X231800Y274600D02*
X233000D01*
X232400Y274000D02*
Y275200D01*
X226600Y266900D02*
X227800D01*
X227200Y266300D02*
Y267500D01*
X290400Y238500D02*
X291600D01*
X291000Y237900D02*
Y239100D01*
X262000Y272900D02*
X263200D01*
X262600Y272300D02*
Y273500D01*
X265500Y269700D02*
X266700D01*
X266100Y269100D02*
Y270300D01*
X306000Y127887D02*
X307200D01*
X306600Y127287D02*
Y128488D01*
X293100Y303090D02*
X294300D01*
X293700Y302490D02*
Y303690D01*
X251785Y303500D02*
X252985D01*
X252385Y302900D02*
Y304100D01*
X310400Y288700D02*
X311600D01*
X311000Y288100D02*
Y289300D01*
X300600Y304300D02*
X301800D01*
X301200Y303700D02*
Y304900D01*
X293700Y237600D02*
X294900D01*
X294300Y237000D02*
Y238200D01*
X242750Y290700D02*
X243950D01*
X243350Y290100D02*
Y291300D01*
X238100D02*
X239300D01*
X238700Y290700D02*
Y291900D01*
X210000Y298900D02*
X211200D01*
X210600Y298300D02*
Y299500D01*
X120100Y289500D02*
X121300D01*
X120700Y288900D02*
Y290100D01*
X115400Y288500D02*
X116600D01*
X116000Y287900D02*
Y289100D01*
X149800Y283250D02*
X151000D01*
X150400Y282650D02*
Y283850D01*
X215400Y294000D02*
X216600D01*
X216000Y293400D02*
Y294600D01*
X224200Y300500D02*
X225400D01*
X224800Y299900D02*
Y301100D01*
X227000Y303800D02*
X228200D01*
X227600Y303200D02*
Y304400D01*
X132200Y238600D02*
X133400D01*
X132800Y238000D02*
Y239200D01*
X255631Y240969D02*
X256831D01*
X256231Y240369D02*
Y241569D01*
X258400Y246355D02*
X259600D01*
X259000Y245755D02*
Y246955D01*
X111948Y137048D02*
X113148D01*
X112548Y136448D02*
Y137648D01*
X240600Y217700D02*
X241800D01*
X241200Y217100D02*
Y218300D01*
X170500Y208000D02*
X171700D01*
X171100Y207400D02*
Y208600D01*
X193700Y251300D02*
X194900D01*
X194300Y250700D02*
Y251900D01*
X179300Y252500D02*
X180500D01*
X179900Y251900D02*
Y253100D01*
X189400Y234100D02*
X190600D01*
X190000Y233500D02*
Y234700D01*
X176500Y211500D02*
X177700D01*
X177100Y210900D02*
Y212100D01*
X191100Y209600D02*
X192300D01*
X191700Y209000D02*
Y210200D01*
X203400Y209000D02*
X204600D01*
X204000Y208400D02*
Y209600D01*
X333000Y303900D02*
X334200D01*
X333600Y303300D02*
Y304500D01*
X322000Y269267D02*
X323200D01*
X322600Y268667D02*
Y269867D01*
X333300Y310900D02*
X334500D01*
X333900Y310300D02*
Y311500D01*
X338700Y113000D02*
X339900D01*
X339300Y112400D02*
Y113600D01*
X301100Y59500D02*
X302300D01*
X301700Y58900D02*
Y60100D01*
X298300Y64700D02*
X299500D01*
X298900Y64100D02*
Y65300D01*
X333300Y74200D02*
X334500D01*
X333900Y73600D02*
Y74800D01*
X324100Y62800D02*
X325300D01*
X324700Y62200D02*
Y63400D01*
X337351Y99149D02*
X338551D01*
X337951Y98549D02*
Y99749D01*
X339750Y278000D02*
X340950D01*
X340350Y277400D02*
Y278600D01*
X337900Y274200D02*
X339100D01*
X338500Y273600D02*
Y274800D01*
X236400Y308200D02*
X237600D01*
X237000Y307600D02*
Y308800D01*
X231300Y311200D02*
X232500D01*
X231900Y310600D02*
Y311800D01*
X266800Y135100D02*
X268000D01*
X267400Y134500D02*
Y135700D01*
X250800Y158500D02*
X252000D01*
X251400Y157900D02*
Y159100D01*
X255200Y159300D02*
X256400D01*
X255800Y158700D02*
Y159900D01*
X260300Y140900D02*
X261500D01*
X260900Y140300D02*
Y141500D01*
X241000Y332300D02*
X242200D01*
X241600Y331700D02*
Y332900D01*
X211900Y328300D02*
X213100D01*
X212500Y327700D02*
Y328900D01*
X182100Y282400D02*
X183300D01*
X182700Y281800D02*
Y283000D01*
X161073Y257519D02*
X162273D01*
X161673Y256919D02*
Y258119D01*
X173900Y256100D02*
X175100D01*
X174500Y255500D02*
Y256700D01*
X217400Y307000D02*
X218600D01*
X218000Y306400D02*
Y307600D01*
X264200Y400000D02*
X265400D01*
X264800Y399400D02*
Y400600D01*
X279200Y397500D02*
X280400D01*
X279800Y396900D02*
Y398100D01*
X141650Y254100D02*
X142850D01*
X142250Y253500D02*
Y254700D01*
X210600Y245700D02*
X211800D01*
X211200Y245100D02*
Y246300D01*
X222400Y246800D02*
X223600D01*
X223000Y246200D02*
Y247400D01*
X129000Y247700D02*
X130200D01*
X129600Y247100D02*
Y248300D01*
X128500Y229500D02*
X129700D01*
X129100Y228900D02*
Y230100D01*
X147880Y230042D02*
X149080D01*
X148480Y229442D02*
Y230642D01*
X117500Y266400D02*
X118700D01*
X118100Y265800D02*
Y267000D01*
X75300Y263900D02*
X76500D01*
X75900Y263300D02*
Y264500D01*
X225600Y175400D02*
X226800D01*
X226200Y174800D02*
Y176000D01*
X233600Y134900D02*
X234800D01*
X234200Y134300D02*
Y135500D01*
X255200Y132900D02*
X256400D01*
X255800Y132300D02*
Y133500D01*
X230000Y129400D02*
X231200D01*
X230600Y128800D02*
Y130000D01*
X232843Y213600D02*
X234043D01*
X233443Y213000D02*
Y214200D01*
X239900Y221700D02*
X241100D01*
X240500Y221100D02*
Y222300D01*
X274900Y175500D02*
X276100D01*
X275500Y174900D02*
Y176100D01*
X277400Y183000D02*
X278600D01*
X278000Y182400D02*
Y183600D01*
X240100Y180800D02*
X241300D01*
X240700Y180200D02*
Y181400D01*
X393400Y25500D02*
X394600D01*
X394000Y24900D02*
Y26100D01*
X393200Y29300D02*
X394400D01*
X393800Y28700D02*
Y29900D01*
X389600Y27200D02*
X390800D01*
X390200Y26600D02*
Y27800D01*
X357600Y44900D02*
X358800D01*
X358200Y44300D02*
Y45500D01*
X218800Y204700D02*
X220000D01*
X219400Y204100D02*
Y205300D01*
X250500Y192000D02*
X251700D01*
X251100Y191400D02*
Y192600D01*
X166100Y205500D02*
X167300D01*
X166700Y204900D02*
Y206100D01*
X222300Y259900D02*
X223500D01*
X222900Y259300D02*
Y260500D01*
X172800Y249100D02*
X174000D01*
X173400Y248500D02*
Y249700D01*
X231500Y107400D02*
X232700D01*
X232100Y106800D02*
Y108000D01*
X232400Y99000D02*
X233600D01*
X233000Y98400D02*
Y99600D01*
X231300Y115100D02*
X232500D01*
X231900Y114500D02*
Y115700D01*
X248700Y224900D02*
X249900D01*
X249300Y224300D02*
Y225500D01*
X262100Y241300D02*
X263300D01*
X262700Y240700D02*
Y241900D01*
X255600Y226400D02*
X256800D01*
X256200Y225800D02*
Y227000D01*
X282300Y177900D02*
X283500D01*
X282900Y177300D02*
Y178500D01*
X229700Y209700D02*
X230900D01*
X230300Y209100D02*
Y210300D01*
X310900Y271600D02*
X312100D01*
X311500Y271000D02*
Y272200D01*
X310800Y284100D02*
X312000D01*
X311400Y283500D02*
Y284700D01*
X291500Y262000D02*
X292700D01*
X292100Y261400D02*
Y262600D01*
X290421Y257921D02*
X291621D01*
X291021Y257321D02*
Y258521D01*
X289900Y252900D02*
X291100D01*
X290500Y252300D02*
Y253500D01*
X287400Y250200D02*
X288600D01*
X288000Y249600D02*
Y250800D01*
X334400Y379400D02*
X335600D01*
X335000Y378800D02*
Y380000D01*
X278464Y359436D02*
X279664D01*
X279064Y358836D02*
Y360036D01*
X278100Y374300D02*
X279300D01*
X278700Y373700D02*
Y374900D01*
X275000Y383700D02*
X276200D01*
X275600Y383100D02*
Y384300D01*
X160400Y301300D02*
X161600D01*
X161000Y300700D02*
Y301900D01*
X210600Y231500D02*
X211800D01*
X211200Y230900D02*
Y232100D01*
X262600Y276600D02*
X263800D01*
X263200Y276000D02*
Y277200D01*
X211700Y276600D02*
X212900D01*
X212300Y276000D02*
Y277200D01*
X210000Y255500D02*
X211200D01*
X210600Y254900D02*
Y256100D01*
X212300Y257900D02*
X213500D01*
X212900Y257300D02*
Y258500D01*
X267000Y230000D02*
X268200D01*
X267600Y229400D02*
Y230600D01*
X262600Y280100D02*
X263800D01*
X263200Y279500D02*
Y280700D01*
X252500Y286400D02*
X253700D01*
X253100Y285800D02*
Y287000D01*
X262400Y286100D02*
X263600D01*
X263000Y285500D02*
Y286700D01*
X82400Y276350D02*
X83600D01*
X83000Y275750D02*
Y276950D01*
X70539Y276800D02*
X71739D01*
X71139Y276200D02*
Y277400D01*
X358400Y94700D02*
X359600D01*
X359000Y94100D02*
Y95300D01*
X357700Y80300D02*
X358900D01*
X358300Y79700D02*
Y80900D01*
X379000Y43100D02*
X380200D01*
X379600Y42500D02*
Y43700D01*
X384100Y43100D02*
X385300D01*
X384700Y42500D02*
Y43700D01*
X333000Y61800D02*
X334200D01*
X333600Y61200D02*
Y62400D01*
X345659Y136641D02*
X346859D01*
X346259Y136041D02*
Y137241D01*
X195200Y71000D02*
X196400D01*
X195800Y70400D02*
Y71600D01*
X192400Y71000D02*
X193600D01*
X193000Y70400D02*
Y71600D01*
X161800Y186700D02*
X163000D01*
X162400Y186100D02*
Y187300D01*
X152900Y187200D02*
X154100D01*
X153500Y186600D02*
Y187800D01*
X159600Y183800D02*
X160800D01*
X160200Y183200D02*
Y184400D01*
X250000Y358000D02*
X251200D01*
X250600Y357400D02*
Y358600D01*
X249400Y327300D02*
X250600D01*
X250000Y326700D02*
Y327900D01*
X210400Y357500D02*
X211600D01*
X211000Y356900D02*
Y358100D01*
X250400Y408100D02*
X251600D01*
X251000Y407500D02*
Y408700D01*
X203000Y407400D02*
X204200D01*
X203600Y406800D02*
Y408000D01*
X333700Y365800D02*
X334900D01*
X334300Y365200D02*
Y366400D01*
X327400Y365400D02*
X328600D01*
X328000Y364800D02*
Y366000D01*
X320500Y363900D02*
X321700D01*
X321100Y363300D02*
Y364500D01*
X320400Y380300D02*
X321600D01*
X321000Y379700D02*
Y380900D01*
X327600Y379400D02*
X328800D01*
X328200Y378800D02*
Y380000D01*
X316700Y380100D02*
X317900D01*
X317300Y379500D02*
Y380700D01*
X326100Y384900D02*
X327300D01*
X326700Y384300D02*
Y385500D01*
X274700Y397037D02*
X275900D01*
X275300Y396437D02*
Y397637D01*
X390600Y411300D02*
X391800D01*
X391200Y410700D02*
Y411900D01*
X390500Y389000D02*
X391700D01*
X391100Y388400D02*
Y389600D01*
X390600Y371600D02*
X391800D01*
X391200Y371000D02*
Y372200D01*
X390100Y348700D02*
X391300D01*
X390700Y348100D02*
Y349300D01*
Y423400D02*
X391900D01*
X391300Y422800D02*
Y424000D01*
X184400Y294000D02*
X185600D01*
X185000Y293400D02*
Y294600D01*
X167600Y53400D02*
X168800D01*
X168200Y52800D02*
Y54000D01*
X165600Y49700D02*
X166800D01*
X166200Y49100D02*
Y50300D01*
X159700Y49800D02*
X160900D01*
X160300Y49200D02*
Y50400D01*
X153800Y49600D02*
X155000D01*
X154400Y49000D02*
Y50200D01*
X162400Y53400D02*
X163600D01*
X163000Y52800D02*
Y54000D01*
X156700Y53800D02*
X157900D01*
X157300Y53200D02*
Y54400D01*
X150900Y53700D02*
X152100D01*
X151500Y53100D02*
Y54300D01*
X75400Y288000D02*
X76600D01*
X76000Y287400D02*
Y288600D01*
X357400Y296000D02*
X358600D01*
X358000Y295400D02*
Y296600D01*
X85000Y370300D02*
X86200D01*
X85600Y369700D02*
Y370900D01*
X84900Y386900D02*
X86100D01*
X85500Y386300D02*
Y387500D01*
X85000Y406400D02*
X86200D01*
X85600Y405800D02*
Y407000D01*
X85000Y426300D02*
X86200D01*
X85600Y425700D02*
Y426900D01*
X84400Y350700D02*
X85600D01*
X85000Y350100D02*
Y351300D01*
X77937Y300619D02*
X78724D01*
X78331Y300225D02*
Y301013D01*
X73606Y300619D02*
X74394D01*
X74000Y300225D02*
Y301013D01*
X77937Y304950D02*
X78724D01*
X78331Y304556D02*
Y305343D01*
X73606Y304950D02*
X74394D01*
X74000Y304556D02*
Y305343D01*
X66400Y293000D02*
X67600D01*
X67000Y292400D02*
Y293600D01*
X77400Y315000D02*
X78600D01*
X78000Y314400D02*
Y315600D01*
X63400Y291200D02*
X64600D01*
X64000Y290600D02*
Y291800D01*
X366700Y292000D02*
X367900D01*
X367300Y291400D02*
Y292600D01*
X220400Y296000D02*
X221600D01*
X221000Y295400D02*
Y296600D01*
X365400Y296000D02*
X366600D01*
X366000Y295400D02*
Y296600D01*
X68239Y284250D02*
X69439D01*
X68839Y283650D02*
Y284850D01*
X64569Y287150D02*
X65769D01*
X65169Y286550D02*
Y287750D01*
X374467Y304950D02*
X375254D01*
X374861Y304556D02*
Y305343D01*
X378798Y304950D02*
X379585D01*
X379191Y304556D02*
Y305343D01*
X374467Y300619D02*
X375254D01*
X374861Y300225D02*
Y301013D01*
X378798Y300619D02*
X379585D01*
X379191Y300225D02*
Y301013D01*
X58600Y275500D02*
X59800D01*
X59200Y274900D02*
Y276100D01*
Y267900D02*
X60400D01*
X59800Y267300D02*
Y268500D01*
X56339Y269650D02*
X57539D01*
X56939Y269050D02*
Y270250D01*
X56239Y276750D02*
X57439D01*
X56839Y276150D02*
Y277350D01*
X95639Y269950D02*
X96839D01*
X96239Y269350D02*
Y270550D01*
X70539Y273050D02*
X71739D01*
X71139Y272450D02*
Y273650D01*
X70539Y269450D02*
X71739D01*
X71139Y268850D02*
Y270050D01*
X378400Y316000D02*
X379600D01*
X379000Y315400D02*
Y316600D01*
X384400Y290300D02*
X385600D01*
X385000Y289700D02*
Y290900D01*
X393100Y275700D02*
X394300D01*
X393700Y275100D02*
Y276300D01*
X242400Y76000D02*
X243600D01*
X243000Y75400D02*
Y76600D01*
X245400Y66000D02*
X246600D01*
X246000Y65400D02*
Y66600D01*
X233400Y81000D02*
X234600D01*
X234000Y80400D02*
Y81600D01*
X233400Y86000D02*
X234600D01*
X234000Y85400D02*
Y86600D01*
X231400Y90000D02*
X232600D01*
X232000Y89400D02*
Y90600D01*
X189400Y71000D02*
X190600D01*
X190000Y70400D02*
Y71600D01*
X191400Y40000D02*
X192600D01*
X192000Y39400D02*
Y40600D01*
X188400Y40000D02*
X189600D01*
X189000Y39400D02*
Y40600D01*
X187400Y48000D02*
X188600D01*
X188000Y47400D02*
Y48600D01*
X187400Y62000D02*
X188600D01*
X188000Y61400D02*
Y62600D01*
X359400Y25000D02*
X360600D01*
X360000Y24400D02*
Y25600D01*
X359400Y31000D02*
X360600D01*
X360000Y30400D02*
Y31600D01*
X359400Y28000D02*
X360600D01*
X360000Y27400D02*
Y28600D01*
X250400Y46000D02*
X251600D01*
X251000Y45400D02*
Y46600D01*
X246400Y46000D02*
X247600D01*
X247000Y45400D02*
Y46600D01*
X250400Y50000D02*
X251600D01*
X251000Y49400D02*
Y50600D01*
X246400Y50000D02*
X247600D01*
X247000Y49400D02*
Y50600D01*
X250400Y54000D02*
X251600D01*
X251000Y53400D02*
Y54600D01*
X246400Y54000D02*
X247600D01*
X247000Y53400D02*
Y54600D01*
X250400Y58000D02*
X251600D01*
X251000Y57400D02*
Y58600D01*
X246400Y58000D02*
X247600D01*
X247000Y57400D02*
Y58600D01*
X50400Y64000D02*
X51600D01*
X51000Y63400D02*
Y64600D01*
X81400Y78000D02*
X82600D01*
X82000Y77400D02*
Y78600D01*
X55900Y64200D02*
X57100D01*
X56500Y63600D02*
Y64800D01*
X71400Y81400D02*
X72600D01*
X72000Y80800D02*
Y82000D01*
X89900Y63600D02*
X91100D01*
X90500Y63000D02*
Y64200D01*
X94340Y63600D02*
X95540D01*
X94940Y63000D02*
Y64200D01*
X98780Y63600D02*
X99980D01*
X99380Y63000D02*
Y64200D01*
X103220Y63600D02*
X104420D01*
X103820Y63000D02*
Y64200D01*
X107660Y63600D02*
X108860D01*
X108260Y63000D02*
Y64200D01*
X112100Y63600D02*
X113300D01*
X112700Y63000D02*
Y64200D01*
X112120Y67700D02*
X113320D01*
X112720Y67100D02*
Y68300D01*
X107680Y67700D02*
X108880D01*
X108280Y67100D02*
Y68300D01*
X103240Y67700D02*
X104440D01*
X103840Y67100D02*
Y68300D01*
X98800Y67700D02*
X100000D01*
X99400Y67100D02*
Y68300D01*
X94360Y67700D02*
X95560D01*
X94960Y67100D02*
Y68300D01*
X89920Y67700D02*
X91120D01*
X90520Y67100D02*
Y68300D01*
X91550Y81448D02*
X92750D01*
X92150Y80848D02*
Y82048D01*
X85250Y71648D02*
X86450D01*
X85850Y71048D02*
Y72248D01*
M02*
