G04*
G04 #@! TF.GenerationSoftware,Altium Limited,Altium Designer,20.1.12 (249)*
G04*
G04 Layer_Color=16711935*
%FSLAX25Y25*%
%MOIN*%
G70*
G04*
G04 #@! TF.SameCoordinates,8DF9F49D-D30B-48C0-AB84-75DE52E997E5*
G04*
G04*
G04 #@! TF.FilePolarity,Positive*
G04*
G01*
G75*
%ADD13C,0.00200*%
D13*
X44799Y276500D02*
G03*
X44799Y276498I201J0D01*
G01*
Y276501D02*
G03*
X44799Y276500I102J-1D01*
G01*
X407500Y259609D02*
G03*
X407601Y259710I0J102D01*
G01*
X44900Y141701D02*
G03*
X44799Y141600I0J-102D01*
G01*
X44799Y259604D02*
G03*
X44900Y259499I101J-4D01*
G01*
X44749Y468482D02*
G03*
X44799Y468293I51J-88D01*
G01*
X407555Y469595D02*
G03*
X44749Y468482I-180439J-314864D01*
G01*
X407606Y469507D02*
G03*
X407555Y469595I-102J0D01*
G01*
X407601Y469479D02*
G03*
X407606Y469507I-97J29D01*
G01*
X407701Y141600D02*
G03*
X407600Y141701I-102J0D01*
G01*
X407600Y3703D02*
G03*
X407701Y3805I0J102D01*
G01*
X44799Y3805D02*
G03*
X44900Y3703I102J0D01*
G01*
X432701Y141500D02*
G03*
X432500Y141701I-201J0D01*
G01*
X44799Y259604D02*
Y276498D01*
X44799Y468293D02*
X44799Y276501D01*
X407601Y469479D02*
X407601Y259710D01*
X340201Y259609D02*
X407500D01*
X44799Y3805D02*
Y141600D01*
X44900Y141701D02*
X114799D01*
Y259499D01*
X44900D02*
X114799D01*
X340201Y141701D02*
Y259609D01*
Y141701D02*
X407600D01*
X407701Y141400D02*
Y141600D01*
X407701Y3805D02*
X407701Y141400D01*
X44900Y3703D02*
X407600Y3703D01*
M02*
