G04*
G04 #@! TF.GenerationSoftware,Altium Limited,Altium Designer,20.1.12 (249)*
G04*
G04 Layer_Physical_Order=3*
G04 Layer_Color=16440176*
%FSLAX25Y25*%
%MOIN*%
G70*
G04*
G04 #@! TF.SameCoordinates,8DF9F49D-D30B-48C0-AB84-75DE52E997E5*
G04*
G04*
G04 #@! TF.FilePolarity,Positive*
G04*
G01*
G75*
%ADD16C,0.00700*%
%ADD100C,0.07000*%
%ADD105R,0.07000X0.07000*%
%ADD121C,0.03000*%
%ADD122C,0.04000*%
%ADD124R,0.05906X0.05906*%
%ADD126R,0.06200X0.06200*%
%ADD127C,0.06200*%
%ADD132C,0.06299*%
%ADD134P,0.08768X4X245.0*%
%ADD135P,0.08768X4X205.0*%
%ADD138C,0.02000*%
%ADD139C,0.10000*%
%ADD140C,0.08000*%
G36*
X238961Y516550D02*
X250793Y515969D01*
X262599Y515000D01*
X274368Y513647D01*
X286086Y511908D01*
X297741Y509788D01*
X309320Y507287D01*
X320812Y504408D01*
X332203Y501156D01*
X343481Y497532D01*
X354635Y493541D01*
X365652Y489187D01*
X376521Y484475D01*
X387230Y479410D01*
X397767Y473998D01*
X406697Y469035D01*
X406697Y260513D01*
X340201D01*
X339855Y260445D01*
X339562Y260248D01*
X339366Y259955D01*
X339297Y259609D01*
Y224318D01*
X338797Y224051D01*
X338597Y224184D01*
X337900Y224322D01*
X337203Y224184D01*
X336611Y223789D01*
X336216Y223197D01*
X336078Y222500D01*
X336216Y221803D01*
X336611Y221211D01*
X337203Y220816D01*
X337900Y220678D01*
X338597Y220816D01*
X338797Y220949D01*
X339297Y220682D01*
Y141701D01*
X339366Y141355D01*
X339562Y141062D01*
X339855Y140866D01*
X340201Y140797D01*
X406797D01*
X406797Y4608D01*
X45703Y4608D01*
Y140797D01*
X114799D01*
X115145Y140866D01*
X115438Y141062D01*
X115635Y141355D01*
X115703Y141701D01*
Y259499D01*
X115635Y259845D01*
X115438Y260138D01*
X115145Y260334D01*
X114799Y260403D01*
X45703D01*
Y276008D01*
X45703Y276393D01*
X45800Y276488D01*
X45805Y276500D01*
X45794Y276507D01*
X45703Y276597D01*
X45703Y276987D01*
X45703Y468000D01*
X46109Y468243D01*
X56464Y473998D01*
X67002Y479410D01*
X77711Y484475D01*
X88579Y489187D01*
X99597Y493541D01*
X110751Y497532D01*
X122029Y501156D01*
X133420Y504408D01*
X144911Y507287D01*
X156491Y509788D01*
X168146Y511908D01*
X179864Y513647D01*
X191632Y515000D01*
X203439Y515969D01*
X215271Y516550D01*
X227116Y516744D01*
X238961Y516550D01*
D02*
G37*
%LPC*%
G36*
X228400Y509122D02*
X227703Y508984D01*
X227111Y508589D01*
X226716Y507997D01*
X226578Y507300D01*
X226716Y506603D01*
X227111Y506011D01*
X227703Y505616D01*
X228400Y505478D01*
X229097Y505616D01*
X229689Y506011D01*
X230084Y506603D01*
X230222Y507300D01*
X230084Y507997D01*
X229689Y508589D01*
X229097Y508984D01*
X228400Y509122D01*
D02*
G37*
G36*
X261000Y508322D02*
X260303Y508184D01*
X259711Y507789D01*
X259316Y507197D01*
X259178Y506500D01*
X259316Y505803D01*
X259711Y505211D01*
X260303Y504816D01*
X261000Y504678D01*
X261697Y504816D01*
X262289Y505211D01*
X262684Y505803D01*
X262822Y506500D01*
X262684Y507197D01*
X262289Y507789D01*
X261697Y508184D01*
X261000Y508322D01*
D02*
G37*
G36*
X198200Y507722D02*
X197503Y507584D01*
X196911Y507189D01*
X196516Y506597D01*
X196378Y505900D01*
X196516Y505203D01*
X196911Y504611D01*
X197503Y504216D01*
X198200Y504078D01*
X198897Y504216D01*
X199489Y504611D01*
X199884Y505203D01*
X200022Y505900D01*
X199884Y506597D01*
X199489Y507189D01*
X198897Y507584D01*
X198200Y507722D01*
D02*
G37*
G36*
X292800Y505522D02*
X292103Y505384D01*
X291511Y504989D01*
X291116Y504397D01*
X290978Y503700D01*
X291116Y503003D01*
X291511Y502411D01*
X292103Y502016D01*
X292800Y501878D01*
X293497Y502016D01*
X294089Y502411D01*
X294484Y503003D01*
X294622Y503700D01*
X294484Y504397D01*
X294089Y504989D01*
X293497Y505384D01*
X292800Y505522D01*
D02*
G37*
G36*
X171100Y504822D02*
X170403Y504684D01*
X169811Y504289D01*
X169416Y503697D01*
X169278Y503000D01*
X169416Y502303D01*
X169811Y501711D01*
X170403Y501316D01*
X171100Y501178D01*
X171797Y501316D01*
X172389Y501711D01*
X172784Y502303D01*
X172922Y503000D01*
X172784Y503697D01*
X172389Y504289D01*
X171797Y504684D01*
X171100Y504822D01*
D02*
G37*
G36*
X145600Y501222D02*
X144903Y501084D01*
X144311Y500689D01*
X143916Y500097D01*
X143778Y499400D01*
X143916Y498703D01*
X144311Y498111D01*
X144903Y497716D01*
X145600Y497578D01*
X146297Y497716D01*
X146889Y498111D01*
X147284Y498703D01*
X147422Y499400D01*
X147284Y500097D01*
X146889Y500689D01*
X146297Y501084D01*
X145600Y501222D01*
D02*
G37*
G36*
X325100Y498722D02*
X324403Y498584D01*
X323811Y498189D01*
X323416Y497597D01*
X323278Y496900D01*
X323416Y496203D01*
X323811Y495611D01*
X324403Y495216D01*
X325100Y495078D01*
X325797Y495216D01*
X326389Y495611D01*
X326784Y496203D01*
X326922Y496900D01*
X326784Y497597D01*
X326389Y498189D01*
X325797Y498584D01*
X325100Y498722D01*
D02*
G37*
G36*
X92729Y486133D02*
X91706Y486088D01*
X90730Y485780D01*
X89867Y485230D01*
X89175Y484476D01*
X88702Y483568D01*
X88481Y482569D01*
X88525Y481546D01*
X88833Y480570D01*
X89383Y479706D01*
X90138Y479015D01*
X91046Y478542D01*
X92045Y478321D01*
X93068Y478365D01*
X94044Y478673D01*
X94907Y479223D01*
X95599Y479978D01*
X96071Y480886D01*
X96293Y481885D01*
X96248Y482908D01*
X95940Y483884D01*
X95390Y484747D01*
X94636Y485439D01*
X93728Y485911D01*
X92729Y486133D01*
D02*
G37*
G36*
X171100Y480222D02*
X170403Y480084D01*
X169811Y479689D01*
X169416Y479097D01*
X169278Y478400D01*
X169416Y477703D01*
X169811Y477111D01*
X170403Y476716D01*
X171100Y476578D01*
X171797Y476716D01*
X172389Y477111D01*
X172784Y477703D01*
X172922Y478400D01*
X172784Y479097D01*
X172389Y479689D01*
X171797Y480084D01*
X171100Y480222D01*
D02*
G37*
G36*
X258900Y479322D02*
X258203Y479184D01*
X257611Y478789D01*
X257216Y478197D01*
X257078Y477500D01*
X257216Y476803D01*
X257611Y476211D01*
X258203Y475816D01*
X258900Y475678D01*
X259597Y475816D01*
X260189Y476211D01*
X260584Y476803D01*
X260722Y477500D01*
X260584Y478197D01*
X260189Y478789D01*
X259597Y479184D01*
X258900Y479322D01*
D02*
G37*
G36*
X212900Y479022D02*
X212203Y478884D01*
X211611Y478489D01*
X211216Y477897D01*
X211078Y477200D01*
X211216Y476503D01*
X211611Y475911D01*
X212203Y475516D01*
X212900Y475378D01*
X213597Y475516D01*
X214189Y475911D01*
X214584Y476503D01*
X214722Y477200D01*
X214584Y477897D01*
X214189Y478489D01*
X213597Y478884D01*
X212900Y479022D01*
D02*
G37*
G36*
X102126Y482713D02*
X101103Y482668D01*
X100127Y482360D01*
X99263Y481810D01*
X98572Y481056D01*
X98099Y480148D01*
X97878Y479148D01*
X97922Y478126D01*
X98230Y477150D01*
X98780Y476286D01*
X99535Y475595D01*
X100443Y475122D01*
X101442Y474901D01*
X102465Y474945D01*
X103441Y475253D01*
X104304Y475803D01*
X104996Y476558D01*
X105468Y477466D01*
X105690Y478465D01*
X105645Y479488D01*
X105337Y480464D01*
X104787Y481327D01*
X104033Y482019D01*
X103125Y482491D01*
X102126Y482713D01*
D02*
G37*
G36*
X336203Y480592D02*
X335204Y480371D01*
X334296Y479898D01*
X333541Y479207D01*
X332991Y478343D01*
X332684Y477367D01*
X332639Y476345D01*
X332860Y475345D01*
X333333Y474438D01*
X334025Y473683D01*
X334888Y473133D01*
X335864Y472825D01*
X336887Y472780D01*
X337886Y473002D01*
X338794Y473475D01*
X339549Y474166D01*
X340099Y475029D01*
X340406Y476006D01*
X340451Y477028D01*
X340229Y478027D01*
X339757Y478935D01*
X339065Y479690D01*
X338202Y480240D01*
X337226Y480548D01*
X336203Y480592D01*
D02*
G37*
G36*
X290900Y476422D02*
X290203Y476284D01*
X289611Y475889D01*
X289216Y475297D01*
X289078Y474600D01*
X289216Y473903D01*
X289611Y473311D01*
X290203Y472916D01*
X290900Y472778D01*
X291597Y472916D01*
X292189Y473311D01*
X292584Y473903D01*
X292722Y474600D01*
X292584Y475297D01*
X292189Y475889D01*
X291597Y476284D01*
X290900Y476422D01*
D02*
G37*
G36*
X326806Y477172D02*
X325807Y476951D01*
X324899Y476478D01*
X324144Y475787D01*
X323594Y474923D01*
X323287Y473947D01*
X323242Y472925D01*
X323464Y471925D01*
X323936Y471017D01*
X324628Y470263D01*
X325491Y469713D01*
X326467Y469405D01*
X327490Y469360D01*
X328489Y469582D01*
X329397Y470054D01*
X330152Y470746D01*
X330702Y471609D01*
X331009Y472585D01*
X331054Y473608D01*
X330833Y474607D01*
X330360Y475515D01*
X329668Y476270D01*
X328805Y476820D01*
X327829Y477128D01*
X326806Y477172D01*
D02*
G37*
G36*
X231600Y460622D02*
X230903Y460484D01*
X230311Y460089D01*
X229916Y459497D01*
X229778Y458800D01*
X229916Y458103D01*
X230311Y457511D01*
X230903Y457116D01*
X231600Y456978D01*
X232297Y457116D01*
X232889Y457511D01*
X233284Y458103D01*
X233422Y458800D01*
X233284Y459497D01*
X232889Y460089D01*
X232297Y460484D01*
X231600Y460622D01*
D02*
G37*
G36*
X272600Y460522D02*
X271903Y460384D01*
X271311Y459989D01*
X270916Y459397D01*
X270778Y458700D01*
X270916Y458003D01*
X271311Y457411D01*
X271903Y457016D01*
X272600Y456878D01*
X273297Y457016D01*
X273889Y457411D01*
X274284Y458003D01*
X274422Y458700D01*
X274284Y459397D01*
X273889Y459989D01*
X273297Y460384D01*
X272600Y460522D01*
D02*
G37*
G36*
X189300Y460422D02*
X188603Y460284D01*
X188011Y459889D01*
X187616Y459297D01*
X187478Y458600D01*
X187616Y457903D01*
X188011Y457311D01*
X188603Y456916D01*
X189300Y456778D01*
X189997Y456916D01*
X190589Y457311D01*
X190984Y457903D01*
X191122Y458600D01*
X190984Y459297D01*
X190589Y459889D01*
X189997Y460284D01*
X189300Y460422D01*
D02*
G37*
G36*
X148400D02*
X147703Y460284D01*
X147111Y459889D01*
X146716Y459297D01*
X146578Y458600D01*
X146716Y457903D01*
X147111Y457311D01*
X147703Y456916D01*
X148400Y456778D01*
X149097Y456916D01*
X149689Y457311D01*
X150084Y457903D01*
X150222Y458600D01*
X150084Y459297D01*
X149689Y459889D01*
X149097Y460284D01*
X148400Y460422D01*
D02*
G37*
G36*
X402811Y462461D02*
X402057Y462361D01*
X401355Y462071D01*
X400751Y461608D01*
X400288Y461004D01*
X399998Y460302D01*
X399898Y459548D01*
X399998Y458794D01*
X400288Y458092D01*
X400751Y457488D01*
X401355Y457026D01*
X402057Y456735D01*
X402811Y456635D01*
X403565Y456735D01*
X404267Y457026D01*
X404871Y457488D01*
X405334Y458092D01*
X405624Y458794D01*
X405724Y459548D01*
X405624Y460302D01*
X405334Y461004D01*
X404871Y461608D01*
X404267Y462071D01*
X403565Y462361D01*
X402811Y462461D01*
D02*
G37*
G36*
X367378D02*
X366624Y462361D01*
X365922Y462071D01*
X365318Y461608D01*
X364856Y461004D01*
X364564Y460302D01*
X364465Y459548D01*
X364564Y458794D01*
X364856Y458092D01*
X365318Y457488D01*
X365922Y457026D01*
X366624Y456735D01*
X367378Y456635D01*
X368132Y456735D01*
X368834Y457026D01*
X369438Y457488D01*
X369900Y458092D01*
X370191Y458794D01*
X370291Y459548D01*
X370191Y460302D01*
X369900Y461004D01*
X369438Y461608D01*
X368834Y462071D01*
X368132Y462361D01*
X367378Y462461D01*
D02*
G37*
G36*
X392000Y460018D02*
Y456611D01*
X395407D01*
X395384Y456786D01*
X394931Y457880D01*
X394209Y458820D01*
X393269Y459542D01*
X392175Y459995D01*
X392000Y460018D01*
D02*
G37*
G36*
X390000D02*
X389825Y459995D01*
X388731Y459542D01*
X387791Y458820D01*
X387069Y457880D01*
X386616Y456786D01*
X386593Y456611D01*
X390000D01*
Y460018D01*
D02*
G37*
G36*
X85322Y461361D02*
X84568Y461262D01*
X83866Y460970D01*
X83262Y460508D01*
X82800Y459904D01*
X82509Y459202D01*
X82409Y458448D01*
X82509Y457694D01*
X82800Y456992D01*
X83262Y456388D01*
X83866Y455926D01*
X84568Y455635D01*
X85322Y455535D01*
X86076Y455635D01*
X86778Y455926D01*
X87382Y456388D01*
X87845Y456992D01*
X88135Y457694D01*
X88235Y458448D01*
X88135Y459202D01*
X87845Y459904D01*
X87382Y460508D01*
X86778Y460970D01*
X86076Y461262D01*
X85322Y461361D01*
D02*
G37*
G36*
X49889D02*
X49135Y461262D01*
X48433Y460970D01*
X47829Y460508D01*
X47366Y459904D01*
X47076Y459202D01*
X46976Y458448D01*
X47076Y457694D01*
X47366Y456992D01*
X47829Y456388D01*
X48433Y455926D01*
X49135Y455635D01*
X49889Y455535D01*
X50643Y455635D01*
X51345Y455926D01*
X51949Y456388D01*
X52412Y456992D01*
X52702Y457694D01*
X52802Y458448D01*
X52702Y459202D01*
X52412Y459904D01*
X51949Y460508D01*
X51345Y460970D01*
X50643Y461262D01*
X49889Y461361D01*
D02*
G37*
G36*
X74511Y458918D02*
Y455511D01*
X77918D01*
X77895Y455686D01*
X77442Y456780D01*
X76720Y457721D01*
X75780Y458442D01*
X74686Y458895D01*
X74511Y458918D01*
D02*
G37*
G36*
X72511D02*
X72336Y458895D01*
X71242Y458442D01*
X70302Y457721D01*
X69580Y456780D01*
X69127Y455686D01*
X69104Y455511D01*
X72511D01*
Y458918D01*
D02*
G37*
G36*
X310600Y456322D02*
X309903Y456184D01*
X309311Y455789D01*
X308916Y455197D01*
X308778Y454500D01*
X308916Y453803D01*
X309311Y453211D01*
X309903Y452816D01*
X310600Y452678D01*
X311297Y452816D01*
X311889Y453211D01*
X312284Y453803D01*
X312422Y454500D01*
X312284Y455197D01*
X311889Y455789D01*
X311297Y456184D01*
X310600Y456322D01*
D02*
G37*
G36*
X379189Y459935D02*
X378070Y459788D01*
X377027Y459356D01*
X376131Y458669D01*
X375444Y457773D01*
X375012Y456730D01*
X374865Y455611D01*
X375012Y454492D01*
X375444Y453449D01*
X376131Y452553D01*
X377027Y451866D01*
X378070Y451434D01*
X379189Y451287D01*
X380308Y451434D01*
X381351Y451866D01*
X382247Y452553D01*
X382934Y453449D01*
X383366Y454492D01*
X383513Y455611D01*
X383366Y456730D01*
X382934Y457773D01*
X382247Y458669D01*
X381351Y459356D01*
X380308Y459788D01*
X379189Y459935D01*
D02*
G37*
G36*
X395407Y454611D02*
X392000D01*
Y451204D01*
X392175Y451227D01*
X393269Y451680D01*
X394209Y452402D01*
X394931Y453342D01*
X395384Y454436D01*
X395407Y454611D01*
D02*
G37*
G36*
X390000D02*
X386593D01*
X386616Y454436D01*
X387069Y453342D01*
X387791Y452402D01*
X388731Y451680D01*
X389825Y451227D01*
X390000Y451204D01*
Y454611D01*
D02*
G37*
G36*
X61700Y458835D02*
X60581Y458688D01*
X59538Y458256D01*
X58642Y457569D01*
X57955Y456673D01*
X57523Y455630D01*
X57376Y454511D01*
X57523Y453392D01*
X57955Y452349D01*
X58642Y451453D01*
X59538Y450766D01*
X60581Y450334D01*
X61700Y450187D01*
X62819Y450334D01*
X63862Y450766D01*
X64758Y451453D01*
X65445Y452349D01*
X65877Y453392D01*
X66024Y454511D01*
X65877Y455630D01*
X65445Y456673D01*
X64758Y457569D01*
X63862Y458256D01*
X62819Y458688D01*
X61700Y458835D01*
D02*
G37*
G36*
X77918Y453511D02*
X74511D01*
Y450104D01*
X74686Y450127D01*
X75780Y450580D01*
X76720Y451302D01*
X77442Y452242D01*
X77895Y453336D01*
X77918Y453511D01*
D02*
G37*
G36*
X72511D02*
X69104D01*
X69127Y453336D01*
X69580Y452242D01*
X70302Y451302D01*
X71242Y450580D01*
X72336Y450127D01*
X72511Y450104D01*
Y453511D01*
D02*
G37*
G36*
X395500Y448300D02*
X392000D01*
Y444800D01*
X395500D01*
Y448300D01*
D02*
G37*
G36*
X390000D02*
X386500D01*
Y444800D01*
X390000D01*
Y448300D01*
D02*
G37*
G36*
X78011Y447200D02*
X74511D01*
Y443700D01*
X78011D01*
Y447200D01*
D02*
G37*
G36*
X72511D02*
X69011D01*
Y443700D01*
X72511D01*
Y447200D01*
D02*
G37*
G36*
X220600Y442904D02*
Y439900D01*
X223604D01*
X223594Y439970D01*
X223181Y440968D01*
X222524Y441824D01*
X221668Y442481D01*
X220670Y442895D01*
X220600Y442904D01*
D02*
G37*
G36*
X218600D02*
X218530Y442895D01*
X217532Y442481D01*
X216676Y441824D01*
X216019Y440968D01*
X215605Y439970D01*
X215596Y439900D01*
X218600D01*
Y442904D01*
D02*
G37*
G36*
X379189Y448124D02*
X378070Y447977D01*
X377027Y447545D01*
X376131Y446858D01*
X375444Y445962D01*
X375012Y444919D01*
X374865Y443800D01*
X375012Y442681D01*
X375444Y441638D01*
X376131Y440742D01*
X377027Y440055D01*
X378070Y439623D01*
X379189Y439476D01*
X380308Y439623D01*
X381351Y440055D01*
X382247Y440742D01*
X382934Y441638D01*
X383366Y442681D01*
X383513Y443800D01*
X383366Y444919D01*
X382934Y445962D01*
X382247Y446858D01*
X381351Y447545D01*
X380308Y447977D01*
X379189Y448124D01*
D02*
G37*
G36*
X395500Y442800D02*
X392000D01*
Y439300D01*
X395500D01*
Y442800D01*
D02*
G37*
G36*
X390000D02*
X386500D01*
Y439300D01*
X390000D01*
Y442800D01*
D02*
G37*
G36*
X61700Y447024D02*
X60581Y446877D01*
X59538Y446445D01*
X58642Y445758D01*
X57955Y444862D01*
X57523Y443819D01*
X57376Y442700D01*
X57523Y441581D01*
X57955Y440538D01*
X58642Y439642D01*
X59538Y438955D01*
X60581Y438523D01*
X61700Y438376D01*
X62819Y438523D01*
X63862Y438955D01*
X64758Y439642D01*
X65445Y440538D01*
X65877Y441581D01*
X66024Y442700D01*
X65877Y443819D01*
X65445Y444862D01*
X64758Y445758D01*
X63862Y446445D01*
X62819Y446877D01*
X61700Y447024D01*
D02*
G37*
G36*
X78011Y441700D02*
X74511D01*
Y438200D01*
X78011D01*
Y441700D01*
D02*
G37*
G36*
X72511D02*
X69011D01*
Y438200D01*
X72511D01*
Y441700D01*
D02*
G37*
G36*
X213487Y442787D02*
X205713D01*
Y435013D01*
X213487D01*
Y442787D01*
D02*
G37*
G36*
X239600Y442821D02*
X238585Y442687D01*
X237639Y442296D01*
X236827Y441673D01*
X236204Y440861D01*
X235813Y439915D01*
X235679Y438900D01*
X235813Y437885D01*
X236204Y436939D01*
X236827Y436128D01*
X237639Y435504D01*
X238585Y435113D01*
X239600Y434979D01*
X240615Y435113D01*
X241561Y435504D01*
X242372Y436128D01*
X242996Y436939D01*
X243387Y437885D01*
X243521Y438900D01*
X243387Y439915D01*
X242996Y440861D01*
X242372Y441673D01*
X241561Y442296D01*
X240615Y442687D01*
X239600Y442821D01*
D02*
G37*
G36*
X229600D02*
X228585Y442687D01*
X227640Y442296D01*
X226828Y441673D01*
X226204Y440861D01*
X225813Y439915D01*
X225679Y438900D01*
X225813Y437885D01*
X226204Y436939D01*
X226828Y436128D01*
X227640Y435504D01*
X228585Y435113D01*
X229600Y434979D01*
X230615Y435113D01*
X231560Y435504D01*
X232372Y436128D01*
X232996Y436939D01*
X233387Y437885D01*
X233521Y438900D01*
X233387Y439915D01*
X232996Y440861D01*
X232372Y441673D01*
X231560Y442296D01*
X230615Y442687D01*
X229600Y442821D01*
D02*
G37*
G36*
X223604Y437900D02*
X220600D01*
Y434896D01*
X220670Y434905D01*
X221668Y435319D01*
X222524Y435976D01*
X223181Y436832D01*
X223594Y437830D01*
X223604Y437900D01*
D02*
G37*
G36*
X218600D02*
X215596D01*
X215605Y437830D01*
X216019Y436832D01*
X216676Y435976D01*
X217532Y435319D01*
X218530Y434905D01*
X218600Y434896D01*
Y437900D01*
D02*
G37*
G36*
X276300Y433622D02*
X275603Y433484D01*
X275011Y433089D01*
X274616Y432497D01*
X274478Y431800D01*
X274616Y431103D01*
X275011Y430511D01*
X275603Y430116D01*
X276300Y429978D01*
X276997Y430116D01*
X277589Y430511D01*
X277984Y431103D01*
X278122Y431800D01*
X277984Y432497D01*
X277589Y433089D01*
X276997Y433484D01*
X276300Y433622D01*
D02*
G37*
G36*
X367400Y431922D02*
X366703Y431784D01*
X366111Y431389D01*
X365716Y430797D01*
X365578Y430100D01*
X365716Y429403D01*
X366111Y428811D01*
X366703Y428416D01*
X367400Y428278D01*
X368097Y428416D01*
X368689Y428811D01*
X369084Y429403D01*
X369222Y430100D01*
X369084Y430797D01*
X368689Y431389D01*
X368097Y431784D01*
X367400Y431922D01*
D02*
G37*
G36*
X329800Y431222D02*
X329103Y431084D01*
X328511Y430689D01*
X328116Y430097D01*
X327978Y429400D01*
X328116Y428703D01*
X328511Y428111D01*
X329103Y427716D01*
X329800Y427578D01*
X330497Y427716D01*
X331089Y428111D01*
X331484Y428703D01*
X331622Y429400D01*
X331484Y430097D01*
X331089Y430689D01*
X330497Y431084D01*
X329800Y431222D01*
D02*
G37*
G36*
X220800Y423754D02*
Y420700D01*
X223854D01*
X223843Y420783D01*
X223425Y421793D01*
X222760Y422659D01*
X221893Y423325D01*
X220883Y423743D01*
X220800Y423754D01*
D02*
G37*
G36*
X218800D02*
X218717Y423743D01*
X217707Y423325D01*
X216841Y422659D01*
X216175Y421793D01*
X215757Y420783D01*
X215746Y420700D01*
X218800D01*
Y423754D01*
D02*
G37*
G36*
X307500Y442837D02*
X305523Y442682D01*
X303595Y442219D01*
X301763Y441460D01*
X300072Y440424D01*
X298564Y439136D01*
X297276Y437628D01*
X296240Y435937D01*
X295481Y434105D01*
X295018Y432177D01*
X294863Y430200D01*
X295018Y428223D01*
X295481Y426295D01*
X296240Y424463D01*
X297276Y422772D01*
X298564Y421264D01*
X300072Y419976D01*
X301763Y418940D01*
X303595Y418181D01*
X305523Y417718D01*
X307500Y417563D01*
X309477Y417718D01*
X311405Y418181D01*
X313237Y418940D01*
X314928Y419976D01*
X316436Y421264D01*
X317724Y422772D01*
X318760Y424463D01*
X319519Y426295D01*
X319982Y428223D01*
X320137Y430200D01*
X319982Y432177D01*
X319519Y434105D01*
X318760Y435937D01*
X317724Y437628D01*
X316436Y439136D01*
X314928Y440424D01*
X313237Y441460D01*
X311405Y442219D01*
X309477Y442682D01*
X307500Y442837D01*
D02*
G37*
G36*
X391300Y419922D02*
X390603Y419784D01*
X390011Y419389D01*
X389616Y418797D01*
X389478Y418100D01*
X389616Y417403D01*
X390011Y416811D01*
X390603Y416416D01*
X391300Y416278D01*
X391997Y416416D01*
X392589Y416811D01*
X392984Y417403D01*
X393122Y418100D01*
X392984Y418797D01*
X392589Y419389D01*
X391997Y419784D01*
X391300Y419922D01*
D02*
G37*
G36*
X213737Y423637D02*
X205863D01*
Y415763D01*
X213737D01*
Y423637D01*
D02*
G37*
G36*
X239800Y423671D02*
X238772Y423536D01*
X237814Y423139D01*
X236992Y422508D01*
X236361Y421686D01*
X235964Y420728D01*
X235829Y419700D01*
X235964Y418672D01*
X236361Y417715D01*
X236992Y416892D01*
X237814Y416261D01*
X238772Y415864D01*
X239800Y415729D01*
X240828Y415864D01*
X241786Y416261D01*
X242608Y416892D01*
X243239Y417715D01*
X243636Y418672D01*
X243771Y419700D01*
X243636Y420728D01*
X243239Y421686D01*
X242608Y422508D01*
X241786Y423139D01*
X240828Y423536D01*
X239800Y423671D01*
D02*
G37*
G36*
X229800D02*
X228772Y423536D01*
X227815Y423139D01*
X226992Y422508D01*
X226361Y421686D01*
X225964Y420728D01*
X225829Y419700D01*
X225964Y418672D01*
X226361Y417715D01*
X226992Y416892D01*
X227815Y416261D01*
X228772Y415864D01*
X229800Y415729D01*
X230828Y415864D01*
X231785Y416261D01*
X232608Y416892D01*
X233239Y417715D01*
X233636Y418672D01*
X233771Y419700D01*
X233636Y420728D01*
X233239Y421686D01*
X232608Y422508D01*
X231785Y423139D01*
X230828Y423536D01*
X229800Y423671D01*
D02*
G37*
G36*
X223854Y418700D02*
X220800D01*
Y415646D01*
X220883Y415657D01*
X221893Y416075D01*
X222760Y416741D01*
X223425Y417607D01*
X223843Y418617D01*
X223854Y418700D01*
D02*
G37*
G36*
X218800D02*
X215746D01*
X215757Y418617D01*
X216175Y417607D01*
X216841Y416741D01*
X217707Y416075D01*
X218717Y415657D01*
X218800Y415646D01*
Y418700D01*
D02*
G37*
G36*
X308700Y414522D02*
X308003Y414384D01*
X307411Y413989D01*
X307016Y413397D01*
X306878Y412700D01*
X307016Y412003D01*
X307411Y411411D01*
X308003Y411016D01*
X308700Y410878D01*
X309397Y411016D01*
X309989Y411411D01*
X310384Y412003D01*
X310522Y412700D01*
X310384Y413397D01*
X309989Y413989D01*
X309397Y414384D01*
X308700Y414522D01*
D02*
G37*
G36*
X61900Y413322D02*
X61203Y413184D01*
X60611Y412789D01*
X60216Y412197D01*
X60078Y411500D01*
X60216Y410803D01*
X60611Y410211D01*
X61203Y409816D01*
X61900Y409678D01*
X62597Y409816D01*
X63189Y410211D01*
X63584Y410803D01*
X63722Y411500D01*
X63584Y412197D01*
X63189Y412789D01*
X62597Y413184D01*
X61900Y413322D01*
D02*
G37*
G36*
X203600Y409222D02*
X202903Y409084D01*
X202311Y408689D01*
X201916Y408097D01*
X201778Y407400D01*
X201916Y406703D01*
X202311Y406111D01*
X202903Y405716D01*
X203600Y405578D01*
X204297Y405716D01*
X204889Y406111D01*
X205284Y406703D01*
X205422Y407400D01*
X205284Y408097D01*
X204889Y408689D01*
X204297Y409084D01*
X203600Y409222D01*
D02*
G37*
G36*
X349209Y492823D02*
X136605D01*
X135356Y492658D01*
X134191Y492176D01*
X133191Y491408D01*
X123685Y481903D01*
X121300D01*
X121300Y481903D01*
X120993Y481842D01*
X120732Y481668D01*
X120732Y481668D01*
X115462Y476398D01*
X114894Y476537D01*
X114734Y477043D01*
X114184Y477907D01*
X113430Y478598D01*
X112522Y479071D01*
X111522Y479292D01*
X110500Y479248D01*
X109524Y478940D01*
X108660Y478390D01*
X107969Y477635D01*
X107496Y476727D01*
X107275Y475728D01*
X107319Y474706D01*
X107627Y473729D01*
X108177Y472866D01*
X108932Y472175D01*
X109840Y471702D01*
X110091Y471646D01*
X110231Y471166D01*
X101141Y462076D01*
X101093Y462004D01*
X101033Y461942D01*
X79324Y428033D01*
X79298Y427966D01*
X79258Y427907D01*
X79241Y427822D01*
X79210Y427741D01*
X79211Y427670D01*
X79197Y427600D01*
Y413202D01*
X79213Y413125D01*
Y413086D01*
X79203Y413084D01*
X78611Y412689D01*
X78216Y412097D01*
X78078Y411400D01*
X78216Y410703D01*
X78611Y410111D01*
X79203Y409716D01*
X79213Y409714D01*
Y409675D01*
X79197Y409597D01*
Y392103D01*
X79213Y392025D01*
Y391986D01*
X79203Y391984D01*
X78611Y391589D01*
X78216Y390997D01*
X78078Y390300D01*
X78216Y389603D01*
X78611Y389011D01*
X79203Y388616D01*
X79213Y388614D01*
Y388575D01*
X79197Y388497D01*
Y377287D01*
X79205Y377248D01*
X79201Y377208D01*
X79235Y377095D01*
X79258Y376979D01*
X79280Y376946D01*
X79292Y376908D01*
X79281Y376836D01*
X78911Y376589D01*
X78516Y375997D01*
X78378Y375300D01*
X78516Y374603D01*
X78911Y374011D01*
X79281Y373764D01*
X79292Y373692D01*
X79280Y373654D01*
X79258Y373621D01*
X79235Y373505D01*
X79201Y373392D01*
X79205Y373353D01*
X79197Y373313D01*
Y356187D01*
X79205Y356148D01*
X79201Y356108D01*
X79235Y355995D01*
X79258Y355879D01*
X79280Y355846D01*
X79292Y355808D01*
X79281Y355736D01*
X78911Y355489D01*
X78516Y354897D01*
X78378Y354200D01*
X78516Y353503D01*
X78911Y352911D01*
X79281Y352664D01*
X79292Y352592D01*
X79280Y352554D01*
X79258Y352521D01*
X79235Y352405D01*
X79201Y352292D01*
X79205Y352253D01*
X79197Y352213D01*
Y342500D01*
X79258Y342193D01*
X79432Y341932D01*
X79693Y341758D01*
X80000Y341697D01*
X109067D01*
X120171Y330594D01*
X120222Y330559D01*
X120264Y330514D01*
X120638Y330240D01*
X120725Y330199D01*
X120805Y330146D01*
X120866Y330134D01*
X120922Y330107D01*
X121018Y330103D01*
X121113Y330085D01*
Y323113D01*
X128085D01*
X128103Y323018D01*
X128107Y322922D01*
X128134Y322866D01*
X128146Y322805D01*
X128199Y322726D01*
X128240Y322639D01*
X128513Y322266D01*
X128558Y322223D01*
X128593Y322172D01*
X146797Y303967D01*
Y258758D01*
X146297Y258517D01*
X145897Y258784D01*
X145200Y258922D01*
X144503Y258784D01*
X143911Y258389D01*
X143516Y257797D01*
X143378Y257100D01*
X143516Y256403D01*
X143911Y255811D01*
X144503Y255416D01*
X145200Y255278D01*
X145897Y255416D01*
X146297Y255683D01*
X146797Y255442D01*
Y249569D01*
X146805Y249530D01*
X146801Y249490D01*
X146835Y249377D01*
X146858Y249261D01*
X146880Y249228D01*
X146892Y249190D01*
X146611Y248789D01*
X146216Y248197D01*
X146078Y247500D01*
X146216Y246803D01*
X146611Y246211D01*
X146892Y245810D01*
X146880Y245772D01*
X146858Y245739D01*
X146835Y245623D01*
X146801Y245510D01*
X146805Y245470D01*
X146797Y245431D01*
Y232159D01*
X146809Y232100D01*
X146806Y232041D01*
X146839Y231948D01*
X146858Y231852D01*
X146891Y231802D01*
X146912Y231746D01*
X146913Y231745D01*
X147032Y231567D01*
X147035Y231096D01*
X146797Y230739D01*
X146658Y230042D01*
X146797Y229344D01*
X147035Y228987D01*
X147032Y228517D01*
X146913Y228339D01*
X146912Y228338D01*
X146891Y228281D01*
X146858Y228232D01*
X146839Y228135D01*
X146806Y228043D01*
X146809Y227983D01*
X146797Y227925D01*
Y210422D01*
X146103Y210284D01*
X145511Y209889D01*
X145116Y209297D01*
X144978Y208600D01*
X145116Y207903D01*
X145511Y207311D01*
X146103Y206916D01*
X146797Y206778D01*
Y176300D01*
X146797Y176300D01*
X146858Y175993D01*
X147032Y175732D01*
X147032Y175732D01*
X156432Y166332D01*
X156693Y166158D01*
X157000Y166097D01*
X180000D01*
X180307Y166158D01*
X180568Y166332D01*
X180742Y166593D01*
X180803Y166900D01*
Y250595D01*
X180795Y250635D01*
X180799Y250674D01*
X180765Y250787D01*
X180742Y250903D01*
X180737Y250910D01*
X181189Y251211D01*
X181584Y251803D01*
X181722Y252500D01*
X181584Y253197D01*
X181189Y253789D01*
X180737Y254090D01*
X180742Y254097D01*
X180765Y254213D01*
X180799Y254326D01*
X180795Y254365D01*
X180803Y254404D01*
Y281122D01*
X181303Y281274D01*
X181411Y281111D01*
X182003Y280716D01*
X182700Y280578D01*
X183397Y280716D01*
X183989Y281111D01*
X184384Y281703D01*
X184522Y282400D01*
X184384Y283097D01*
X183989Y283689D01*
X183397Y284084D01*
X182700Y284222D01*
X182003Y284084D01*
X181411Y283689D01*
X181303Y283526D01*
X180803Y283678D01*
Y305027D01*
X181303Y305437D01*
X181600Y305378D01*
X182297Y305516D01*
X182889Y305911D01*
X183284Y306503D01*
X183422Y307200D01*
X183284Y307897D01*
X182889Y308489D01*
X182297Y308884D01*
X181600Y309022D01*
X181303Y308963D01*
X180803Y309373D01*
Y327700D01*
X180742Y328007D01*
X180568Y328268D01*
X180568Y328268D01*
X171613Y337223D01*
X171540Y337271D01*
X171477Y337332D01*
X171411Y337357D01*
X171352Y337397D01*
X171266Y337414D01*
X171185Y337445D01*
X171114Y337444D01*
X171045Y337458D01*
X170959Y337440D01*
X170872Y337439D01*
X170691Y337557D01*
X170584Y338097D01*
X170189Y338689D01*
X169597Y339084D01*
X169056Y339191D01*
X168939Y339372D01*
X168941Y339459D01*
X168958Y339545D01*
X168944Y339614D01*
X168945Y339685D01*
X168914Y339767D01*
X168896Y339852D01*
X168857Y339911D01*
X168832Y339977D01*
X168771Y340040D01*
X168722Y340113D01*
X137903Y370933D01*
Y417296D01*
X138270Y417636D01*
X139200Y417563D01*
X141177Y417718D01*
X143105Y418181D01*
X144937Y418940D01*
X146628Y419976D01*
X148136Y421264D01*
X149424Y422772D01*
X150460Y424463D01*
X151219Y426295D01*
X151682Y428223D01*
X151837Y430200D01*
X151682Y432177D01*
X151219Y434105D01*
X150460Y435937D01*
X149424Y437628D01*
X148136Y439136D01*
X146628Y440424D01*
X144937Y441460D01*
X143105Y442219D01*
X141177Y442682D01*
X139200Y442837D01*
X138270Y442764D01*
X137903Y443104D01*
Y481100D01*
X137842Y481407D01*
X137668Y481668D01*
X137693Y482252D01*
X138605Y483165D01*
X342836D01*
X343017Y482699D01*
X342938Y482627D01*
X342388Y481764D01*
X342080Y480788D01*
X342036Y479765D01*
X342257Y478766D01*
X342730Y477858D01*
X343422Y477103D01*
X344285Y476553D01*
X345261Y476245D01*
X346284Y476201D01*
X347283Y476422D01*
X348191Y476895D01*
X348945Y477586D01*
X349495Y478450D01*
X349803Y479426D01*
X349809Y479553D01*
X349866Y479614D01*
X350320Y479788D01*
X350510Y479619D01*
Y423300D01*
Y410700D01*
Y388800D01*
Y369700D01*
Y355939D01*
X347736Y353164D01*
X347736Y353164D01*
X324686Y330114D01*
X323918Y329114D01*
X323436Y327950D01*
X323271Y326700D01*
Y271791D01*
X322771Y271439D01*
X322646Y271484D01*
X322584Y271797D01*
X322189Y272389D01*
X321597Y272784D01*
X320900Y272922D01*
X320203Y272784D01*
X319611Y272389D01*
X319216Y271797D01*
X319078Y271100D01*
X319216Y270403D01*
X319611Y269811D01*
X320203Y269416D01*
X320784Y269301D01*
X320778Y269267D01*
X320916Y268569D01*
X321311Y267978D01*
X321903Y267583D01*
X322600Y267444D01*
X322885Y267501D01*
X323271Y267184D01*
Y258200D01*
X323436Y256950D01*
X323918Y255786D01*
X324213Y255402D01*
Y254313D01*
X325302D01*
X325686Y254018D01*
X326850Y253536D01*
X328100Y253371D01*
X329350Y253536D01*
X330514Y254018D01*
X330898Y254313D01*
X331987D01*
Y255402D01*
X332282Y255786D01*
X332764Y256950D01*
X332929Y258200D01*
Y301817D01*
X333315Y302134D01*
X333600Y302078D01*
X334297Y302216D01*
X334889Y302611D01*
X335284Y303203D01*
X335422Y303900D01*
X335284Y304597D01*
X334889Y305189D01*
X334297Y305584D01*
X333600Y305722D01*
X333315Y305666D01*
X332929Y305983D01*
Y308844D01*
X333429Y309171D01*
X333900Y309078D01*
X334597Y309216D01*
X335189Y309611D01*
X335584Y310203D01*
X335722Y310900D01*
X335584Y311597D01*
X335189Y312189D01*
X334597Y312584D01*
X333900Y312722D01*
X333429Y312629D01*
X332929Y312956D01*
Y324700D01*
X354117Y345888D01*
X390700D01*
X391428Y345984D01*
X392106Y346265D01*
X392688Y346712D01*
X393135Y347294D01*
X393416Y347972D01*
X393512Y348700D01*
X393416Y349428D01*
X393135Y350106D01*
X392688Y350688D01*
X392106Y351135D01*
X391428Y351416D01*
X390700Y351512D01*
X360056D01*
X359722Y352011D01*
X360003Y352689D01*
X360168Y353939D01*
Y368789D01*
X391200D01*
X391928Y368884D01*
X392606Y369165D01*
X393188Y369612D01*
X393635Y370194D01*
X393916Y370872D01*
X394011Y371600D01*
X393916Y372328D01*
X393635Y373006D01*
X393188Y373588D01*
X392606Y374035D01*
X391928Y374316D01*
X391200Y374412D01*
X360168D01*
Y386189D01*
X391100D01*
X391828Y386284D01*
X392506Y386565D01*
X393088Y387012D01*
X393535Y387594D01*
X393816Y388272D01*
X393912Y389000D01*
X393816Y389728D01*
X393535Y390406D01*
X393088Y390988D01*
X392506Y391435D01*
X391828Y391716D01*
X391100Y391811D01*
X369686D01*
X369450Y392252D01*
X369484Y392303D01*
X369622Y393000D01*
X369484Y393697D01*
X369089Y394289D01*
X368497Y394684D01*
X367800Y394822D01*
X367103Y394684D01*
X366511Y394289D01*
X366116Y393697D01*
X365978Y393000D01*
X366116Y392303D01*
X366150Y392252D01*
X365914Y391811D01*
X360168D01*
Y408489D01*
X365614D01*
X365850Y408048D01*
X365816Y407997D01*
X365678Y407300D01*
X365816Y406603D01*
X366211Y406011D01*
X366803Y405616D01*
X367500Y405478D01*
X368197Y405616D01*
X368789Y406011D01*
X369184Y406603D01*
X369322Y407300D01*
X369184Y407997D01*
X369150Y408048D01*
X369386Y408489D01*
X391200D01*
X391928Y408584D01*
X392606Y408865D01*
X393188Y409312D01*
X393635Y409894D01*
X393916Y410572D01*
X394011Y411300D01*
X393916Y412028D01*
X393635Y412706D01*
X393188Y413288D01*
X392606Y413735D01*
X391928Y414016D01*
X391200Y414111D01*
X360168D01*
Y420589D01*
X391300D01*
X392028Y420684D01*
X392706Y420965D01*
X393288Y421412D01*
X393735Y421994D01*
X394016Y422672D01*
X394111Y423400D01*
X394016Y424128D01*
X393735Y424806D01*
X393288Y425388D01*
X392706Y425835D01*
X392028Y426116D01*
X391300Y426211D01*
X360168D01*
Y481147D01*
X360321Y481203D01*
X360168Y481626D01*
Y483527D01*
X360003Y484777D01*
X359521Y485941D01*
X358753Y486941D01*
X358031Y487495D01*
X357662Y488509D01*
X356682Y488153D01*
X356589Y488191D01*
X355727Y488304D01*
X352623Y491408D01*
X351623Y492176D01*
X350459Y492658D01*
X350313Y492677D01*
X349209Y492823D01*
D02*
G37*
G36*
X157900Y409122D02*
X157203Y408984D01*
X156611Y408589D01*
X156216Y407997D01*
X156078Y407300D01*
X156216Y406603D01*
X156611Y406011D01*
X157203Y405616D01*
X157900Y405478D01*
X158597Y405616D01*
X159189Y406011D01*
X159584Y406603D01*
X159722Y407300D01*
X159584Y407997D01*
X159189Y408589D01*
X158597Y408984D01*
X157900Y409122D01*
D02*
G37*
G36*
X303500Y403922D02*
X302803Y403784D01*
X302211Y403389D01*
X301816Y402797D01*
X301678Y402100D01*
X301816Y401403D01*
X301945Y401209D01*
X301950Y401203D01*
X301589Y400889D01*
X301560Y400908D01*
X300997Y401284D01*
X300300Y401422D01*
X299603Y401284D01*
X299011Y400889D01*
X298616Y400297D01*
X298478Y399600D01*
X298616Y398903D01*
X299011Y398311D01*
X299603Y397916D01*
X300300Y397778D01*
X300997Y397916D01*
X301589Y398311D01*
X301984Y398903D01*
X302122Y399600D01*
X301984Y400297D01*
X301855Y400491D01*
X301850Y400497D01*
X302211Y400811D01*
X302240Y400793D01*
X302803Y400416D01*
X303500Y400278D01*
X304197Y400416D01*
X304789Y400811D01*
X305184Y401403D01*
X305322Y402100D01*
X305184Y402797D01*
X304789Y403389D01*
X304197Y403784D01*
X303500Y403922D01*
D02*
G37*
G36*
X391100Y402222D02*
X390403Y402084D01*
X389811Y401689D01*
X389416Y401097D01*
X389278Y400400D01*
X389416Y399703D01*
X389811Y399111D01*
X390403Y398716D01*
X391100Y398578D01*
X391797Y398716D01*
X392389Y399111D01*
X392784Y399703D01*
X392922Y400400D01*
X392784Y401097D01*
X392389Y401689D01*
X391797Y402084D01*
X391100Y402222D01*
D02*
G37*
G36*
X312700Y401822D02*
X312003Y401684D01*
X311411Y401289D01*
X311016Y400697D01*
X310878Y400000D01*
X311016Y399303D01*
X311411Y398711D01*
X312003Y398316D01*
X312700Y398178D01*
X313397Y398316D01*
X313989Y398711D01*
X314384Y399303D01*
X314522Y400000D01*
X314384Y400697D01*
X313989Y401289D01*
X313397Y401684D01*
X312700Y401822D01*
D02*
G37*
G36*
X264800D02*
X264103Y401684D01*
X263511Y401289D01*
X263116Y400697D01*
X262978Y400000D01*
X263116Y399303D01*
X263511Y398711D01*
X264103Y398316D01*
X264800Y398178D01*
X265497Y398316D01*
X266089Y398711D01*
X266484Y399303D01*
X266622Y400000D01*
X266484Y400697D01*
X266089Y401289D01*
X265497Y401684D01*
X264800Y401822D01*
D02*
G37*
G36*
X288700Y399622D02*
X288003Y399484D01*
X287411Y399089D01*
X287016Y398497D01*
X286878Y397800D01*
X287016Y397103D01*
X287411Y396511D01*
X288003Y396116D01*
X288700Y395978D01*
X289397Y396116D01*
X289989Y396511D01*
X290384Y397103D01*
X290522Y397800D01*
X290384Y398497D01*
X289989Y399089D01*
X289397Y399484D01*
X288700Y399622D01*
D02*
G37*
G36*
X275300Y398859D02*
X274603Y398721D01*
X274011Y398326D01*
X273616Y397734D01*
X273478Y397037D01*
X273616Y396340D01*
X274011Y395748D01*
X274603Y395353D01*
X275300Y395215D01*
X275997Y395353D01*
X276589Y395748D01*
X276984Y396340D01*
X277122Y397037D01*
X276984Y397734D01*
X276589Y398326D01*
X275997Y398721D01*
X275300Y398859D01*
D02*
G37*
G36*
X316100Y393022D02*
X315403Y392884D01*
X314811Y392489D01*
X314416Y391897D01*
X314278Y391200D01*
X314416Y390503D01*
X314811Y389911D01*
X315403Y389516D01*
X316100Y389378D01*
X316797Y389516D01*
X317389Y389911D01*
X317784Y390503D01*
X317922Y391200D01*
X317784Y391897D01*
X317389Y392489D01*
X316797Y392884D01*
X316100Y393022D01*
D02*
G37*
G36*
X286200Y392622D02*
X285503Y392484D01*
X284911Y392089D01*
X284516Y391497D01*
X284378Y390800D01*
X284516Y390103D01*
X284911Y389511D01*
X285503Y389116D01*
X286200Y388978D01*
X286897Y389116D01*
X287489Y389511D01*
X287884Y390103D01*
X288022Y390800D01*
X287884Y391497D01*
X287489Y392089D01*
X286897Y392484D01*
X286200Y392622D01*
D02*
G37*
G36*
X61900Y392222D02*
X61203Y392084D01*
X60611Y391689D01*
X60216Y391097D01*
X60078Y390400D01*
X60216Y389703D01*
X60611Y389111D01*
X61203Y388716D01*
X61900Y388578D01*
X62597Y388716D01*
X63189Y389111D01*
X63584Y389703D01*
X63722Y390400D01*
X63584Y391097D01*
X63189Y391689D01*
X62597Y392084D01*
X61900Y392222D01*
D02*
G37*
G36*
X286300Y387593D02*
X285603Y387454D01*
X285011Y387059D01*
X284616Y386468D01*
X284478Y385770D01*
X284616Y385073D01*
X285011Y384481D01*
X285603Y384086D01*
X286300Y383948D01*
X286997Y384086D01*
X287589Y384481D01*
X287984Y385073D01*
X288122Y385770D01*
X287984Y386468D01*
X287589Y387059D01*
X286997Y387454D01*
X286300Y387593D01*
D02*
G37*
G36*
X210400Y385122D02*
X209703Y384984D01*
X209111Y384589D01*
X208716Y383997D01*
X208578Y383300D01*
X208716Y382603D01*
X209111Y382011D01*
X209703Y381616D01*
X210400Y381478D01*
X211097Y381616D01*
X211689Y382011D01*
X212084Y382603D01*
X212222Y383300D01*
X212084Y383997D01*
X211689Y384589D01*
X211097Y384984D01*
X210400Y385122D01*
D02*
G37*
G36*
X165800Y382322D02*
X165103Y382184D01*
X164511Y381789D01*
X164116Y381197D01*
X163978Y380500D01*
X164116Y379803D01*
X164511Y379211D01*
X165103Y378816D01*
X165800Y378678D01*
X166497Y378816D01*
X167089Y379211D01*
X167484Y379803D01*
X167622Y380500D01*
X167484Y381197D01*
X167089Y381789D01*
X166497Y382184D01*
X165800Y382322D01*
D02*
G37*
G36*
X157100D02*
X156403Y382184D01*
X155811Y381789D01*
X155416Y381197D01*
X155278Y380500D01*
X155416Y379803D01*
X155811Y379211D01*
X156403Y378816D01*
X157100Y378678D01*
X157797Y378816D01*
X158389Y379211D01*
X158784Y379803D01*
X158922Y380500D01*
X158784Y381197D01*
X158389Y381789D01*
X157797Y382184D01*
X157100Y382322D01*
D02*
G37*
G36*
X390900Y382222D02*
X390203Y382084D01*
X389611Y381689D01*
X389216Y381097D01*
X389078Y380400D01*
X389216Y379703D01*
X389611Y379111D01*
X390203Y378716D01*
X390900Y378578D01*
X391597Y378716D01*
X392189Y379111D01*
X392584Y379703D01*
X392722Y380400D01*
X392584Y381097D01*
X392189Y381689D01*
X391597Y382084D01*
X390900Y382222D01*
D02*
G37*
G36*
X148700Y382122D02*
X148003Y381984D01*
X147411Y381589D01*
X147016Y380997D01*
X146878Y380300D01*
X147016Y379603D01*
X147411Y379011D01*
X148003Y378616D01*
X148700Y378478D01*
X149397Y378616D01*
X149989Y379011D01*
X150384Y379603D01*
X150522Y380300D01*
X150384Y380997D01*
X149989Y381589D01*
X149397Y381984D01*
X148700Y382122D01*
D02*
G37*
G36*
X317300Y381922D02*
X316603Y381784D01*
X316011Y381389D01*
X315616Y380797D01*
X315478Y380100D01*
X315616Y379403D01*
X316011Y378811D01*
X316603Y378416D01*
X317300Y378278D01*
X317997Y378416D01*
X318589Y378811D01*
X318984Y379403D01*
X319122Y380100D01*
X318984Y380797D01*
X318589Y381389D01*
X317997Y381784D01*
X317300Y381922D01*
D02*
G37*
G36*
X299600Y377322D02*
X298903Y377184D01*
X298311Y376789D01*
X297916Y376197D01*
X297778Y375500D01*
X297916Y374803D01*
X298311Y374211D01*
X298903Y373816D01*
X299600Y373678D01*
X300297Y373816D01*
X300889Y374211D01*
X301284Y374803D01*
X301422Y375500D01*
X301284Y376197D01*
X300889Y376789D01*
X300297Y377184D01*
X299600Y377322D01*
D02*
G37*
G36*
X63200Y371822D02*
X62503Y371684D01*
X61911Y371289D01*
X61516Y370697D01*
X61378Y370000D01*
X61516Y369303D01*
X61911Y368711D01*
X62503Y368316D01*
X63200Y368178D01*
X63897Y368316D01*
X64489Y368711D01*
X64884Y369303D01*
X65022Y370000D01*
X64884Y370697D01*
X64489Y371289D01*
X63897Y371684D01*
X63200Y371822D01*
D02*
G37*
G36*
X334300Y367622D02*
X333603Y367484D01*
X333011Y367089D01*
X332616Y366497D01*
X332478Y365800D01*
X332616Y365103D01*
X333011Y364511D01*
X333603Y364116D01*
X334300Y363978D01*
X334997Y364116D01*
X335589Y364511D01*
X335984Y365103D01*
X336122Y365800D01*
X335984Y366497D01*
X335589Y367089D01*
X334997Y367484D01*
X334300Y367622D01*
D02*
G37*
G36*
X328000Y367222D02*
X327303Y367084D01*
X326711Y366689D01*
X326316Y366097D01*
X326178Y365400D01*
X326316Y364703D01*
X326711Y364111D01*
X327303Y363716D01*
X328000Y363578D01*
X328697Y363716D01*
X329289Y364111D01*
X329684Y364703D01*
X329822Y365400D01*
X329684Y366097D01*
X329289Y366689D01*
X328697Y367084D01*
X328000Y367222D01*
D02*
G37*
G36*
X321100Y365722D02*
X320403Y365584D01*
X319811Y365189D01*
X319416Y364597D01*
X319278Y363900D01*
X319416Y363203D01*
X319811Y362611D01*
X320403Y362216D01*
X321100Y362078D01*
X321797Y362216D01*
X322389Y362611D01*
X322784Y363203D01*
X322922Y363900D01*
X322784Y364597D01*
X322389Y365189D01*
X321797Y365584D01*
X321100Y365722D01*
D02*
G37*
G36*
X152100Y363222D02*
X151403Y363084D01*
X150811Y362689D01*
X150416Y362097D01*
X150278Y361400D01*
X150416Y360703D01*
X150811Y360111D01*
X151403Y359716D01*
X152100Y359578D01*
X152797Y359716D01*
X153389Y360111D01*
X153784Y360703D01*
X153922Y361400D01*
X153784Y362097D01*
X153389Y362689D01*
X152797Y363084D01*
X152100Y363222D01*
D02*
G37*
G36*
X279064Y361258D02*
X278367Y361120D01*
X277776Y360724D01*
X277380Y360133D01*
X277242Y359436D01*
X277380Y358738D01*
X277776Y358147D01*
X278367Y357752D01*
X279064Y357613D01*
X279762Y357752D01*
X280353Y358147D01*
X280748Y358738D01*
X280887Y359436D01*
X280748Y360133D01*
X280353Y360724D01*
X279762Y361120D01*
X279064Y361258D01*
D02*
G37*
G36*
X211000Y359322D02*
X210303Y359184D01*
X209711Y358789D01*
X209316Y358197D01*
X209178Y357500D01*
X209316Y356803D01*
X209711Y356211D01*
X210303Y355816D01*
X211000Y355678D01*
X211697Y355816D01*
X212289Y356211D01*
X212684Y356803D01*
X212822Y357500D01*
X212684Y358197D01*
X212289Y358789D01*
X211697Y359184D01*
X211000Y359322D01*
D02*
G37*
G36*
X387300Y356322D02*
X386603Y356184D01*
X386011Y355789D01*
X385616Y355197D01*
X385478Y354500D01*
X385616Y353803D01*
X386011Y353211D01*
X386603Y352816D01*
X387300Y352678D01*
X387997Y352816D01*
X388589Y353211D01*
X388984Y353803D01*
X389122Y354500D01*
X388984Y355197D01*
X388589Y355789D01*
X387997Y356184D01*
X387300Y356322D01*
D02*
G37*
G36*
X64900Y354122D02*
X64203Y353984D01*
X63611Y353589D01*
X63216Y352997D01*
X63078Y352300D01*
X63216Y351603D01*
X63611Y351011D01*
X64203Y350616D01*
X64900Y350478D01*
X65597Y350616D01*
X66189Y351011D01*
X66584Y351603D01*
X66722Y352300D01*
X66584Y352997D01*
X66189Y353589D01*
X65597Y353984D01*
X64900Y354122D01*
D02*
G37*
G36*
X322500Y345422D02*
X321803Y345284D01*
X321211Y344889D01*
X320816Y344297D01*
X320678Y343600D01*
X320816Y342903D01*
X321211Y342311D01*
X321803Y341916D01*
X322500Y341778D01*
X323197Y341916D01*
X323789Y342311D01*
X324184Y342903D01*
X324322Y343600D01*
X324184Y344297D01*
X323789Y344889D01*
X323197Y345284D01*
X322500Y345422D01*
D02*
G37*
G36*
X281700Y344022D02*
X281003Y343884D01*
X280411Y343489D01*
X280016Y342897D01*
X279878Y342200D01*
X280016Y341503D01*
X280411Y340911D01*
X281003Y340516D01*
X281700Y340378D01*
X282397Y340516D01*
X282989Y340911D01*
X283384Y341503D01*
X283522Y342200D01*
X283384Y342897D01*
X282989Y343489D01*
X282397Y343884D01*
X281700Y344022D01*
D02*
G37*
G36*
X241600Y334122D02*
X240903Y333984D01*
X240311Y333589D01*
X239916Y332997D01*
X239778Y332300D01*
X239916Y331603D01*
X240311Y331011D01*
X240903Y330616D01*
X241600Y330478D01*
X242297Y330616D01*
X242889Y331011D01*
X243284Y331603D01*
X243422Y332300D01*
X243284Y332997D01*
X242889Y333589D01*
X242297Y333984D01*
X241600Y334122D01*
D02*
G37*
G36*
X304800Y331722D02*
X304103Y331584D01*
X303511Y331189D01*
X303116Y330597D01*
X302978Y329900D01*
X303116Y329203D01*
X303511Y328611D01*
X304103Y328216D01*
X304800Y328078D01*
X305497Y328216D01*
X306089Y328611D01*
X306484Y329203D01*
X306622Y329900D01*
X306484Y330597D01*
X306089Y331189D01*
X305497Y331584D01*
X304800Y331722D01*
D02*
G37*
G36*
X212500Y330122D02*
X211803Y329984D01*
X211211Y329589D01*
X210816Y328997D01*
X210678Y328300D01*
X210816Y327603D01*
X211211Y327011D01*
X211803Y326616D01*
X212500Y326478D01*
X213197Y326616D01*
X213789Y327011D01*
X214184Y327603D01*
X214322Y328300D01*
X214184Y328997D01*
X213789Y329589D01*
X213197Y329984D01*
X212500Y330122D01*
D02*
G37*
G36*
X250000Y329122D02*
X249303Y328984D01*
X248711Y328589D01*
X248316Y327997D01*
X248178Y327300D01*
X248316Y326603D01*
X248711Y326011D01*
X249303Y325616D01*
X250000Y325478D01*
X250697Y325616D01*
X251289Y326011D01*
X251684Y326603D01*
X251822Y327300D01*
X251684Y327997D01*
X251289Y328589D01*
X250697Y328984D01*
X250000Y329122D01*
D02*
G37*
G36*
X210708Y326114D02*
X210011Y325976D01*
X209419Y325581D01*
X209024Y324989D01*
X208886Y324292D01*
X209024Y323594D01*
X209419Y323003D01*
X210011Y322608D01*
X210708Y322469D01*
X211405Y322608D01*
X211997Y323003D01*
X212392Y323594D01*
X212531Y324292D01*
X212392Y324989D01*
X211997Y325581D01*
X211405Y325976D01*
X210708Y326114D01*
D02*
G37*
G36*
X358200Y325222D02*
X357503Y325084D01*
X356911Y324689D01*
X356516Y324097D01*
X356378Y323400D01*
X356516Y322703D01*
X356911Y322111D01*
X357503Y321716D01*
X358200Y321578D01*
X358897Y321716D01*
X359489Y322111D01*
X359884Y322703D01*
X360022Y323400D01*
X359884Y324097D01*
X359489Y324689D01*
X358897Y325084D01*
X358200Y325222D01*
D02*
G37*
G36*
X393100Y319622D02*
X392403Y319484D01*
X391811Y319089D01*
X391416Y318497D01*
X391278Y317800D01*
X391416Y317103D01*
X391811Y316511D01*
X392403Y316116D01*
X393100Y315978D01*
X393797Y316116D01*
X394389Y316511D01*
X394784Y317103D01*
X394922Y317800D01*
X394784Y318497D01*
X394389Y319089D01*
X393797Y319484D01*
X393100Y319622D01*
D02*
G37*
G36*
X379000Y317822D02*
X378303Y317684D01*
X377711Y317289D01*
X377316Y316697D01*
X377178Y316000D01*
X377316Y315303D01*
X377711Y314711D01*
X378303Y314316D01*
X379000Y314178D01*
X379697Y314316D01*
X380289Y314711D01*
X380684Y315303D01*
X380822Y316000D01*
X380684Y316697D01*
X380289Y317289D01*
X379697Y317684D01*
X379000Y317822D01*
D02*
G37*
G36*
X78000Y316822D02*
X77303Y316684D01*
X76711Y316289D01*
X76316Y315697D01*
X76178Y315000D01*
X76316Y314303D01*
X76711Y313711D01*
X77303Y313316D01*
X78000Y313178D01*
X78697Y313316D01*
X79289Y313711D01*
X79684Y314303D01*
X79822Y315000D01*
X79684Y315697D01*
X79289Y316289D01*
X78697Y316684D01*
X78000Y316822D01*
D02*
G37*
G36*
X212500Y315622D02*
X211803Y315484D01*
X211211Y315089D01*
X210816Y314497D01*
X210678Y313800D01*
X210816Y313103D01*
X211211Y312511D01*
X211803Y312116D01*
X212500Y311978D01*
X213197Y312116D01*
X213789Y312511D01*
X214184Y313103D01*
X214322Y313800D01*
X214184Y314497D01*
X213789Y315089D01*
X213197Y315484D01*
X212500Y315622D01*
D02*
G37*
G36*
X231900Y313022D02*
X231203Y312884D01*
X230611Y312489D01*
X230216Y311897D01*
X230078Y311200D01*
X230216Y310503D01*
X230611Y309911D01*
X231203Y309516D01*
X231900Y309378D01*
X232597Y309516D01*
X233189Y309911D01*
X233584Y310503D01*
X233722Y311200D01*
X233584Y311897D01*
X233189Y312489D01*
X232597Y312884D01*
X231900Y313022D01*
D02*
G37*
G36*
X237000Y310022D02*
X236303Y309884D01*
X235711Y309489D01*
X235316Y308897D01*
X235178Y308200D01*
X235316Y307503D01*
X235711Y306911D01*
X236303Y306516D01*
X237000Y306378D01*
X237697Y306516D01*
X238289Y306911D01*
X238684Y307503D01*
X238822Y308200D01*
X238684Y308897D01*
X238289Y309489D01*
X237697Y309884D01*
X237000Y310022D01*
D02*
G37*
G36*
X169900Y404660D02*
X154900D01*
X154456Y404571D01*
X154080Y404320D01*
X149730Y399970D01*
X149479Y399594D01*
X149390Y399150D01*
Y398614D01*
X147780Y397004D01*
X147529Y396627D01*
X147440Y396184D01*
Y390175D01*
X147311Y390089D01*
X146916Y389497D01*
X146778Y388800D01*
X146916Y388103D01*
X147311Y387511D01*
X147903Y387116D01*
X148600Y386978D01*
X149297Y387116D01*
X149889Y387511D01*
X150284Y388103D01*
X150422Y388800D01*
X150284Y389497D01*
X149889Y390089D01*
X149760Y390175D01*
Y395703D01*
X151370Y397314D01*
X151621Y397690D01*
X151710Y398134D01*
X151710Y398134D01*
Y398670D01*
X155380Y402340D01*
X161593D01*
X161800Y401840D01*
X156280Y396320D01*
X156029Y395944D01*
X155940Y395500D01*
Y390075D01*
X155811Y389989D01*
X155416Y389397D01*
X155278Y388700D01*
X155416Y388003D01*
X155811Y387411D01*
X156403Y387016D01*
X157100Y386878D01*
X157797Y387016D01*
X158389Y387411D01*
X158784Y388003D01*
X158922Y388700D01*
X158784Y389397D01*
X158389Y389989D01*
X158260Y390075D01*
Y395020D01*
X163480Y400240D01*
X170035D01*
X200648Y369627D01*
Y267745D01*
X200186Y267554D01*
X196460Y271280D01*
Y306278D01*
X196960Y306545D01*
X197303Y306316D01*
X198000Y306178D01*
X198697Y306316D01*
X199289Y306711D01*
X199684Y307303D01*
X199822Y308000D01*
X199684Y308697D01*
X199289Y309289D01*
X198697Y309684D01*
X198000Y309822D01*
X197303Y309684D01*
X196960Y309455D01*
X196460Y309722D01*
Y359200D01*
X196460Y359200D01*
X196371Y359644D01*
X196120Y360020D01*
X196120Y360020D01*
X186803Y369337D01*
X186427Y369588D01*
X185983Y369676D01*
X184147D01*
X177182Y376642D01*
X177231Y377139D01*
X177489Y377311D01*
X177884Y377903D01*
X178022Y378600D01*
X177884Y379297D01*
X177489Y379889D01*
X176897Y380284D01*
X176200Y380422D01*
X175503Y380284D01*
X175503Y380284D01*
X175462Y380391D01*
X175421Y380594D01*
X175336Y380722D01*
X175170Y380970D01*
X167592Y388548D01*
X167622Y388700D01*
X167484Y389397D01*
X167089Y389989D01*
X166497Y390384D01*
X165800Y390522D01*
X165103Y390384D01*
X164511Y389989D01*
X164116Y389397D01*
X163978Y388700D01*
X164116Y388003D01*
X164511Y387411D01*
X165103Y387016D01*
X165800Y386878D01*
X165952Y386908D01*
X173190Y379670D01*
Y377834D01*
X173279Y377390D01*
X173530Y377014D01*
X182847Y367697D01*
X183223Y367445D01*
X183667Y367357D01*
X185503D01*
X194140Y358720D01*
Y354994D01*
X193640Y354788D01*
X193197Y355084D01*
X192500Y355222D01*
X191803Y355084D01*
X191211Y354689D01*
X190816Y354097D01*
X190678Y353400D01*
X190816Y352703D01*
X191211Y352111D01*
X191803Y351716D01*
X192500Y351578D01*
X193197Y351716D01*
X193640Y352012D01*
X194140Y351806D01*
Y270800D01*
X194229Y270356D01*
X194480Y269980D01*
X208808Y255652D01*
X208778Y255500D01*
X208916Y254803D01*
X209311Y254211D01*
X209903Y253816D01*
X210600Y253678D01*
X211297Y253816D01*
X211889Y254211D01*
X212284Y254803D01*
X212422Y255500D01*
X212389Y255669D01*
X212814Y256095D01*
X212900Y256078D01*
X213597Y256216D01*
X214189Y256611D01*
X214584Y257203D01*
X214722Y257900D01*
X214584Y258597D01*
X214189Y259189D01*
X213597Y259584D01*
X213251Y259653D01*
X213021Y260208D01*
X213084Y260303D01*
X213222Y261000D01*
X213084Y261697D01*
X212689Y262289D01*
X212097Y262684D01*
X211400Y262822D01*
X211248Y262792D01*
X205060Y268980D01*
Y307923D01*
X205560Y308265D01*
X206000Y308178D01*
X206697Y308316D01*
X207289Y308711D01*
X207684Y309303D01*
X207822Y310000D01*
X207684Y310697D01*
X207289Y311289D01*
X206697Y311684D01*
X206000Y311822D01*
X205560Y311735D01*
X205060Y312077D01*
Y369500D01*
X204971Y369944D01*
X204720Y370320D01*
X170720Y404320D01*
X170344Y404571D01*
X169900Y404660D01*
D02*
G37*
G36*
X218000Y308822D02*
X217303Y308684D01*
X216711Y308289D01*
X216316Y307697D01*
X216178Y307000D01*
X216316Y306303D01*
X216711Y305711D01*
X217303Y305316D01*
X218000Y305178D01*
X218697Y305316D01*
X219289Y305711D01*
X219684Y306303D01*
X219822Y307000D01*
X219684Y307697D01*
X219289Y308289D01*
X218697Y308684D01*
X218000Y308822D01*
D02*
G37*
G36*
X379191Y306756D02*
X378500Y306618D01*
X377914Y306227D01*
X377522Y305641D01*
X377385Y304950D01*
X377522Y304258D01*
X377914Y303672D01*
X378500Y303281D01*
X379191Y303143D01*
X379883Y303281D01*
X380469Y303672D01*
X380860Y304258D01*
X380998Y304950D01*
X380860Y305641D01*
X380469Y306227D01*
X379883Y306618D01*
X379191Y306756D01*
D02*
G37*
G36*
X374861D02*
X374169Y306618D01*
X373583Y306227D01*
X373192Y305641D01*
X373054Y304950D01*
X373192Y304258D01*
X373583Y303672D01*
X374169Y303281D01*
X374861Y303143D01*
X375552Y303281D01*
X376138Y303672D01*
X376530Y304258D01*
X376667Y304950D01*
X376530Y305641D01*
X376138Y306227D01*
X375552Y306618D01*
X374861Y306756D01*
D02*
G37*
G36*
X78331D02*
X77639Y306618D01*
X77053Y306227D01*
X76662Y305641D01*
X76524Y304950D01*
X76662Y304258D01*
X77053Y303672D01*
X77639Y303281D01*
X78331Y303143D01*
X79022Y303281D01*
X79608Y303672D01*
X80000Y304258D01*
X80137Y304950D01*
X80000Y305641D01*
X79608Y306227D01*
X79022Y306618D01*
X78331Y306756D01*
D02*
G37*
G36*
X74000D02*
X73309Y306618D01*
X72723Y306227D01*
X72331Y305641D01*
X72194Y304950D01*
X72331Y304258D01*
X72723Y303672D01*
X73309Y303281D01*
X74000Y303143D01*
X74691Y303281D01*
X75277Y303672D01*
X75669Y304258D01*
X75806Y304950D01*
X75669Y305641D01*
X75277Y306227D01*
X74691Y306618D01*
X74000Y306756D01*
D02*
G37*
G36*
X301200Y306122D02*
X300503Y305984D01*
X299911Y305589D01*
X299516Y304997D01*
X299378Y304300D01*
X299516Y303603D01*
X299911Y303011D01*
X300503Y302616D01*
X301200Y302478D01*
X301897Y302616D01*
X302489Y303011D01*
X302884Y303603D01*
X303022Y304300D01*
X302884Y304997D01*
X302489Y305589D01*
X301897Y305984D01*
X301200Y306122D01*
D02*
G37*
G36*
X227600Y305622D02*
X226903Y305484D01*
X226311Y305089D01*
X225916Y304497D01*
X225778Y303800D01*
X225916Y303103D01*
X226311Y302511D01*
X226903Y302116D01*
X227600Y301978D01*
X228297Y302116D01*
X228889Y302511D01*
X229284Y303103D01*
X229422Y303800D01*
X229284Y304497D01*
X228889Y305089D01*
X228297Y305484D01*
X227600Y305622D01*
D02*
G37*
G36*
X252385Y305322D02*
X251688Y305184D01*
X251096Y304789D01*
X250701Y304197D01*
X250563Y303500D01*
X250701Y302803D01*
X251096Y302211D01*
X251688Y301816D01*
X252385Y301678D01*
X253082Y301816D01*
X253674Y302211D01*
X254069Y302803D01*
X254207Y303500D01*
X254069Y304197D01*
X253674Y304789D01*
X253082Y305184D01*
X252385Y305322D01*
D02*
G37*
G36*
X293700Y304912D02*
X293003Y304774D01*
X292411Y304379D01*
X292016Y303787D01*
X291878Y303090D01*
X292016Y302393D01*
X292411Y301801D01*
X293003Y301406D01*
X293700Y301268D01*
X294397Y301406D01*
X294989Y301801D01*
X295384Y302393D01*
X295522Y303090D01*
X295384Y303787D01*
X294989Y304379D01*
X294397Y304774D01*
X293700Y304912D01*
D02*
G37*
G36*
X134100Y303522D02*
X133403Y303384D01*
X132811Y302989D01*
X132416Y302397D01*
X132278Y301700D01*
X132416Y301003D01*
X132811Y300411D01*
X133403Y300016D01*
X134100Y299878D01*
X134797Y300016D01*
X135389Y300411D01*
X135784Y301003D01*
X135922Y301700D01*
X135784Y302397D01*
X135389Y302989D01*
X134797Y303384D01*
X134100Y303522D01*
D02*
G37*
G36*
X379191Y302425D02*
X378500Y302288D01*
X377914Y301896D01*
X377522Y301310D01*
X377385Y300619D01*
X377522Y299928D01*
X377914Y299342D01*
X378500Y298950D01*
X379191Y298813D01*
X379883Y298950D01*
X380469Y299342D01*
X380860Y299928D01*
X380998Y300619D01*
X380860Y301310D01*
X380469Y301896D01*
X379883Y302288D01*
X379191Y302425D01*
D02*
G37*
G36*
X374861D02*
X374169Y302288D01*
X373583Y301896D01*
X373192Y301310D01*
X373054Y300619D01*
X373192Y299928D01*
X373583Y299342D01*
X374169Y298950D01*
X374861Y298813D01*
X375552Y298950D01*
X376138Y299342D01*
X376530Y299928D01*
X376667Y300619D01*
X376530Y301310D01*
X376138Y301896D01*
X375552Y302288D01*
X374861Y302425D01*
D02*
G37*
G36*
X78331D02*
X77639Y302288D01*
X77053Y301896D01*
X76662Y301310D01*
X76524Y300619D01*
X76662Y299928D01*
X77053Y299342D01*
X77639Y298950D01*
X78331Y298813D01*
X79022Y298950D01*
X79608Y299342D01*
X80000Y299928D01*
X80137Y300619D01*
X80000Y301310D01*
X79608Y301896D01*
X79022Y302288D01*
X78331Y302425D01*
D02*
G37*
G36*
X74000D02*
X73309Y302288D01*
X72723Y301896D01*
X72331Y301310D01*
X72194Y300619D01*
X72331Y299928D01*
X72723Y299342D01*
X73309Y298950D01*
X74000Y298813D01*
X74691Y298950D01*
X75277Y299342D01*
X75669Y299928D01*
X75806Y300619D01*
X75669Y301310D01*
X75277Y301896D01*
X74691Y302288D01*
X74000Y302425D01*
D02*
G37*
G36*
X224800Y302322D02*
X224103Y302184D01*
X223511Y301789D01*
X223116Y301197D01*
X222978Y300500D01*
X223116Y299803D01*
X223511Y299211D01*
X224103Y298816D01*
X224800Y298678D01*
X225497Y298816D01*
X226089Y299211D01*
X226484Y299803D01*
X226622Y300500D01*
X226484Y301197D01*
X226089Y301789D01*
X225497Y302184D01*
X224800Y302322D01*
D02*
G37*
G36*
X366000Y297822D02*
X365303Y297684D01*
X364711Y297289D01*
X364316Y296697D01*
X364178Y296000D01*
X364316Y295303D01*
X364711Y294711D01*
X365303Y294316D01*
X366000Y294178D01*
X366697Y294316D01*
X367289Y294711D01*
X367684Y295303D01*
X367822Y296000D01*
X367684Y296697D01*
X367289Y297289D01*
X366697Y297684D01*
X366000Y297822D01*
D02*
G37*
G36*
X358000D02*
X357303Y297684D01*
X356711Y297289D01*
X356316Y296697D01*
X356178Y296000D01*
X356316Y295303D01*
X356711Y294711D01*
X357303Y294316D01*
X358000Y294178D01*
X358697Y294316D01*
X359289Y294711D01*
X359684Y295303D01*
X359822Y296000D01*
X359684Y296697D01*
X359289Y297289D01*
X358697Y297684D01*
X358000Y297822D01*
D02*
G37*
G36*
X221000D02*
X220303Y297684D01*
X219711Y297289D01*
X219316Y296697D01*
X219178Y296000D01*
X219316Y295303D01*
X219711Y294711D01*
X220303Y294316D01*
X221000Y294178D01*
X221697Y294316D01*
X222289Y294711D01*
X222684Y295303D01*
X222822Y296000D01*
X222684Y296697D01*
X222289Y297289D01*
X221697Y297684D01*
X221000Y297822D01*
D02*
G37*
G36*
X67000Y294822D02*
X66303Y294684D01*
X65711Y294289D01*
X65316Y293697D01*
X65206Y293145D01*
X64735Y292859D01*
X64697Y292884D01*
X64000Y293022D01*
X63303Y292884D01*
X62711Y292489D01*
X62316Y291897D01*
X62178Y291200D01*
X62316Y290503D01*
X62711Y289911D01*
X63303Y289516D01*
X64000Y289378D01*
X64697Y289516D01*
X65289Y289911D01*
X65684Y290503D01*
X65794Y291055D01*
X66265Y291341D01*
X66303Y291316D01*
X67000Y291178D01*
X67697Y291316D01*
X68289Y291711D01*
X68684Y292303D01*
X68822Y293000D01*
X68684Y293697D01*
X68289Y294289D01*
X67697Y294684D01*
X67000Y294822D01*
D02*
G37*
G36*
X216000Y295822D02*
X215303Y295684D01*
X214711Y295289D01*
X214316Y294697D01*
X214178Y294000D01*
X214316Y293303D01*
X214711Y292711D01*
X215303Y292316D01*
X216000Y292178D01*
X216697Y292316D01*
X217289Y292711D01*
X217684Y293303D01*
X217822Y294000D01*
X217684Y294697D01*
X217289Y295289D01*
X216697Y295684D01*
X216000Y295822D01*
D02*
G37*
G36*
X185000D02*
X184303Y295684D01*
X183711Y295289D01*
X183316Y294697D01*
X183178Y294000D01*
X183316Y293303D01*
X183711Y292711D01*
X184303Y292316D01*
X185000Y292178D01*
X185697Y292316D01*
X186289Y292711D01*
X186684Y293303D01*
X186822Y294000D01*
X186684Y294697D01*
X186289Y295289D01*
X185697Y295684D01*
X185000Y295822D01*
D02*
G37*
G36*
X367300Y293822D02*
X366603Y293684D01*
X366011Y293289D01*
X365616Y292697D01*
X365478Y292000D01*
X365616Y291303D01*
X366011Y290711D01*
X366603Y290316D01*
X367300Y290178D01*
X367997Y290316D01*
X368589Y290711D01*
X368984Y291303D01*
X369122Y292000D01*
X368984Y292697D01*
X368589Y293289D01*
X367997Y293684D01*
X367300Y293822D01*
D02*
G37*
G36*
X238700Y293122D02*
X238003Y292984D01*
X237411Y292589D01*
X237016Y291997D01*
X236878Y291300D01*
X237016Y290603D01*
X237411Y290011D01*
X238003Y289616D01*
X238700Y289478D01*
X239397Y289616D01*
X239989Y290011D01*
X240384Y290603D01*
X240522Y291300D01*
X240384Y291997D01*
X239989Y292589D01*
X239397Y292984D01*
X238700Y293122D01*
D02*
G37*
G36*
X243350Y292522D02*
X242653Y292384D01*
X242061Y291989D01*
X241666Y291397D01*
X241528Y290700D01*
X241666Y290003D01*
X242061Y289411D01*
X242653Y289016D01*
X243350Y288878D01*
X244047Y289016D01*
X244639Y289411D01*
X245034Y290003D01*
X245172Y290700D01*
X245034Y291397D01*
X244639Y291989D01*
X244047Y292384D01*
X243350Y292522D01*
D02*
G37*
G36*
X385000Y292122D02*
X384303Y291984D01*
X383711Y291589D01*
X383316Y290997D01*
X383178Y290300D01*
X383316Y289603D01*
X383711Y289011D01*
X384303Y288616D01*
X385000Y288478D01*
X385697Y288616D01*
X386289Y289011D01*
X386684Y289603D01*
X386822Y290300D01*
X386684Y290997D01*
X386289Y291589D01*
X385697Y291984D01*
X385000Y292122D01*
D02*
G37*
G36*
X120700Y291322D02*
X120003Y291184D01*
X119411Y290789D01*
X119016Y290197D01*
X118878Y289500D01*
X119016Y288803D01*
X119411Y288211D01*
X120003Y287816D01*
X120700Y287678D01*
X121397Y287816D01*
X121989Y288211D01*
X122384Y288803D01*
X122522Y289500D01*
X122384Y290197D01*
X121989Y290789D01*
X121397Y291184D01*
X120700Y291322D01*
D02*
G37*
G36*
X311000Y290522D02*
X310303Y290384D01*
X309711Y289989D01*
X309316Y289397D01*
X309178Y288700D01*
X309316Y288003D01*
X309711Y287411D01*
X310303Y287016D01*
X311000Y286878D01*
X311697Y287016D01*
X312289Y287411D01*
X312684Y288003D01*
X312822Y288700D01*
X312684Y289397D01*
X312289Y289989D01*
X311697Y290384D01*
X311000Y290522D01*
D02*
G37*
G36*
X116000Y290322D02*
X115303Y290184D01*
X114711Y289789D01*
X114316Y289197D01*
X114178Y288500D01*
X114316Y287803D01*
X114711Y287211D01*
X115303Y286816D01*
X116000Y286678D01*
X116697Y286816D01*
X117289Y287211D01*
X117684Y287803D01*
X117822Y288500D01*
X117684Y289197D01*
X117289Y289789D01*
X116697Y290184D01*
X116000Y290322D01*
D02*
G37*
G36*
X368500Y289222D02*
X367803Y289084D01*
X367211Y288689D01*
X366816Y288097D01*
X366678Y287400D01*
X366816Y286703D01*
X367211Y286111D01*
X367803Y285716D01*
X368500Y285578D01*
X369197Y285716D01*
X369789Y286111D01*
X370184Y286703D01*
X370322Y287400D01*
X370184Y288097D01*
X369789Y288689D01*
X369197Y289084D01*
X368500Y289222D01*
D02*
G37*
G36*
X65169Y288973D02*
X64471Y288834D01*
X63880Y288439D01*
X63485Y287848D01*
X63346Y287150D01*
X63485Y286453D01*
X63880Y285862D01*
X64471Y285467D01*
X65169Y285328D01*
X65866Y285467D01*
X66457Y285862D01*
X66852Y286453D01*
X66991Y287150D01*
X66852Y287848D01*
X66457Y288439D01*
X65866Y288834D01*
X65169Y288973D01*
D02*
G37*
G36*
X253100Y288222D02*
X252403Y288084D01*
X251811Y287689D01*
X251416Y287097D01*
X251278Y286400D01*
X251416Y285703D01*
X251811Y285111D01*
X252403Y284716D01*
X253100Y284578D01*
X253797Y284716D01*
X254389Y285111D01*
X254784Y285703D01*
X254922Y286400D01*
X254784Y287097D01*
X254389Y287689D01*
X253797Y288084D01*
X253100Y288222D01*
D02*
G37*
G36*
X263000Y287922D02*
X262303Y287784D01*
X261711Y287389D01*
X261316Y286797D01*
X261178Y286100D01*
X261316Y285403D01*
X261711Y284811D01*
X262303Y284416D01*
X263000Y284278D01*
X263697Y284416D01*
X264289Y284811D01*
X264684Y285403D01*
X264822Y286100D01*
X264684Y286797D01*
X264289Y287389D01*
X263697Y287784D01*
X263000Y287922D01*
D02*
G37*
G36*
X379200Y286451D02*
X378503Y286312D01*
X377911Y285917D01*
X377516Y285326D01*
X377378Y284629D01*
X377516Y283931D01*
X377911Y283340D01*
X378503Y282945D01*
X379200Y282806D01*
X379897Y282945D01*
X380489Y283340D01*
X380884Y283931D01*
X381022Y284629D01*
X380884Y285326D01*
X380489Y285917D01*
X379897Y286312D01*
X379200Y286451D01*
D02*
G37*
G36*
X68839Y286073D02*
X68142Y285934D01*
X67551Y285539D01*
X67156Y284948D01*
X67017Y284250D01*
X67156Y283553D01*
X67551Y282962D01*
X68142Y282567D01*
X68839Y282428D01*
X69537Y282567D01*
X70128Y282962D01*
X70523Y283553D01*
X70662Y284250D01*
X70523Y284948D01*
X70128Y285539D01*
X69537Y285934D01*
X68839Y286073D01*
D02*
G37*
G36*
X311400Y285922D02*
X310703Y285784D01*
X310111Y285389D01*
X309716Y284797D01*
X309578Y284100D01*
X309716Y283403D01*
X310111Y282811D01*
X310703Y282416D01*
X311400Y282278D01*
X312097Y282416D01*
X312689Y282811D01*
X313084Y283403D01*
X313222Y284100D01*
X313084Y284797D01*
X312689Y285389D01*
X312097Y285784D01*
X311400Y285922D01*
D02*
G37*
G36*
X353671Y280522D02*
X352973Y280384D01*
X352382Y279989D01*
X351987Y279397D01*
X351848Y278700D01*
X351987Y278003D01*
X352382Y277411D01*
X352973Y277016D01*
X353671Y276878D01*
X354368Y277016D01*
X354959Y277411D01*
X355354Y278003D01*
X355493Y278700D01*
X355354Y279397D01*
X354959Y279989D01*
X354368Y280384D01*
X353671Y280522D01*
D02*
G37*
G36*
X340350Y279822D02*
X339653Y279684D01*
X339061Y279289D01*
X338666Y278697D01*
X338528Y278000D01*
X338666Y277303D01*
X339061Y276711D01*
X339653Y276316D01*
X340350Y276178D01*
X341047Y276316D01*
X341639Y276711D01*
X342034Y277303D01*
X342172Y278000D01*
X342034Y278697D01*
X341639Y279289D01*
X341047Y279684D01*
X340350Y279822D01*
D02*
G37*
G36*
X347900Y279522D02*
X347203Y279384D01*
X346611Y278989D01*
X346216Y278397D01*
X346078Y277700D01*
X346216Y277003D01*
X346611Y276411D01*
X347203Y276016D01*
X347900Y275878D01*
X348597Y276016D01*
X349189Y276411D01*
X349584Y277003D01*
X349722Y277700D01*
X349584Y278397D01*
X349189Y278989D01*
X348597Y279384D01*
X347900Y279522D01*
D02*
G37*
G36*
X212300Y278422D02*
X211603Y278284D01*
X211011Y277889D01*
X210616Y277297D01*
X210478Y276600D01*
X210616Y275903D01*
X211011Y275311D01*
X211603Y274916D01*
X212300Y274778D01*
X212997Y274916D01*
X213589Y275311D01*
X213984Y275903D01*
X214122Y276600D01*
X213984Y277297D01*
X213589Y277889D01*
X212997Y278284D01*
X212300Y278422D01*
D02*
G37*
G36*
X83000Y278172D02*
X82303Y278034D01*
X81711Y277639D01*
X81316Y277047D01*
X81178Y276350D01*
X81316Y275653D01*
X81711Y275061D01*
X82303Y274666D01*
X83000Y274528D01*
X83697Y274666D01*
X84289Y275061D01*
X84684Y275653D01*
X84822Y276350D01*
X84684Y277047D01*
X84289Y277639D01*
X83697Y278034D01*
X83000Y278172D01*
D02*
G37*
G36*
X393700Y277522D02*
X393003Y277384D01*
X392411Y276989D01*
X392016Y276397D01*
X391878Y275700D01*
X392016Y275003D01*
X392411Y274411D01*
X393003Y274016D01*
X393700Y273878D01*
X394397Y274016D01*
X394989Y274411D01*
X395384Y275003D01*
X395522Y275700D01*
X395384Y276397D01*
X394989Y276989D01*
X394397Y277384D01*
X393700Y277522D01*
D02*
G37*
G36*
X56839Y278573D02*
X56142Y278434D01*
X55551Y278039D01*
X55156Y277448D01*
X55017Y276750D01*
X55156Y276053D01*
X55551Y275462D01*
X56142Y275067D01*
X56839Y274928D01*
X57467Y275053D01*
X57516Y274803D01*
X57911Y274211D01*
X58503Y273816D01*
X59200Y273678D01*
X59897Y273816D01*
X60489Y274211D01*
X60884Y274803D01*
X61022Y275500D01*
X60884Y276197D01*
X60489Y276789D01*
X59897Y277184D01*
X59200Y277322D01*
X58573Y277198D01*
X58523Y277448D01*
X58128Y278039D01*
X57537Y278434D01*
X56839Y278573D01*
D02*
G37*
G36*
X232400Y276422D02*
X231703Y276284D01*
X231111Y275889D01*
X230716Y275297D01*
X230578Y274600D01*
X230716Y273903D01*
X231111Y273311D01*
X231703Y272916D01*
X232400Y272778D01*
X233097Y272916D01*
X233689Y273311D01*
X234084Y273903D01*
X234222Y274600D01*
X234084Y275297D01*
X233689Y275889D01*
X233097Y276284D01*
X232400Y276422D01*
D02*
G37*
G36*
X338500Y276022D02*
X337803Y275884D01*
X337211Y275489D01*
X336816Y274897D01*
X336678Y274200D01*
X336816Y273503D01*
X337211Y272911D01*
X337803Y272516D01*
X338500Y272378D01*
X339197Y272516D01*
X339789Y272911D01*
X340184Y273503D01*
X340322Y274200D01*
X340184Y274897D01*
X339789Y275489D01*
X339197Y275884D01*
X338500Y276022D01*
D02*
G37*
G36*
X140400Y275922D02*
X139703Y275784D01*
X139111Y275389D01*
X138716Y274797D01*
X138578Y274100D01*
X138716Y273403D01*
X139111Y272811D01*
X139703Y272416D01*
X140400Y272278D01*
X141097Y272416D01*
X141689Y272811D01*
X142084Y273403D01*
X142222Y274100D01*
X142084Y274797D01*
X141689Y275389D01*
X141097Y275784D01*
X140400Y275922D01*
D02*
G37*
G36*
X236900Y275422D02*
X236203Y275284D01*
X235611Y274889D01*
X235216Y274297D01*
X235078Y273600D01*
X235216Y272903D01*
X235611Y272311D01*
X236203Y271916D01*
X236900Y271778D01*
X237597Y271916D01*
X238189Y272311D01*
X238584Y272903D01*
X238722Y273600D01*
X238584Y274297D01*
X238189Y274889D01*
X237597Y275284D01*
X236900Y275422D01*
D02*
G37*
G36*
X262600Y274722D02*
X261903Y274584D01*
X261311Y274189D01*
X260916Y273597D01*
X260778Y272900D01*
X260916Y272203D01*
X261311Y271611D01*
X261903Y271216D01*
X262600Y271078D01*
X263297Y271216D01*
X263889Y271611D01*
X264284Y272203D01*
X264422Y272900D01*
X264284Y273597D01*
X263889Y274189D01*
X263297Y274584D01*
X262600Y274722D01*
D02*
G37*
G36*
X344300Y273822D02*
X343603Y273684D01*
X343011Y273289D01*
X342616Y272697D01*
X342478Y272000D01*
X342616Y271303D01*
X343011Y270711D01*
X343603Y270316D01*
X344300Y270178D01*
X344997Y270316D01*
X345589Y270711D01*
X345984Y271303D01*
X346122Y272000D01*
X345984Y272697D01*
X345589Y273289D01*
X344997Y273684D01*
X344300Y273822D01*
D02*
G37*
G36*
X354271Y272922D02*
X353573Y272784D01*
X352982Y272389D01*
X352587Y271797D01*
X352448Y271100D01*
X352587Y270403D01*
X352982Y269811D01*
X353573Y269416D01*
X354271Y269278D01*
X354968Y269416D01*
X355559Y269811D01*
X355954Y270403D01*
X356093Y271100D01*
X355954Y271797D01*
X355559Y272389D01*
X354968Y272784D01*
X354271Y272922D01*
D02*
G37*
G36*
X287100Y272722D02*
X286403Y272584D01*
X285811Y272189D01*
X285416Y271597D01*
X285278Y270900D01*
X285416Y270203D01*
X285811Y269611D01*
X286403Y269216D01*
X287100Y269078D01*
X287797Y269216D01*
X288389Y269611D01*
X288784Y270203D01*
X288922Y270900D01*
X288784Y271597D01*
X288389Y272189D01*
X287797Y272584D01*
X287100Y272722D01*
D02*
G37*
G36*
X231900Y271822D02*
X231203Y271684D01*
X230611Y271289D01*
X230216Y270697D01*
X230078Y270000D01*
X230216Y269303D01*
X230611Y268711D01*
X231203Y268316D01*
X231900Y268178D01*
X232597Y268316D01*
X233189Y268711D01*
X233584Y269303D01*
X233722Y270000D01*
X233584Y270697D01*
X233189Y271289D01*
X232597Y271684D01*
X231900Y271822D01*
D02*
G37*
G36*
X96239Y271773D02*
X95542Y271634D01*
X94951Y271239D01*
X94556Y270648D01*
X94417Y269950D01*
X94556Y269253D01*
X94951Y268662D01*
X95542Y268267D01*
X96239Y268128D01*
X96937Y268267D01*
X97528Y268662D01*
X97923Y269253D01*
X98062Y269950D01*
X97923Y270648D01*
X97528Y271239D01*
X96937Y271634D01*
X96239Y271773D01*
D02*
G37*
G36*
X266100Y271522D02*
X265403Y271384D01*
X264811Y270989D01*
X264416Y270397D01*
X264278Y269700D01*
X264416Y269003D01*
X264811Y268411D01*
X265403Y268016D01*
X266100Y267878D01*
X266797Y268016D01*
X267389Y268411D01*
X267784Y269003D01*
X267922Y269700D01*
X267784Y270397D01*
X267389Y270989D01*
X266797Y271384D01*
X266100Y271522D01*
D02*
G37*
G36*
X56939Y271473D02*
X56242Y271334D01*
X55651Y270939D01*
X55256Y270348D01*
X55117Y269650D01*
X55256Y268953D01*
X55651Y268362D01*
X56242Y267967D01*
X56939Y267828D01*
X57499Y267939D01*
X57687Y267924D01*
X58031Y267629D01*
X58116Y267203D01*
X58511Y266611D01*
X59103Y266216D01*
X59800Y266078D01*
X60497Y266216D01*
X61089Y266611D01*
X61484Y267203D01*
X61622Y267900D01*
X61484Y268597D01*
X61089Y269189D01*
X60497Y269584D01*
X59800Y269722D01*
X59241Y269611D01*
X59052Y269627D01*
X58708Y269921D01*
X58623Y270348D01*
X58228Y270939D01*
X57637Y271334D01*
X56939Y271473D01*
D02*
G37*
G36*
X370900Y269422D02*
X370203Y269284D01*
X369611Y268889D01*
X369216Y268297D01*
X369078Y267600D01*
X369216Y266903D01*
X369611Y266311D01*
X370203Y265916D01*
X370900Y265778D01*
X371597Y265916D01*
X372189Y266311D01*
X372584Y266903D01*
X372722Y267600D01*
X372584Y268297D01*
X372189Y268889D01*
X371597Y269284D01*
X370900Y269422D01*
D02*
G37*
G36*
X352400Y268722D02*
X351703Y268584D01*
X351111Y268189D01*
X350716Y267597D01*
X350578Y266900D01*
X350716Y266203D01*
X351111Y265611D01*
X351703Y265216D01*
X352400Y265078D01*
X353097Y265216D01*
X353689Y265611D01*
X354084Y266203D01*
X354222Y266900D01*
X354084Y267597D01*
X353689Y268189D01*
X353097Y268584D01*
X352400Y268722D01*
D02*
G37*
G36*
X227200D02*
X226503Y268584D01*
X225911Y268189D01*
X225516Y267597D01*
X225378Y266900D01*
X225516Y266203D01*
X225911Y265611D01*
X226503Y265216D01*
X227200Y265078D01*
X227897Y265216D01*
X228489Y265611D01*
X228884Y266203D01*
X229022Y266900D01*
X228884Y267597D01*
X228489Y268189D01*
X227897Y268584D01*
X227200Y268722D01*
D02*
G37*
G36*
X118100Y268222D02*
X117403Y268084D01*
X116811Y267689D01*
X116416Y267097D01*
X116278Y266400D01*
X116416Y265703D01*
X116811Y265111D01*
X117403Y264716D01*
X118100Y264578D01*
X118797Y264716D01*
X119389Y265111D01*
X119784Y265703D01*
X119922Y266400D01*
X119784Y267097D01*
X119389Y267689D01*
X118797Y268084D01*
X118100Y268222D01*
D02*
G37*
G36*
X213700Y267022D02*
X213003Y266884D01*
X212411Y266489D01*
X212016Y265897D01*
X211878Y265200D01*
X212016Y264503D01*
X212411Y263911D01*
X213003Y263516D01*
X213700Y263378D01*
X214397Y263516D01*
X214989Y263911D01*
X215384Y264503D01*
X215522Y265200D01*
X215384Y265897D01*
X214989Y266489D01*
X214397Y266884D01*
X213700Y267022D01*
D02*
G37*
G36*
X75900Y265722D02*
X75203Y265584D01*
X74611Y265189D01*
X74216Y264597D01*
X74078Y263900D01*
X74216Y263203D01*
X74611Y262611D01*
X75203Y262216D01*
X75900Y262078D01*
X76597Y262216D01*
X77189Y262611D01*
X77584Y263203D01*
X77722Y263900D01*
X77584Y264597D01*
X77189Y265189D01*
X76597Y265584D01*
X75900Y265722D01*
D02*
G37*
G36*
X195100Y264122D02*
X194403Y263984D01*
X193811Y263589D01*
X193416Y262997D01*
X193278Y262300D01*
X193416Y261603D01*
X193811Y261011D01*
X194403Y260616D01*
X195100Y260478D01*
X195797Y260616D01*
X196389Y261011D01*
X196784Y261603D01*
X196922Y262300D01*
X196784Y262997D01*
X196389Y263589D01*
X195797Y263984D01*
X195100Y264122D01*
D02*
G37*
G36*
X292100Y263822D02*
X291403Y263684D01*
X290811Y263289D01*
X290416Y262697D01*
X290278Y262000D01*
X290416Y261303D01*
X290811Y260711D01*
X291403Y260316D01*
X292100Y260178D01*
X292797Y260316D01*
X293389Y260711D01*
X293784Y261303D01*
X293922Y262000D01*
X293784Y262697D01*
X293389Y263289D01*
X292797Y263684D01*
X292100Y263822D01*
D02*
G37*
G36*
X301500Y262122D02*
X300803Y261984D01*
X300211Y261589D01*
X299816Y260997D01*
X299678Y260300D01*
X299816Y259603D01*
X300211Y259011D01*
X300803Y258616D01*
X301500Y258478D01*
X302197Y258616D01*
X302789Y259011D01*
X303184Y259603D01*
X303322Y260300D01*
X303184Y260997D01*
X302789Y261589D01*
X302197Y261984D01*
X301500Y262122D01*
D02*
G37*
G36*
X222900Y261722D02*
X222203Y261584D01*
X221611Y261189D01*
X221216Y260597D01*
X221078Y259900D01*
X221216Y259203D01*
X221611Y258611D01*
X222203Y258216D01*
X222900Y258078D01*
X223597Y258216D01*
X224189Y258611D01*
X224584Y259203D01*
X224722Y259900D01*
X224584Y260597D01*
X224189Y261189D01*
X223597Y261584D01*
X222900Y261722D01*
D02*
G37*
G36*
X313600Y261222D02*
X312903Y261084D01*
X312311Y260689D01*
X311916Y260097D01*
X311778Y259400D01*
X311916Y258703D01*
X312311Y258111D01*
X312903Y257716D01*
X313600Y257578D01*
X314297Y257716D01*
X314889Y258111D01*
X315284Y258703D01*
X315422Y259400D01*
X315284Y260097D01*
X314889Y260689D01*
X314297Y261084D01*
X313600Y261222D01*
D02*
G37*
G36*
X291021Y259744D02*
X290324Y259605D01*
X289733Y259210D01*
X289338Y258619D01*
X289199Y257921D01*
X289338Y257224D01*
X289733Y256633D01*
X290324Y256238D01*
X291021Y256099D01*
X291719Y256238D01*
X292310Y256633D01*
X292705Y257224D01*
X292844Y257921D01*
X292705Y258619D01*
X292310Y259210D01*
X291719Y259605D01*
X291021Y259744D01*
D02*
G37*
G36*
X197121Y256153D02*
X196424Y256014D01*
X195833Y255619D01*
X195438Y255028D01*
X195299Y254331D01*
X195438Y253633D01*
X195833Y253042D01*
X196424Y252647D01*
X197121Y252508D01*
X197819Y252647D01*
X198410Y253042D01*
X198805Y253633D01*
X198944Y254331D01*
X198805Y255028D01*
X198410Y255619D01*
X197819Y256014D01*
X197121Y256153D01*
D02*
G37*
G36*
X319800Y255922D02*
X319103Y255784D01*
X318511Y255389D01*
X318116Y254797D01*
X317978Y254100D01*
X318116Y253403D01*
X318511Y252811D01*
X319103Y252416D01*
X319800Y252278D01*
X320497Y252416D01*
X321089Y252811D01*
X321484Y253403D01*
X321622Y254100D01*
X321484Y254797D01*
X321089Y255389D01*
X320497Y255784D01*
X319800Y255922D01*
D02*
G37*
G36*
X290500Y254722D02*
X289803Y254584D01*
X289211Y254189D01*
X288816Y253597D01*
X288678Y252900D01*
X288782Y252377D01*
X288491Y252002D01*
X288397Y251943D01*
X288000Y252022D01*
X287303Y251884D01*
X286711Y251489D01*
X286316Y250897D01*
X286178Y250200D01*
X286316Y249503D01*
X286711Y248911D01*
X287303Y248516D01*
X288000Y248378D01*
X288697Y248516D01*
X289289Y248911D01*
X289684Y249503D01*
X289822Y250200D01*
X289718Y250723D01*
X290009Y251098D01*
X290103Y251156D01*
X290500Y251078D01*
X291197Y251216D01*
X291789Y251611D01*
X292184Y252203D01*
X292322Y252900D01*
X292184Y253597D01*
X291789Y254189D01*
X291197Y254584D01*
X290500Y254722D01*
D02*
G37*
G36*
X302800Y255321D02*
X301785Y255187D01*
X300839Y254796D01*
X300027Y254172D01*
X299404Y253361D01*
X299013Y252415D01*
X298879Y251400D01*
X299013Y250385D01*
X299404Y249440D01*
X300027Y248627D01*
X300839Y248004D01*
X301785Y247613D01*
X302800Y247479D01*
X303815Y247613D01*
X304761Y248004D01*
X305573Y248627D01*
X306196Y249440D01*
X306587Y250385D01*
X306721Y251400D01*
X306587Y252415D01*
X306196Y253361D01*
X305573Y254172D01*
X304761Y254796D01*
X303815Y255187D01*
X302800Y255321D01*
D02*
G37*
G36*
X129600Y249522D02*
X128903Y249384D01*
X128311Y248989D01*
X127916Y248397D01*
X127778Y247700D01*
X127916Y247003D01*
X128311Y246411D01*
X128903Y246016D01*
X129600Y245878D01*
X130297Y246016D01*
X130889Y246411D01*
X131284Y247003D01*
X131422Y247700D01*
X131284Y248397D01*
X130889Y248989D01*
X130297Y249384D01*
X129600Y249522D01*
D02*
G37*
G36*
X223000Y248622D02*
X222303Y248484D01*
X221711Y248089D01*
X221316Y247497D01*
X221178Y246800D01*
X221316Y246103D01*
X221711Y245511D01*
X222303Y245116D01*
X223000Y244978D01*
X223697Y245116D01*
X224289Y245511D01*
X224684Y246103D01*
X224822Y246800D01*
X224684Y247497D01*
X224289Y248089D01*
X223697Y248484D01*
X223000Y248622D01*
D02*
G37*
G36*
X235100Y248222D02*
X234403Y248084D01*
X233811Y247689D01*
X233416Y247097D01*
X233278Y246400D01*
X233416Y245703D01*
X233811Y245111D01*
X234403Y244716D01*
X235100Y244578D01*
X235797Y244716D01*
X236389Y245111D01*
X236784Y245703D01*
X236922Y246400D01*
X236784Y247097D01*
X236389Y247689D01*
X235797Y248084D01*
X235100Y248222D01*
D02*
G37*
G36*
X259000Y248177D02*
X258303Y248038D01*
X257711Y247643D01*
X257316Y247052D01*
X257178Y246355D01*
X257316Y245657D01*
X257711Y245066D01*
X258303Y244671D01*
X259000Y244532D01*
X259697Y244671D01*
X260289Y245066D01*
X260684Y245657D01*
X260822Y246355D01*
X260684Y247052D01*
X260289Y247643D01*
X259697Y248038D01*
X259000Y248177D01*
D02*
G37*
G36*
X328100Y252121D02*
X327085Y251987D01*
X326139Y251596D01*
X325327Y250973D01*
X324704Y250161D01*
X324313Y249215D01*
X324179Y248200D01*
X324313Y247185D01*
X324704Y246239D01*
X325327Y245427D01*
X326139Y244804D01*
X327085Y244413D01*
X328100Y244279D01*
X329115Y244413D01*
X330061Y244804D01*
X330873Y245427D01*
X331496Y246239D01*
X331887Y247185D01*
X332021Y248200D01*
X331887Y249215D01*
X331496Y250161D01*
X330873Y250973D01*
X330061Y251596D01*
X329115Y251987D01*
X328100Y252121D01*
D02*
G37*
G36*
X211200Y247522D02*
X210503Y247384D01*
X209911Y246989D01*
X209516Y246397D01*
X209378Y245700D01*
X209516Y245003D01*
X209911Y244411D01*
X210503Y244016D01*
X211200Y243878D01*
X211897Y244016D01*
X212489Y244411D01*
X212884Y245003D01*
X213022Y245700D01*
X212884Y246397D01*
X212489Y246989D01*
X211897Y247384D01*
X211200Y247522D01*
D02*
G37*
G36*
X184200Y243472D02*
X183503Y243334D01*
X182911Y242939D01*
X182516Y242347D01*
X182378Y241650D01*
X182516Y240953D01*
X182911Y240361D01*
X183503Y239966D01*
X184200Y239828D01*
X184897Y239966D01*
X185489Y240361D01*
X185884Y240953D01*
X186022Y241650D01*
X185884Y242347D01*
X185489Y242939D01*
X184897Y243334D01*
X184200Y243472D01*
D02*
G37*
G36*
X141500Y242822D02*
X140803Y242684D01*
X140211Y242289D01*
X139816Y241697D01*
X139678Y241000D01*
X139816Y240303D01*
X140211Y239711D01*
X140803Y239316D01*
X141500Y239178D01*
X142197Y239316D01*
X142789Y239711D01*
X143184Y240303D01*
X143322Y241000D01*
X143184Y241697D01*
X142789Y242289D01*
X142197Y242684D01*
X141500Y242822D01*
D02*
G37*
G36*
X302800Y245321D02*
X301785Y245187D01*
X300839Y244796D01*
X300027Y244173D01*
X299404Y243360D01*
X299013Y242415D01*
X298879Y241400D01*
X299013Y240385D01*
X299404Y239440D01*
X300027Y238628D01*
X300839Y238004D01*
X301785Y237613D01*
X302800Y237479D01*
X303815Y237613D01*
X304761Y238004D01*
X305573Y238628D01*
X306196Y239440D01*
X306587Y240385D01*
X306721Y241400D01*
X306587Y242415D01*
X306196Y243360D01*
X305573Y244173D01*
X304761Y244796D01*
X303815Y245187D01*
X302800Y245321D01*
D02*
G37*
G36*
X132800Y240422D02*
X132103Y240284D01*
X131511Y239889D01*
X131116Y239297D01*
X130978Y238600D01*
X131116Y237903D01*
X131511Y237311D01*
X132103Y236916D01*
X132800Y236778D01*
X133497Y236916D01*
X134089Y237311D01*
X134484Y237903D01*
X134622Y238600D01*
X134484Y239297D01*
X134089Y239889D01*
X133497Y240284D01*
X132800Y240422D01*
D02*
G37*
G36*
X291000Y240322D02*
X290303Y240184D01*
X289711Y239789D01*
X289316Y239197D01*
X289178Y238500D01*
X289316Y237803D01*
X289711Y237211D01*
X290303Y236816D01*
X291000Y236678D01*
X291697Y236816D01*
X292074Y237068D01*
X292606Y236906D01*
X292629Y236883D01*
X293011Y236311D01*
X293603Y235916D01*
X294300Y235778D01*
X294997Y235916D01*
X295589Y236311D01*
X295984Y236903D01*
X296122Y237600D01*
X295984Y238297D01*
X295589Y238889D01*
X294997Y239284D01*
X294300Y239422D01*
X293603Y239284D01*
X293226Y239032D01*
X292694Y239194D01*
X292671Y239217D01*
X292289Y239789D01*
X291697Y240184D01*
X291000Y240322D01*
D02*
G37*
G36*
X328100Y242121D02*
X327085Y241987D01*
X326139Y241596D01*
X325327Y240972D01*
X324704Y240160D01*
X324313Y239215D01*
X324179Y238200D01*
X324313Y237185D01*
X324704Y236240D01*
X325327Y235427D01*
X326139Y234804D01*
X327085Y234413D01*
X328100Y234279D01*
X329115Y234413D01*
X330061Y234804D01*
X330873Y235427D01*
X331496Y236240D01*
X331887Y237185D01*
X332021Y238200D01*
X331887Y239215D01*
X331496Y240160D01*
X330873Y240972D01*
X330061Y241596D01*
X329115Y241987D01*
X328100Y242121D01*
D02*
G37*
G36*
X199025Y237459D02*
X198328Y237321D01*
X197737Y236926D01*
X197342Y236334D01*
X197203Y235637D01*
X197342Y234940D01*
X197737Y234348D01*
X198328Y233953D01*
X199025Y233815D01*
X199723Y233953D01*
X200314Y234348D01*
X200709Y234940D01*
X200848Y235637D01*
X200709Y236334D01*
X200314Y236926D01*
X199723Y237321D01*
X199025Y237459D01*
D02*
G37*
G36*
X267600Y231822D02*
X266903Y231684D01*
X266311Y231289D01*
X265916Y230697D01*
X265778Y230000D01*
X265916Y229303D01*
X266311Y228711D01*
X266903Y228316D01*
X267600Y228178D01*
X268297Y228316D01*
X268889Y228711D01*
X269284Y229303D01*
X269422Y230000D01*
X269284Y230697D01*
X268889Y231289D01*
X268297Y231684D01*
X267600Y231822D01*
D02*
G37*
G36*
X129100Y231322D02*
X128403Y231184D01*
X127811Y230789D01*
X127416Y230197D01*
X127278Y229500D01*
X127416Y228803D01*
X127811Y228211D01*
X128403Y227816D01*
X129100Y227678D01*
X129797Y227816D01*
X130389Y228211D01*
X130784Y228803D01*
X130922Y229500D01*
X130784Y230197D01*
X130389Y230789D01*
X129797Y231184D01*
X129100Y231322D01*
D02*
G37*
G36*
X306687Y235287D02*
X298913D01*
Y227513D01*
X306687D01*
Y235287D01*
D02*
G37*
G36*
X292900Y230422D02*
X292203Y230284D01*
X291611Y229889D01*
X291216Y229297D01*
X291078Y228600D01*
X291216Y227903D01*
X291611Y227311D01*
X292203Y226916D01*
X292900Y226778D01*
X293597Y226916D01*
X294189Y227311D01*
X294584Y227903D01*
X294722Y228600D01*
X294584Y229297D01*
X294189Y229889D01*
X293597Y230284D01*
X292900Y230422D01*
D02*
G37*
G36*
X244800Y230222D02*
X244103Y230084D01*
X243511Y229689D01*
X243116Y229097D01*
X242978Y228400D01*
X243116Y227703D01*
X243511Y227111D01*
X244103Y226716D01*
X244800Y226578D01*
X245497Y226716D01*
X246089Y227111D01*
X246484Y227703D01*
X246622Y228400D01*
X246484Y229097D01*
X246089Y229689D01*
X245497Y230084D01*
X244800Y230222D01*
D02*
G37*
G36*
X226203Y228722D02*
X225505Y228584D01*
X224914Y228189D01*
X224519Y227597D01*
X224380Y226900D01*
X224519Y226203D01*
X224914Y225611D01*
X225505Y225216D01*
X226203Y225078D01*
X226900Y225216D01*
X227491Y225611D01*
X227887Y226203D01*
X228025Y226900D01*
X227887Y227597D01*
X227491Y228189D01*
X226900Y228584D01*
X226203Y228722D01*
D02*
G37*
G36*
X256200Y228222D02*
X255503Y228084D01*
X254911Y227689D01*
X254516Y227097D01*
X254378Y226400D01*
X254516Y225703D01*
X254911Y225111D01*
X255503Y224716D01*
X256200Y224578D01*
X256897Y224716D01*
X257489Y225111D01*
X257884Y225703D01*
X258022Y226400D01*
X257884Y227097D01*
X257489Y227689D01*
X256897Y228084D01*
X256200Y228222D01*
D02*
G37*
G36*
X328100Y232121D02*
X327085Y231987D01*
X326139Y231596D01*
X325327Y230973D01*
X324704Y230160D01*
X324313Y229215D01*
X324179Y228200D01*
X324313Y227185D01*
X324704Y226239D01*
X325327Y225428D01*
X326139Y224804D01*
X327085Y224413D01*
X328100Y224279D01*
X329115Y224413D01*
X330061Y224804D01*
X330873Y225428D01*
X331496Y226239D01*
X331887Y227185D01*
X332021Y228200D01*
X331887Y229215D01*
X331496Y230160D01*
X330873Y230973D01*
X330061Y231596D01*
X329115Y231987D01*
X328100Y232121D01*
D02*
G37*
G36*
X295800Y226722D02*
X295103Y226584D01*
X294511Y226189D01*
X294116Y225597D01*
X293978Y224900D01*
X294116Y224203D01*
X294511Y223611D01*
X295103Y223216D01*
X295800Y223078D01*
X296497Y223216D01*
X297089Y223611D01*
X297484Y224203D01*
X297622Y224900D01*
X297484Y225597D01*
X297089Y226189D01*
X296497Y226584D01*
X295800Y226722D01*
D02*
G37*
G36*
X249300D02*
X248603Y226584D01*
X248011Y226189D01*
X247616Y225597D01*
X247478Y224900D01*
X247616Y224203D01*
X248011Y223611D01*
X248603Y223216D01*
X249300Y223078D01*
X249997Y223216D01*
X250589Y223611D01*
X250984Y224203D01*
X251122Y224900D01*
X250984Y225597D01*
X250589Y226189D01*
X249997Y226584D01*
X249300Y226722D01*
D02*
G37*
G36*
X137100Y223122D02*
X136403Y222984D01*
X135811Y222589D01*
X135416Y221997D01*
X135278Y221300D01*
X135416Y220603D01*
X135811Y220011D01*
X136403Y219616D01*
X137100Y219478D01*
X137797Y219616D01*
X138389Y220011D01*
X138784Y220603D01*
X138922Y221300D01*
X138784Y221997D01*
X138389Y222589D01*
X137797Y222984D01*
X137100Y223122D01*
D02*
G37*
G36*
X206700Y220522D02*
X206003Y220384D01*
X205411Y219989D01*
X205016Y219397D01*
X204878Y218700D01*
X205016Y218003D01*
X205411Y217411D01*
X206003Y217016D01*
X206700Y216878D01*
X207397Y217016D01*
X207989Y217411D01*
X208384Y218003D01*
X208522Y218700D01*
X208384Y219397D01*
X207989Y219989D01*
X207397Y220384D01*
X206700Y220522D01*
D02*
G37*
G36*
X240500Y223522D02*
X239803Y223384D01*
X239211Y222989D01*
X238816Y222397D01*
X238678Y221700D01*
X238816Y221003D01*
X239211Y220411D01*
X239803Y220016D01*
X240500Y219878D01*
X240559Y219395D01*
X240503Y219384D01*
X239911Y218989D01*
X239516Y218397D01*
X239378Y217700D01*
X239516Y217003D01*
X239911Y216411D01*
X240503Y216016D01*
X241200Y215878D01*
X241897Y216016D01*
X242489Y216411D01*
X242884Y217003D01*
X243022Y217700D01*
X242884Y218397D01*
X242489Y218989D01*
X241897Y219384D01*
X241200Y219522D01*
X241141Y220005D01*
X241197Y220016D01*
X241789Y220411D01*
X242184Y221003D01*
X242322Y221700D01*
X242184Y222397D01*
X241789Y222989D01*
X241197Y223384D01*
X240500Y223522D01*
D02*
G37*
G36*
X188300Y219422D02*
X187603Y219284D01*
X187011Y218889D01*
X186616Y218297D01*
X186478Y217600D01*
X186616Y216903D01*
X187011Y216311D01*
X187603Y215916D01*
X188300Y215778D01*
X188997Y215916D01*
X189589Y216311D01*
X189984Y216903D01*
X190122Y217600D01*
X189984Y218297D01*
X189589Y218889D01*
X188997Y219284D01*
X188300Y219422D01*
D02*
G37*
G36*
X124500Y219772D02*
X123524Y219644D01*
X122614Y219267D01*
X121833Y218668D01*
X121233Y217886D01*
X120856Y216976D01*
X120728Y216000D01*
X120856Y215024D01*
X121233Y214114D01*
X121833Y213333D01*
X122614Y212733D01*
X123524Y212356D01*
X124500Y212228D01*
X125476Y212356D01*
X126386Y212733D01*
X127167Y213333D01*
X127767Y214114D01*
X128144Y215024D01*
X128272Y216000D01*
X128144Y216976D01*
X127767Y217886D01*
X127167Y218668D01*
X126386Y219267D01*
X125476Y219644D01*
X124500Y219772D01*
D02*
G37*
G36*
X233443Y215422D02*
X232746Y215284D01*
X232154Y214889D01*
X231759Y214297D01*
X231621Y213600D01*
X231759Y212903D01*
X232154Y212311D01*
X232746Y211916D01*
X233443Y211778D01*
X234140Y211916D01*
X234732Y212311D01*
X235127Y212903D01*
X235265Y213600D01*
X235127Y214297D01*
X234732Y214889D01*
X234140Y215284D01*
X233443Y215422D01*
D02*
G37*
G36*
X215200Y218022D02*
X214503Y217884D01*
X213911Y217489D01*
X213516Y216897D01*
X213378Y216200D01*
X213516Y215503D01*
X213911Y214911D01*
X214503Y214516D01*
X215040Y214409D01*
X215183Y213903D01*
X215011Y213789D01*
X214616Y213197D01*
X214478Y212500D01*
X214616Y211803D01*
X215011Y211211D01*
X215603Y210816D01*
X216300Y210678D01*
X216997Y210816D01*
X217589Y211211D01*
X217984Y211803D01*
X218122Y212500D01*
X217984Y213197D01*
X217589Y213789D01*
X216997Y214184D01*
X216460Y214291D01*
X216317Y214797D01*
X216489Y214911D01*
X216884Y215503D01*
X217022Y216200D01*
X216884Y216897D01*
X216489Y217489D01*
X215897Y217884D01*
X215200Y218022D01*
D02*
G37*
G36*
X328000Y216772D02*
X327024Y216644D01*
X326114Y216267D01*
X325332Y215668D01*
X324733Y214886D01*
X324356Y213976D01*
X324228Y213000D01*
X324356Y212024D01*
X324733Y211114D01*
X325332Y210332D01*
X326114Y209733D01*
X327024Y209356D01*
X328000Y209228D01*
X328976Y209356D01*
X329886Y209733D01*
X330667Y210332D01*
X331267Y211114D01*
X331644Y212024D01*
X331772Y213000D01*
X331644Y213976D01*
X331267Y214886D01*
X330667Y215668D01*
X329886Y216267D01*
X328976Y216644D01*
X328000Y216772D01*
D02*
G37*
G36*
X230300Y211522D02*
X229603Y211384D01*
X229011Y210989D01*
X228616Y210397D01*
X228478Y209700D01*
X228616Y209003D01*
X229011Y208411D01*
X229603Y208016D01*
X230300Y207878D01*
X230997Y208016D01*
X231589Y208411D01*
X231984Y209003D01*
X232122Y209700D01*
X231984Y210397D01*
X231589Y210989D01*
X230997Y211384D01*
X230300Y211522D01*
D02*
G37*
G36*
X191700Y211422D02*
X191003Y211284D01*
X190411Y210889D01*
X190016Y210297D01*
X189878Y209600D01*
X190016Y208903D01*
X190411Y208311D01*
X191003Y207916D01*
X191700Y207778D01*
X192397Y207916D01*
X192989Y208311D01*
X193384Y208903D01*
X193522Y209600D01*
X193384Y210297D01*
X192989Y210889D01*
X192397Y211284D01*
X191700Y211422D01*
D02*
G37*
G36*
X204000Y210822D02*
X203303Y210684D01*
X202711Y210289D01*
X202316Y209697D01*
X202178Y209000D01*
X202316Y208303D01*
X202711Y207711D01*
X203303Y207316D01*
X204000Y207178D01*
X204697Y207316D01*
X205289Y207711D01*
X205684Y208303D01*
X205822Y209000D01*
X205684Y209697D01*
X205289Y210289D01*
X204697Y210684D01*
X204000Y210822D01*
D02*
G37*
G36*
X219400Y206522D02*
X218703Y206384D01*
X218111Y205989D01*
X217716Y205397D01*
X217578Y204700D01*
X217716Y204003D01*
X218111Y203411D01*
X218703Y203016D01*
X219400Y202878D01*
X220097Y203016D01*
X220689Y203411D01*
X221084Y204003D01*
X221222Y204700D01*
X221084Y205397D01*
X220689Y205989D01*
X220097Y206384D01*
X219400Y206522D01*
D02*
G37*
G36*
X124500Y209772D02*
X123524Y209644D01*
X122614Y209267D01*
X121833Y208667D01*
X121233Y207886D01*
X120856Y206976D01*
X120728Y206000D01*
X120856Y205024D01*
X121233Y204114D01*
X121833Y203332D01*
X122614Y202733D01*
X123524Y202356D01*
X124500Y202228D01*
X125476Y202356D01*
X126386Y202733D01*
X127167Y203332D01*
X127767Y204114D01*
X128144Y205024D01*
X128272Y206000D01*
X128144Y206976D01*
X127767Y207886D01*
X127167Y208667D01*
X126386Y209267D01*
X125476Y209644D01*
X124500Y209772D01*
D02*
G37*
G36*
X328000Y206772D02*
X327024Y206644D01*
X326114Y206267D01*
X325332Y205667D01*
X324733Y204886D01*
X324356Y203976D01*
X324228Y203000D01*
X324356Y202024D01*
X324733Y201114D01*
X325332Y200332D01*
X326114Y199733D01*
X327024Y199356D01*
X328000Y199228D01*
X328976Y199356D01*
X329886Y199733D01*
X330667Y200332D01*
X331267Y201114D01*
X331644Y202024D01*
X331772Y203000D01*
X331644Y203976D01*
X331267Y204886D01*
X330667Y205667D01*
X329886Y206267D01*
X328976Y206644D01*
X328000Y206772D01*
D02*
G37*
G36*
X124500Y199772D02*
X123524Y199644D01*
X122614Y199267D01*
X121833Y198668D01*
X121233Y197886D01*
X120856Y196976D01*
X120728Y196000D01*
X120856Y195024D01*
X121233Y194114D01*
X121833Y193333D01*
X122614Y192733D01*
X123524Y192356D01*
X124500Y192228D01*
X125476Y192356D01*
X126386Y192733D01*
X127167Y193333D01*
X127767Y194114D01*
X128144Y195024D01*
X128272Y196000D01*
X128144Y196976D01*
X127767Y197886D01*
X127167Y198668D01*
X126386Y199267D01*
X125476Y199644D01*
X124500Y199772D01*
D02*
G37*
G36*
X251100Y193822D02*
X250403Y193684D01*
X249811Y193289D01*
X249416Y192697D01*
X249278Y192000D01*
X249416Y191303D01*
X249811Y190711D01*
X250403Y190316D01*
X251100Y190178D01*
X251797Y190316D01*
X252389Y190711D01*
X252784Y191303D01*
X252922Y192000D01*
X252784Y192697D01*
X252389Y193289D01*
X251797Y193684D01*
X251100Y193822D01*
D02*
G37*
G36*
X328000Y196772D02*
X327024Y196644D01*
X326114Y196267D01*
X325332Y195668D01*
X324733Y194886D01*
X324356Y193976D01*
X324228Y193000D01*
X324356Y192024D01*
X324733Y191114D01*
X325332Y190332D01*
X326114Y189733D01*
X327024Y189356D01*
X328000Y189228D01*
X328976Y189356D01*
X329886Y189733D01*
X330667Y190332D01*
X331267Y191114D01*
X331644Y192024D01*
X331772Y193000D01*
X331644Y193976D01*
X331267Y194886D01*
X330667Y195668D01*
X329886Y196267D01*
X328976Y196644D01*
X328000Y196772D01*
D02*
G37*
G36*
X136500Y192722D02*
X135803Y192584D01*
X135211Y192189D01*
X134816Y191597D01*
X134678Y190900D01*
X134816Y190203D01*
X135211Y189611D01*
X135803Y189216D01*
X136500Y189078D01*
X137197Y189216D01*
X137789Y189611D01*
X138184Y190203D01*
X138322Y190900D01*
X138184Y191597D01*
X137789Y192189D01*
X137197Y192584D01*
X136500Y192722D01*
D02*
G37*
G36*
X128453Y189953D02*
X125500D01*
Y187000D01*
X128453D01*
Y189953D01*
D02*
G37*
G36*
X123500D02*
X120547D01*
Y187000D01*
X123500D01*
Y189953D01*
D02*
G37*
G36*
X331953Y186953D02*
X329000D01*
Y184000D01*
X331953D01*
Y186953D01*
D02*
G37*
G36*
X327000D02*
X324047D01*
Y184000D01*
X327000D01*
Y186953D01*
D02*
G37*
G36*
X198084Y192034D02*
X189816D01*
Y183766D01*
X198084D01*
Y192034D01*
D02*
G37*
G36*
X243950Y192069D02*
X242871Y191927D01*
X241865Y191511D01*
X241002Y190848D01*
X240339Y189985D01*
X239923Y188979D01*
X239780Y187900D01*
X239923Y186821D01*
X240339Y185815D01*
X241002Y184952D01*
X241865Y184289D01*
X242871Y183873D01*
X243950Y183730D01*
X245029Y183873D01*
X246035Y184289D01*
X246898Y184952D01*
X247561Y185815D01*
X247977Y186821D01*
X248119Y187900D01*
X247977Y188979D01*
X247561Y189985D01*
X246898Y190848D01*
X246035Y191511D01*
X245029Y191927D01*
X243950Y192069D01*
D02*
G37*
G36*
X233950D02*
X232871Y191927D01*
X231865Y191511D01*
X231002Y190848D01*
X230339Y189985D01*
X229923Y188979D01*
X229781Y187900D01*
X229923Y186821D01*
X230339Y185815D01*
X231002Y184952D01*
X231865Y184289D01*
X232871Y183873D01*
X233950Y183730D01*
X235029Y183873D01*
X236035Y184289D01*
X236898Y184952D01*
X237561Y185815D01*
X237977Y186821D01*
X238120Y187900D01*
X237977Y188979D01*
X237561Y189985D01*
X236898Y190848D01*
X236035Y191511D01*
X235029Y191927D01*
X233950Y192069D01*
D02*
G37*
G36*
X223950D02*
X222871Y191927D01*
X221865Y191511D01*
X221002Y190848D01*
X220339Y189985D01*
X219923Y188979D01*
X219780Y187900D01*
X219923Y186821D01*
X220339Y185815D01*
X221002Y184952D01*
X221865Y184289D01*
X222871Y183873D01*
X223950Y183730D01*
X225029Y183873D01*
X226035Y184289D01*
X226898Y184952D01*
X227561Y185815D01*
X227977Y186821D01*
X228119Y187900D01*
X227977Y188979D01*
X227561Y189985D01*
X226898Y190848D01*
X226035Y191511D01*
X225029Y191927D01*
X223950Y192069D01*
D02*
G37*
G36*
X213950D02*
X212871Y191927D01*
X211865Y191511D01*
X211002Y190848D01*
X210339Y189985D01*
X209923Y188979D01*
X209781Y187900D01*
X209923Y186821D01*
X210339Y185815D01*
X211002Y184952D01*
X211865Y184289D01*
X212871Y183873D01*
X213950Y183730D01*
X215029Y183873D01*
X216035Y184289D01*
X216898Y184952D01*
X217561Y185815D01*
X217977Y186821D01*
X218120Y187900D01*
X217977Y188979D01*
X217561Y189985D01*
X216898Y190848D01*
X216035Y191511D01*
X215029Y191927D01*
X213950Y192069D01*
D02*
G37*
G36*
X203950D02*
X202871Y191927D01*
X201865Y191511D01*
X201002Y190848D01*
X200339Y189985D01*
X199923Y188979D01*
X199780Y187900D01*
X199923Y186821D01*
X200339Y185815D01*
X201002Y184952D01*
X201865Y184289D01*
X202871Y183873D01*
X203950Y183730D01*
X205029Y183873D01*
X206035Y184289D01*
X206898Y184952D01*
X207561Y185815D01*
X207977Y186821D01*
X208120Y187900D01*
X207977Y188979D01*
X207561Y189985D01*
X206898Y190848D01*
X206035Y191511D01*
X205029Y191927D01*
X203950Y192069D01*
D02*
G37*
G36*
X128453Y185000D02*
X125500D01*
Y182047D01*
X128453D01*
Y185000D01*
D02*
G37*
G36*
X123500D02*
X120547D01*
Y182047D01*
X123500D01*
Y185000D01*
D02*
G37*
G36*
X278000Y184822D02*
X277303Y184684D01*
X276711Y184289D01*
X276316Y183697D01*
X276178Y183000D01*
X276316Y182303D01*
X276711Y181711D01*
X277303Y181316D01*
X278000Y181178D01*
X278697Y181316D01*
X279289Y181711D01*
X279684Y182303D01*
X279822Y183000D01*
X279684Y183697D01*
X279289Y184289D01*
X278697Y184684D01*
X278000Y184822D01*
D02*
G37*
G36*
X331953Y182000D02*
X329000D01*
Y179047D01*
X331953D01*
Y182000D01*
D02*
G37*
G36*
X327000D02*
X324047D01*
Y179047D01*
X327000D01*
Y182000D01*
D02*
G37*
G36*
X240700Y182622D02*
X240003Y182484D01*
X239411Y182089D01*
X239016Y181497D01*
X238878Y180800D01*
X239016Y180103D01*
X239411Y179511D01*
X240003Y179116D01*
X240700Y178978D01*
X241397Y179116D01*
X241989Y179511D01*
X242384Y180103D01*
X242522Y180800D01*
X242384Y181497D01*
X241989Y182089D01*
X241397Y182484D01*
X240700Y182622D01*
D02*
G37*
G36*
X282900Y179722D02*
X282203Y179584D01*
X281611Y179189D01*
X281216Y178597D01*
X281078Y177900D01*
X281216Y177203D01*
X281611Y176611D01*
X282203Y176216D01*
X282900Y176078D01*
X283597Y176216D01*
X284189Y176611D01*
X284584Y177203D01*
X284722Y177900D01*
X284584Y178597D01*
X284189Y179189D01*
X283597Y179584D01*
X282900Y179722D01*
D02*
G37*
G36*
X275500Y177322D02*
X274803Y177184D01*
X274211Y176789D01*
X273816Y176197D01*
X273678Y175500D01*
X273816Y174803D01*
X274211Y174211D01*
X274803Y173816D01*
X275500Y173678D01*
X276197Y173816D01*
X276789Y174211D01*
X277184Y174803D01*
X277322Y175500D01*
X277184Y176197D01*
X276789Y176789D01*
X276197Y177184D01*
X275500Y177322D01*
D02*
G37*
G36*
X226200Y177222D02*
X225503Y177084D01*
X224911Y176689D01*
X224516Y176097D01*
X224378Y175400D01*
X224516Y174703D01*
X224911Y174111D01*
X225503Y173716D01*
X226200Y173578D01*
X226897Y173716D01*
X227489Y174111D01*
X227884Y174703D01*
X228022Y175400D01*
X227884Y176097D01*
X227489Y176689D01*
X226897Y177084D01*
X226200Y177222D01*
D02*
G37*
G36*
X124500Y172921D02*
X123485Y172787D01*
X122539Y172396D01*
X121728Y171773D01*
X121104Y170960D01*
X120713Y170015D01*
X120579Y169000D01*
X120713Y167985D01*
X121104Y167040D01*
X121728Y166227D01*
X122539Y165604D01*
X123485Y165213D01*
X124500Y165079D01*
X125515Y165213D01*
X126461Y165604D01*
X127272Y166227D01*
X127896Y167040D01*
X128287Y167985D01*
X128421Y169000D01*
X128287Y170015D01*
X127896Y170960D01*
X127272Y171773D01*
X126461Y172396D01*
X125515Y172787D01*
X124500Y172921D01*
D02*
G37*
G36*
X138100Y166222D02*
X137403Y166084D01*
X136811Y165689D01*
X136416Y165097D01*
X136278Y164400D01*
X136416Y163703D01*
X136811Y163111D01*
X137403Y162716D01*
X138100Y162578D01*
X138797Y162716D01*
X139389Y163111D01*
X139784Y163703D01*
X139922Y164400D01*
X139784Y165097D01*
X139389Y165689D01*
X138797Y166084D01*
X138100Y166222D01*
D02*
G37*
G36*
X124500Y162921D02*
X123485Y162787D01*
X122539Y162396D01*
X121728Y161773D01*
X121104Y160960D01*
X120713Y160015D01*
X120579Y159000D01*
X120713Y157985D01*
X121104Y157039D01*
X121728Y156228D01*
X122539Y155604D01*
X123485Y155213D01*
X124500Y155079D01*
X125515Y155213D01*
X126461Y155604D01*
X127272Y156228D01*
X127896Y157039D01*
X128287Y157985D01*
X128421Y159000D01*
X128287Y160015D01*
X127896Y160960D01*
X127272Y161773D01*
X126461Y162396D01*
X125515Y162787D01*
X124500Y162921D01*
D02*
G37*
G36*
X283900Y155621D02*
X282885Y155487D01*
X281940Y155096D01*
X281128Y154472D01*
X280504Y153661D01*
X280113Y152715D01*
X279979Y151700D01*
X280113Y150685D01*
X280504Y149740D01*
X281128Y148927D01*
X281940Y148304D01*
X282885Y147913D01*
X283900Y147779D01*
X284915Y147913D01*
X285860Y148304D01*
X286672Y148927D01*
X287296Y149740D01*
X287687Y150685D01*
X287821Y151700D01*
X287687Y152715D01*
X287296Y153661D01*
X286672Y154472D01*
X285860Y155096D01*
X284915Y155487D01*
X283900Y155621D01*
D02*
G37*
G36*
X124500Y152921D02*
X123485Y152787D01*
X122539Y152396D01*
X121728Y151772D01*
X121104Y150961D01*
X120713Y150015D01*
X120579Y149000D01*
X120713Y147985D01*
X121104Y147039D01*
X121728Y146228D01*
X122539Y145604D01*
X123485Y145213D01*
X124500Y145079D01*
X125515Y145213D01*
X126461Y145604D01*
X127272Y146228D01*
X127896Y147039D01*
X128287Y147985D01*
X128421Y149000D01*
X128287Y150015D01*
X127896Y150961D01*
X127272Y151772D01*
X126461Y152396D01*
X125515Y152787D01*
X124500Y152921D01*
D02*
G37*
G36*
X128600Y143100D02*
X125500D01*
Y140000D01*
X128600D01*
Y143100D01*
D02*
G37*
G36*
X123500D02*
X120400D01*
Y140000D01*
X123500D01*
Y143100D01*
D02*
G37*
G36*
X260900Y142722D02*
X260203Y142584D01*
X259611Y142189D01*
X259216Y141597D01*
X259078Y140900D01*
X259216Y140203D01*
X259611Y139611D01*
X260203Y139216D01*
X260900Y139078D01*
X261597Y139216D01*
X262189Y139611D01*
X262584Y140203D01*
X262722Y140900D01*
X262584Y141597D01*
X262189Y142189D01*
X261597Y142584D01*
X260900Y142722D01*
D02*
G37*
G36*
X137700Y142022D02*
X137003Y141884D01*
X136411Y141489D01*
X136016Y140897D01*
X135878Y140200D01*
X136016Y139503D01*
X136411Y138911D01*
X137003Y138516D01*
X137700Y138378D01*
X138397Y138516D01*
X138989Y138911D01*
X139384Y139503D01*
X139522Y140200D01*
X139384Y140897D01*
X138989Y141489D01*
X138397Y141884D01*
X137700Y142022D01*
D02*
G37*
G36*
X283900Y145621D02*
X282885Y145487D01*
X281940Y145096D01*
X281128Y144473D01*
X280504Y143660D01*
X280113Y142715D01*
X279979Y141700D01*
X280113Y140685D01*
X280504Y139740D01*
X281128Y138927D01*
X281940Y138304D01*
X282885Y137913D01*
X283900Y137779D01*
X284915Y137913D01*
X285860Y138304D01*
X286672Y138927D01*
X287296Y139740D01*
X287687Y140685D01*
X287821Y141700D01*
X287687Y142715D01*
X287296Y143660D01*
X286672Y144473D01*
X285860Y145096D01*
X284915Y145487D01*
X283900Y145621D01*
D02*
G37*
G36*
X112548Y138871D02*
X111851Y138732D01*
X111260Y138337D01*
X110865Y137746D01*
X110726Y137048D01*
X110865Y136351D01*
X111260Y135760D01*
X111851Y135365D01*
X112548Y135226D01*
X113246Y135365D01*
X113837Y135760D01*
X114232Y136351D01*
X114371Y137048D01*
X114232Y137746D01*
X113837Y138337D01*
X113246Y138732D01*
X112548Y138871D01*
D02*
G37*
G36*
X128600Y138000D02*
X125500D01*
Y134900D01*
X128600D01*
Y138000D01*
D02*
G37*
G36*
X123500D02*
X120400D01*
Y134900D01*
X123500D01*
Y138000D01*
D02*
G37*
G36*
X89700Y137222D02*
X89003Y137084D01*
X88411Y136689D01*
X88016Y136097D01*
X87878Y135400D01*
X88016Y134703D01*
X88411Y134111D01*
X89003Y133716D01*
X89700Y133578D01*
X90397Y133716D01*
X90989Y134111D01*
X91384Y134703D01*
X91522Y135400D01*
X91384Y136097D01*
X90989Y136689D01*
X90397Y137084D01*
X89700Y137222D01*
D02*
G37*
G36*
X267400Y136922D02*
X266703Y136784D01*
X266111Y136389D01*
X265716Y135797D01*
X265578Y135100D01*
X265716Y134403D01*
X266111Y133811D01*
X266703Y133416D01*
X267400Y133278D01*
X268097Y133416D01*
X268689Y133811D01*
X269084Y134403D01*
X269222Y135100D01*
X269084Y135797D01*
X268689Y136389D01*
X268097Y136784D01*
X267400Y136922D01*
D02*
G37*
G36*
X379600Y136204D02*
Y133200D01*
X382604D01*
X382594Y133270D01*
X382181Y134268D01*
X381524Y135124D01*
X380668Y135781D01*
X379670Y136195D01*
X379600Y136204D01*
D02*
G37*
G36*
X377600D02*
X377530Y136195D01*
X376532Y135781D01*
X375676Y135124D01*
X375019Y134268D01*
X374605Y133270D01*
X374596Y133200D01*
X377600D01*
Y136204D01*
D02*
G37*
G36*
X359600D02*
Y133200D01*
X362604D01*
X362595Y133270D01*
X362181Y134268D01*
X361524Y135124D01*
X360668Y135781D01*
X359670Y136195D01*
X359600Y136204D01*
D02*
G37*
G36*
X357600D02*
X357530Y136195D01*
X356532Y135781D01*
X355676Y135124D01*
X355019Y134268D01*
X354606Y133270D01*
X354596Y133200D01*
X357600D01*
Y136204D01*
D02*
G37*
G36*
X234200Y136722D02*
X233503Y136584D01*
X232911Y136189D01*
X232516Y135597D01*
X232378Y134900D01*
X232516Y134203D01*
X232911Y133611D01*
X233503Y133216D01*
X234200Y133078D01*
X234897Y133216D01*
X235489Y133611D01*
X235884Y134203D01*
X236022Y134900D01*
X235884Y135597D01*
X235489Y136189D01*
X234897Y136584D01*
X234200Y136722D01*
D02*
G37*
G36*
X63400Y135622D02*
X62703Y135484D01*
X62111Y135089D01*
X61716Y134497D01*
X61578Y133800D01*
X61716Y133103D01*
X62111Y132511D01*
X62703Y132116D01*
X63400Y131978D01*
X64097Y132116D01*
X64689Y132511D01*
X65084Y133103D01*
X65222Y133800D01*
X65084Y134497D01*
X64689Y135089D01*
X64097Y135484D01*
X63400Y135622D01*
D02*
G37*
G36*
X255800Y134722D02*
X255103Y134584D01*
X254511Y134189D01*
X254116Y133597D01*
X253978Y132900D01*
X254116Y132203D01*
X254511Y131611D01*
X255103Y131216D01*
X255800Y131078D01*
X256497Y131216D01*
X257089Y131611D01*
X257484Y132203D01*
X257622Y132900D01*
X257484Y133597D01*
X257089Y134189D01*
X256497Y134584D01*
X255800Y134722D01*
D02*
G37*
G36*
X330187Y137087D02*
X322413D01*
Y129313D01*
X330187D01*
Y137087D01*
D02*
G37*
G36*
X159300Y154237D02*
X157323Y154082D01*
X155395Y153619D01*
X153563Y152860D01*
X151872Y151824D01*
X150364Y150536D01*
X149076Y149028D01*
X148040Y147337D01*
X147281Y145505D01*
X146818Y143577D01*
X146663Y141600D01*
X146818Y139623D01*
X147281Y137695D01*
X148040Y135863D01*
X149076Y134172D01*
X150364Y132664D01*
X151872Y131376D01*
X153563Y130340D01*
X155395Y129581D01*
X157323Y129118D01*
X159300Y128963D01*
X161277Y129118D01*
X163205Y129581D01*
X165037Y130340D01*
X166728Y131376D01*
X168236Y132664D01*
X169524Y134172D01*
X170560Y135863D01*
X171319Y137695D01*
X171782Y139623D01*
X171937Y141600D01*
X171782Y143577D01*
X171319Y145505D01*
X170560Y147337D01*
X169524Y149028D01*
X168236Y150536D01*
X166728Y151824D01*
X165037Y152860D01*
X163205Y153619D01*
X161277Y154082D01*
X159300Y154237D01*
D02*
G37*
G36*
X388600Y136121D02*
X387585Y135987D01*
X386639Y135596D01*
X385827Y134973D01*
X385204Y134160D01*
X384813Y133215D01*
X384679Y132200D01*
X384813Y131185D01*
X385204Y130239D01*
X385827Y129428D01*
X386639Y128804D01*
X387585Y128413D01*
X388600Y128279D01*
X389615Y128413D01*
X390561Y128804D01*
X391372Y129428D01*
X391996Y130239D01*
X392387Y131185D01*
X392521Y132200D01*
X392387Y133215D01*
X391996Y134160D01*
X391372Y134973D01*
X390561Y135596D01*
X389615Y135987D01*
X388600Y136121D01*
D02*
G37*
G36*
X368600D02*
X367585Y135987D01*
X366639Y135596D01*
X365827Y134973D01*
X365204Y134160D01*
X364813Y133215D01*
X364679Y132200D01*
X364813Y131185D01*
X365204Y130239D01*
X365827Y129428D01*
X366639Y128804D01*
X367585Y128413D01*
X368600Y128279D01*
X369615Y128413D01*
X370561Y128804D01*
X371373Y129428D01*
X371996Y130239D01*
X372387Y131185D01*
X372521Y132200D01*
X372387Y133215D01*
X371996Y134160D01*
X371373Y134973D01*
X370561Y135596D01*
X369615Y135987D01*
X368600Y136121D01*
D02*
G37*
G36*
X382604Y131200D02*
X379600D01*
Y128196D01*
X379670Y128206D01*
X380668Y128619D01*
X381524Y129276D01*
X382181Y130132D01*
X382594Y131130D01*
X382604Y131200D01*
D02*
G37*
G36*
X377600D02*
X374596D01*
X374605Y131130D01*
X375019Y130132D01*
X375676Y129276D01*
X376532Y128619D01*
X377530Y128206D01*
X377600Y128196D01*
Y131200D01*
D02*
G37*
G36*
X362604D02*
X359600D01*
Y128196D01*
X359670Y128206D01*
X360668Y128619D01*
X361524Y129276D01*
X362181Y130132D01*
X362595Y131130D01*
X362604Y131200D01*
D02*
G37*
G36*
X357600D02*
X354596D01*
X354606Y131130D01*
X355019Y130132D01*
X355676Y129276D01*
X356532Y128619D01*
X357530Y128206D01*
X357600Y128196D01*
Y131200D01*
D02*
G37*
G36*
X283900Y135621D02*
X282885Y135487D01*
X281940Y135096D01*
X281128Y134473D01*
X280504Y133660D01*
X280113Y132715D01*
X279979Y131700D01*
X280113Y130685D01*
X280504Y129739D01*
X281128Y128928D01*
X281940Y128304D01*
X282885Y127913D01*
X283900Y127779D01*
X284915Y127913D01*
X285860Y128304D01*
X286672Y128928D01*
X287296Y129739D01*
X287687Y130685D01*
X287821Y131700D01*
X287687Y132715D01*
X287296Y133660D01*
X286672Y134473D01*
X285860Y135096D01*
X284915Y135487D01*
X283900Y135621D01*
D02*
G37*
G36*
X230600Y131222D02*
X229903Y131084D01*
X229311Y130689D01*
X228916Y130097D01*
X228778Y129400D01*
X228916Y128703D01*
X229311Y128111D01*
X229903Y127716D01*
X230600Y127578D01*
X231297Y127716D01*
X231889Y128111D01*
X232284Y128703D01*
X232422Y129400D01*
X232284Y130097D01*
X231889Y130689D01*
X231297Y131084D01*
X230600Y131222D01*
D02*
G37*
G36*
X306600Y129710D02*
X305903Y129571D01*
X305311Y129176D01*
X304916Y128585D01*
X304778Y127887D01*
X304916Y127190D01*
X305311Y126599D01*
X305903Y126204D01*
X306600Y126065D01*
X307297Y126204D01*
X307889Y126599D01*
X308284Y127190D01*
X308422Y127887D01*
X308284Y128585D01*
X307889Y129176D01*
X307297Y129571D01*
X306600Y129710D01*
D02*
G37*
G36*
X401400Y123322D02*
X400703Y123184D01*
X400111Y122789D01*
X399716Y122197D01*
X399578Y121500D01*
X399716Y120803D01*
X400111Y120211D01*
X400703Y119816D01*
X401400Y119678D01*
X402097Y119816D01*
X402689Y120211D01*
X403084Y120803D01*
X403222Y121500D01*
X403084Y122197D01*
X402689Y122789D01*
X402097Y123184D01*
X401400Y123322D01*
D02*
G37*
G36*
X326300Y127121D02*
X325285Y126987D01*
X324340Y126596D01*
X323528Y125972D01*
X322904Y125161D01*
X322513Y124215D01*
X322379Y123200D01*
X322513Y122185D01*
X322904Y121239D01*
X323528Y120428D01*
X324340Y119804D01*
X325285Y119413D01*
X326300Y119279D01*
X327315Y119413D01*
X328260Y119804D01*
X329072Y120428D01*
X329696Y121239D01*
X330087Y122185D01*
X330221Y123200D01*
X330087Y124215D01*
X329696Y125161D01*
X329072Y125972D01*
X328260Y126596D01*
X327315Y126987D01*
X326300Y127121D01*
D02*
G37*
G36*
X270000Y122322D02*
X269303Y122184D01*
X268711Y121789D01*
X268316Y121197D01*
X268178Y120500D01*
X268316Y119803D01*
X268711Y119211D01*
X269303Y118816D01*
X270000Y118678D01*
X270697Y118816D01*
X271289Y119211D01*
X271684Y119803D01*
X271822Y120500D01*
X271684Y121197D01*
X271289Y121789D01*
X270697Y122184D01*
X270000Y122322D01*
D02*
G37*
G36*
X362487Y126087D02*
X354713D01*
Y118313D01*
X362487D01*
Y126087D01*
D02*
G37*
G36*
X388600Y126121D02*
X387585Y125987D01*
X386639Y125596D01*
X385827Y124972D01*
X385204Y124161D01*
X384813Y123215D01*
X384679Y122200D01*
X384813Y121185D01*
X385204Y120239D01*
X385827Y119428D01*
X386639Y118804D01*
X387585Y118413D01*
X388600Y118279D01*
X389615Y118413D01*
X390561Y118804D01*
X391372Y119428D01*
X391996Y120239D01*
X392387Y121185D01*
X392521Y122200D01*
X392387Y123215D01*
X391996Y124161D01*
X391372Y124972D01*
X390561Y125596D01*
X389615Y125987D01*
X388600Y126121D01*
D02*
G37*
G36*
X378600D02*
X377585Y125987D01*
X376640Y125596D01*
X375828Y124972D01*
X375204Y124161D01*
X374813Y123215D01*
X374679Y122200D01*
X374813Y121185D01*
X375204Y120239D01*
X375828Y119428D01*
X376640Y118804D01*
X377585Y118413D01*
X378600Y118279D01*
X379615Y118413D01*
X380560Y118804D01*
X381372Y119428D01*
X381996Y120239D01*
X382387Y121185D01*
X382521Y122200D01*
X382387Y123215D01*
X381996Y124161D01*
X381372Y124972D01*
X380560Y125596D01*
X379615Y125987D01*
X378600Y126121D01*
D02*
G37*
G36*
X368600D02*
X367585Y125987D01*
X366639Y125596D01*
X365827Y124972D01*
X365204Y124161D01*
X364813Y123215D01*
X364679Y122200D01*
X364813Y121185D01*
X365204Y120239D01*
X365827Y119428D01*
X366639Y118804D01*
X367585Y118413D01*
X368600Y118279D01*
X369615Y118413D01*
X370561Y118804D01*
X371373Y119428D01*
X371996Y120239D01*
X372387Y121185D01*
X372521Y122200D01*
X372387Y123215D01*
X371996Y124161D01*
X371373Y124972D01*
X370561Y125596D01*
X369615Y125987D01*
X368600Y126121D01*
D02*
G37*
G36*
X287787Y125587D02*
X280013D01*
Y117813D01*
X287787D01*
Y125587D01*
D02*
G37*
G36*
X193950Y122780D02*
X192871Y122637D01*
X191865Y122221D01*
X191002Y121558D01*
X190339Y120695D01*
X189923Y119689D01*
X189780Y118610D01*
X189923Y117531D01*
X190339Y116525D01*
X191002Y115662D01*
X191865Y114999D01*
X192871Y114583D01*
X193950Y114441D01*
X195029Y114583D01*
X196035Y114999D01*
X196898Y115662D01*
X197561Y116525D01*
X197977Y117531D01*
X198119Y118610D01*
X197977Y119689D01*
X197561Y120695D01*
X196898Y121558D01*
X196035Y122221D01*
X195029Y122637D01*
X193950Y122780D01*
D02*
G37*
G36*
X183950D02*
X182871Y122637D01*
X181865Y122221D01*
X181002Y121558D01*
X180339Y120695D01*
X179923Y119689D01*
X179780Y118610D01*
X179923Y117531D01*
X180339Y116525D01*
X181002Y115662D01*
X181865Y114999D01*
X182871Y114583D01*
X183950Y114441D01*
X185029Y114583D01*
X186035Y114999D01*
X186898Y115662D01*
X187561Y116525D01*
X187977Y117531D01*
X188119Y118610D01*
X187977Y119689D01*
X187561Y120695D01*
X186898Y121558D01*
X186035Y122221D01*
X185029Y122637D01*
X183950Y122780D01*
D02*
G37*
G36*
X173950D02*
X172871Y122637D01*
X171865Y122221D01*
X171002Y121558D01*
X170339Y120695D01*
X169923Y119689D01*
X169781Y118610D01*
X169923Y117531D01*
X170339Y116525D01*
X171002Y115662D01*
X171865Y114999D01*
X172871Y114583D01*
X173950Y114441D01*
X175029Y114583D01*
X176035Y114999D01*
X176898Y115662D01*
X177561Y116525D01*
X177977Y117531D01*
X178120Y118610D01*
X177977Y119689D01*
X177561Y120695D01*
X176898Y121558D01*
X176035Y122221D01*
X175029Y122637D01*
X173950Y122780D01*
D02*
G37*
G36*
X163950D02*
X162871Y122637D01*
X161865Y122221D01*
X161002Y121558D01*
X160339Y120695D01*
X159923Y119689D01*
X159781Y118610D01*
X159923Y117531D01*
X160339Y116525D01*
X161002Y115662D01*
X161865Y114999D01*
X162871Y114583D01*
X163950Y114441D01*
X165029Y114583D01*
X166035Y114999D01*
X166898Y115662D01*
X167561Y116525D01*
X167977Y117531D01*
X168120Y118610D01*
X167977Y119689D01*
X167561Y120695D01*
X166898Y121558D01*
X166035Y122221D01*
X165029Y122637D01*
X163950Y122780D01*
D02*
G37*
G36*
X153950D02*
X152871Y122637D01*
X151865Y122221D01*
X151002Y121558D01*
X150339Y120695D01*
X149923Y119689D01*
X149780Y118610D01*
X149923Y117531D01*
X150339Y116525D01*
X151002Y115662D01*
X151865Y114999D01*
X152871Y114583D01*
X153950Y114441D01*
X155029Y114583D01*
X156035Y114999D01*
X156898Y115662D01*
X157561Y116525D01*
X157977Y117531D01*
X158119Y118610D01*
X157977Y119689D01*
X157561Y120695D01*
X156898Y121558D01*
X156035Y122221D01*
X155029Y122637D01*
X153950Y122780D01*
D02*
G37*
G36*
X133950D02*
X132871Y122637D01*
X131865Y122221D01*
X131002Y121558D01*
X130339Y120695D01*
X129923Y119689D01*
X129780Y118610D01*
X129923Y117531D01*
X130339Y116525D01*
X131002Y115662D01*
X131865Y114999D01*
X132871Y114583D01*
X133950Y114441D01*
X135029Y114583D01*
X136035Y114999D01*
X136898Y115662D01*
X137561Y116525D01*
X137977Y117531D01*
X138119Y118610D01*
X137977Y119689D01*
X137561Y120695D01*
X136898Y121558D01*
X136035Y122221D01*
X135029Y122637D01*
X133950Y122780D01*
D02*
G37*
G36*
X123950D02*
X122871Y122637D01*
X121865Y122221D01*
X121002Y121558D01*
X120339Y120695D01*
X119923Y119689D01*
X119781Y118610D01*
X119923Y117531D01*
X120339Y116525D01*
X121002Y115662D01*
X121865Y114999D01*
X122871Y114583D01*
X123950Y114441D01*
X125029Y114583D01*
X126035Y114999D01*
X126898Y115662D01*
X127561Y116525D01*
X127977Y117531D01*
X128120Y118610D01*
X127977Y119689D01*
X127561Y120695D01*
X126898Y121558D01*
X126035Y122221D01*
X125029Y122637D01*
X123950Y122780D01*
D02*
G37*
G36*
X113950D02*
X112871Y122637D01*
X111865Y122221D01*
X111002Y121558D01*
X110339Y120695D01*
X109923Y119689D01*
X109781Y118610D01*
X109923Y117531D01*
X110339Y116525D01*
X111002Y115662D01*
X111865Y114999D01*
X112871Y114583D01*
X113950Y114441D01*
X115029Y114583D01*
X116035Y114999D01*
X116898Y115662D01*
X117561Y116525D01*
X117977Y117531D01*
X118120Y118610D01*
X117977Y119689D01*
X117561Y120695D01*
X116898Y121558D01*
X116035Y122221D01*
X115029Y122637D01*
X113950Y122780D01*
D02*
G37*
G36*
X103950D02*
X102871Y122637D01*
X101865Y122221D01*
X101002Y121558D01*
X100339Y120695D01*
X99923Y119689D01*
X99780Y118610D01*
X99923Y117531D01*
X100339Y116525D01*
X101002Y115662D01*
X101865Y114999D01*
X102871Y114583D01*
X103950Y114441D01*
X105029Y114583D01*
X106035Y114999D01*
X106898Y115662D01*
X107561Y116525D01*
X107977Y117531D01*
X108119Y118610D01*
X107977Y119689D01*
X107561Y120695D01*
X106898Y121558D01*
X106035Y122221D01*
X105029Y122637D01*
X103950Y122780D01*
D02*
G37*
G36*
X93950D02*
X92871Y122637D01*
X91865Y122221D01*
X91002Y121558D01*
X90339Y120695D01*
X89923Y119689D01*
X89780Y118610D01*
X89923Y117531D01*
X90339Y116525D01*
X91002Y115662D01*
X91865Y114999D01*
X92871Y114583D01*
X93950Y114441D01*
X95029Y114583D01*
X96035Y114999D01*
X96898Y115662D01*
X97561Y116525D01*
X97977Y117531D01*
X98119Y118610D01*
X97977Y119689D01*
X97561Y120695D01*
X96898Y121558D01*
X96035Y122221D01*
X95029Y122637D01*
X93950Y122780D01*
D02*
G37*
G36*
X83950D02*
X82871Y122637D01*
X81865Y122221D01*
X81002Y121558D01*
X80339Y120695D01*
X79923Y119689D01*
X79781Y118610D01*
X79923Y117531D01*
X80339Y116525D01*
X81002Y115662D01*
X81865Y114999D01*
X82871Y114583D01*
X83950Y114441D01*
X85029Y114583D01*
X86035Y114999D01*
X86898Y115662D01*
X87561Y116525D01*
X87977Y117531D01*
X88120Y118610D01*
X87977Y119689D01*
X87561Y120695D01*
X86898Y121558D01*
X86035Y122221D01*
X85029Y122637D01*
X83950Y122780D01*
D02*
G37*
G36*
X73950D02*
X72871Y122637D01*
X71865Y122221D01*
X71002Y121558D01*
X70339Y120695D01*
X69923Y119689D01*
X69780Y118610D01*
X69923Y117531D01*
X70339Y116525D01*
X71002Y115662D01*
X71865Y114999D01*
X72871Y114583D01*
X73950Y114441D01*
X75029Y114583D01*
X76035Y114999D01*
X76898Y115662D01*
X77561Y116525D01*
X77977Y117531D01*
X78119Y118610D01*
X77977Y119689D01*
X77561Y120695D01*
X76898Y121558D01*
X76035Y122221D01*
X75029Y122637D01*
X73950Y122780D01*
D02*
G37*
G36*
X63950D02*
X62871Y122637D01*
X61865Y122221D01*
X61002Y121558D01*
X60339Y120695D01*
X59923Y119689D01*
X59781Y118610D01*
X59923Y117531D01*
X60339Y116525D01*
X61002Y115662D01*
X61865Y114999D01*
X62871Y114583D01*
X63950Y114441D01*
X65029Y114583D01*
X66035Y114999D01*
X66898Y115662D01*
X67561Y116525D01*
X67977Y117531D01*
X68120Y118610D01*
X67977Y119689D01*
X67561Y120695D01*
X66898Y121558D01*
X66035Y122221D01*
X65029Y122637D01*
X63950Y122780D01*
D02*
G37*
G36*
X231900Y116922D02*
X231203Y116784D01*
X230611Y116389D01*
X230216Y115797D01*
X230078Y115100D01*
X230216Y114403D01*
X230611Y113811D01*
X231203Y113416D01*
X231900Y113278D01*
X232597Y113416D01*
X233189Y113811D01*
X233584Y114403D01*
X233722Y115100D01*
X233584Y115797D01*
X233189Y116389D01*
X232597Y116784D01*
X231900Y116922D01*
D02*
G37*
G36*
X339300Y114822D02*
X338603Y114684D01*
X338011Y114289D01*
X337616Y113697D01*
X337478Y113000D01*
X337616Y112303D01*
X338011Y111711D01*
X338603Y111316D01*
X339300Y111178D01*
X339997Y111316D01*
X340589Y111711D01*
X340984Y112303D01*
X341122Y113000D01*
X340984Y113697D01*
X340589Y114289D01*
X339997Y114684D01*
X339300Y114822D01*
D02*
G37*
G36*
X326300Y117121D02*
X325285Y116987D01*
X324340Y116596D01*
X323528Y115972D01*
X322904Y115161D01*
X322513Y114215D01*
X322379Y113200D01*
X322513Y112185D01*
X322904Y111240D01*
X323528Y110427D01*
X324340Y109804D01*
X325285Y109413D01*
X326300Y109279D01*
X327315Y109413D01*
X328260Y109804D01*
X329072Y110427D01*
X329696Y111240D01*
X330087Y112185D01*
X330221Y113200D01*
X330087Y114215D01*
X329696Y115161D01*
X329072Y115972D01*
X328260Y116596D01*
X327315Y116987D01*
X326300Y117121D01*
D02*
G37*
G36*
X232100Y109222D02*
X231403Y109084D01*
X230811Y108689D01*
X230416Y108097D01*
X230278Y107400D01*
X230416Y106703D01*
X230811Y106111D01*
X231403Y105716D01*
X232100Y105578D01*
X232797Y105716D01*
X233389Y106111D01*
X233784Y106703D01*
X233922Y107400D01*
X233784Y108097D01*
X233389Y108689D01*
X232797Y109084D01*
X232100Y109222D01*
D02*
G37*
G36*
X379200Y108622D02*
X378503Y108484D01*
X377911Y108089D01*
X377516Y107497D01*
X377378Y106800D01*
X377516Y106103D01*
X377911Y105511D01*
X378503Y105116D01*
X379200Y104978D01*
X379897Y105116D01*
X380489Y105511D01*
X380884Y106103D01*
X381022Y106800D01*
X380884Y107497D01*
X380489Y108089D01*
X379897Y108484D01*
X379200Y108622D01*
D02*
G37*
G36*
X198084Y112744D02*
X189816D01*
Y104476D01*
X198084D01*
Y112744D01*
D02*
G37*
G36*
X138084D02*
X129816D01*
Y104476D01*
X138084D01*
Y112744D01*
D02*
G37*
G36*
X183950Y112779D02*
X182871Y112637D01*
X181865Y112221D01*
X181002Y111558D01*
X180339Y110695D01*
X179923Y109689D01*
X179780Y108610D01*
X179923Y107531D01*
X180339Y106525D01*
X181002Y105662D01*
X181865Y104999D01*
X182871Y104583D01*
X183950Y104440D01*
X185029Y104583D01*
X186035Y104999D01*
X186898Y105662D01*
X187561Y106525D01*
X187977Y107531D01*
X188119Y108610D01*
X187977Y109689D01*
X187561Y110695D01*
X186898Y111558D01*
X186035Y112221D01*
X185029Y112637D01*
X183950Y112779D01*
D02*
G37*
G36*
X173950D02*
X172871Y112637D01*
X171865Y112221D01*
X171002Y111558D01*
X170339Y110695D01*
X169923Y109689D01*
X169781Y108610D01*
X169923Y107531D01*
X170339Y106525D01*
X171002Y105662D01*
X171865Y104999D01*
X172871Y104583D01*
X173950Y104440D01*
X175029Y104583D01*
X176035Y104999D01*
X176898Y105662D01*
X177561Y106525D01*
X177977Y107531D01*
X178120Y108610D01*
X177977Y109689D01*
X177561Y110695D01*
X176898Y111558D01*
X176035Y112221D01*
X175029Y112637D01*
X173950Y112779D01*
D02*
G37*
G36*
X163950D02*
X162871Y112637D01*
X161865Y112221D01*
X161002Y111558D01*
X160339Y110695D01*
X159923Y109689D01*
X159781Y108610D01*
X159923Y107531D01*
X160339Y106525D01*
X161002Y105662D01*
X161865Y104999D01*
X162871Y104583D01*
X163950Y104440D01*
X165029Y104583D01*
X166035Y104999D01*
X166898Y105662D01*
X167561Y106525D01*
X167977Y107531D01*
X168120Y108610D01*
X167977Y109689D01*
X167561Y110695D01*
X166898Y111558D01*
X166035Y112221D01*
X165029Y112637D01*
X163950Y112779D01*
D02*
G37*
G36*
X153950D02*
X152871Y112637D01*
X151865Y112221D01*
X151002Y111558D01*
X150339Y110695D01*
X149923Y109689D01*
X149780Y108610D01*
X149923Y107531D01*
X150339Y106525D01*
X151002Y105662D01*
X151865Y104999D01*
X152871Y104583D01*
X153950Y104440D01*
X155029Y104583D01*
X156035Y104999D01*
X156898Y105662D01*
X157561Y106525D01*
X157977Y107531D01*
X158119Y108610D01*
X157977Y109689D01*
X157561Y110695D01*
X156898Y111558D01*
X156035Y112221D01*
X155029Y112637D01*
X153950Y112779D01*
D02*
G37*
G36*
X123950D02*
X122871Y112637D01*
X121865Y112221D01*
X121002Y111558D01*
X120339Y110695D01*
X119923Y109689D01*
X119781Y108610D01*
X119923Y107531D01*
X120339Y106525D01*
X121002Y105662D01*
X121865Y104999D01*
X122871Y104583D01*
X123950Y104440D01*
X125029Y104583D01*
X126035Y104999D01*
X126898Y105662D01*
X127561Y106525D01*
X127977Y107531D01*
X128120Y108610D01*
X127977Y109689D01*
X127561Y110695D01*
X126898Y111558D01*
X126035Y112221D01*
X125029Y112637D01*
X123950Y112779D01*
D02*
G37*
G36*
X113950D02*
X112871Y112637D01*
X111865Y112221D01*
X111002Y111558D01*
X110339Y110695D01*
X109923Y109689D01*
X109781Y108610D01*
X109923Y107531D01*
X110339Y106525D01*
X111002Y105662D01*
X111865Y104999D01*
X112871Y104583D01*
X113950Y104440D01*
X115029Y104583D01*
X116035Y104999D01*
X116898Y105662D01*
X117561Y106525D01*
X117977Y107531D01*
X118120Y108610D01*
X117977Y109689D01*
X117561Y110695D01*
X116898Y111558D01*
X116035Y112221D01*
X115029Y112637D01*
X113950Y112779D01*
D02*
G37*
G36*
X103950D02*
X102871Y112637D01*
X101865Y112221D01*
X101002Y111558D01*
X100339Y110695D01*
X99923Y109689D01*
X99780Y108610D01*
X99923Y107531D01*
X100339Y106525D01*
X101002Y105662D01*
X101865Y104999D01*
X102871Y104583D01*
X103950Y104440D01*
X105029Y104583D01*
X106035Y104999D01*
X106898Y105662D01*
X107561Y106525D01*
X107977Y107531D01*
X108119Y108610D01*
X107977Y109689D01*
X107561Y110695D01*
X106898Y111558D01*
X106035Y112221D01*
X105029Y112637D01*
X103950Y112779D01*
D02*
G37*
G36*
X93950D02*
X92871Y112637D01*
X91865Y112221D01*
X91002Y111558D01*
X90339Y110695D01*
X89923Y109689D01*
X89780Y108610D01*
X89923Y107531D01*
X90339Y106525D01*
X91002Y105662D01*
X91865Y104999D01*
X92871Y104583D01*
X93950Y104440D01*
X95029Y104583D01*
X96035Y104999D01*
X96898Y105662D01*
X97561Y106525D01*
X97977Y107531D01*
X98119Y108610D01*
X97977Y109689D01*
X97561Y110695D01*
X96898Y111558D01*
X96035Y112221D01*
X95029Y112637D01*
X93950Y112779D01*
D02*
G37*
G36*
X83950D02*
X82871Y112637D01*
X81865Y112221D01*
X81002Y111558D01*
X80339Y110695D01*
X79923Y109689D01*
X79781Y108610D01*
X79923Y107531D01*
X80339Y106525D01*
X81002Y105662D01*
X81865Y104999D01*
X82871Y104583D01*
X83950Y104440D01*
X85029Y104583D01*
X86035Y104999D01*
X86898Y105662D01*
X87561Y106525D01*
X87977Y107531D01*
X88120Y108610D01*
X87977Y109689D01*
X87561Y110695D01*
X86898Y111558D01*
X86035Y112221D01*
X85029Y112637D01*
X83950Y112779D01*
D02*
G37*
G36*
X73950D02*
X72871Y112637D01*
X71865Y112221D01*
X71002Y111558D01*
X70339Y110695D01*
X69923Y109689D01*
X69780Y108610D01*
X69923Y107531D01*
X70339Y106525D01*
X71002Y105662D01*
X71865Y104999D01*
X72871Y104583D01*
X73950Y104440D01*
X75029Y104583D01*
X76035Y104999D01*
X76898Y105662D01*
X77561Y106525D01*
X77977Y107531D01*
X78119Y108610D01*
X77977Y109689D01*
X77561Y110695D01*
X76898Y111558D01*
X76035Y112221D01*
X75029Y112637D01*
X73950Y112779D01*
D02*
G37*
G36*
X63950D02*
X62871Y112637D01*
X61865Y112221D01*
X61002Y111558D01*
X60339Y110695D01*
X59923Y109689D01*
X59781Y108610D01*
X59923Y107531D01*
X60339Y106525D01*
X61002Y105662D01*
X61865Y104999D01*
X62871Y104583D01*
X63950Y104440D01*
X65029Y104583D01*
X66035Y104999D01*
X66898Y105662D01*
X67561Y106525D01*
X67977Y107531D01*
X68120Y108610D01*
X67977Y109689D01*
X67561Y110695D01*
X66898Y111558D01*
X66035Y112221D01*
X65029Y112637D01*
X63950Y112779D01*
D02*
G37*
G36*
X401400Y102697D02*
X400703Y102559D01*
X400111Y102164D01*
X399716Y101572D01*
X399578Y100875D01*
X399716Y100178D01*
X400111Y99586D01*
X400703Y99191D01*
X401400Y99053D01*
X402097Y99191D01*
X402689Y99586D01*
X403084Y100178D01*
X403222Y100875D01*
X403084Y101572D01*
X402689Y102164D01*
X402097Y102559D01*
X401400Y102697D01*
D02*
G37*
G36*
X337951Y100972D02*
X337253Y100833D01*
X336662Y100438D01*
X336267Y99847D01*
X336128Y99149D01*
X336267Y98452D01*
X336662Y97861D01*
X337253Y97466D01*
X337951Y97327D01*
X338648Y97466D01*
X339239Y97861D01*
X339634Y98452D01*
X339773Y99149D01*
X339634Y99847D01*
X339239Y100438D01*
X338648Y100833D01*
X337951Y100972D01*
D02*
G37*
G36*
X233000Y100822D02*
X232303Y100684D01*
X231711Y100289D01*
X231316Y99697D01*
X231178Y99000D01*
X231316Y98303D01*
X231711Y97711D01*
X232303Y97316D01*
X233000Y97178D01*
X233697Y97316D01*
X234289Y97711D01*
X234684Y98303D01*
X234822Y99000D01*
X234684Y99697D01*
X234289Y100289D01*
X233697Y100684D01*
X233000Y100822D01*
D02*
G37*
G36*
X326300Y104421D02*
X325285Y104287D01*
X324340Y103896D01*
X323528Y103272D01*
X322904Y102461D01*
X322513Y101515D01*
X322379Y100500D01*
X322513Y99485D01*
X322904Y98540D01*
X323528Y97728D01*
X324340Y97104D01*
X325285Y96713D01*
X326300Y96579D01*
X327315Y96713D01*
X328260Y97104D01*
X329072Y97728D01*
X329696Y98540D01*
X330087Y99485D01*
X330221Y100500D01*
X330087Y101515D01*
X329696Y102461D01*
X329072Y103272D01*
X328260Y103896D01*
X327315Y104287D01*
X326300Y104421D01*
D02*
G37*
G36*
X359000Y96522D02*
X358303Y96384D01*
X357711Y95989D01*
X357316Y95397D01*
X357178Y94700D01*
X357316Y94003D01*
X357711Y93411D01*
X358303Y93016D01*
X359000Y92878D01*
X359697Y93016D01*
X360289Y93411D01*
X360684Y94003D01*
X360822Y94700D01*
X360684Y95397D01*
X360289Y95989D01*
X359697Y96384D01*
X359000Y96522D01*
D02*
G37*
G36*
X232000Y91822D02*
X231303Y91684D01*
X230711Y91289D01*
X230316Y90697D01*
X230178Y90000D01*
X230316Y89303D01*
X230711Y88711D01*
X231303Y88316D01*
X232000Y88178D01*
X232697Y88316D01*
X233289Y88711D01*
X233684Y89303D01*
X233822Y90000D01*
X233684Y90697D01*
X233289Y91289D01*
X232697Y91684D01*
X232000Y91822D01*
D02*
G37*
G36*
X326300Y94421D02*
X325285Y94287D01*
X324340Y93896D01*
X323528Y93273D01*
X322904Y92461D01*
X322513Y91515D01*
X322379Y90500D01*
X322513Y89485D01*
X322904Y88539D01*
X323528Y87727D01*
X324340Y87104D01*
X325285Y86713D01*
X326300Y86579D01*
X327315Y86713D01*
X328260Y87104D01*
X329072Y87727D01*
X329696Y88539D01*
X330087Y89485D01*
X330221Y90500D01*
X330087Y91515D01*
X329696Y92461D01*
X329072Y93273D01*
X328260Y93896D01*
X327315Y94287D01*
X326300Y94421D01*
D02*
G37*
G36*
X52500Y93321D02*
X51485Y93187D01*
X50539Y92796D01*
X49727Y92172D01*
X49104Y91360D01*
X48713Y90415D01*
X48579Y89400D01*
X48713Y88385D01*
X49104Y87440D01*
X49727Y86628D01*
X50539Y86004D01*
X51485Y85613D01*
X52500Y85479D01*
X53515Y85613D01*
X54461Y86004D01*
X55273Y86628D01*
X55896Y87440D01*
X56287Y88385D01*
X56421Y89400D01*
X56287Y90415D01*
X55896Y91360D01*
X55273Y92172D01*
X54461Y92796D01*
X53515Y93187D01*
X52500Y93321D01*
D02*
G37*
G36*
X234000Y87822D02*
X233303Y87684D01*
X232711Y87289D01*
X232316Y86697D01*
X232178Y86000D01*
X232316Y85303D01*
X232711Y84711D01*
X233303Y84316D01*
X234000Y84178D01*
X234697Y84316D01*
X235289Y84711D01*
X235684Y85303D01*
X235822Y86000D01*
X235684Y86697D01*
X235289Y87289D01*
X234697Y87684D01*
X234000Y87822D01*
D02*
G37*
G36*
X180811Y87612D02*
X180057Y87513D01*
X179355Y87222D01*
X178752Y86759D01*
X178289Y86156D01*
X177998Y85454D01*
X177899Y84700D01*
X177998Y83946D01*
X178289Y83244D01*
X178752Y82641D01*
X179355Y82178D01*
X180057Y81887D01*
X180811Y81788D01*
X181565Y81887D01*
X182267Y82178D01*
X182870Y82641D01*
X183333Y83244D01*
X183624Y83946D01*
X183723Y84700D01*
X183624Y85454D01*
X183333Y86156D01*
X182870Y86759D01*
X182267Y87222D01*
X181565Y87513D01*
X180811Y87612D01*
D02*
G37*
G36*
X157189D02*
X156435Y87513D01*
X155733Y87222D01*
X155130Y86759D01*
X154667Y86156D01*
X154376Y85454D01*
X154277Y84700D01*
X154376Y83946D01*
X154667Y83244D01*
X155130Y82641D01*
X155733Y82178D01*
X156435Y81887D01*
X157189Y81788D01*
X157943Y81887D01*
X158645Y82178D01*
X159248Y82641D01*
X159711Y83244D01*
X160002Y83946D01*
X160101Y84700D01*
X160002Y85454D01*
X159711Y86156D01*
X159248Y86759D01*
X158645Y87222D01*
X157943Y87513D01*
X157189Y87612D01*
D02*
G37*
G36*
X293811Y86423D02*
X293057Y86324D01*
X292355Y86033D01*
X291752Y85570D01*
X291289Y84967D01*
X290998Y84265D01*
X290899Y83511D01*
X290998Y82757D01*
X291289Y82055D01*
X291752Y81452D01*
X292355Y80989D01*
X293057Y80698D01*
X293811Y80599D01*
X294565Y80698D01*
X295267Y80989D01*
X295870Y81452D01*
X296333Y82055D01*
X296624Y82757D01*
X296723Y83511D01*
X296624Y84265D01*
X296333Y84967D01*
X295870Y85570D01*
X295267Y86033D01*
X294565Y86324D01*
X293811Y86423D01*
D02*
G37*
G36*
X270189D02*
X269435Y86324D01*
X268733Y86033D01*
X268130Y85570D01*
X267667Y84967D01*
X267376Y84265D01*
X267277Y83511D01*
X267376Y82757D01*
X267667Y82055D01*
X268130Y81452D01*
X268733Y80989D01*
X269435Y80698D01*
X270189Y80599D01*
X270943Y80698D01*
X271645Y80989D01*
X272248Y81452D01*
X272711Y82055D01*
X273002Y82757D01*
X273101Y83511D01*
X273002Y84265D01*
X272711Y84967D01*
X272248Y85570D01*
X271645Y86033D01*
X270943Y86324D01*
X270189Y86423D01*
D02*
G37*
G36*
X72000Y83222D02*
X71303Y83084D01*
X70711Y82689D01*
X70316Y82097D01*
X70178Y81400D01*
X70316Y80703D01*
X70711Y80111D01*
X71303Y79716D01*
X72000Y79578D01*
X72697Y79716D01*
X73289Y80111D01*
X73684Y80703D01*
X73822Y81400D01*
X73684Y82097D01*
X73289Y82689D01*
X72697Y83084D01*
X72000Y83222D01*
D02*
G37*
G36*
X234000Y82822D02*
X233303Y82684D01*
X232711Y82289D01*
X232316Y81697D01*
X232178Y81000D01*
X232316Y80303D01*
X232711Y79711D01*
X233303Y79316D01*
X234000Y79178D01*
X234697Y79316D01*
X235289Y79711D01*
X235684Y80303D01*
X235822Y81000D01*
X235684Y81697D01*
X235289Y82289D01*
X234697Y82684D01*
X234000Y82822D01*
D02*
G37*
G36*
X401400Y82072D02*
X400703Y81934D01*
X400111Y81539D01*
X399716Y80947D01*
X399578Y80250D01*
X399716Y79553D01*
X400111Y78961D01*
X400703Y78566D01*
X401400Y78428D01*
X402097Y78566D01*
X402689Y78961D01*
X403084Y79553D01*
X403222Y80250D01*
X403084Y80947D01*
X402689Y81539D01*
X402097Y81934D01*
X401400Y82072D01*
D02*
G37*
G36*
X169000Y85324D02*
X167881Y85177D01*
X166838Y84745D01*
X165942Y84058D01*
X165255Y83162D01*
X164823Y82119D01*
X164676Y81000D01*
X164823Y79881D01*
X165255Y78838D01*
X165942Y77942D01*
X166838Y77255D01*
X167881Y76823D01*
X169000Y76676D01*
X170119Y76823D01*
X171162Y77255D01*
X172058Y77942D01*
X172745Y78838D01*
X173177Y79881D01*
X173324Y81000D01*
X173177Y82119D01*
X172745Y83162D01*
X172058Y84058D01*
X171162Y84745D01*
X170119Y85177D01*
X169000Y85324D01*
D02*
G37*
G36*
X330187Y84387D02*
X322413D01*
Y76613D01*
X330187D01*
Y84387D01*
D02*
G37*
G36*
X82000Y79822D02*
X81303Y79684D01*
X80711Y79289D01*
X80316Y78697D01*
X80178Y78000D01*
X80316Y77303D01*
X80711Y76711D01*
X81303Y76316D01*
X82000Y76178D01*
X82697Y76316D01*
X83289Y76711D01*
X83684Y77303D01*
X83822Y78000D01*
X83684Y78697D01*
X83289Y79289D01*
X82697Y79684D01*
X82000Y79822D01*
D02*
G37*
G36*
X56387Y83287D02*
X48613D01*
Y75513D01*
X56387D01*
Y83287D01*
D02*
G37*
G36*
X282000Y84135D02*
X280881Y83988D01*
X279838Y83556D01*
X278942Y82869D01*
X278255Y81973D01*
X277823Y80930D01*
X277676Y79811D01*
X277823Y78692D01*
X278255Y77649D01*
X278942Y76753D01*
X279838Y76066D01*
X280881Y75634D01*
X282000Y75487D01*
X283119Y75634D01*
X284162Y76066D01*
X285058Y76753D01*
X285745Y77649D01*
X286177Y78692D01*
X286324Y79811D01*
X286177Y80930D01*
X285745Y81973D01*
X285058Y82869D01*
X284162Y83556D01*
X283119Y83988D01*
X282000Y84135D01*
D02*
G37*
G36*
X243000Y77822D02*
X242303Y77684D01*
X241711Y77289D01*
X241316Y76697D01*
X241178Y76000D01*
X241316Y75303D01*
X241711Y74711D01*
X242303Y74316D01*
X243000Y74178D01*
X243697Y74316D01*
X244289Y74711D01*
X244684Y75303D01*
X244822Y76000D01*
X244684Y76697D01*
X244289Y77289D01*
X243697Y77684D01*
X243000Y77822D01*
D02*
G37*
G36*
X316600Y75022D02*
X315903Y74884D01*
X315311Y74489D01*
X314916Y73897D01*
X314778Y73200D01*
X314916Y72503D01*
X315311Y71911D01*
X315903Y71516D01*
X316600Y71378D01*
X317297Y71516D01*
X317889Y71911D01*
X318284Y72503D01*
X318422Y73200D01*
X318284Y73897D01*
X317889Y74489D01*
X317297Y74884D01*
X316600Y75022D01*
D02*
G37*
G36*
X92150Y83781D02*
X91258Y83603D01*
X90501Y83098D01*
X89995Y82341D01*
X89818Y81448D01*
Y78914D01*
X84201Y73298D01*
X83695Y72541D01*
X83518Y71648D01*
X83695Y70756D01*
X84201Y69999D01*
X84957Y69494D01*
X85850Y69316D01*
X86743Y69494D01*
X87499Y69999D01*
X93799Y76299D01*
X94305Y77056D01*
X94482Y77948D01*
Y81448D01*
X94305Y82341D01*
X93799Y83098D01*
X93042Y83603D01*
X92150Y83781D01*
D02*
G37*
G36*
X283000Y72407D02*
Y69000D01*
X286407D01*
X286384Y69175D01*
X285931Y70269D01*
X285209Y71209D01*
X284269Y71931D01*
X283175Y72384D01*
X283000Y72407D01*
D02*
G37*
G36*
X281000D02*
X280825Y72384D01*
X279731Y71931D01*
X278791Y71209D01*
X278069Y70269D01*
X277616Y69175D01*
X277593Y69000D01*
X281000D01*
Y72407D01*
D02*
G37*
G36*
X169000Y73513D02*
X167881Y73366D01*
X166838Y72934D01*
X165942Y72247D01*
X165255Y71351D01*
X164823Y70308D01*
X164676Y69189D01*
X164823Y68070D01*
X165255Y67027D01*
X165942Y66131D01*
X166838Y65444D01*
X167881Y65012D01*
X169000Y64865D01*
X170119Y65012D01*
X171162Y65444D01*
X172058Y66131D01*
X172745Y67027D01*
X173177Y68070D01*
X173324Y69189D01*
X173177Y70308D01*
X172745Y71351D01*
X172058Y72247D01*
X171162Y72934D01*
X170119Y73366D01*
X169000Y73513D01*
D02*
G37*
G36*
X246000Y67822D02*
X245303Y67684D01*
X244711Y67289D01*
X244316Y66697D01*
X244178Y66000D01*
X244316Y65303D01*
X244711Y64711D01*
X245303Y64316D01*
X246000Y64178D01*
X246697Y64316D01*
X247289Y64711D01*
X247684Y65303D01*
X247822Y66000D01*
X247684Y66697D01*
X247289Y67289D01*
X246697Y67684D01*
X246000Y67822D01*
D02*
G37*
G36*
X286407Y67000D02*
X283000D01*
Y63593D01*
X283175Y63616D01*
X284269Y64069D01*
X285209Y64791D01*
X285931Y65731D01*
X286384Y66825D01*
X286407Y67000D01*
D02*
G37*
G36*
X281000D02*
X277593D01*
X277616Y66825D01*
X278069Y65731D01*
X278791Y64791D01*
X279731Y64069D01*
X280825Y63616D01*
X281000Y63593D01*
Y67000D01*
D02*
G37*
G36*
X195800Y76837D02*
X190000D01*
X188489Y76638D01*
X187081Y76055D01*
X185872Y75128D01*
X184945Y73919D01*
X184362Y72511D01*
X184163Y71000D01*
X184362Y69489D01*
X184945Y68081D01*
X185872Y66872D01*
X187081Y65945D01*
X188489Y65362D01*
X189566Y65220D01*
Y63705D01*
X189066Y63437D01*
X188697Y63684D01*
X188000Y63822D01*
X187303Y63684D01*
X186711Y63289D01*
X186316Y62697D01*
X186178Y62000D01*
X186316Y61303D01*
X186711Y60711D01*
X187303Y60316D01*
X188000Y60178D01*
X188697Y60316D01*
X189066Y60563D01*
X189566Y60295D01*
Y50505D01*
X189362Y50011D01*
X189330Y49772D01*
X188875Y49565D01*
X188697Y49684D01*
X188000Y49822D01*
X187303Y49684D01*
X186711Y49289D01*
X186316Y48697D01*
X186178Y48000D01*
X186316Y47303D01*
X186711Y46711D01*
X187303Y46316D01*
X188000Y46178D01*
X188663Y46309D01*
X188774Y46305D01*
X189163Y46097D01*
Y44228D01*
X188983Y44154D01*
X187774Y43226D01*
X186846Y42017D01*
X186263Y40609D01*
X186064Y39098D01*
X186263Y37588D01*
X186846Y36180D01*
X187774Y34971D01*
X188983Y34043D01*
X190391Y33460D01*
X191902Y33261D01*
X288891D01*
X288989Y32771D01*
X288963Y32760D01*
X287272Y31724D01*
X285764Y30436D01*
X284476Y28928D01*
X283440Y27237D01*
X282681Y25405D01*
X282218Y23477D01*
X282063Y21500D01*
X282218Y19523D01*
X282681Y17595D01*
X283440Y15763D01*
X284476Y14072D01*
X285764Y12564D01*
X287272Y11276D01*
X288963Y10240D01*
X290795Y9481D01*
X292723Y9018D01*
X294700Y8863D01*
X296677Y9018D01*
X298605Y9481D01*
X300437Y10240D01*
X302128Y11276D01*
X303636Y12564D01*
X304924Y14072D01*
X305960Y15763D01*
X306719Y17595D01*
X307182Y19523D01*
X307337Y21500D01*
X307182Y23477D01*
X306719Y25405D01*
X306708Y25431D01*
X307124Y25709D01*
X308960Y23872D01*
X310169Y22945D01*
X311577Y22362D01*
X313088Y22163D01*
X360000D01*
X361511Y22362D01*
X362919Y22945D01*
X364128Y23872D01*
X365055Y25081D01*
X365638Y26489D01*
X365837Y28000D01*
X365638Y29511D01*
X365055Y30919D01*
X364128Y32128D01*
X362919Y33055D01*
X361511Y33638D01*
X360000Y33837D01*
X315506D01*
X306117Y43226D01*
X304908Y44154D01*
X303500Y44737D01*
X301990Y44936D01*
X200837D01*
Y46899D01*
X201042Y47393D01*
X201241Y48904D01*
Y69012D01*
X201438Y69489D01*
X201637Y71000D01*
X201438Y72511D01*
X200855Y73919D01*
X199928Y75128D01*
X198719Y76055D01*
X197311Y76638D01*
X195800Y76837D01*
D02*
G37*
G36*
X298900Y66522D02*
X298203Y66384D01*
X297611Y65989D01*
X297216Y65397D01*
X297078Y64700D01*
X297216Y64003D01*
X297611Y63411D01*
X298203Y63016D01*
X298900Y62878D01*
X299597Y63016D01*
X300189Y63411D01*
X300584Y64003D01*
X300722Y64700D01*
X300584Y65397D01*
X300189Y65989D01*
X299597Y66384D01*
X298900Y66522D01*
D02*
G37*
G36*
X56500Y66022D02*
X55803Y65884D01*
X55211Y65489D01*
X54816Y64897D01*
X54678Y64200D01*
X54816Y63503D01*
X55211Y62911D01*
X55803Y62516D01*
X56500Y62378D01*
X57197Y62516D01*
X57789Y62911D01*
X58184Y63503D01*
X58322Y64200D01*
X58184Y64897D01*
X57789Y65489D01*
X57197Y65884D01*
X56500Y66022D01*
D02*
G37*
G36*
X51000Y65822D02*
X50303Y65684D01*
X49711Y65289D01*
X49316Y64697D01*
X49178Y64000D01*
X49316Y63303D01*
X49711Y62711D01*
X50303Y62316D01*
X51000Y62178D01*
X51697Y62316D01*
X52289Y62711D01*
X52684Y63303D01*
X52822Y64000D01*
X52684Y64697D01*
X52289Y65289D01*
X51697Y65684D01*
X51000Y65822D01*
D02*
G37*
G36*
X112720Y69522D02*
X112023Y69384D01*
X111431Y68989D01*
X111036Y68397D01*
X110898Y67700D01*
X111036Y67003D01*
X111431Y66411D01*
X112023Y66016D01*
X112366Y65948D01*
X112573Y65907D01*
Y65397D01*
X112363Y65355D01*
X112003Y65284D01*
X111411Y64889D01*
X111016Y64297D01*
X110878Y63600D01*
X111016Y62903D01*
X111411Y62311D01*
X112003Y61916D01*
X112700Y61778D01*
X113397Y61916D01*
X113989Y62311D01*
X114384Y62903D01*
X114522Y63600D01*
X114384Y64297D01*
X113989Y64889D01*
X113397Y65284D01*
X113054Y65352D01*
X112847Y65393D01*
Y65903D01*
X113057Y65945D01*
X113417Y66016D01*
X114009Y66411D01*
X114404Y67003D01*
X114542Y67700D01*
X114404Y68397D01*
X114009Y68989D01*
X113417Y69384D01*
X112720Y69522D01*
D02*
G37*
G36*
X108280D02*
X107583Y69384D01*
X106991Y68989D01*
X106596Y68397D01*
X106458Y67700D01*
X106596Y67003D01*
X106991Y66411D01*
X107583Y66016D01*
X107926Y65948D01*
X108133Y65907D01*
Y65397D01*
X107923Y65355D01*
X107563Y65284D01*
X106971Y64889D01*
X106576Y64297D01*
X106438Y63600D01*
X106576Y62903D01*
X106971Y62311D01*
X107563Y61916D01*
X108260Y61778D01*
X108957Y61916D01*
X109549Y62311D01*
X109944Y62903D01*
X110082Y63600D01*
X109944Y64297D01*
X109549Y64889D01*
X108957Y65284D01*
X108614Y65352D01*
X108407Y65393D01*
Y65903D01*
X108617Y65945D01*
X108977Y66016D01*
X109569Y66411D01*
X109964Y67003D01*
X110102Y67700D01*
X109964Y68397D01*
X109569Y68989D01*
X108977Y69384D01*
X108280Y69522D01*
D02*
G37*
G36*
X103840D02*
X103143Y69384D01*
X102551Y68989D01*
X102156Y68397D01*
X102018Y67700D01*
X102156Y67003D01*
X102551Y66411D01*
X103143Y66016D01*
X103486Y65948D01*
X103693Y65907D01*
Y65397D01*
X103483Y65355D01*
X103123Y65284D01*
X102531Y64889D01*
X102136Y64297D01*
X101998Y63600D01*
X102136Y62903D01*
X102531Y62311D01*
X103123Y61916D01*
X103820Y61778D01*
X104517Y61916D01*
X105109Y62311D01*
X105504Y62903D01*
X105642Y63600D01*
X105504Y64297D01*
X105109Y64889D01*
X104517Y65284D01*
X104174Y65352D01*
X103967Y65393D01*
Y65903D01*
X104177Y65945D01*
X104537Y66016D01*
X105129Y66411D01*
X105524Y67003D01*
X105662Y67700D01*
X105524Y68397D01*
X105129Y68989D01*
X104537Y69384D01*
X103840Y69522D01*
D02*
G37*
G36*
X99400D02*
X98703Y69384D01*
X98111Y68989D01*
X97716Y68397D01*
X97578Y67700D01*
X97716Y67003D01*
X98111Y66411D01*
X98703Y66016D01*
X99046Y65948D01*
X99253Y65907D01*
Y65397D01*
X99043Y65355D01*
X98683Y65284D01*
X98091Y64889D01*
X97696Y64297D01*
X97558Y63600D01*
X97696Y62903D01*
X98091Y62311D01*
X98683Y61916D01*
X99380Y61778D01*
X100077Y61916D01*
X100669Y62311D01*
X101064Y62903D01*
X101202Y63600D01*
X101064Y64297D01*
X100669Y64889D01*
X100077Y65284D01*
X99734Y65352D01*
X99527Y65393D01*
Y65903D01*
X99737Y65945D01*
X100097Y66016D01*
X100689Y66411D01*
X101084Y67003D01*
X101222Y67700D01*
X101084Y68397D01*
X100689Y68989D01*
X100097Y69384D01*
X99400Y69522D01*
D02*
G37*
G36*
X94960D02*
X94263Y69384D01*
X93671Y68989D01*
X93276Y68397D01*
X93138Y67700D01*
X93276Y67003D01*
X93671Y66411D01*
X94263Y66016D01*
X94606Y65948D01*
X94813Y65907D01*
Y65397D01*
X94603Y65355D01*
X94243Y65284D01*
X93651Y64889D01*
X93256Y64297D01*
X93118Y63600D01*
X93256Y62903D01*
X93651Y62311D01*
X94243Y61916D01*
X94940Y61778D01*
X95637Y61916D01*
X96229Y62311D01*
X96624Y62903D01*
X96762Y63600D01*
X96624Y64297D01*
X96229Y64889D01*
X95637Y65284D01*
X95294Y65352D01*
X95087Y65393D01*
Y65903D01*
X95297Y65945D01*
X95657Y66016D01*
X96249Y66411D01*
X96644Y67003D01*
X96782Y67700D01*
X96644Y68397D01*
X96249Y68989D01*
X95657Y69384D01*
X94960Y69522D01*
D02*
G37*
G36*
X90520D02*
X89823Y69384D01*
X89231Y68989D01*
X88836Y68397D01*
X88698Y67700D01*
X88836Y67003D01*
X89231Y66411D01*
X89823Y66016D01*
X90166Y65948D01*
X90373Y65907D01*
Y65397D01*
X90163Y65355D01*
X89803Y65284D01*
X89211Y64889D01*
X88816Y64297D01*
X88678Y63600D01*
X88816Y62903D01*
X89211Y62311D01*
X89803Y61916D01*
X90500Y61778D01*
X91197Y61916D01*
X91789Y62311D01*
X92184Y62903D01*
X92322Y63600D01*
X92184Y64297D01*
X91789Y64889D01*
X91197Y65284D01*
X90854Y65352D01*
X90647Y65393D01*
Y65903D01*
X90857Y65945D01*
X91217Y66016D01*
X91809Y66411D01*
X92204Y67003D01*
X92342Y67700D01*
X92204Y68397D01*
X91809Y68989D01*
X91217Y69384D01*
X90520Y69522D01*
D02*
G37*
G36*
X324700Y64622D02*
X324003Y64484D01*
X323411Y64089D01*
X323016Y63497D01*
X322878Y62800D01*
X323016Y62103D01*
X323411Y61511D01*
X324003Y61116D01*
X324700Y60978D01*
X325397Y61116D01*
X325989Y61511D01*
X326384Y62103D01*
X326522Y62800D01*
X326384Y63497D01*
X325989Y64089D01*
X325397Y64484D01*
X324700Y64622D01*
D02*
G37*
G36*
X376800Y63022D02*
X376103Y62884D01*
X375511Y62489D01*
X375116Y61897D01*
X374978Y61200D01*
X375116Y60503D01*
X375511Y59911D01*
X376103Y59516D01*
X376800Y59378D01*
X377497Y59516D01*
X378089Y59911D01*
X378484Y60503D01*
X378622Y61200D01*
X378484Y61897D01*
X378089Y62489D01*
X377497Y62884D01*
X376800Y63022D01*
D02*
G37*
G36*
X401400Y61447D02*
X400703Y61309D01*
X400111Y60914D01*
X399716Y60322D01*
X399578Y59625D01*
X399716Y58928D01*
X400111Y58336D01*
X400703Y57941D01*
X401400Y57803D01*
X402097Y57941D01*
X402689Y58336D01*
X403084Y58928D01*
X403222Y59625D01*
X403084Y60322D01*
X402689Y60914D01*
X402097Y61309D01*
X401400Y61447D01*
D02*
G37*
G36*
X301700Y61322D02*
X301003Y61184D01*
X300411Y60789D01*
X300016Y60197D01*
X299878Y59500D01*
X300016Y58803D01*
X300411Y58211D01*
X301003Y57816D01*
X301700Y57678D01*
X302397Y57816D01*
X302989Y58211D01*
X303384Y58803D01*
X303522Y59500D01*
X303384Y60197D01*
X302989Y60789D01*
X302397Y61184D01*
X301700Y61322D01*
D02*
G37*
G36*
X157300Y55622D02*
X156603Y55484D01*
X156011Y55089D01*
X155616Y54497D01*
X155478Y53800D01*
X155616Y53103D01*
X156011Y52511D01*
X156603Y52116D01*
X157300Y51978D01*
X157997Y52116D01*
X158589Y52511D01*
X158984Y53103D01*
X159122Y53800D01*
X158984Y54497D01*
X158589Y55089D01*
X157997Y55484D01*
X157300Y55622D01*
D02*
G37*
G36*
X151500Y55522D02*
X150803Y55384D01*
X150211Y54989D01*
X149816Y54397D01*
X149678Y53700D01*
X149816Y53003D01*
X150211Y52411D01*
X150803Y52016D01*
X151500Y51878D01*
X152197Y52016D01*
X152789Y52411D01*
X153184Y53003D01*
X153322Y53700D01*
X153184Y54397D01*
X152789Y54989D01*
X152197Y55384D01*
X151500Y55522D01*
D02*
G37*
G36*
X168200Y55222D02*
X167503Y55084D01*
X166911Y54689D01*
X166516Y54097D01*
X166378Y53400D01*
X166516Y52703D01*
X166911Y52111D01*
X167503Y51716D01*
X168200Y51578D01*
X168897Y51716D01*
X169489Y52111D01*
X169884Y52703D01*
X170022Y53400D01*
X169884Y54097D01*
X169489Y54689D01*
X168897Y55084D01*
X168200Y55222D01*
D02*
G37*
G36*
X163000D02*
X162303Y55084D01*
X161711Y54689D01*
X161316Y54097D01*
X161178Y53400D01*
X161316Y52703D01*
X161711Y52111D01*
X162303Y51716D01*
X163000Y51578D01*
X163697Y51716D01*
X164289Y52111D01*
X164684Y52703D01*
X164822Y53400D01*
X164684Y54097D01*
X164289Y54689D01*
X163697Y55084D01*
X163000Y55222D01*
D02*
G37*
G36*
X160300Y51622D02*
X159603Y51484D01*
X159011Y51089D01*
X158616Y50497D01*
X158478Y49800D01*
X158616Y49103D01*
X159011Y48511D01*
X159603Y48116D01*
X160300Y47978D01*
X160997Y48116D01*
X161589Y48511D01*
X161984Y49103D01*
X162122Y49800D01*
X161984Y50497D01*
X161589Y51089D01*
X160997Y51484D01*
X160300Y51622D01*
D02*
G37*
G36*
X166200Y51522D02*
X165503Y51384D01*
X164911Y50989D01*
X164516Y50397D01*
X164378Y49700D01*
X164516Y49003D01*
X164911Y48411D01*
X165503Y48016D01*
X166200Y47878D01*
X166897Y48016D01*
X167489Y48411D01*
X167884Y49003D01*
X168022Y49700D01*
X167884Y50397D01*
X167489Y50989D01*
X166897Y51384D01*
X166200Y51522D01*
D02*
G37*
G36*
X154400Y51422D02*
X153703Y51284D01*
X153111Y50889D01*
X152716Y50297D01*
X152578Y49600D01*
X152716Y48903D01*
X153111Y48311D01*
X153703Y47916D01*
X154400Y47778D01*
X155097Y47916D01*
X155689Y48311D01*
X156084Y48903D01*
X156222Y49600D01*
X156084Y50297D01*
X155689Y50889D01*
X155097Y51284D01*
X154400Y51422D01*
D02*
G37*
G36*
X358200Y46722D02*
X357503Y46584D01*
X356911Y46189D01*
X356516Y45597D01*
X356378Y44900D01*
X356516Y44203D01*
X356911Y43611D01*
X357503Y43216D01*
X358200Y43078D01*
X358897Y43216D01*
X359489Y43611D01*
X359884Y44203D01*
X360022Y44900D01*
X359884Y45597D01*
X359489Y46189D01*
X358897Y46584D01*
X358200Y46722D01*
D02*
G37*
G36*
X384700Y44922D02*
X384003Y44784D01*
X383411Y44389D01*
X383016Y43797D01*
X382878Y43100D01*
X383016Y42403D01*
X383411Y41811D01*
X384003Y41416D01*
X384700Y41278D01*
X385397Y41416D01*
X385989Y41811D01*
X386384Y42403D01*
X386522Y43100D01*
X386384Y43797D01*
X385989Y44389D01*
X385397Y44784D01*
X384700Y44922D01*
D02*
G37*
G36*
X379600D02*
X378903Y44784D01*
X378311Y44389D01*
X377916Y43797D01*
X377778Y43100D01*
X377916Y42403D01*
X378311Y41811D01*
X378903Y41416D01*
X379600Y41278D01*
X380297Y41416D01*
X380889Y41811D01*
X381284Y42403D01*
X381422Y43100D01*
X381284Y43797D01*
X380889Y44389D01*
X380297Y44784D01*
X379600Y44922D01*
D02*
G37*
G36*
X401400Y40822D02*
X400703Y40684D01*
X400111Y40289D01*
X399716Y39697D01*
X399578Y39000D01*
X399716Y38303D01*
X400111Y37711D01*
X400703Y37316D01*
X401400Y37178D01*
X402097Y37316D01*
X402689Y37711D01*
X403084Y38303D01*
X403222Y39000D01*
X403084Y39697D01*
X402689Y40289D01*
X402097Y40684D01*
X401400Y40822D01*
D02*
G37*
G36*
X164800Y38622D02*
X164103Y38484D01*
X163511Y38089D01*
X163116Y37497D01*
X162978Y36800D01*
X163116Y36103D01*
X163511Y35511D01*
X164103Y35116D01*
X164800Y34978D01*
X165497Y35116D01*
X166089Y35511D01*
X166484Y36103D01*
X166622Y36800D01*
X166484Y37497D01*
X166089Y38089D01*
X165497Y38484D01*
X164800Y38622D01*
D02*
G37*
G36*
X390200Y29022D02*
X389503Y28884D01*
X388911Y28489D01*
X388516Y27897D01*
X388378Y27200D01*
X388516Y26503D01*
X388911Y25911D01*
X389503Y25516D01*
X390200Y25378D01*
X390897Y25516D01*
X391489Y25911D01*
X391884Y26503D01*
X392022Y27200D01*
X391884Y27897D01*
X391489Y28489D01*
X390897Y28884D01*
X390200Y29022D01*
D02*
G37*
G36*
X393800Y31122D02*
X393103Y30984D01*
X392511Y30589D01*
X392116Y29997D01*
X391978Y29300D01*
X392116Y28603D01*
X392511Y28011D01*
X393103Y27616D01*
X393106Y27616D01*
X393168Y27093D01*
X392711Y26789D01*
X392316Y26197D01*
X392178Y25500D01*
X392316Y24803D01*
X392711Y24211D01*
X393303Y23816D01*
X394000Y23678D01*
X394697Y23816D01*
X395289Y24211D01*
X395684Y24803D01*
X395822Y25500D01*
X395684Y26197D01*
X395289Y26789D01*
X394697Y27184D01*
X394694Y27184D01*
X394632Y27707D01*
X395089Y28011D01*
X395484Y28603D01*
X395622Y29300D01*
X395484Y29997D01*
X395089Y30589D01*
X394497Y30984D01*
X393800Y31122D01*
D02*
G37*
G36*
X71434Y27934D02*
X63166D01*
Y19666D01*
X71434D01*
Y27934D01*
D02*
G37*
G36*
X257300Y27970D02*
X256221Y27827D01*
X255215Y27411D01*
X254352Y26748D01*
X253689Y25885D01*
X253273Y24879D01*
X253131Y23800D01*
X253273Y22721D01*
X253689Y21715D01*
X254352Y20852D01*
X255215Y20189D01*
X256221Y19773D01*
X257300Y19631D01*
X258379Y19773D01*
X259385Y20189D01*
X260248Y20852D01*
X260911Y21715D01*
X261327Y22721D01*
X261470Y23800D01*
X261327Y24879D01*
X260911Y25885D01*
X260248Y26748D01*
X259385Y27411D01*
X258379Y27827D01*
X257300Y27970D01*
D02*
G37*
G36*
X247300D02*
X246221Y27827D01*
X245215Y27411D01*
X244352Y26748D01*
X243689Y25885D01*
X243273Y24879D01*
X243130Y23800D01*
X243273Y22721D01*
X243689Y21715D01*
X244352Y20852D01*
X245215Y20189D01*
X246221Y19773D01*
X247300Y19631D01*
X248379Y19773D01*
X249385Y20189D01*
X250248Y20852D01*
X250911Y21715D01*
X251327Y22721D01*
X251469Y23800D01*
X251327Y24879D01*
X250911Y25885D01*
X250248Y26748D01*
X249385Y27411D01*
X248379Y27827D01*
X247300Y27970D01*
D02*
G37*
G36*
X237300D02*
X236221Y27827D01*
X235215Y27411D01*
X234352Y26748D01*
X233689Y25885D01*
X233273Y24879D01*
X233131Y23800D01*
X233273Y22721D01*
X233689Y21715D01*
X234352Y20852D01*
X235215Y20189D01*
X236221Y19773D01*
X237300Y19631D01*
X238379Y19773D01*
X239385Y20189D01*
X240248Y20852D01*
X240911Y21715D01*
X241327Y22721D01*
X241470Y23800D01*
X241327Y24879D01*
X240911Y25885D01*
X240248Y26748D01*
X239385Y27411D01*
X238379Y27827D01*
X237300Y27970D01*
D02*
G37*
G36*
X227300D02*
X226221Y27827D01*
X225215Y27411D01*
X224352Y26748D01*
X223689Y25885D01*
X223273Y24879D01*
X223130Y23800D01*
X223273Y22721D01*
X223689Y21715D01*
X224352Y20852D01*
X225215Y20189D01*
X226221Y19773D01*
X227300Y19631D01*
X228379Y19773D01*
X229385Y20189D01*
X230248Y20852D01*
X230911Y21715D01*
X231327Y22721D01*
X231469Y23800D01*
X231327Y24879D01*
X230911Y25885D01*
X230248Y26748D01*
X229385Y27411D01*
X228379Y27827D01*
X227300Y27970D01*
D02*
G37*
G36*
X217300D02*
X216221Y27827D01*
X215215Y27411D01*
X214352Y26748D01*
X213689Y25885D01*
X213273Y24879D01*
X213130Y23800D01*
X213273Y22721D01*
X213689Y21715D01*
X214352Y20852D01*
X215215Y20189D01*
X216221Y19773D01*
X217300Y19631D01*
X218379Y19773D01*
X219385Y20189D01*
X220248Y20852D01*
X220911Y21715D01*
X221327Y22721D01*
X221469Y23800D01*
X221327Y24879D01*
X220911Y25885D01*
X220248Y26748D01*
X219385Y27411D01*
X218379Y27827D01*
X217300Y27970D01*
D02*
G37*
G36*
X207300D02*
X206221Y27827D01*
X205215Y27411D01*
X204352Y26748D01*
X203689Y25885D01*
X203273Y24879D01*
X203131Y23800D01*
X203273Y22721D01*
X203689Y21715D01*
X204352Y20852D01*
X205215Y20189D01*
X206221Y19773D01*
X207300Y19631D01*
X208379Y19773D01*
X209385Y20189D01*
X210248Y20852D01*
X210911Y21715D01*
X211327Y22721D01*
X211470Y23800D01*
X211327Y24879D01*
X210911Y25885D01*
X210248Y26748D01*
X209385Y27411D01*
X208379Y27827D01*
X207300Y27970D01*
D02*
G37*
G36*
X197300D02*
X196221Y27827D01*
X195215Y27411D01*
X194352Y26748D01*
X193689Y25885D01*
X193273Y24879D01*
X193131Y23800D01*
X193273Y22721D01*
X193689Y21715D01*
X194352Y20852D01*
X195215Y20189D01*
X196221Y19773D01*
X197300Y19631D01*
X198379Y19773D01*
X199385Y20189D01*
X200248Y20852D01*
X200911Y21715D01*
X201327Y22721D01*
X201469Y23800D01*
X201327Y24879D01*
X200911Y25885D01*
X200248Y26748D01*
X199385Y27411D01*
X198379Y27827D01*
X197300Y27970D01*
D02*
G37*
G36*
X187300D02*
X186221Y27827D01*
X185215Y27411D01*
X184352Y26748D01*
X183689Y25885D01*
X183273Y24879D01*
X183131Y23800D01*
X183273Y22721D01*
X183689Y21715D01*
X184352Y20852D01*
X185215Y20189D01*
X186221Y19773D01*
X187300Y19631D01*
X188379Y19773D01*
X189385Y20189D01*
X190248Y20852D01*
X190911Y21715D01*
X191327Y22721D01*
X191470Y23800D01*
X191327Y24879D01*
X190911Y25885D01*
X190248Y26748D01*
X189385Y27411D01*
X188379Y27827D01*
X187300Y27970D01*
D02*
G37*
G36*
X177300D02*
X176221Y27827D01*
X175215Y27411D01*
X174352Y26748D01*
X173689Y25885D01*
X173273Y24879D01*
X173131Y23800D01*
X173273Y22721D01*
X173689Y21715D01*
X174352Y20852D01*
X175215Y20189D01*
X176221Y19773D01*
X177300Y19631D01*
X178379Y19773D01*
X179385Y20189D01*
X180248Y20852D01*
X180911Y21715D01*
X181327Y22721D01*
X181470Y23800D01*
X181327Y24879D01*
X180911Y25885D01*
X180248Y26748D01*
X179385Y27411D01*
X178379Y27827D01*
X177300Y27970D01*
D02*
G37*
G36*
X167300D02*
X166221Y27827D01*
X165215Y27411D01*
X164352Y26748D01*
X163689Y25885D01*
X163273Y24879D01*
X163130Y23800D01*
X163273Y22721D01*
X163689Y21715D01*
X164352Y20852D01*
X165215Y20189D01*
X166221Y19773D01*
X167300Y19631D01*
X168379Y19773D01*
X169385Y20189D01*
X170248Y20852D01*
X170911Y21715D01*
X171327Y22721D01*
X171469Y23800D01*
X171327Y24879D01*
X170911Y25885D01*
X170248Y26748D01*
X169385Y27411D01*
X168379Y27827D01*
X167300Y27970D01*
D02*
G37*
G36*
X157300D02*
X156221Y27827D01*
X155215Y27411D01*
X154352Y26748D01*
X153689Y25885D01*
X153273Y24879D01*
X153130Y23800D01*
X153273Y22721D01*
X153689Y21715D01*
X154352Y20852D01*
X155215Y20189D01*
X156221Y19773D01*
X157300Y19631D01*
X158379Y19773D01*
X159385Y20189D01*
X160248Y20852D01*
X160911Y21715D01*
X161327Y22721D01*
X161469Y23800D01*
X161327Y24879D01*
X160911Y25885D01*
X160248Y26748D01*
X159385Y27411D01*
X158379Y27827D01*
X157300Y27970D01*
D02*
G37*
G36*
X147300D02*
X146221Y27827D01*
X145215Y27411D01*
X144352Y26748D01*
X143689Y25885D01*
X143273Y24879D01*
X143131Y23800D01*
X143273Y22721D01*
X143689Y21715D01*
X144352Y20852D01*
X145215Y20189D01*
X146221Y19773D01*
X147300Y19631D01*
X148379Y19773D01*
X149385Y20189D01*
X150248Y20852D01*
X150911Y21715D01*
X151327Y22721D01*
X151470Y23800D01*
X151327Y24879D01*
X150911Y25885D01*
X150248Y26748D01*
X149385Y27411D01*
X148379Y27827D01*
X147300Y27970D01*
D02*
G37*
G36*
X137300D02*
X136221Y27827D01*
X135215Y27411D01*
X134352Y26748D01*
X133689Y25885D01*
X133273Y24879D01*
X133131Y23800D01*
X133273Y22721D01*
X133689Y21715D01*
X134352Y20852D01*
X135215Y20189D01*
X136221Y19773D01*
X137300Y19631D01*
X138379Y19773D01*
X139385Y20189D01*
X140248Y20852D01*
X140911Y21715D01*
X141327Y22721D01*
X141470Y23800D01*
X141327Y24879D01*
X140911Y25885D01*
X140248Y26748D01*
X139385Y27411D01*
X138379Y27827D01*
X137300Y27970D01*
D02*
G37*
G36*
X127300D02*
X126221Y27827D01*
X125215Y27411D01*
X124352Y26748D01*
X123689Y25885D01*
X123273Y24879D01*
X123131Y23800D01*
X123273Y22721D01*
X123689Y21715D01*
X124352Y20852D01*
X125215Y20189D01*
X126221Y19773D01*
X127300Y19631D01*
X128379Y19773D01*
X129385Y20189D01*
X130248Y20852D01*
X130911Y21715D01*
X131327Y22721D01*
X131470Y23800D01*
X131327Y24879D01*
X130911Y25885D01*
X130248Y26748D01*
X129385Y27411D01*
X128379Y27827D01*
X127300Y27970D01*
D02*
G37*
G36*
X117300D02*
X116221Y27827D01*
X115215Y27411D01*
X114352Y26748D01*
X113689Y25885D01*
X113273Y24879D01*
X113130Y23800D01*
X113273Y22721D01*
X113689Y21715D01*
X114352Y20852D01*
X115215Y20189D01*
X116221Y19773D01*
X117300Y19631D01*
X118379Y19773D01*
X119385Y20189D01*
X120248Y20852D01*
X120911Y21715D01*
X121327Y22721D01*
X121469Y23800D01*
X121327Y24879D01*
X120911Y25885D01*
X120248Y26748D01*
X119385Y27411D01*
X118379Y27827D01*
X117300Y27970D01*
D02*
G37*
G36*
X107300D02*
X106221Y27827D01*
X105215Y27411D01*
X104352Y26748D01*
X103689Y25885D01*
X103273Y24879D01*
X103130Y23800D01*
X103273Y22721D01*
X103689Y21715D01*
X104352Y20852D01*
X105215Y20189D01*
X106221Y19773D01*
X107300Y19631D01*
X108379Y19773D01*
X109385Y20189D01*
X110248Y20852D01*
X110911Y21715D01*
X111327Y22721D01*
X111469Y23800D01*
X111327Y24879D01*
X110911Y25885D01*
X110248Y26748D01*
X109385Y27411D01*
X108379Y27827D01*
X107300Y27970D01*
D02*
G37*
G36*
X97300D02*
X96221Y27827D01*
X95215Y27411D01*
X94352Y26748D01*
X93689Y25885D01*
X93273Y24879D01*
X93130Y23800D01*
X93273Y22721D01*
X93689Y21715D01*
X94352Y20852D01*
X95215Y20189D01*
X96221Y19773D01*
X97300Y19631D01*
X98379Y19773D01*
X99385Y20189D01*
X100248Y20852D01*
X100911Y21715D01*
X101327Y22721D01*
X101470Y23800D01*
X101327Y24879D01*
X100911Y25885D01*
X100248Y26748D01*
X99385Y27411D01*
X98379Y27827D01*
X97300Y27970D01*
D02*
G37*
G36*
X87300D02*
X86221Y27827D01*
X85215Y27411D01*
X84352Y26748D01*
X83689Y25885D01*
X83273Y24879D01*
X83131Y23800D01*
X83273Y22721D01*
X83689Y21715D01*
X84352Y20852D01*
X85215Y20189D01*
X86221Y19773D01*
X87300Y19631D01*
X88379Y19773D01*
X89385Y20189D01*
X90248Y20852D01*
X90911Y21715D01*
X91327Y22721D01*
X91470Y23800D01*
X91327Y24879D01*
X90911Y25885D01*
X90248Y26748D01*
X89385Y27411D01*
X88379Y27827D01*
X87300Y27970D01*
D02*
G37*
G36*
X77300D02*
X76221Y27827D01*
X75215Y27411D01*
X74352Y26748D01*
X73689Y25885D01*
X73273Y24879D01*
X73131Y23800D01*
X73273Y22721D01*
X73689Y21715D01*
X74352Y20852D01*
X75215Y20189D01*
X76221Y19773D01*
X77300Y19631D01*
X78379Y19773D01*
X79385Y20189D01*
X80248Y20852D01*
X80911Y21715D01*
X81327Y22721D01*
X81470Y23800D01*
X81327Y24879D01*
X80911Y25885D01*
X80248Y26748D01*
X79385Y27411D01*
X78379Y27827D01*
X77300Y27970D01*
D02*
G37*
G36*
X392433Y22310D02*
X391252D01*
X390558Y22219D01*
X389912Y21951D01*
X389357Y21525D01*
X388931Y20970D01*
X388663Y20324D01*
X388572Y19630D01*
X388663Y18936D01*
X388931Y18290D01*
X389357Y17735D01*
X389912Y17309D01*
X390558Y17041D01*
X391252Y16950D01*
X392433D01*
X393127Y17041D01*
X393773Y17309D01*
X394328Y17735D01*
X394754Y18290D01*
X395022Y18936D01*
X395113Y19630D01*
X395022Y20324D01*
X394754Y20970D01*
X394328Y21525D01*
X393773Y21951D01*
X393127Y22219D01*
X392433Y22310D01*
D02*
G37*
G36*
X372748D02*
X371567D01*
X370873Y22219D01*
X370227Y21951D01*
X369672Y21525D01*
X369246Y20970D01*
X368978Y20324D01*
X368886Y19630D01*
X368978Y18936D01*
X369246Y18290D01*
X369672Y17735D01*
X370227Y17309D01*
X370873Y17041D01*
X371567Y16950D01*
X372748D01*
X373442Y17041D01*
X374088Y17309D01*
X374643Y17735D01*
X375069Y18290D01*
X375337Y18936D01*
X375428Y19630D01*
X375337Y20324D01*
X375069Y20970D01*
X374643Y21525D01*
X374088Y21951D01*
X373442Y22219D01*
X372748Y22310D01*
D02*
G37*
G36*
X257300Y17969D02*
X256221Y17827D01*
X255215Y17411D01*
X254352Y16748D01*
X253689Y15885D01*
X253273Y14879D01*
X253131Y13800D01*
X253273Y12721D01*
X253689Y11715D01*
X254352Y10852D01*
X255215Y10189D01*
X256221Y9772D01*
X257300Y9630D01*
X258379Y9772D01*
X259385Y10189D01*
X260248Y10852D01*
X260911Y11715D01*
X261327Y12721D01*
X261470Y13800D01*
X261327Y14879D01*
X260911Y15885D01*
X260248Y16748D01*
X259385Y17411D01*
X258379Y17827D01*
X257300Y17969D01*
D02*
G37*
G36*
X247300D02*
X246221Y17827D01*
X245215Y17411D01*
X244352Y16748D01*
X243689Y15885D01*
X243273Y14879D01*
X243130Y13800D01*
X243273Y12721D01*
X243689Y11715D01*
X244352Y10852D01*
X245215Y10189D01*
X246221Y9772D01*
X247300Y9630D01*
X248379Y9772D01*
X249385Y10189D01*
X250248Y10852D01*
X250911Y11715D01*
X251327Y12721D01*
X251469Y13800D01*
X251327Y14879D01*
X250911Y15885D01*
X250248Y16748D01*
X249385Y17411D01*
X248379Y17827D01*
X247300Y17969D01*
D02*
G37*
G36*
X237300D02*
X236221Y17827D01*
X235215Y17411D01*
X234352Y16748D01*
X233689Y15885D01*
X233273Y14879D01*
X233131Y13800D01*
X233273Y12721D01*
X233689Y11715D01*
X234352Y10852D01*
X235215Y10189D01*
X236221Y9772D01*
X237300Y9630D01*
X238379Y9772D01*
X239385Y10189D01*
X240248Y10852D01*
X240911Y11715D01*
X241327Y12721D01*
X241470Y13800D01*
X241327Y14879D01*
X240911Y15885D01*
X240248Y16748D01*
X239385Y17411D01*
X238379Y17827D01*
X237300Y17969D01*
D02*
G37*
G36*
X227300D02*
X226221Y17827D01*
X225215Y17411D01*
X224352Y16748D01*
X223689Y15885D01*
X223273Y14879D01*
X223130Y13800D01*
X223273Y12721D01*
X223689Y11715D01*
X224352Y10852D01*
X225215Y10189D01*
X226221Y9772D01*
X227300Y9630D01*
X228379Y9772D01*
X229385Y10189D01*
X230248Y10852D01*
X230911Y11715D01*
X231327Y12721D01*
X231469Y13800D01*
X231327Y14879D01*
X230911Y15885D01*
X230248Y16748D01*
X229385Y17411D01*
X228379Y17827D01*
X227300Y17969D01*
D02*
G37*
G36*
X217300D02*
X216221Y17827D01*
X215215Y17411D01*
X214352Y16748D01*
X213689Y15885D01*
X213273Y14879D01*
X213130Y13800D01*
X213273Y12721D01*
X213689Y11715D01*
X214352Y10852D01*
X215215Y10189D01*
X216221Y9772D01*
X217300Y9630D01*
X218379Y9772D01*
X219385Y10189D01*
X220248Y10852D01*
X220911Y11715D01*
X221327Y12721D01*
X221469Y13800D01*
X221327Y14879D01*
X220911Y15885D01*
X220248Y16748D01*
X219385Y17411D01*
X218379Y17827D01*
X217300Y17969D01*
D02*
G37*
G36*
X207300D02*
X206221Y17827D01*
X205215Y17411D01*
X204352Y16748D01*
X203689Y15885D01*
X203273Y14879D01*
X203131Y13800D01*
X203273Y12721D01*
X203689Y11715D01*
X204352Y10852D01*
X205215Y10189D01*
X206221Y9772D01*
X207300Y9630D01*
X208379Y9772D01*
X209385Y10189D01*
X210248Y10852D01*
X210911Y11715D01*
X211327Y12721D01*
X211470Y13800D01*
X211327Y14879D01*
X210911Y15885D01*
X210248Y16748D01*
X209385Y17411D01*
X208379Y17827D01*
X207300Y17969D01*
D02*
G37*
G36*
X197300D02*
X196221Y17827D01*
X195215Y17411D01*
X194352Y16748D01*
X193689Y15885D01*
X193273Y14879D01*
X193131Y13800D01*
X193273Y12721D01*
X193689Y11715D01*
X194352Y10852D01*
X195215Y10189D01*
X196221Y9772D01*
X197300Y9630D01*
X198379Y9772D01*
X199385Y10189D01*
X200248Y10852D01*
X200911Y11715D01*
X201327Y12721D01*
X201469Y13800D01*
X201327Y14879D01*
X200911Y15885D01*
X200248Y16748D01*
X199385Y17411D01*
X198379Y17827D01*
X197300Y17969D01*
D02*
G37*
G36*
X187300D02*
X186221Y17827D01*
X185215Y17411D01*
X184352Y16748D01*
X183689Y15885D01*
X183273Y14879D01*
X183131Y13800D01*
X183273Y12721D01*
X183689Y11715D01*
X184352Y10852D01*
X185215Y10189D01*
X186221Y9772D01*
X187300Y9630D01*
X188379Y9772D01*
X189385Y10189D01*
X190248Y10852D01*
X190911Y11715D01*
X191327Y12721D01*
X191470Y13800D01*
X191327Y14879D01*
X190911Y15885D01*
X190248Y16748D01*
X189385Y17411D01*
X188379Y17827D01*
X187300Y17969D01*
D02*
G37*
G36*
X177300D02*
X176221Y17827D01*
X175215Y17411D01*
X174352Y16748D01*
X173689Y15885D01*
X173273Y14879D01*
X173131Y13800D01*
X173273Y12721D01*
X173689Y11715D01*
X174352Y10852D01*
X175215Y10189D01*
X176221Y9772D01*
X177300Y9630D01*
X178379Y9772D01*
X179385Y10189D01*
X180248Y10852D01*
X180911Y11715D01*
X181327Y12721D01*
X181470Y13800D01*
X181327Y14879D01*
X180911Y15885D01*
X180248Y16748D01*
X179385Y17411D01*
X178379Y17827D01*
X177300Y17969D01*
D02*
G37*
G36*
X167300D02*
X166221Y17827D01*
X165215Y17411D01*
X164352Y16748D01*
X163689Y15885D01*
X163273Y14879D01*
X163130Y13800D01*
X163273Y12721D01*
X163689Y11715D01*
X164352Y10852D01*
X165215Y10189D01*
X166221Y9772D01*
X167300Y9630D01*
X168379Y9772D01*
X169385Y10189D01*
X170248Y10852D01*
X170911Y11715D01*
X171327Y12721D01*
X171469Y13800D01*
X171327Y14879D01*
X170911Y15885D01*
X170248Y16748D01*
X169385Y17411D01*
X168379Y17827D01*
X167300Y17969D01*
D02*
G37*
G36*
X157300D02*
X156221Y17827D01*
X155215Y17411D01*
X154352Y16748D01*
X153689Y15885D01*
X153273Y14879D01*
X153130Y13800D01*
X153273Y12721D01*
X153689Y11715D01*
X154352Y10852D01*
X155215Y10189D01*
X156221Y9772D01*
X157300Y9630D01*
X158379Y9772D01*
X159385Y10189D01*
X160248Y10852D01*
X160911Y11715D01*
X161327Y12721D01*
X161469Y13800D01*
X161327Y14879D01*
X160911Y15885D01*
X160248Y16748D01*
X159385Y17411D01*
X158379Y17827D01*
X157300Y17969D01*
D02*
G37*
G36*
X147300D02*
X146221Y17827D01*
X145215Y17411D01*
X144352Y16748D01*
X143689Y15885D01*
X143273Y14879D01*
X143131Y13800D01*
X143273Y12721D01*
X143689Y11715D01*
X144352Y10852D01*
X145215Y10189D01*
X146221Y9772D01*
X147300Y9630D01*
X148379Y9772D01*
X149385Y10189D01*
X150248Y10852D01*
X150911Y11715D01*
X151327Y12721D01*
X151470Y13800D01*
X151327Y14879D01*
X150911Y15885D01*
X150248Y16748D01*
X149385Y17411D01*
X148379Y17827D01*
X147300Y17969D01*
D02*
G37*
G36*
X137300D02*
X136221Y17827D01*
X135215Y17411D01*
X134352Y16748D01*
X133689Y15885D01*
X133273Y14879D01*
X133131Y13800D01*
X133273Y12721D01*
X133689Y11715D01*
X134352Y10852D01*
X135215Y10189D01*
X136221Y9772D01*
X137300Y9630D01*
X138379Y9772D01*
X139385Y10189D01*
X140248Y10852D01*
X140911Y11715D01*
X141327Y12721D01*
X141470Y13800D01*
X141327Y14879D01*
X140911Y15885D01*
X140248Y16748D01*
X139385Y17411D01*
X138379Y17827D01*
X137300Y17969D01*
D02*
G37*
G36*
X127300D02*
X126221Y17827D01*
X125215Y17411D01*
X124352Y16748D01*
X123689Y15885D01*
X123273Y14879D01*
X123131Y13800D01*
X123273Y12721D01*
X123689Y11715D01*
X124352Y10852D01*
X125215Y10189D01*
X126221Y9772D01*
X127300Y9630D01*
X128379Y9772D01*
X129385Y10189D01*
X130248Y10852D01*
X130911Y11715D01*
X131327Y12721D01*
X131470Y13800D01*
X131327Y14879D01*
X130911Y15885D01*
X130248Y16748D01*
X129385Y17411D01*
X128379Y17827D01*
X127300Y17969D01*
D02*
G37*
G36*
X117300D02*
X116221Y17827D01*
X115215Y17411D01*
X114352Y16748D01*
X113689Y15885D01*
X113273Y14879D01*
X113130Y13800D01*
X113273Y12721D01*
X113689Y11715D01*
X114352Y10852D01*
X115215Y10189D01*
X116221Y9772D01*
X117300Y9630D01*
X118379Y9772D01*
X119385Y10189D01*
X120248Y10852D01*
X120911Y11715D01*
X121327Y12721D01*
X121469Y13800D01*
X121327Y14879D01*
X120911Y15885D01*
X120248Y16748D01*
X119385Y17411D01*
X118379Y17827D01*
X117300Y17969D01*
D02*
G37*
G36*
X107300D02*
X106221Y17827D01*
X105215Y17411D01*
X104352Y16748D01*
X103689Y15885D01*
X103273Y14879D01*
X103130Y13800D01*
X103273Y12721D01*
X103689Y11715D01*
X104352Y10852D01*
X105215Y10189D01*
X106221Y9772D01*
X107300Y9630D01*
X108379Y9772D01*
X109385Y10189D01*
X110248Y10852D01*
X110911Y11715D01*
X111327Y12721D01*
X111469Y13800D01*
X111327Y14879D01*
X110911Y15885D01*
X110248Y16748D01*
X109385Y17411D01*
X108379Y17827D01*
X107300Y17969D01*
D02*
G37*
G36*
X97300D02*
X96221Y17827D01*
X95215Y17411D01*
X94352Y16748D01*
X93689Y15885D01*
X93273Y14879D01*
X93130Y13800D01*
X93273Y12721D01*
X93689Y11715D01*
X94352Y10852D01*
X95215Y10189D01*
X96221Y9772D01*
X97300Y9630D01*
X98379Y9772D01*
X99385Y10189D01*
X100248Y10852D01*
X100911Y11715D01*
X101327Y12721D01*
X101470Y13800D01*
X101327Y14879D01*
X100911Y15885D01*
X100248Y16748D01*
X99385Y17411D01*
X98379Y17827D01*
X97300Y17969D01*
D02*
G37*
G36*
X87300D02*
X86221Y17827D01*
X85215Y17411D01*
X84352Y16748D01*
X83689Y15885D01*
X83273Y14879D01*
X83131Y13800D01*
X83273Y12721D01*
X83689Y11715D01*
X84352Y10852D01*
X85215Y10189D01*
X86221Y9772D01*
X87300Y9630D01*
X88379Y9772D01*
X89385Y10189D01*
X90248Y10852D01*
X90911Y11715D01*
X91327Y12721D01*
X91470Y13800D01*
X91327Y14879D01*
X90911Y15885D01*
X90248Y16748D01*
X89385Y17411D01*
X88379Y17827D01*
X87300Y17969D01*
D02*
G37*
G36*
X77300D02*
X76221Y17827D01*
X75215Y17411D01*
X74352Y16748D01*
X73689Y15885D01*
X73273Y14879D01*
X73131Y13800D01*
X73273Y12721D01*
X73689Y11715D01*
X74352Y10852D01*
X75215Y10189D01*
X76221Y9772D01*
X77300Y9630D01*
X78379Y9772D01*
X79385Y10189D01*
X80248Y10852D01*
X80911Y11715D01*
X81327Y12721D01*
X81470Y13800D01*
X81327Y14879D01*
X80911Y15885D01*
X80248Y16748D01*
X79385Y17411D01*
X78379Y17827D01*
X77300Y17969D01*
D02*
G37*
G36*
X67300D02*
X66221Y17827D01*
X65215Y17411D01*
X64352Y16748D01*
X63689Y15885D01*
X63273Y14879D01*
X63130Y13800D01*
X63273Y12721D01*
X63689Y11715D01*
X64352Y10852D01*
X65215Y10189D01*
X66221Y9772D01*
X67300Y9630D01*
X68379Y9772D01*
X69385Y10189D01*
X70248Y10852D01*
X70911Y11715D01*
X71327Y12721D01*
X71469Y13800D01*
X71327Y14879D01*
X70911Y15885D01*
X70248Y16748D01*
X69385Y17411D01*
X68379Y17827D01*
X67300Y17969D01*
D02*
G37*
G36*
X275700Y12422D02*
X275003Y12284D01*
X274411Y11889D01*
X274016Y11297D01*
X273878Y10600D01*
X274016Y9903D01*
X274411Y9311D01*
X275003Y8916D01*
X275700Y8778D01*
X276397Y8916D01*
X276989Y9311D01*
X277384Y9903D01*
X277522Y10600D01*
X277384Y11297D01*
X276989Y11889D01*
X276397Y12284D01*
X275700Y12422D01*
D02*
G37*
G36*
X317000Y11822D02*
X316303Y11684D01*
X315711Y11289D01*
X315316Y10697D01*
X315178Y10000D01*
X315316Y9303D01*
X315711Y8711D01*
X316303Y8316D01*
X317000Y8178D01*
X317697Y8316D01*
X318289Y8711D01*
X318684Y9303D01*
X318822Y10000D01*
X318684Y10697D01*
X318289Y11289D01*
X317697Y11684D01*
X317000Y11822D01*
D02*
G37*
G36*
X395779Y12861D02*
X395111Y12773D01*
X394489Y12515D01*
X393954Y12105D01*
X393544Y11570D01*
X393286Y10948D01*
X393198Y10279D01*
Y7721D01*
X393286Y7052D01*
X393544Y6430D01*
X393954Y5895D01*
X394489Y5485D01*
X395111Y5227D01*
X395779Y5139D01*
X396448Y5227D01*
X397070Y5485D01*
X397605Y5895D01*
X398015Y6430D01*
X398273Y7052D01*
X398361Y7721D01*
Y10279D01*
X398273Y10948D01*
X398015Y11570D01*
X397605Y12105D01*
X397070Y12515D01*
X396448Y12773D01*
X395779Y12861D01*
D02*
G37*
G36*
X368220D02*
X367552Y12773D01*
X366930Y12515D01*
X366395Y12105D01*
X365985Y11570D01*
X365727Y10948D01*
X365639Y10279D01*
Y7721D01*
X365727Y7052D01*
X365985Y6430D01*
X366395Y5895D01*
X366930Y5485D01*
X367552Y5227D01*
X368220Y5139D01*
X368888Y5227D01*
X369511Y5485D01*
X370046Y5895D01*
X370456Y6430D01*
X370714Y7052D01*
X370802Y7721D01*
Y10279D01*
X370714Y10948D01*
X370456Y11570D01*
X370046Y12105D01*
X369511Y12515D01*
X368888Y12773D01*
X368220Y12861D01*
D02*
G37*
%LPD*%
G36*
X137100Y481100D02*
Y442652D01*
X135295Y442219D01*
X133463Y441460D01*
X131772Y440424D01*
X130264Y439136D01*
X128976Y437628D01*
X127940Y435937D01*
X127181Y434105D01*
X126718Y432177D01*
X126563Y430200D01*
X126718Y428223D01*
X127181Y426295D01*
X127940Y424463D01*
X128976Y422772D01*
X130264Y421264D01*
X131772Y419976D01*
X133463Y418940D01*
X135295Y418181D01*
X137100Y417748D01*
Y370600D01*
X168155Y339545D01*
X168027Y338966D01*
X167611Y338689D01*
X167216Y338097D01*
X167078Y337400D01*
X167216Y336703D01*
X167611Y336111D01*
X168203Y335716D01*
X168900Y335578D01*
X169597Y335716D01*
X170189Y336111D01*
X170466Y336527D01*
X171045Y336655D01*
X180000Y327700D01*
Y308023D01*
X179916Y307897D01*
X179778Y307200D01*
X179916Y306503D01*
X180000Y306377D01*
Y254404D01*
X179900Y254322D01*
X179203Y254184D01*
X178611Y253789D01*
X178216Y253197D01*
X178078Y252500D01*
X178216Y251803D01*
X178611Y251211D01*
X179203Y250816D01*
X179900Y250678D01*
X180000Y250595D01*
Y166900D01*
X157000D01*
X147600Y176300D01*
Y206985D01*
X148089Y207311D01*
X148484Y207903D01*
X148622Y208600D01*
X148484Y209297D01*
X148089Y209889D01*
X147600Y210215D01*
Y227925D01*
X148100Y228295D01*
X148480Y228219D01*
X149178Y228358D01*
X149769Y228753D01*
X150164Y229344D01*
X150303Y230042D01*
X150164Y230739D01*
X149769Y231330D01*
X149178Y231725D01*
X148480Y231864D01*
X148100Y231788D01*
X147600Y232159D01*
Y245431D01*
X147900Y245678D01*
X148597Y245816D01*
X149189Y246211D01*
X149584Y246803D01*
X149722Y247500D01*
X149584Y248197D01*
X149189Y248789D01*
X148597Y249184D01*
X147900Y249322D01*
X147600Y249569D01*
Y304300D01*
X129160Y322740D01*
X128887Y323113D01*
X128887D01*
X128887Y323113D01*
Y330887D01*
X121113D01*
X121113Y330887D01*
Y330887D01*
X120739Y331161D01*
X109400Y342500D01*
X80000D01*
Y352213D01*
X80200Y352378D01*
X80897Y352516D01*
X81489Y352911D01*
X81884Y353503D01*
X82022Y354200D01*
X81884Y354897D01*
X81489Y355489D01*
X80897Y355884D01*
X80200Y356022D01*
X80000Y356187D01*
Y373313D01*
X80200Y373478D01*
X80897Y373616D01*
X81489Y374011D01*
X81884Y374603D01*
X82022Y375300D01*
X81884Y375997D01*
X81489Y376589D01*
X80897Y376984D01*
X80200Y377122D01*
X80000Y377287D01*
Y388497D01*
X80597Y388616D01*
X81189Y389011D01*
X81584Y389603D01*
X81722Y390300D01*
X81584Y390997D01*
X81189Y391589D01*
X80597Y391984D01*
X80000Y392103D01*
Y409597D01*
X80597Y409716D01*
X81189Y410111D01*
X81584Y410703D01*
X81722Y411400D01*
X81584Y412097D01*
X81189Y412689D01*
X80597Y413084D01*
X80000Y413202D01*
Y427600D01*
X101709Y461509D01*
X111719Y471519D01*
X111862Y471525D01*
X112838Y471833D01*
X113701Y472383D01*
X114392Y473138D01*
X114865Y474045D01*
X115042Y474842D01*
X121300Y481100D01*
X137100Y481100D01*
D02*
G37*
%LPC*%
G36*
X118127Y477221D02*
X117067Y474308D01*
X119980Y473248D01*
X121040Y476161D01*
X118127Y477221D01*
D02*
G37*
G36*
X122920Y475477D02*
X121859Y472564D01*
X124772Y471504D01*
X125833Y474417D01*
X122920Y475477D01*
D02*
G37*
G36*
X116383Y472429D02*
X115323Y469516D01*
X118236Y468456D01*
X119296Y471369D01*
X116383Y472429D01*
D02*
G37*
G36*
X121175Y470684D02*
X120115Y467771D01*
X123028Y466711D01*
X124088Y469624D01*
X121175Y470684D01*
D02*
G37*
G36*
X113800Y451422D02*
X113103Y451284D01*
X112511Y450889D01*
X112116Y450297D01*
X111978Y449600D01*
X112116Y448903D01*
X112511Y448311D01*
X113103Y447916D01*
X113800Y447778D01*
X114497Y447916D01*
X115089Y448311D01*
X115484Y448903D01*
X115622Y449600D01*
X115484Y450297D01*
X115089Y450889D01*
X114497Y451284D01*
X113800Y451422D01*
D02*
G37*
G36*
X113200Y430122D02*
X112503Y429984D01*
X111911Y429589D01*
X111516Y428997D01*
X111378Y428300D01*
X111516Y427603D01*
X111911Y427011D01*
X112503Y426616D01*
X113200Y426478D01*
X113897Y426616D01*
X114489Y427011D01*
X114884Y427603D01*
X115022Y428300D01*
X114884Y428997D01*
X114489Y429589D01*
X113897Y429984D01*
X113200Y430122D01*
D02*
G37*
G36*
X126100Y400100D02*
X123000D01*
Y397000D01*
X126100D01*
Y400100D01*
D02*
G37*
G36*
X112100D02*
X109000D01*
Y397000D01*
X112100D01*
Y400100D01*
D02*
G37*
G36*
X121000D02*
X117900D01*
Y397000D01*
X121000D01*
Y400100D01*
D02*
G37*
G36*
X107000D02*
X103900D01*
Y397000D01*
X107000D01*
Y400100D01*
D02*
G37*
G36*
X126100Y395000D02*
X123000D01*
Y391900D01*
X126100D01*
Y395000D01*
D02*
G37*
G36*
X121000D02*
X117900D01*
Y391900D01*
X121000D01*
Y395000D01*
D02*
G37*
G36*
X112100D02*
X109000D01*
Y391900D01*
X112100D01*
Y395000D01*
D02*
G37*
G36*
X107000D02*
X103900D01*
Y391900D01*
X107000D01*
Y395000D01*
D02*
G37*
G36*
X122000Y389921D02*
X120985Y389787D01*
X120039Y389396D01*
X119228Y388773D01*
X118604Y387961D01*
X118213Y387015D01*
X118079Y386000D01*
X118213Y384985D01*
X118604Y384039D01*
X119228Y383227D01*
X120039Y382604D01*
X120985Y382213D01*
X122000Y382079D01*
X123015Y382213D01*
X123960Y382604D01*
X124773Y383227D01*
X125396Y384039D01*
X125787Y384985D01*
X125921Y386000D01*
X125787Y387015D01*
X125396Y387961D01*
X124773Y388773D01*
X123960Y389396D01*
X123015Y389787D01*
X122000Y389921D01*
D02*
G37*
G36*
X108000D02*
X106985Y389787D01*
X106040Y389396D01*
X105227Y388773D01*
X104604Y387961D01*
X104213Y387015D01*
X104079Y386000D01*
X104213Y384985D01*
X104604Y384039D01*
X105227Y383227D01*
X106040Y382604D01*
X106985Y382213D01*
X108000Y382079D01*
X109015Y382213D01*
X109960Y382604D01*
X110773Y383227D01*
X111396Y384039D01*
X111787Y384985D01*
X111921Y386000D01*
X111787Y387015D01*
X111396Y387961D01*
X110773Y388773D01*
X109960Y389396D01*
X109015Y389787D01*
X108000Y389921D01*
D02*
G37*
G36*
X122000Y379921D02*
X120985Y379787D01*
X120039Y379396D01*
X119228Y378772D01*
X118604Y377960D01*
X118213Y377015D01*
X118079Y376000D01*
X118213Y374985D01*
X118604Y374040D01*
X119228Y373228D01*
X120039Y372604D01*
X120985Y372213D01*
X122000Y372079D01*
X123015Y372213D01*
X123960Y372604D01*
X124773Y373228D01*
X125396Y374040D01*
X125787Y374985D01*
X125921Y376000D01*
X125787Y377015D01*
X125396Y377960D01*
X124773Y378772D01*
X123960Y379396D01*
X123015Y379787D01*
X122000Y379921D01*
D02*
G37*
G36*
X108000D02*
X106985Y379787D01*
X106040Y379396D01*
X105227Y378772D01*
X104604Y377960D01*
X104213Y377015D01*
X104079Y376000D01*
X104213Y374985D01*
X104604Y374040D01*
X105227Y373228D01*
X106040Y372604D01*
X106985Y372213D01*
X108000Y372079D01*
X109015Y372213D01*
X109960Y372604D01*
X110773Y373228D01*
X111396Y374040D01*
X111787Y374985D01*
X111921Y376000D01*
X111787Y377015D01*
X111396Y377960D01*
X110773Y378772D01*
X109960Y379396D01*
X109015Y379787D01*
X108000Y379921D01*
D02*
G37*
G36*
X125000Y340921D02*
X123985Y340787D01*
X123039Y340396D01*
X122228Y339773D01*
X121604Y338961D01*
X121213Y338015D01*
X121079Y337000D01*
X121213Y335985D01*
X121604Y335039D01*
X122228Y334227D01*
X123039Y333604D01*
X123985Y333213D01*
X125000Y333079D01*
X126015Y333213D01*
X126961Y333604D01*
X127772Y334227D01*
X128396Y335039D01*
X128787Y335985D01*
X128921Y337000D01*
X128787Y338015D01*
X128396Y338961D01*
X127772Y339773D01*
X126961Y340396D01*
X126015Y340787D01*
X125000Y340921D01*
D02*
G37*
G36*
X136700Y321922D02*
X136003Y321784D01*
X135411Y321389D01*
X135016Y320797D01*
X134878Y320100D01*
X135016Y319403D01*
X135411Y318811D01*
X136003Y318416D01*
X136700Y318278D01*
X137397Y318416D01*
X137989Y318811D01*
X138384Y319403D01*
X138522Y320100D01*
X138384Y320797D01*
X137989Y321389D01*
X137397Y321784D01*
X136700Y321922D01*
D02*
G37*
G36*
X151800Y316822D02*
X151103Y316684D01*
X150511Y316289D01*
X150116Y315697D01*
X149978Y315000D01*
X150116Y314303D01*
X150511Y313711D01*
X151103Y313316D01*
X151800Y313178D01*
X152497Y313316D01*
X153089Y313711D01*
X153484Y314303D01*
X153622Y315000D01*
X153484Y315697D01*
X153089Y316289D01*
X152497Y316684D01*
X151800Y316822D01*
D02*
G37*
G36*
X161000Y303122D02*
X160303Y302984D01*
X159711Y302589D01*
X159316Y301997D01*
X159178Y301300D01*
X159316Y300603D01*
X159711Y300011D01*
X160303Y299616D01*
X161000Y299478D01*
X161697Y299616D01*
X162289Y300011D01*
X162684Y300603D01*
X162822Y301300D01*
X162684Y301997D01*
X162289Y302589D01*
X161697Y302984D01*
X161000Y303122D01*
D02*
G37*
G36*
X150400Y285072D02*
X149703Y284934D01*
X149111Y284539D01*
X148716Y283947D01*
X148578Y283250D01*
X148716Y282553D01*
X149111Y281961D01*
X149703Y281566D01*
X150400Y281428D01*
X151097Y281566D01*
X151689Y281961D01*
X152084Y282553D01*
X152222Y283250D01*
X152084Y283947D01*
X151689Y284539D01*
X151097Y284934D01*
X150400Y285072D01*
D02*
G37*
G36*
X161673Y259341D02*
X160976Y259203D01*
X160384Y258808D01*
X159989Y258216D01*
X159851Y257519D01*
X159989Y256821D01*
X160384Y256230D01*
X160976Y255835D01*
X161673Y255697D01*
X162371Y255835D01*
X162962Y256230D01*
X163357Y256821D01*
X163496Y257519D01*
X163357Y258216D01*
X162962Y258808D01*
X162371Y259203D01*
X161673Y259341D01*
D02*
G37*
G36*
X174500Y257922D02*
X173803Y257784D01*
X173211Y257389D01*
X172816Y256797D01*
X172678Y256100D01*
X172816Y255403D01*
X173211Y254811D01*
X173803Y254416D01*
X174500Y254278D01*
X175197Y254416D01*
X175789Y254811D01*
X176184Y255403D01*
X176322Y256100D01*
X176184Y256797D01*
X175789Y257389D01*
X175197Y257784D01*
X174500Y257922D01*
D02*
G37*
G36*
X173400Y250922D02*
X172703Y250784D01*
X172111Y250389D01*
X171716Y249797D01*
X171578Y249100D01*
X171716Y248403D01*
X172111Y247811D01*
X172703Y247416D01*
X173400Y247278D01*
X174097Y247416D01*
X174689Y247811D01*
X175084Y248403D01*
X175222Y249100D01*
X175084Y249797D01*
X174689Y250389D01*
X174097Y250784D01*
X173400Y250922D01*
D02*
G37*
G36*
X152434Y243472D02*
X151736Y243334D01*
X151145Y242939D01*
X150750Y242347D01*
X150611Y241650D01*
X150750Y240953D01*
X151145Y240361D01*
X151736Y239966D01*
X152434Y239828D01*
X153131Y239966D01*
X153722Y240361D01*
X154117Y240953D01*
X154256Y241650D01*
X154117Y242347D01*
X153722Y242939D01*
X153131Y243334D01*
X152434Y243472D01*
D02*
G37*
G36*
X177100Y213322D02*
X176403Y213184D01*
X175811Y212789D01*
X175416Y212197D01*
X175278Y211500D01*
X175416Y210803D01*
X175811Y210211D01*
X176403Y209816D01*
X177100Y209678D01*
X177797Y209816D01*
X178389Y210211D01*
X178784Y210803D01*
X178922Y211500D01*
X178784Y212197D01*
X178389Y212789D01*
X177797Y213184D01*
X177100Y213322D01*
D02*
G37*
G36*
X171100Y209822D02*
X170403Y209684D01*
X169811Y209289D01*
X169416Y208697D01*
X169278Y208000D01*
X169416Y207303D01*
X169811Y206711D01*
X170403Y206316D01*
X171100Y206178D01*
X171797Y206316D01*
X172389Y206711D01*
X172784Y207303D01*
X172922Y208000D01*
X172784Y208697D01*
X172389Y209289D01*
X171797Y209684D01*
X171100Y209822D01*
D02*
G37*
G36*
X166700Y207322D02*
X166003Y207184D01*
X165411Y206789D01*
X165016Y206197D01*
X164878Y205500D01*
X165016Y204803D01*
X165411Y204211D01*
X166003Y203816D01*
X166700Y203678D01*
X167397Y203816D01*
X167989Y204211D01*
X168384Y204803D01*
X168522Y205500D01*
X168384Y206197D01*
X167989Y206789D01*
X167397Y207184D01*
X166700Y207322D01*
D02*
G37*
%LPD*%
D16*
X165800Y388700D02*
X174350Y380150D01*
Y377834D02*
Y380150D01*
Y377834D02*
X183667Y368517D01*
X185983D01*
X195300Y359200D01*
X209685Y257900D02*
X212900D01*
X201807Y265777D02*
Y370108D01*
Y265777D02*
X209685Y257900D01*
X195300Y270800D02*
X210600Y255500D01*
X195300Y270800D02*
Y359200D01*
X170515Y401400D02*
X201807Y370108D01*
X163000Y401400D02*
X170515D01*
X154900Y403500D02*
X169900D01*
X203900Y369500D01*
Y268500D02*
Y369500D01*
X150550Y399150D02*
X154900Y403500D01*
X157100Y395500D02*
X163000Y401400D01*
X157100Y388700D02*
Y395500D01*
X148600Y388800D02*
Y396184D01*
X150550Y398134D01*
Y399150D01*
X203900Y268500D02*
X211400Y261000D01*
D100*
X282000Y68000D02*
D03*
X391000Y455611D02*
D03*
X73511Y454511D02*
D03*
D105*
X391000Y443800D02*
D03*
X73511Y442700D02*
D03*
D121*
X92150Y77948D02*
Y81448D01*
X85850Y71648D02*
X92150Y77948D01*
D122*
X355439Y423400D02*
X391300D01*
X355339Y423300D02*
X355439Y423400D01*
X355939Y411300D02*
X391200D01*
X355339Y410700D02*
X355939Y411300D01*
X355539Y389000D02*
X391100D01*
X355339Y388800D02*
X355539Y389000D01*
X357239Y371600D02*
X391200D01*
X355339Y369700D02*
X357239Y371600D01*
X352200Y348700D02*
X390700D01*
X351150Y349750D02*
X352200Y348700D01*
D124*
X124500Y186000D02*
D03*
X328000Y183000D02*
D03*
D126*
X108000Y396000D02*
D03*
X122000D02*
D03*
X328100Y258200D02*
D03*
X124500Y139000D02*
D03*
D127*
X219600Y438900D02*
D03*
X378600Y132200D02*
D03*
X358600D02*
D03*
D132*
X219800Y419700D02*
D03*
D134*
X355339Y483527D02*
D03*
D135*
X120578Y471966D02*
D03*
D138*
X257157Y112797D02*
D03*
X298500Y412000D02*
D03*
X197900Y293000D02*
D03*
X191300Y296000D02*
D03*
X165700Y399100D02*
D03*
X148700Y398900D02*
D03*
X165800Y388700D02*
D03*
X157100D02*
D03*
X148600Y388800D02*
D03*
X157000Y399300D02*
D03*
X263900Y178900D02*
D03*
X366800Y271400D02*
D03*
X195000Y40000D02*
D03*
X261400Y98800D02*
D03*
X366700Y274900D02*
D03*
X155600Y183900D02*
D03*
X153400Y180600D02*
D03*
X151000Y183900D02*
D03*
X162800Y180700D02*
D03*
X157900Y180400D02*
D03*
Y187300D02*
D03*
X211400Y261000D02*
D03*
X210600Y298900D02*
D03*
X256231Y240969D02*
D03*
X194300Y251300D02*
D03*
X190000Y234100D02*
D03*
X333900Y74200D02*
D03*
X251400Y158500D02*
D03*
X255800Y159300D02*
D03*
X279800Y397500D02*
D03*
X142250Y254100D02*
D03*
X262700Y241300D02*
D03*
X311500Y271600D02*
D03*
X335000Y379400D02*
D03*
X278700Y374300D02*
D03*
X275600Y383700D02*
D03*
X211200Y231500D02*
D03*
X263200Y276600D02*
D03*
X210600Y255500D02*
D03*
X212900Y257900D02*
D03*
X263200Y280100D02*
D03*
X71139Y276800D02*
D03*
X358300Y80300D02*
D03*
X333600Y61800D02*
D03*
X346259Y136641D02*
D03*
X195800Y71000D02*
D03*
X193000D02*
D03*
X162400Y186700D02*
D03*
X153500Y187200D02*
D03*
X160200Y183800D02*
D03*
X250600Y358000D02*
D03*
X251000Y408100D02*
D03*
X321000Y380300D02*
D03*
X328200Y379400D02*
D03*
X326700Y384900D02*
D03*
X391200Y411300D02*
D03*
X391100Y389000D02*
D03*
X391200Y371600D02*
D03*
X390700Y348700D02*
D03*
X391300Y423400D02*
D03*
X76000Y288000D02*
D03*
X85600Y370300D02*
D03*
X85500Y386900D02*
D03*
X85600Y406400D02*
D03*
Y426300D02*
D03*
X85000Y350700D02*
D03*
X71139Y273050D02*
D03*
Y269450D02*
D03*
X190000Y71000D02*
D03*
X192000Y40000D02*
D03*
X189000D02*
D03*
X360000Y25000D02*
D03*
Y31000D02*
D03*
Y28000D02*
D03*
X251000Y46000D02*
D03*
X247000D02*
D03*
X251000Y50000D02*
D03*
X247000D02*
D03*
X251000Y54000D02*
D03*
X247000D02*
D03*
X251000Y58000D02*
D03*
X247000D02*
D03*
X92150Y81448D02*
D03*
X85850Y71648D02*
D03*
D139*
X195000Y40000D02*
Y48500D01*
X193000Y71000D02*
X195800D01*
X190000D02*
X193000D01*
X195800Y71000D02*
Y71000D01*
X195000Y48500D02*
X195404Y48904D01*
Y70604D01*
X195800Y71000D01*
X191902Y39098D02*
X301990D01*
X313088Y28000D01*
X360000D01*
D140*
X328100Y258200D02*
Y326700D01*
X355339Y423300D02*
Y483527D01*
Y410700D02*
Y423300D01*
Y388800D02*
Y410700D01*
Y369700D02*
Y388800D01*
Y353939D02*
Y369700D01*
X351150Y349750D02*
X355339Y353939D01*
X328100Y326700D02*
X351150Y349750D01*
X353676Y483527D02*
X355339D01*
X349209Y487994D02*
X353676Y483527D01*
X136605Y487994D02*
X349209D01*
X120578Y471966D02*
X136605Y487994D01*
M02*
