G04*
G04 #@! TF.GenerationSoftware,Altium Limited,Altium Designer,20.1.12 (249)*
G04*
G04 Layer_Color=16711935*
%FSLAX25Y25*%
%MOIN*%
G70*
G04*
G04 #@! TF.SameCoordinates,8DF9F49D-D30B-48C0-AB84-75DE52E997E5*
G04*
G04*
G04 #@! TF.FilePolarity,Positive*
G04*
G01*
G75*
%ADD10C,0.00394*%
%ADD148R,0.19685X0.03071*%
D10*
X361433Y56488D02*
G03*
X361433Y56488I-1969J0D01*
G01*
X82760Y298158D02*
G03*
X82760Y298158I-1969J0D01*
G01*
X383621D02*
G03*
X383621Y298158I-1969J0D01*
G01*
X210927Y277142D02*
G03*
X210927Y277142I-1969J0D01*
G01*
X309687Y382902D02*
G03*
X309687Y382902I-1969J0D01*
G01*
X162333Y259017D02*
X166467D01*
X162333Y261183D02*
X166467D01*
Y259017D02*
Y261183D01*
X162333Y259017D02*
Y261183D01*
X164617Y382633D02*
X166783D01*
X164617Y386767D02*
X166783D01*
X164617Y382633D02*
Y386767D01*
X166783Y382633D02*
Y386767D01*
X166883Y391265D02*
Y395398D01*
X164717Y391265D02*
Y395398D01*
X166883D01*
X164717Y391265D02*
X166883D01*
X158083D02*
Y395398D01*
X155917Y391265D02*
Y395398D01*
X158083D01*
X155917Y391265D02*
X158083D01*
X156117Y382633D02*
X158283D01*
X156117Y386767D02*
X158283D01*
X156117Y382633D02*
Y386767D01*
X158283Y382633D02*
Y386767D01*
X149683Y391265D02*
Y395398D01*
X147517Y391265D02*
Y395398D01*
X149683D01*
X147517Y391265D02*
X149683D01*
X147617Y382633D02*
X149783D01*
X147617Y386767D02*
X149783D01*
X147617Y382633D02*
Y386767D01*
X149783Y382633D02*
Y386767D01*
X268230Y276045D02*
X271970D01*
X268230Y269155D02*
X271970D01*
Y276045D01*
X268230Y269155D02*
Y276045D01*
X216917Y299933D02*
Y304067D01*
X219083Y299933D02*
Y304067D01*
X216917Y299933D02*
X219083D01*
X216917Y304067D02*
X219083D01*
X207870Y298555D02*
Y305445D01*
X204130Y298555D02*
Y305445D01*
X207870D01*
X204130Y298555D02*
X207870D01*
X196130Y297555D02*
X199870D01*
X196130Y304445D02*
X199870D01*
X196130Y297555D02*
Y304445D01*
X199870Y297555D02*
Y304445D01*
X184555Y290870D02*
X191445D01*
X184555Y287130D02*
X191445D01*
X184555D02*
Y290870D01*
X191445Y287130D02*
Y290870D01*
X192345Y280630D02*
Y284370D01*
X185455Y280630D02*
Y284370D01*
Y280630D02*
X192345D01*
X185455Y284370D02*
X192345D01*
X68094Y343047D02*
X79905D01*
X68094Y348953D02*
X79905D01*
Y343047D02*
Y348953D01*
X68094Y343047D02*
Y348953D01*
Y418047D02*
Y423953D01*
X79905Y418047D02*
Y423953D01*
X68094D02*
X79905D01*
X68094Y418047D02*
X79905D01*
X237083Y299933D02*
Y304067D01*
X234917Y299933D02*
Y304067D01*
X237083D01*
X234917Y299933D02*
X237083D01*
X232083D02*
Y304067D01*
X229917Y299933D02*
Y304067D01*
X232083D01*
X229917Y299933D02*
X232083D01*
X355921Y52945D02*
X396079D01*
X355921Y71055D02*
X396079D01*
X355921Y52945D02*
Y71055D01*
X396079Y52945D02*
Y71055D01*
X195244Y43768D02*
Y52232D01*
X200756Y43768D02*
Y52232D01*
X195244D02*
X200756D01*
X195244Y43768D02*
X200756D01*
X56445Y27130D02*
Y30870D01*
X49555Y27130D02*
Y30870D01*
Y27130D02*
X56445D01*
X49555Y30870D02*
X56445D01*
X49555Y37870D02*
X56445D01*
X49555Y34130D02*
X56445D01*
X49555D02*
Y37870D01*
X56445Y34130D02*
Y37870D01*
X75905Y69778D02*
Y73519D01*
X82795Y69778D02*
Y73519D01*
X75905D02*
X82795D01*
X75905Y69778D02*
X82795D01*
X52083Y66933D02*
Y71067D01*
X49917Y66933D02*
Y71067D01*
X52083D01*
X49917Y66933D02*
X52083D01*
X260555Y110130D02*
X267445D01*
X260555Y113870D02*
X267445D01*
Y110130D02*
Y113870D01*
X260555Y110130D02*
Y113870D01*
X214130Y227445D02*
X217870D01*
X214130Y220555D02*
X217870D01*
Y227445D01*
X214130Y220555D02*
Y227445D01*
X326230Y369355D02*
Y376245D01*
X329970Y369355D02*
Y376245D01*
X326230Y369355D02*
X329970D01*
X326230Y376245D02*
X329970D01*
X84335Y294615D02*
Y310953D01*
X67996Y294615D02*
Y310953D01*
Y294615D02*
X84335D01*
X67996Y310953D02*
X84335D01*
X68094Y399297D02*
X79905D01*
X68094Y405203D02*
X79905D01*
Y399297D02*
Y405203D01*
X68094Y399297D02*
Y405203D01*
X368857Y310953D02*
X385195D01*
X368857Y294615D02*
X385195D01*
X368857D02*
Y310953D01*
X385195Y294615D02*
Y310953D01*
X60267Y298717D02*
Y300883D01*
X56133Y298717D02*
Y300883D01*
Y298717D02*
X60267D01*
X56133Y300883D02*
X60267D01*
X64353Y317011D02*
X66518D01*
X64353Y321145D02*
X66518D01*
X64353Y317011D02*
Y321145D01*
X66518Y317011D02*
Y321145D01*
X55741Y283533D02*
X59875D01*
X55741Y281368D02*
X59875D01*
X55741D02*
Y283533D01*
X59875Y281368D02*
Y283533D01*
X55741Y288233D02*
X59875D01*
X55741Y286068D02*
X59875D01*
X55741D02*
Y288233D01*
X59875Y286068D02*
Y288233D01*
X60267Y307417D02*
Y309583D01*
X56133Y307417D02*
Y309583D01*
Y307417D02*
X60267D01*
X56133Y309583D02*
X60267D01*
X60395Y271620D02*
X67284D01*
X60395Y267880D02*
X67284D01*
X60395D02*
Y271620D01*
X67284Y267880D02*
Y271620D01*
X60395Y278021D02*
X67284D01*
X60395Y274280D02*
X67284D01*
X60395D02*
Y278021D01*
X67284Y274280D02*
Y278021D01*
X74469Y275846D02*
X78209D01*
X74469Y268956D02*
X78209D01*
Y275846D01*
X74469Y268956D02*
Y275846D01*
X90757Y272918D02*
Y277052D01*
X92922Y272918D02*
Y277052D01*
X90757Y272918D02*
X92922D01*
X90757Y277052D02*
X92922D01*
X90033Y289568D02*
X94167D01*
X90033Y291733D02*
X94167D01*
Y289568D02*
Y291733D01*
X90033Y289568D02*
Y291733D01*
Y298228D02*
Y300393D01*
X94167Y298228D02*
Y300393D01*
X90033D02*
X94167D01*
X90033Y298228D02*
X94167D01*
X90033Y293898D02*
Y296063D01*
X94167Y293898D02*
Y296063D01*
X90033D02*
X94167D01*
X90033Y293898D02*
X94167D01*
X90033Y311217D02*
Y313383D01*
X94167Y311217D02*
Y313383D01*
X90033D02*
X94167D01*
X90033Y311217D02*
X94167D01*
X90033Y302557D02*
Y304723D01*
X94167Y302557D02*
Y304723D01*
X90033D02*
X94167D01*
X90033Y302557D02*
X94167D01*
X95257Y273312D02*
X97422D01*
X95257Y277446D02*
X97422D01*
X95257Y273312D02*
Y277446D01*
X97422Y273312D02*
Y277446D01*
X100057Y272918D02*
Y277052D01*
X102222Y272918D02*
Y277052D01*
X100057Y272918D02*
X102222D01*
X100057Y277052D02*
X102222D01*
X60195Y303117D02*
Y305283D01*
X56061Y303117D02*
Y305283D01*
Y303117D02*
X60195D01*
X56061Y305283D02*
X60195D01*
X85657Y272918D02*
Y277052D01*
X87822Y272918D02*
Y277052D01*
X85657Y272918D02*
X87822D01*
X85657Y277052D02*
X87822D01*
X358733Y287183D02*
X362867D01*
X358733Y285017D02*
X362867D01*
X358733D02*
Y287183D01*
X362867Y285017D02*
Y287183D01*
X356061Y309683D02*
X360195D01*
X356061Y307517D02*
X360195D01*
X356061D02*
Y309683D01*
X360195Y307517D02*
Y309683D01*
X356755Y272970D02*
X363645D01*
X356755Y269230D02*
X363645D01*
X356755D02*
Y272970D01*
X363645Y269230D02*
Y272970D01*
X356755Y280570D02*
X363645D01*
X356755Y276830D02*
X363645D01*
X356755D02*
Y280570D01*
X363645Y276830D02*
Y280570D01*
X358639Y292983D02*
X362773D01*
X358639Y290817D02*
X362773D01*
X358639D02*
Y292983D01*
X362773Y290817D02*
Y292983D01*
X356061Y304283D02*
X360195D01*
X356061Y302117D02*
X360195D01*
X356061D02*
Y304283D01*
X360195Y302117D02*
Y304283D01*
X356061Y300383D02*
X360195D01*
X356061Y298217D02*
X360195D01*
X356061D02*
Y300383D01*
X360195Y298217D02*
Y300383D01*
X373095Y418047D02*
Y423953D01*
X384906Y418047D02*
Y423953D01*
X373095D02*
X384906D01*
X373095Y418047D02*
X384906D01*
X373095Y399297D02*
Y405203D01*
X384906Y399297D02*
Y405203D01*
X373095D02*
X384906D01*
X373095Y399297D02*
X384906D01*
X373095Y380547D02*
Y386453D01*
X384906Y380547D02*
Y386453D01*
X373095D02*
X384906D01*
X373095Y380547D02*
X384906D01*
X373095Y343047D02*
Y348953D01*
X384906Y343047D02*
Y348953D01*
X373095D02*
X384906D01*
X373095Y343047D02*
X384906D01*
X369230Y271691D02*
Y278581D01*
X372970Y271691D02*
Y278581D01*
X369230Y271691D02*
X372970D01*
X369230Y278581D02*
X372970D01*
X356061Y313683D02*
X360195D01*
X356061Y311517D02*
X360195D01*
X356061D02*
Y313683D01*
X360195Y311517D02*
Y313683D01*
X371708Y317233D02*
Y321367D01*
X369542Y317233D02*
Y321367D01*
X371708D01*
X369542Y317233D02*
X371708D01*
X378117Y274939D02*
Y279073D01*
X380283Y274939D02*
Y279073D01*
X378117Y274939D02*
X380283D01*
X378117Y279073D02*
X380283D01*
X384283Y317233D02*
Y321367D01*
X382117Y317233D02*
Y321367D01*
X384283D01*
X382117Y317233D02*
X384283D01*
X383517Y274939D02*
Y279073D01*
X385683Y274939D02*
Y279073D01*
X383517Y274939D02*
X385683D01*
X383517Y279073D02*
X385683D01*
X375983Y317233D02*
Y321367D01*
X373817Y317233D02*
Y321367D01*
X375983D01*
X373817Y317233D02*
X375983D01*
X388417Y275333D02*
X390583D01*
X388417Y279467D02*
X390583D01*
X388417Y275333D02*
Y279467D01*
X390583Y275333D02*
Y279467D01*
X391933Y288717D02*
Y290883D01*
X396067Y288717D02*
Y290883D01*
X391933D02*
X396067D01*
X391933Y288717D02*
X396067D01*
X391933Y298017D02*
Y300183D01*
X396067Y298017D02*
Y300183D01*
X391933D02*
X396067D01*
X391933Y298017D02*
X396067D01*
X391933Y293417D02*
Y295583D01*
X396067Y293417D02*
Y295583D01*
X391933D02*
X396067D01*
X391933Y293417D02*
X396067D01*
X391933Y302457D02*
X396067D01*
X391933Y304623D02*
X396067D01*
Y302457D02*
Y304623D01*
X391933Y302457D02*
Y304623D01*
Y310617D02*
Y312783D01*
X396067Y310617D02*
Y312783D01*
X391933D02*
X396067D01*
X391933Y310617D02*
X396067D01*
X391933Y306517D02*
Y308683D01*
X396067Y306517D02*
Y308683D01*
X391933D02*
X396067D01*
X391933Y306517D02*
X396067D01*
X367483Y317233D02*
Y321367D01*
X365317Y317233D02*
Y321367D01*
X367483D01*
X365317Y317233D02*
X367483D01*
X373095Y361797D02*
Y367703D01*
X384906Y361797D02*
Y367703D01*
X373095D02*
X384906D01*
X373095Y361797D02*
X384906D01*
X389283Y317233D02*
Y321367D01*
X387117Y317233D02*
Y321367D01*
X389283D01*
X387117Y317233D02*
X389283D01*
X68817Y317011D02*
X70983D01*
X68817Y321145D02*
X70983D01*
X68817Y317011D02*
Y321145D01*
X70983Y317011D02*
Y321145D01*
X80617Y317011D02*
X82783D01*
X80617Y321145D02*
X82783D01*
X80617Y317011D02*
Y321145D01*
X82783Y317011D02*
Y321145D01*
X72953Y317011D02*
X75118D01*
X72953Y321145D02*
X75118D01*
X72953Y317011D02*
Y321145D01*
X75118Y317011D02*
Y321145D01*
X68094Y380547D02*
Y386453D01*
X79905Y380547D02*
Y386453D01*
X68094D02*
X79905D01*
X68094Y380547D02*
X79905D01*
X90033Y306887D02*
Y309053D01*
X94167Y306887D02*
Y309053D01*
X90033D02*
X94167D01*
X90033Y306887D02*
X94167D01*
X68094Y361797D02*
Y367703D01*
X79905Y361797D02*
Y367703D01*
X68094D02*
X79905D01*
X68094Y361797D02*
X79905D01*
X84657Y317011D02*
X86822D01*
X84657Y321145D02*
X86822D01*
X84657Y317011D02*
Y321145D01*
X86822Y317011D02*
Y321145D01*
X60267Y311617D02*
Y313783D01*
X56133Y311617D02*
Y313783D01*
Y311617D02*
X60267D01*
X56133Y313783D02*
X60267D01*
X195244Y57768D02*
Y66232D01*
X200756Y57768D02*
Y66232D01*
X195244D02*
X200756D01*
X195244Y57768D02*
X200756D01*
X238135Y227219D02*
X242465D01*
X238135Y229581D02*
X242465D01*
Y227219D02*
Y229581D01*
X238135Y227219D02*
Y229581D01*
X255035Y271619D02*
X259365D01*
X255035Y273981D02*
X259365D01*
Y271619D02*
Y273981D01*
X255035Y271619D02*
Y273981D01*
X254430Y236545D02*
X258170D01*
X254430Y229655D02*
X258170D01*
Y236545D01*
X254430Y229655D02*
Y236545D01*
X247430Y228805D02*
Y235695D01*
X251170Y228805D02*
Y235695D01*
X247430Y228805D02*
X251170D01*
X247430Y235695D02*
X251170D01*
X200330Y227346D02*
X204070D01*
X200330Y220654D02*
X204070D01*
Y227346D01*
X200330Y220654D02*
Y227346D01*
X261730Y236645D02*
X265470D01*
X261730Y229755D02*
X265470D01*
Y236645D01*
X261730Y229755D02*
Y236645D01*
X205415Y241315D02*
X244785D01*
X205415Y280685D02*
X244785D01*
Y241315D02*
Y280685D01*
X205415Y241315D02*
Y280685D01*
X183055Y254070D02*
X189945D01*
X183055Y250330D02*
X189945D01*
X183055D02*
Y254070D01*
X189945Y250330D02*
Y254070D01*
Y243830D02*
Y247570D01*
X183055Y243830D02*
Y247570D01*
Y243830D02*
X189945D01*
X183055Y247570D02*
X189945D01*
X207530Y228345D02*
X211270D01*
X207530Y221455D02*
X211270D01*
Y228345D01*
X207530Y221455D02*
Y228345D01*
X248130Y345654D02*
X251870D01*
X248130Y352346D02*
X251870D01*
X248130Y345654D02*
Y352346D01*
X251870Y345654D02*
Y352346D01*
X248130Y338201D02*
X251870D01*
X248130Y331311D02*
X251870D01*
Y338201D01*
X248130Y331311D02*
Y338201D01*
X261747Y190130D02*
Y193870D01*
X255053Y190130D02*
Y193870D01*
Y190130D02*
X261747D01*
X255053Y193870D02*
X261747D01*
X105353Y129730D02*
Y133470D01*
X112047Y129730D02*
Y133470D01*
X105353D02*
X112047D01*
X105353Y129730D02*
X112047D01*
X107233Y128083D02*
X111367D01*
X107233Y125917D02*
X111367D01*
X107233D02*
Y128083D01*
X111367Y125917D02*
Y128083D01*
X158130Y237445D02*
X161870D01*
X158130Y230555D02*
X161870D01*
Y237445D01*
X158130Y230555D02*
Y237445D01*
X161083Y246933D02*
Y251067D01*
X158917Y246933D02*
Y251067D01*
X161083D01*
X158917Y246933D02*
X161083D01*
X150765Y259219D02*
Y261581D01*
X146435Y259219D02*
Y261581D01*
Y259219D02*
X150765D01*
X146435Y261581D02*
X150765D01*
X158165Y282219D02*
Y284581D01*
X153835Y282219D02*
Y284581D01*
Y282219D02*
X158165D01*
X153835Y284581D02*
X158165D01*
X306830Y402555D02*
X310570D01*
X306830Y409445D02*
X310570D01*
X306830Y402555D02*
Y409445D01*
X310570Y402555D02*
Y409445D01*
X297617Y404870D02*
X299783D01*
X297617Y409004D02*
X299783D01*
X297617Y404870D02*
Y409004D01*
X299783Y404870D02*
Y409004D01*
X321617Y389067D02*
X323783D01*
X321617Y384933D02*
X323783D01*
Y389067D01*
X321617Y384933D02*
Y389067D01*
X319130Y368568D02*
Y375458D01*
X322870Y368568D02*
Y375458D01*
X319130Y368568D02*
X322870D01*
X319130Y375458D02*
X322870D01*
X333130Y376245D02*
X336870D01*
X333130Y369355D02*
X336870D01*
Y376245D01*
X333130Y369355D02*
Y376245D01*
X277019Y363135D02*
Y367465D01*
X279381Y363135D02*
Y367465D01*
X277019Y363135D02*
X279381D01*
X277019Y367465D02*
X279381D01*
Y352135D02*
Y356465D01*
X277019Y352135D02*
Y356465D01*
X279381D01*
X277019Y352135D02*
X279381D01*
X339130Y127654D02*
X342870D01*
X339130Y134346D02*
X342870D01*
X339130Y127654D02*
Y134346D01*
X342870Y127654D02*
Y134346D01*
X339130Y83496D02*
X342870D01*
X339130Y76803D02*
X342870D01*
Y83496D01*
X339130Y76803D02*
Y83496D01*
X332130Y48803D02*
X335870D01*
X332130Y55496D02*
X335870D01*
X332130Y48803D02*
Y55496D01*
X335870Y48803D02*
Y55496D01*
X356630Y84055D02*
X360370D01*
X356630Y90945D02*
X360370D01*
X356630Y84055D02*
Y90945D01*
X360370Y84055D02*
Y90945D01*
X373445Y36130D02*
Y39870D01*
X366555Y36130D02*
Y39870D01*
Y36130D02*
X373445D01*
X366555Y39870D02*
X373445D01*
X347555Y28870D02*
X354445D01*
X347555Y25130D02*
X354445D01*
X347555D02*
Y28870D01*
X354445Y25130D02*
Y28870D01*
X355445Y33130D02*
Y36870D01*
X348555Y33130D02*
Y36870D01*
Y33130D02*
X355445D01*
X348555Y36870D02*
X355445D01*
X278617Y388902D02*
X280783D01*
X278617Y393035D02*
X280783D01*
X278617Y388902D02*
Y393035D01*
X280783Y388902D02*
Y393035D01*
X274317Y393267D02*
X276483D01*
X274317Y389133D02*
X276483D01*
Y393267D01*
X274317Y389133D02*
Y393267D01*
X287567Y373017D02*
Y375183D01*
X283433Y373017D02*
Y375183D01*
Y373017D02*
X287567D01*
X283433Y375183D02*
X287567D01*
X283035Y383317D02*
Y385483D01*
X278902Y383317D02*
Y385483D01*
Y383317D02*
X283035D01*
X278902Y385483D02*
X283035D01*
X253933Y97917D02*
Y100083D01*
X258067Y97917D02*
Y100083D01*
X253933D02*
X258067D01*
X253933Y97917D02*
X258067D01*
X253693Y81457D02*
Y88543D01*
X240307Y81457D02*
Y88543D01*
Y81457D02*
X253693D01*
X240307Y88543D02*
X253693D01*
X248406Y75870D02*
X255295D01*
X248406Y72130D02*
X255295D01*
X248406D02*
Y75870D01*
X255295Y72130D02*
Y75870D01*
X256445Y64130D02*
Y67870D01*
X249555Y64130D02*
Y67870D01*
Y64130D02*
X256445D01*
X249555Y67870D02*
X256445D01*
X209343Y59669D02*
X214657D01*
X209343Y68331D02*
X214657D01*
X209343Y59669D02*
Y68331D01*
X214657Y59669D02*
Y68331D01*
X222179Y80276D02*
X229069D01*
X222179Y84016D02*
X229069D01*
Y80276D02*
Y84016D01*
X222179Y80276D02*
Y84016D01*
X221029Y87276D02*
Y91016D01*
X227919Y87276D02*
Y91016D01*
X221029D02*
X227919D01*
X221029Y87276D02*
X227919D01*
X53768Y45244D02*
Y50756D01*
X62232Y45244D02*
Y50756D01*
X53768Y45244D02*
X62232D01*
X53768Y50756D02*
X62232D01*
X55217Y66933D02*
X57383D01*
X55217Y71067D02*
X57383D01*
X55217Y66933D02*
Y71067D01*
X57383Y66933D02*
Y71067D01*
X63320Y79002D02*
Y85695D01*
X59580Y79002D02*
Y85695D01*
X63320D01*
X59580Y79002D02*
X63320D01*
X142746Y35030D02*
Y38770D01*
X136054Y35030D02*
Y38770D01*
Y35030D02*
X142746D01*
X136054Y38770D02*
X142746D01*
X65680Y79002D02*
X69420D01*
X65680Y85695D02*
X69420D01*
X65680Y79002D02*
Y85695D01*
X69420Y79002D02*
Y85695D01*
X99707Y88142D02*
X106793D01*
X99707Y74756D02*
X106793D01*
Y88142D01*
X99707Y74756D02*
Y88142D01*
X112807D02*
X119893D01*
X112807Y74756D02*
X119893D01*
Y88142D01*
X112807Y74756D02*
Y88142D01*
X68357Y43007D02*
X75443D01*
X68357Y56393D02*
X75443D01*
X68357Y43007D02*
Y56393D01*
X75443Y43007D02*
Y56393D01*
X81857Y42907D02*
X88943D01*
X81857Y56293D02*
X88943D01*
X81857Y42907D02*
Y56293D01*
X88943Y42907D02*
Y56293D01*
X95057Y42907D02*
X102143D01*
X95057Y56293D02*
X102143D01*
X95057Y42907D02*
Y56293D01*
X102143Y42907D02*
Y56293D01*
X107957Y42807D02*
X115043D01*
X107957Y56193D02*
X115043D01*
X107957Y42807D02*
Y56193D01*
X115043Y42807D02*
Y56193D01*
X162181Y293835D02*
Y298165D01*
X159819Y293835D02*
Y298165D01*
X162181D01*
X159819Y293835D02*
X162181D01*
X159819Y305410D02*
Y309740D01*
X162181Y305410D02*
Y309740D01*
X159819Y305410D02*
X162181D01*
X159819Y309740D02*
X162181D01*
X291773Y394910D02*
X311458D01*
X291773Y379162D02*
X311458D01*
X291773D02*
Y394910D01*
X311458Y379162D02*
Y394910D01*
X256130Y279405D02*
X259870D01*
X256130Y286295D02*
X259870D01*
X256130Y279405D02*
Y286295D01*
X259870Y279405D02*
Y286295D01*
X193330Y220654D02*
Y227346D01*
X197070Y220654D02*
Y227346D01*
X193330Y220654D02*
X197070D01*
X193330Y227346D02*
X197070D01*
X318170Y276255D02*
Y283145D01*
X314430Y276255D02*
Y283145D01*
X318170D01*
X314430Y276255D02*
X318170D01*
X269870Y279555D02*
Y286445D01*
X266130Y279555D02*
Y286445D01*
X269870D01*
X266130Y279555D02*
X269870D01*
X207555Y408870D02*
X214445D01*
X207555Y405130D02*
X214445D01*
X207555D02*
Y408870D01*
X214445Y405130D02*
Y408870D01*
X239653Y406009D02*
X246346D01*
X239653Y409750D02*
X246346D01*
Y406009D02*
Y409750D01*
X239653Y406009D02*
Y409750D01*
X221654D02*
X228346D01*
X221654Y406009D02*
X228346D01*
X221654D02*
Y409750D01*
X228346Y406009D02*
Y409750D01*
X126157Y86417D02*
X145843D01*
X126157Y63583D02*
X145843D01*
Y86417D01*
X126157Y63583D02*
Y86417D01*
D148*
X136000Y84880D02*
D03*
M02*
